<?xml version="1.0" encoding="iso-8859-1"?>
<!-- Generator: Adobe Illustrator 19.1.0, SVG Export Plug-In . SVG Version: 6.00 Build 0)  -->
<!DOCTYPE svg PUBLIC "-//W3C//DTD SVG 1.1//EN" "http://www.w3.org/Graphics/SVG/1.1/DTD/svg11.dtd">
<svg version="1.1" id="Layer_1" xmlns="http://www.w3.org/2000/svg" xmlns:xlink="http://www.w3.org/1999/xlink" x="0px" y="0px"
	 viewBox="0 0 281.748 293.058" style="enable-background:new 0 0 281.748 293.058;" xml:space="preserve">
<g>
	<defs>
		<path id="SVGID_3_" d="M259.03,184.457v-76.601c14-4.433,22.718-16.829,22.718-31.421c0-18.298-14.824-33.184-33.122-33.184
			c-11.6,0-21.782,5.993-27.716,15.035L149.021,35.23c0.042-0.68,0.111-1.355,0.111-2.046C149.133,14.886,134.25,0,115.952,0
			S82.769,14.886,82.769,33.184c0,7.915,2.795,15.184,7.436,20.893l-45.993,61.191c-3.457-1.223-7.158-1.924-11.028-1.924
			C14.886,113.344,0,128.231,0,146.529s14.887,33.184,33.185,33.184c3.878,0,7.586-0.703,11.048-1.931L90.02,239.23
			c-4.524,5.672-7.248,12.841-7.248,20.643c0,18.298,14.886,33.184,33.184,33.184s33.184-14.886,33.184-33.184
			c0-0.951-0.064-1.887-0.143-2.819l71.734-23.371c5.9,9.23,16.213,15.379,27.957,15.379c18.298,0,33.06-14.886,33.06-33.184
			C281.748,201.286,273.03,188.89,259.03,184.457z M64.683,136.487l44.348-14.302v48.254l-44.249-14.171
			c0.948-3.081,1.464-6.351,1.464-9.739C66.245,143.029,65.692,139.657,64.683,136.487z M119.03,66.201
			c6-0.568,11.078-2.586,15.558-5.668l25.027,34.9l-40.585,13.031V66.201z M135.466,233.182c-4.666-3.442-10.436-5.719-16.436-6.325
			V184.13l41.797,13.328L135.466,233.182z M119.03,173.632v-54.664l46.78-15.004l31.026,43.072l-29.89,41.867L119.03,173.632z
			 M228.464,102.684l-25.438,35.743l-27.087-37.68l41.47-13.336C219.559,93.517,223.434,98.8,228.464,102.684z M203.067,155.616
			l24.782,34.472c-4.755,3.849-8.404,8.989-10.463,14.875l-40.283-12.865L203.067,155.616z M249.03,182.723
			c0-0.004-0.267-0.03-0.466-0.03c-4.295,0-8.326,0.847-12.097,2.338l-27.305-38.025l28.094-39.454
			c3.566,1.313,7.284,2.066,11.3,2.066c0.199,0,0.474-0.026,0.474-0.03V182.723z M216.773,67.452
			c-0.807,2.862-1.269,5.867-1.269,8.983c0,0.36,0.043,0.71,0.054,1.068l-45.753,14.714l-27.752-38.604
			c2.021-2.577,3.661-5.456,4.856-8.562L216.773,67.452z M97.517,60.832c3.478,2.312,7.513,3.995,11.513,4.862v45.985
			l-48.874,15.757c-1.99-2.816-4.411-5.297-7.161-7.373L97.517,60.832z M60.359,165.351l48.671,15.583v46.429
			c-4,0.888-8.228,2.622-11.767,5.02l-44.258-59.396C55.841,170.845,58.335,168.278,60.359,165.351z M146.651,247.303
			c-1.019-2.479-2.344-4.794-3.904-6.931l28.268-39.721l44.539,14.224c-0.01,0.336-0.051,0.664-0.051,1.002
			c0,2.982,0.432,5.859,1.173,8.611L146.651,247.303z"/>
	</defs>
	<use xlink:href="#SVGID_3_"  style="overflow:visible;fill:#333333;"/>
	<clipPath id="SVGID_1_">
		<use xlink:href="#SVGID_3_"  style="overflow:visible;"/>
	</clipPath>
</g>
</svg>
