<?xml version="1.0" encoding="utf-8"?>
<!-- Generator: Adobe Illustrator 19.1.0, SVG Export Plug-In . SVG Version: 6.00 Build 0)  -->
<!DOCTYPE svg PUBLIC "-//W3C//DTD SVG 1.1//EN" "http://www.w3.org/Graphics/SVG/1.1/DTD/svg11.dtd">
<svg version="1.1" id="illustrations" xmlns="http://www.w3.org/2000/svg" xmlns:xlink="http://www.w3.org/1999/xlink" x="0px"
	 y="0px" viewBox="-425 240.9 108.9 81.1" style="enable-background:new -425 240.9 108.9 81.1;" xml:space="preserve">
<style type="text/css">
	.st0{fill:#303030;}
	.st1{fill:#F0F0F0;}
	.st2{fill:#808080;}
	.st3{fill:#1BD1E0;}
	.st4{fill:#4D5A68;}
	.st5{fill:#505050;}
	.st6{fill:#ECC19C;}
	.st7{fill:#E02634;}
	.st8{fill:#E6515D;}
	.st9{fill:#F0D0B4;}
	.st10{fill:#8D5C3E;}
	.st11{fill:#6D3C1F;}
	.st12{fill:#F5E0CD;}
	.st13{fill:#E0A131;}
	.st14{fill:#8CC63F;}
	.st15{fill:#31D4E0;}
	.st16{fill:#6A26E0;}
	.st17{fill:#606060;}
	.st18{fill:#D0D0D0;}
	.st19{fill:#DEAD8E;}
	.st20{fill:#EAB99A;}
	.st21{fill:#F5C4A5;}
	.st22{fill:#A4EDF3;}
	.st23{fill:#D1F6F9;}
	.st24{fill:#859596;}
	.st25{fill:#F3CFB8;}
	.st26{fill:#073438;}
	.st27{fill:#909090;}
	.st28{fill:#7D4921;}
	.st29{fill:#8E572A;}
	.st30{fill:#A46C35;}
	.st31{fill:#3F2511;}
	.st32{fill:#0E6970;}
	.st33{fill:#C0C0C0;}
	.st34{fill:#E0E0E0;}
	.st35{fill:#C5D5D6;}
</style>
<path class="st0" d="M-364.3,318.9h-13c-0.6,0-1-0.5-1-1l0,0c0-0.6,0.5-1,1-1h13c0.6,0,1,0.5,1,1l0,0
	C-363.2,318.4-363.7,318.9-364.3,318.9z"/>
<path d="M-389,317.4l0.4,2.3h2.5v-0.5l2.5,0.5h7.1l-0.3-1.1c0,0-5.2-1.2-6.3-3.1L-389,317.4z"/>
<rect x="-398.5" y="241.4" class="st1" width="51.8" height="36.7"/>
<path class="st2" d="M-346.2,278.7H-399v-37.7h52.8C-346.2,240.9-346.2,278.7-346.2,278.7z M-398,277.7h50.8v-35.7H-398V277.7z"/>
<path class="st3" d="M-395.3,270.2c-0.1,0-0.1,0-0.2-0.1c-0.2-0.1-0.4-0.4-0.2-0.7l3.3-6.8c0.1-0.2,0.2-0.3,0.4-0.3
	c0.2,0,0.3,0.1,0.4,0.2l3.4,4.5l7.3-16.8c0.1-0.2,0.3-0.3,0.5-0.3c0.2,0,0.4,0.1,0.5,0.3l3.6,10l10.5-14.4c0.1-0.1,0.3-0.2,0.5-0.2
	c0.2,0,0.3,0.1,0.4,0.3l5.7,14.5l7.5-15.7c0.1-0.2,0.4-0.4,0.7-0.2c0.2,0.1,0.4,0.4,0.2,0.7l-8,16.8c-0.1,0.2-0.3,0.3-0.5,0.3
	c-0.2,0-0.4-0.1-0.4-0.3l-5.8-14.8l-10.5,14.5c-0.1,0.1-0.3,0.2-0.5,0.2c-0.2,0-0.3-0.2-0.4-0.3l-3.4-9.7l-7.1,16.4
	c-0.1,0.2-0.2,0.3-0.4,0.3c-0.2,0-0.4-0.1-0.5-0.2l-3.4-4.5l-3,6.1C-394.9,270.1-395.1,270.2-395.3,270.2z"/>
<path d="M-353.3,318.2l0.5,2.3l-3.4,0l-2.5,0h-7.1l-0.2-1.1c0,0,6.9-0.6,7.9-4.7L-353.3,318.2z"/>
<polygon class="st0" points="-420.1,292.7 -421,296.2 -419.2,298.5 -399.4,296.9 -387.8,319.1 -382.7,315 -396,291.8 -408.8,290.3 
	"/>
<path class="st0" d="M-363.5,290.7h-14.9c-0.9,0-1.6-0.7-1.6-1.6v-18c0-0.9,0.7-1.6,1.6-1.6h14.9c0.9,0,1.6,0.7,1.6,1.6v18
	C-362,290-362.7,290.7-363.5,290.7z"/>
<path class="st0" d="M-370.8,318.4L-370.8,318.4c-0.5,0-0.8-0.4-0.8-0.8v-19c0-0.5,0.4-0.8,0.8-0.8l0,0c0.5,0,0.8,0.4,0.8,0.8v19
	C-369.9,318-370.3,318.4-370.8,318.4z"/>
<path class="st0" d="M-414.1,320.4L-414.1,320.4c-0.5,0-0.8-0.4-0.8-0.8v-19c0-0.5,0.4-0.8,0.8-0.8l0,0c0.5,0,0.8,0.4,0.8,0.8v19
	C-413.2,320-413.6,320.4-414.1,320.4z"/>
<path class="st0" d="M-407.6,320.8h-13c-0.6,0-1-0.5-1-1l0,0c0-0.6,0.5-1,1-1h13c0.6,0,1,0.5,1,1l0,0
	C-406.5,320.4-407,320.8-407.6,320.8z"/>
<path class="st0" d="M-361.7,299.4h-18.5c-0.9,0-1.6-0.7-1.6-1.6v-0.6c0-0.9,0.7-1.6,1.6-1.6h18.5c0.9,0,1.6,0.7,1.6,1.6v0.6
	C-360.2,298.7-360.9,299.4-361.7,299.4z"/>
<path class="st0" d="M-402.9,302.1h-18.5c-0.9,0-1.6-0.7-1.6-1.6V300c0-0.9,0.7-1.6,1.6-1.6h18.5c0.9,0,1.6,0.7,1.6,1.6v0.6
	C-401.4,301.4-402.1,302.1-402.9,302.1z"/>
<path class="st4" d="M-363.8,292.6h-14.9c-0.3,0-0.6-0.2-0.6-0.5v-2.4c0-0.3,0.2-0.5,0.6-0.5h14.9c0.3,0,0.5,0.2,0.5,0.5v2.4
	C-363.2,292.3-363.5,292.6-363.8,292.6z"/>
<path class="st5" d="M-365.2,297.7h-11.7c-1.6,0-2.9-1.3-2.9-2.9v-0.7c0-1.6,1.3-2.9,2.9-2.9h11.7c1.6,0,2.9,1.3,2.9,2.9v0.7
	C-362.3,296.4-363.6,297.7-365.2,297.7z"/>
<path class="st0" d="M-363.7,296c0,1.9-3.4,1.7-7.4,1.7c-4,0-7.2,0.3-7.2-1.7c0-1.9,3.3-3.5,7.3-3.5
	C-367,292.6-363.7,294.1-363.7,296z"/>
<path class="st6" d="M-371.9,295.8c0-0.1,0-0.1,0-0.2c0-0.8-1.1-2.1-2.4-2.1c-1.3,0-2.4,1.4-2.4,2.1c0,0.1,0,0.1,0,0.2h0
	c0,0-0.4,5.4-0.3,8.4c0.1,3.1,1.8,11.9,1.7,12.9c-0.1,1,2,0,2,0s1.1-7.3,1.5-12.8C-371.4,300.3-371.8,296.8-371.9,295.8z"/>
<path class="st6" d="M-365.4,295.8L-365.4,295.8c0-0.1,0-0.1,0-0.2c0-0.8-1.1-2.1-2.4-2.1c-1.3,0-2.4,1.4-2.4,2.1c0,0.1,0,0.2,0,0.2
	c-0.1,0.9-0.5,4.5-0.2,8.5c0.4,5.4,1.5,12.8,1.5,12.8s2.1,1,2,0c-0.1-1,1.6-9.8,1.7-12.9C-365,301.1-365.4,295.8-365.4,295.8z"/>
<path class="st7" d="M-372.6,318.4c-0.1-0.3-0.4-0.5-0.7-0.5h-0.8h-0.8c-0.3,0-0.6,0.2-0.7,0.5l-0.7,1.9c0,0.1-0.1,0.2-0.1,0.3v0.5
	c0,0.2,0.1,0.3,0.2,0.5l0.3,0.5h1.8h1.8l0.3-0.5c0.1-0.1,0.2-0.3,0.2-0.5v-0.5c0-0.1,0-0.2-0.1-0.3L-372.6,318.4z"/>
<path class="st7" d="M-366.4,318.4c-0.1-0.3-0.4-0.5-0.7-0.5h-0.8h-0.8c-0.3,0-0.6,0.2-0.7,0.5l-0.7,1.9c0,0.1-0.1,0.2-0.1,0.3v0.5
	c0,0.2,0.1,0.3,0.2,0.5l0.3,0.5h1.8h1.8l0.3-0.5c0.1-0.1,0.2-0.3,0.2-0.5v-0.5c0-0.1,0-0.2-0.1-0.3L-366.4,318.4z"/>
<path class="st6" d="M-372.7,318.6c0,0.8-0.6,1.4-1.4,1.4l0,0c-0.8,0-1.4-0.6-1.4-1.4l0.4-2.1c0-0.8,0.2-2.9,1-2.9l0,0
	c0.8,0,1,2.1,1,2.9L-372.7,318.6z"/>
<path class="st6" d="M-366.5,318.5c0,0.8-0.6,1.4-1.4,1.4l0,0c-0.8,0-1.4-0.6-1.4-1.4l0.4-2.1c0-0.8,0.2-2.9,1-2.9l0,0
	c0.8,0,1,2.1,1,2.9L-366.5,318.5z"/>
<path class="st8" d="M-373,322h-2.3c-0.2,0-0.3-0.1-0.3-0.3l0,0c0-0.2,0.1-0.3,0.3-0.3h2.3c0.2,0,0.3,0.1,0.3,0.3l0,0
	C-372.7,321.9-372.8,322-373,322z"/>
<path class="st8" d="M-366.7,322h-2.3c-0.2,0-0.3-0.1-0.3-0.3l0,0c0-0.2,0.1-0.3,0.3-0.3h2.3c0.2,0,0.3,0.1,0.3,0.3l0,0
	C-366.5,321.8-366.6,322-366.7,322z"/>
<path class="st9" d="M-382.7,283.5C-382.7,283.5-382.7,283.5-382.7,283.5c3.9,1,7.3,1.9,10,2.6c0.5,0.1,0.9,0.2,1.3,0.3l0,1.6
	c-0.4,0-0.9-0.1-1.3-0.1c-2.9-0.3-6.1-1-9.5-2L-382.7,283.5z"/>
<path class="st9" d="M-359.3,283.5C-359.3,283.5-359.3,283.5-359.3,283.5c-3.9,1-7.3,1.9-10,2.6c-0.5,0.1-0.9,0.2-1.3,0.3l0,1.6
	c0.4,0,0.9-0.1,1.3-0.1c2.9-0.3,6.1-1,9.5-2L-359.3,283.5z"/>
<path class="st10" d="M-366.3,274.4c1.1-4.4,2-8.3,2-10c0-4.3-2.9-7.9-6.6-7.9c-3.6,0-6.6,3.5-6.6,7.9c0,1.6,0.9,5.6,2.1,10H-366.3z
	"/>
<path class="st11" d="M-367.5,261.2c0,0,3.3,5.5-1.9,9.4l0,0l-3.7-0.3c0,0-2.3-2.5-1.7-4.9l0,0L-367.5,261.2L-367.5,261.2z"/>
<path class="st9" d="M-376.1,274.5c0,0.1-0.5,1.6-1.2,3.4c-0.1,0.1-0.1,0.3-0.2,0.4c-0.2,0.5-0.4,1.1-0.6,1.7c0,0,0,0,0,0
	c-0.1,0.1-0.1,0.3-0.2,0.4c-0.2,0.4-0.3,0.9-0.5,1.3l0,0.1c-0.4,1.1-0.4,2.2-0.5,3.2c-0.1,0.7-0.7,1.2-1.4,1.2h0
	c-1.1-0.7-1.4-0.7-1.7-2.2c-0.1-0.3-0.2-0.6-0.1-0.9c1-4,1.8-6,3.4-9.7c0,0,0-0.1,0-0.1c0.3-0.6,1-1,1.8-0.8c0,0,0.1,0,0.1,0
	c0.1,0,0.3,0.1,0.4,0.2C-376.2,273.1-375.9,273.8-376.1,274.5z"/>
<path class="st9" d="M-359.4,284c-0.3,1.5-0.6,1.4-1.7,2.2h0c-0.7,0-1.3-0.5-1.4-1.2c-0.1-0.9,0-2-0.5-3.2l0-0.1
	c-0.2-0.4-0.3-0.9-0.5-1.3c-0.3-0.9-0.7-1.7-0.9-2.5c-0.7-1.8-1.2-3.2-1.2-3.4c-0.2-0.7,0.1-1.4,0.6-1.7c0.1-0.1,0.2-0.1,0.4-0.2
	c0,0,0.1,0,0.1,0c0.7-0.2,1.4,0.2,1.8,0.8c0,0,0,0.1,0,0.1c1.6,3.6,2.4,5.7,3.4,9.7C-359.2,283.4-359.3,283.7-359.4,284z"/>
<path class="st9" d="M-363.8,277.9c0.4,0.4,0.6,0.9,0.6,1.4c0,0.4-0.1,0.7-0.3,1c-0.3,0.5-0.9,0.9-1.6,1.3c0,0,0,0-0.1,0
	c-0.1,0.1-0.3,0.1-0.4,0.2c0,0-0.1,0-0.1,0c0,0,0,0,0,0.1v0c-0.7,1.7-1.1,3.3-1.3,4.8h-8.2c-0.1-1.5-0.6-3-1.2-4.7
	c0-0.1,0-0.1-0.1-0.2c-0.2,0-0.3-0.1-0.5-0.2c-0.3-0.1-0.6-0.3-0.8-0.4c-0.3-0.2-0.6-0.5-0.8-0.8c-0.2-0.3-0.3-0.7-0.3-1
	c0-0.5,0.2-1,0.6-1.4l-1.1-4c0-0.7,0.7-1.4,1.5-1.4h1.9c0.7,0,1.2-0.2,1.7-0.4c0.3-0.1,0.6-0.3,0.8-0.6c0.1-0.1,0.2-0.2,0.3-0.3
	c0.3-0.5,0.5-1.1,0.6-1.7h2.9c0.1,0.7,0.3,1.3,0.6,1.7c0.1,0.1,0.2,0.2,0.3,0.3c0.2,0.2,0.5,0.4,0.8,0.6c0.5,0.2,1,0.3,1.7,0.4h1.8
	c0.9,0,1.6,0.6,1.6,1.4L-363.8,277.9z"/>
<path class="st12" d="M-363.9,279.8c0,0.8-0.5,1.5-1.2,1.9c0,0,0,0-0.1,0c-0.1,0.1-0.3,0.1-0.4,0.2c-0.1,0-0.1,0-0.1,0.1v0
	c-0.4,0.2-0.9,0.3-1.5,0.3c-1.8,0-3.2-1.1-3.2-2.5c0-1.4,1.5-2.5,3.2-2.5c0.5,0,1,0.1,1.4,0.3C-364.6,277.9-363.9,278.8-363.9,279.8
	z"/>
<path class="st12" d="M-371.8,279.8c0,1.4-1.5,2.5-3.2,2.5c-0.4,0-0.8-0.1-1.2-0.2c-0.2-0.1-0.4-0.1-0.5-0.2
	c-0.3-0.2-0.6-0.4-0.8-0.6c-0.4-0.4-0.6-0.8-0.7-1.3c0,0,0,0,0,0c0-0.1,0-0.1,0-0.2c0-0.5,0.2-1,0.6-1.4c0.3-0.3,0.6-0.5,1-0.7
	c0.5-0.2,1-0.3,1.6-0.3C-373.3,277.3-371.8,278.4-371.8,279.8z"/>
<path class="st9" d="M-366.9,263.9c0,2.9-1.8,6.4-4,6.4c-0.1,0-0.2,0-0.3,0c-2.1-0.3-3.7-3.6-3.7-6.4c0-2.8,1.6-5,3.7-5.2
	c0.1,0,0.2,0,0.3,0C-368.7,258.6-366.9,260.9-366.9,263.9z"/>
<path class="st12" d="M-367.5,263.9c0,2.8-1.6,6.1-3.7,6.4c-2.1-0.3-3.7-3.6-3.7-6.4c0-0.1,0-0.2,0-0.3c0.1-1.9,0.9-3.6,2.2-4.4
	c0.3-0.2,0.7-0.4,1.1-0.5l0,0c0,0,0,0,0,0c0.1,0,0.2,0,0.4-0.1c0.3,0,0.5,0.1,0.8,0.2c1.5,0.5,2.7,2.2,2.9,4.2
	C-367.6,263.3-367.5,263.6-367.5,263.9z"/>
<path class="st10" d="M-375.4,260.1c0,0,0.8,1.8,4,2.3c3.3,0.5,3.9,2,4.3,3c0,0,1.8-4.3-0.9-5.9
	C-370.8,257.8-374.2,257.3-375.4,260.1z"/>
<path class="st7" d="M-363.5,280.4c0.2,0.4,0.3,0.9,0.5,1.3l0,0.1c0.1,0.4,0.2,0.7,0.3,1c0.6-0.2,1.1-0.3,1.6-0.6
	c0.5-0.3,0.9-0.6,1.3-0.9c-0.8-3-1.6-4.9-2.9-8c0,0,0-0.1,0-0.1c-0.3-0.6-1-1-1.8-0.8h-1.7c-0.7,0-1.2-0.2-1.7-0.4l-3.1,2.9
	l-3.1-2.9c-0.5,0.2-1,0.3-1.7,0.4h-1.7c-0.7-0.2-1.5,0.2-1.8,0.8c0,0,0,0.1,0,0.1c-1.4,3.2-2.2,5.1-3,8.2c0.8,0.8,1.9,1.1,2.9,1.5
	c0.1-0.4,0.2-0.8,0.3-1.3l0-0.1c0.2-0.4,0.3-0.9,0.5-1.3c0.2,0.3,0.5,0.6,0.8,0.8c0.2,0.2,0.5,0.4,0.8,0.6c0.2,0.1,0.3,0.2,0.5,0.2
	c0.7,1.7,1.1,3.2,1.2,4.7h8.2c0.1-1.5,0.6-3.1,1.3-4.8v0c0.1,0,0.1,0,0.1-0.1c0.1-0.1,0.3-0.1,0.4-0.2c0,0,0,0,0.1,0
	C-364.3,281.4-363.8,280.9-363.5,280.4z"/>
<g>
	<g>
		<circle class="st7" cx="-580" cy="282.9" r="43.9"/>
	</g>
	<g>
		<circle class="st13" cx="-446.3" cy="99.8" r="43.9"/>
	</g>
	<g>
		<circle class="st14" cx="-231.9" cy="169.7" r="43.9"/>
	</g>
	<g>
		<circle class="st15" cx="-231.9" cy="395" r="43.9"/>
	</g>
	<g>
		<circle class="st16" cx="-446.3" cy="466" r="43.9"/>
	</g>
</g>
<path class="st0" d="M-361,288.2h-20c-0.2,0-0.4-0.2-0.4-0.4l0,0c0-0.2,0.2-0.4,0.4-0.4h20c0.2,0,0.4,0.2,0.4,0.4l0,0
	C-360.6,288.1-360.8,288.2-361,288.2z"/>
<path class="st0" d="M-389.3,288.2h-20c-0.2,0-0.4-0.2-0.4-0.4l0,0c0-0.2,0.2-0.4,0.4-0.4h20c0.2,0,0.4,0.2,0.4,0.4l0,0
	C-389,288.1-389.1,288.2-389.3,288.2z"/>
<path class="st17" d="M-362.1,278.5v9.1c0,0.4-0.3,0.7-0.7,0.7h-16.5c-0.4,0-0.7-0.3-0.7-0.7v-9.1c0-0.4,0.3-0.7,0.7-0.7h16.5
	C-362.4,277.8-362.1,278.1-362.1,278.5z"/>
<circle class="st18" cx="-371.2" cy="282.3" r="1.1"/>
<polygon class="st19" points="-416,271.5 -410.3,271.5 -410.7,264.1 -415.9,264.3 "/>
<polygon class="st20" points="-416.2,263.1 -412.7,267.7 -408.6,268 -407.8,267.5 -405.9,266.3 -408.9,257.8 -408.9,257.7 "/>
<polygon class="st21" points="-415.5,262.6 -412,267.2 -407.8,267.5 -405.9,266.3 -408.5,258.7 -412.2,257.1 "/>
<polygon class="st10" points="-411.3,258.3 -411.1,263.4 -412.5,262.5 -413.2,265.5 -415.8,266.9 -419.4,261.6 -418.6,257.1 
	-411.9,254.9 -412.1,255.7 -408.4,256.9 -407.8,259.4 "/>
<polygon class="st21" points="-405.9,263.2 -407.4,264.1 -408,260.7 "/>
<polygon class="st19" points="-410.6,271.1 -408,274.7 -413.1,273.6 -416,270.4 "/>
<polygon class="st22" points="-419,270.7 -415.8,268.9 -410.6,271.1 -408,274.7 -406.6,285.7 -408,291.8 -419.6,293.9 -420.5,291.9 
	-420.4,273.9 "/>
<polygon class="st5" points="-420.1,292.7 -421.6,297.3 -419.7,299.2 -401.3,298.7 -389.7,320.9 -384.2,317.6 -397.9,293.5 
	-410.7,292 "/>
<path class="st0" d="M-389,319.1l0.4,2.3h2.5v-0.5l2.5,0.5h7.1l-0.3-1.1c0,0-5.2-1.2-6.3-3.1L-389,319.1z"/>
<polygon class="st23" points="-415.8,268.9 -409.7,276.1 -409.3,272.9 -410.6,271.1 "/>
<rect x="-407.4" y="291.2" class="st24" width="3" height="30.5"/>
<path class="st0" d="M-421.7,294l-0.1,0c-0.7,0-1.4-0.6-1.4-1.3L-424,267c0-0.7,0.6-1.4,1.3-1.4l0.1,0c0.7,0,1.4,0.6,1.4,1.3
	l0.8,25.6C-420.4,293.3-420.9,293.9-421.7,294z"/>
<path class="st0" d="M-423,301c-0.2,0-0.5-0.1-0.7-0.3c-0.9-0.8-1.3-1.8-1.4-2.9c-0.1-2.9,2.6-5.6,2.9-5.9c0.4-0.4,1-0.4,1.4,0
	c0.4,0.4,0.4,1,0,1.4c-0.7,0.7-2.4,2.8-2.3,4.5c0,0.6,0.2,1.1,0.7,1.5c0.4,0.4,0.4,1,0.1,1.4C-422.4,300.9-422.7,301-423,301z"/>
<path class="st17" d="M-389.4,288.3h-0.1c-0.2,0-0.4-0.2-0.4-0.4v-14.9c0-0.2,0.2-0.4,0.4-0.4h0.1c0.2,0,0.4,0.2,0.4,0.4v14.9
	C-389,288.1-389.1,288.3-389.4,288.3z"/>
<path class="st17" d="M-394.3,288.2h-5.4c-0.5,0-1-0.4-1-1V287c0-0.5,0.4-1,1-1h5.4c0.5,0,1,0.4,1,1v0.2
	C-393.3,287.8-393.7,288.2-394.3,288.2z"/>
<path class="st23" d="M-419.7,273.3l2.6,15.2c0,0.3,0.1,0.5,0.3,0.6l1.8,1.3c0.4,0.3,1.1,0.1,1.3-0.4l2.5-3.2
	c0.1-0.1-2.8-13.7-2.8-13.7c0-0.3-1.2-2.6-1.4-2.7l-1.8-0.9C-417.8,269.4-420.4,271.1-419.7,273.3z"/>
<path class="st23" d="M-402.6,287.8c-0.2-0.9-0.3-1.8-0.4-2.6l-3.6-0.1l-8.2,0.7c-0.2,0-1.6,2.3-1.6,2.3c-0.2,0.3-0.2,0.6,0,0.9
	l1.6,1.6c0.2,0.2,0.4,0.2,0.6,0.2l7.8-1.8L-402.6,287.8z"/>
<path class="st25" d="M-402.2,287.7l-1,0.3c-0.1-0.9-0.2-1.9-0.3-2.8l1.1,0c0.1,0,0.2,0,0.2,0l4-1.6c0.2-0.1,1.5-0.5,1.7-0.4
	l3.3,1.9c0.3,0.2,0.6,1.3,0.5,1.6l-0.8,0l-2.6-1l-6,2C-402,287.7-402.1,287.7-402.2,287.7z"/>
<polygon class="st26" points="-320.9,292.7 -321,296.1 -321.8,298.5 -341.7,296.9 -353.3,319.1 -358.4,315 -345.1,291.8 
	-332.3,290.3 "/>
<path class="st0" d="M-327,320.4L-327,320.4c0.5,0,0.8-0.4,0.8-0.8v-19c0-0.5-0.4-0.8-0.8-0.8l0,0c-0.5,0-0.8,0.4-0.8,0.8v19
	C-327.8,320-327.5,320.4-327,320.4z"/>
<path class="st0" d="M-333.5,320.8h13c0.6,0,1-0.5,1-1l0,0c0-0.6-0.5-1-1-1h-13c-0.6,0-1,0.5-1,1l0,0
	C-334.5,320.4-334.1,320.8-333.5,320.8z"/>
<path class="st0" d="M-338.1,302.1h18.5c0.9,0,1.6-0.7,1.6-1.6V300c0-0.9-0.7-1.6-1.6-1.6h-18.5c-0.9,0-1.6,0.7-1.6,1.6v0.6
	C-339.7,301.4-339,302.1-338.1,302.1z"/>
<path class="st27" d="M-351.8,288.2h20c0.2,0,0.4-0.2,0.4-0.4l0,0c0-0.2-0.2-0.4-0.4-0.4h-20c-0.2,0-0.4,0.2-0.4,0.4l0,0
	C-352.1,288.1-352,288.2-351.8,288.2z"/>
<polygon class="st28" points="-324.5,269.7 -329.8,272.1 -332.4,265.2 -327.6,263.2 "/>
<path class="st29" d="M-327.9,263l-0.3,3.8c0,0.4-0.3,0.8-0.7,1l-3.5,1.6c-0.3,0.1-0.6,0.2-0.9,0.1l-0.4-0.1l-0.5-0.1
	c-1-0.1-1.7-0.9-1.8-1.9l-0.7-7.3l0-0.1l7.9,1.7C-328.2,261.9-327.8,262.4-327.9,263z"/>
<path class="st30" d="M-328.7,261.9l-1.6,5.2l-3.4,2.4l-1.4-0.2c-0.4-0.1-0.8-0.4-0.8-0.8l-0.8-7.3l2.8-3L-328.7,261.9z"/>
<polygon class="st31" points="-335.3,261.1 -332.4,261.8 -330.6,261.4 -329.5,265.4 -326.6,265.7 -326.2,263.5 -325.7,263.5 
	-326,262 -325.4,262.7 -325.5,259.2 -328.1,255.5 -331.1,255.2 -334.6,257 -336.5,257.9 -337.6,260.9 "/>
<path class="st30" d="M-337,265.9c0,0.1,0,0.2,0.1,0.4c0.1,0.1,0.2,0.2,0.3,0.2l1.2,0.1l-0.9-3.3L-337,265.9z"/>
<polygon class="st29" points="-329.8,270.6 -333,274.7 -328,273.6 -325,270.4 "/>
<path class="st5" d="M-322.1,270.7l-2.9-1.8c-3.2,2-4.9,2.9-5.7,2.6l-2.2,3.2l-0.8,6.3l2.8,11.1l9.6,1.8l0.9-1.9l-0.1-18
	L-322.1,270.7z"/>
<path class="st32" d="M-320.9,292.7l0.4,1.3c0.5,1.5,0.4,3.1-0.4,4.4l-0.5,0.8l-18.4-0.6l-11.6,22.2l-5.1-4.1l13.3-23.2l12.8-1.5
	L-320.9,292.7z"/>
<path class="st0" d="M-352.1,319.1l0.5,2.3l-3.4,0l-2.5,0h-7.1l-0.2-1.1c0,0,6.9-0.6,7.9-4.7L-352.1,319.1z"/>
<path class="st0" d="M-319.4,294l0.1,0c0.7,0,1.4-0.6,1.4-1.3l0.8-25.6c0-0.7-0.6-1.4-1.3-1.4l-0.1,0c-0.7,0-1.4,0.6-1.4,1.3
	l-0.8,25.6C-320.7,293.3-320.1,293.9-319.4,294z"/>
<path class="st0" d="M-318.1,301c-0.3,0-0.5-0.1-0.7-0.3c-0.4-0.4-0.3-1,0.1-1.4c0.5-0.4,0.7-0.9,0.7-1.5c0-1.7-1.7-3.8-2.3-4.5
	c-0.4-0.4-0.4-1,0-1.4c0.4-0.4,1-0.4,1.4,0c0.3,0.3,3,3.1,2.9,5.9c0,1.1-0.5,2.1-1.4,2.9C-317.6,300.9-317.9,301-318.1,301z"/>
<path class="st33" d="M-351.7,288.3h0.1c0.2,0,0.4-0.2,0.4-0.4v-14.9c0-0.2-0.2-0.4-0.4-0.4h-0.1c-0.2,0-0.4,0.2-0.4,0.4v14.9
	C-352.1,288.1-351.9,288.3-351.7,288.3z"/>
<path class="st34" d="M-346.8,288.2h5.4c0.5,0,1-0.4,1-1V287c0-0.5-0.4-1-1-1h-5.4c-0.5,0-1,0.4-1,1v0.2
	C-347.7,287.8-347.3,288.2-346.8,288.2z"/>
<path class="st17" d="M-321.3,273.3l-2.6,15.2c0,0.3-0.1,0.5-0.3,0.6l-1.8,1.3c-0.4,0.3-1.1,0.1-1.3-0.4l-2.5-3.2
	c-0.1-0.1,2.8-13.7,2.8-13.7c0-0.3,1.2-2.6,1.4-2.7l1.8-0.9C-323.2,269.4-320.7,271.1-321.3,273.3z"/>
<path class="st17" d="M-338.5,287.8c0.2-0.9,0.3-1.8,0.4-2.6l3.6-0.1l8.2,0.7c0.2,0,1.6,2.3,1.6,2.3c0.2,0.3,0.2,0.6,0,0.9l-1.6,1.6
	c-0.2,0.2-0.4,0.2-0.6,0.2l-7.8-1.8L-338.5,287.8z"/>
<path class="st29" d="M-338.9,287.7l1,0.3c0.1-0.9,0.2-1.9,0.3-2.8l-1.1,0c-0.1,0-0.2,0-0.2,0l-4-1.6c-0.2-0.1-1.5-0.5-1.7-0.4
	l-3.3,1.9c-0.3,0.2-0.6,1.3-0.5,1.6l0.8,0l2.6-1l6,2C-339.1,287.7-339,287.7-338.9,287.7z"/>
<rect x="-414.1" y="288.3" class="st35" width="85.5" height="3.7"/>
<rect x="-334.1" y="291.2" class="st24" width="3" height="30.5"/>
</svg>
