<?xml version="1.0" encoding="iso-8859-1"?>
<!-- Generator: Adobe Illustrator 19.1.0, SVG Export Plug-In . SVG Version: 6.00 Build 0)  -->
<!DOCTYPE svg PUBLIC "-//W3C//DTD SVG 1.1//EN" "http://www.w3.org/Graphics/SVG/1.1/DTD/svg11.dtd">
<svg version="1.1" id="illustrations" xmlns="http://www.w3.org/2000/svg" xmlns:xlink="http://www.w3.org/1999/xlink" x="0px"
	 y="0px" viewBox="0 0 64.134 96.605" style="enable-background:new 0 0 64.134 96.605;" xml:space="preserve">
<g>
	<g>
		<path style="fill:#5C6A78;" d="M26.036,96.605H23.7c-0.163,0-0.296-0.134-0.296-0.297l0,0c0-0.163,0.133-0.296,0.296-0.296h2.336
			c0.163,0,0.296,0.133,0.296,0.296l0,0C26.332,96.472,26.199,96.605,26.036,96.605z"/>
	</g>
	<g>
		<path style="fill:#5C6A78;" d="M32.261,96.583h-2.335c-0.163,0-0.296-0.134-0.296-0.297l0,0c0-0.163,0.133-0.296,0.296-0.296
			h2.335c0.163,0,0.296,0.133,0.296,0.296l0,0C32.557,96.449,32.424,96.583,32.261,96.583z"/>
	</g>
	<g>
		<g>
			<g>
				<rect x="1.964" y="64.831" style="fill:#E0E0E0;" width="25.104" height="25.531"/>
			</g>
			<g>
				<g>
					<g>
						<rect x="5.578" y="38.75" style="fill:#F55D51;" width="17.27" height="8.349"/>
					</g>
				</g>
				<g>
					<g>
						<rect x="4.982" y="37.312" style="fill:#FD7D70;" width="18.461" height="3.424"/>
					</g>
				</g>
				<g>
					<g>
						<path style="fill:#A5100E;" d="M17.46,43.892c0,0.493-0.4,0.893-0.894,0.893H11.86c-0.493,0-0.893-0.399-0.893-0.893v-0.076
							c0-0.494,0.4-0.892,0.893-0.892h4.706c0.494,0,0.894,0.397,0.894,0.892V43.892z"/>
					</g>
				</g>
			</g>
			<g>
				<g>
					<g>
						<rect x="5.577" y="54.996" style="fill:#5C6A78;" width="17.27" height="8.348"/>
					</g>
				</g>
				<g>
					<g>
						<rect x="4.981" y="53.558" style="fill:#8C9AA8;" width="18.461" height="3.424"/>
					</g>
				</g>
				<g>
					<g>
						<path style="fill:#2C3A48;" d="M17.459,60.138c0,0.492-0.4,0.893-0.894,0.893h-4.706c-0.493,0-0.892-0.4-0.892-0.893v-0.076
							c0-0.494,0.399-0.893,0.892-0.893h4.706c0.494,0,0.894,0.398,0.894,0.893V60.138z"/>
					</g>
				</g>
			</g>
			<g>
				<rect x="27.068" style="fill:#F2F2F2;" width="1.964" height="90.362"/>
			</g>
			<g>
				<rect x="1.557" y="63.395" style="fill:#F2F2F2;" width="26.493" height="1.437"/>
			</g>
			<g>
				<g>
					<rect x="25.992" y="12.458" style="fill:#404040;" width="0.811" height="11.191"/>
				</g>
				<g>
					<rect x="23.073" y="8.528" style="fill:#758586;" width="2.919" height="15.12"/>
				</g>
				<g>
					<rect x="19.993" y="5.599" style="fill:#7C8A98;" width="3.081" height="18.05"/>
				</g>
				<g>
					<rect x="18.534" y="9.055" style="fill:#2C3A48;" width="1.459" height="14.558"/>
				</g>
				<g>
					<rect x="16.912" y="6.759" style="fill:#C0C0C0;" width="1.622" height="16.89"/>
				</g>
				<g>
					<rect x="13.67" y="9.968" style="fill:#5C6A78;" width="3.243" height="13.644"/>
				</g>
				<g>
					<rect x="12.947" y="13.301" style="fill:#455556;" width="0.723" height="10.348"/>
				</g>
				<g>
					<rect x="10.346" y="9.667" style="fill:#A5B5B6;" width="2.601" height="13.981"/>
				</g>
				<g>
					<rect x="7.6" y="6.958" style="fill:#707070;" width="2.746" height="16.691"/>
				</g>
				<g>
					<rect x="6.299" y="10.154" style="fill:#354546;" width="1.301" height="13.461"/>
				</g>
				<g>
					<rect x="4.854" y="8.031" style="fill:#758586;" width="1.445" height="15.617"/>
				</g>
				<g>
					<rect x="1.964" y="10.998" style="fill:#808080;" width="2.89" height="12.617"/>
				</g>
			</g>
			<g>
				<rect style="fill:#F2F2F2;" width="1.964" height="90.362"/>
			</g>
			<g>
				<rect x="1.557" y="23.649" style="fill:#F2F2F2;" width="26.493" height="1.436"/>
			</g>
			<g>
				<rect x="1.557" y="47.178" style="fill:#F2F2F2;" width="26.493" height="1.436"/>
			</g>
			<g>
				<rect x="1.557" y="0.985" style="fill:#F2F2F2;" width="26.493" height="1.436"/>
			</g>
			<g>
				<rect x="1.557" y="25.085" style="fill:#E0E0E0;" width="25.511" height="8.755"/>
			</g>
			<g>
				<path style="fill:#808080;" d="M17.002,29.395h-5.125c-0.412,0-0.749-0.337-0.749-0.749l0,0c0-0.412,0.337-0.749,0.749-0.749
					h5.125c0.412,0,0.749,0.337,0.749,0.749l0,0C17.751,29.058,17.414,29.395,17.002,29.395z"/>
			</g>
			<g>
				<path style="fill:#808080;" d="M17.002,69.458h-5.125c-0.412,0-0.749-0.337-0.749-0.749l0,0c0-0.412,0.337-0.75,0.749-0.75
					h5.125c0.412,0,0.749,0.338,0.749,0.75l0,0C17.751,69.121,17.414,69.458,17.002,69.458z"/>
			</g>
		</g>
		<g>
			<path style="fill:#3C4A58;" d="M50.832,45.326v5.331c0,0.874-0.646,1.598-1.488,1.722c-0.084,0.014-0.169,0.02-0.254,0.02h-0.065
				c-0.927-0.039-1.677-0.802-1.677-1.741v-5.331c0-0.274,0.065-0.542,0.183-0.769c0.287-0.574,0.881-0.966,1.559-0.966
				c0.483,0,0.914,0.195,1.233,0.509c0.13,0.137,0.241,0.287,0.326,0.457C50.767,44.784,50.832,45.052,50.832,45.326z"/>
		</g>
		<g>
			<path style="fill:#DEAD8E;" d="M48.646,78.562c0.006,0.111,0,0.216-0.007,0.326l-1.057,12.397h-2.219L44.189,78.66
				c-0.006-0.064-0.006-0.13-0.006-0.195l0.215-7.49c0-0.007,0-0.007,0-0.007l0.02-0.555h3.693l0.045,0.705v0.013L48.646,78.562z"/>
		</g>
		<g>
			<path style="fill:#3C4A58;" d="M49.13,44.553l-0.022,1.468l-0.007,0.656v0.222l-0.074,5.503v0.147l-0.87,18.573v0.007
				c0,0-0.642,1.563-1.741,1.645c-1.055,0.081-1.947-1.659-2.014-1.8c0-0.007,0-0.007,0-0.007l-3.046-19.119c0,0-0.029-0.398,0-1.04
				c0.007-0.11,0.015-0.236,0.022-0.361c0.007-0.037,0.007-0.081,0.007-0.118c0.008-0.118,0.022-0.243,0.037-0.376
				c0.015-0.125,0.029-0.258,0.044-0.399c0.007-0.029,0.007-0.059,0.015-0.088c0.022-0.17,0.051-0.347,0.081-0.524
				c0.118-0.634,0.28-1.335,0.531-2.043c0.029-0.074,0.051-0.147,0.081-0.222c0.081-0.214,0.169-0.435,0.258-0.656
				c0.214-0.494,0.479-0.98,0.789-1.468H49.13z"/>
		</g>
		<g>
			<path style="fill:#DEAD8E;" d="M54.185,78.465c0,0.065,0,0.131-0.006,0.195l-1.174,12.626h-2.218l-1.057-12.397
				c-0.013-0.11-0.013-0.215-0.006-0.326l0.489-7.432v-0.013l0.045-0.705h3.693l0.02,0.555c0,0,0,0,0,0.007L54.185,78.465z"/>
		</g>
		<g>
			<path style="fill:#3C4A58;" d="M57.007,51.848l-3.039,19.119c0,0,0,0,0,0.007c-0.074,0.141-0.959,1.881-2.014,1.8
				c-1.106-0.081-1.741-1.645-1.741-1.645v-0.007l-0.871-18.573v-0.17l-0.081-5.48v-0.878l-0.022-1.468h5.901
				c0.317,0.487,0.575,0.974,0.789,1.468c0.096,0.222,0.185,0.442,0.266,0.656c0.029,0.074,0.051,0.147,0.081,0.222
				C57.17,49.48,57.007,51.848,57.007,51.848z"/>
		</g>
		<g>
			<path style="fill:#3C4A58;" d="M53.969,70.967c0,0,0,0,0,0.007l0.214,7.494c0,0.06,0,0.126-0.007,0.192l-1.173,12.628h0.015
				c0.015,0.199,0.029,0.398,0.074,0.575h-2.316c0.007-0.17,0.015-0.369,0.015-0.575l-1.062-12.399
				c-0.015-0.11-0.015-0.214-0.008-0.324l0.495-7.436v-0.007l-0.871-18.573v-0.17c-0.081,0.015-0.169,0.023-0.251,0.023h-0.066
				v0.147l-0.87,18.573v0.007l0.487,7.436c0.007,0.11,0,0.214-0.007,0.324l-1.055,12.399h-0.008
				c0.008,0.206,0.015,0.405,0.022,0.575H45.28c0.037-0.177,0.059-0.376,0.074-0.575h0.007L44.188,78.66
				c-0.007-0.066-0.007-0.133-0.007-0.192l-0.558-7.494c0-0.007-2.268-19.126-2.268-19.126s-0.029-0.398,0-1.04
				c0.007-0.11,0.015-0.236,0.022-0.361c0.007-0.037,0.007-0.081,0.007-0.118c0.008-0.118,0.022-0.243,0.037-0.376
				c0.015-0.125,0.029-0.258,0.044-0.399c0.007-0.029,0.007-0.059,0.015-0.088c0.022-0.17,0.051-0.347,0.081-0.524
				c0.118-0.634,0.28-1.335,0.531-2.043c0.029-0.074,0.051-0.147,0.081-0.222c0.081-0.214,0.169-0.435,0.258-0.656h13.498
				c0.096,0.222,0.185,0.442,0.266,0.656c0.029,0.074,0.051,0.147,0.081,0.222c0.893,2.582,0.73,4.949,0.73,4.949L53.969,70.967z"/>
		</g>
		<g>
			<polygon style="fill:#2C3A48;" points="44.994,90.175 44.545,94.782 46.217,95.965 48.4,94.823 47.971,90.175 			"/>
		</g>
		<g>
			<polygon style="fill:#3C4A58;" points="44.545,94.782 46.298,94.171 48.4,94.823 46.217,95.965 			"/>
		</g>
		<g>
			<polygon style="fill:#2C3A48;" points="50.528,90.175 50.08,94.782 51.751,95.965 53.934,94.823 53.505,90.175 			"/>
		</g>
		<g>
			<polygon style="fill:#3C4A58;" points="50.08,94.782 51.833,94.171 53.934,94.823 51.751,95.965 			"/>
		</g>
		<g>
			<path style="fill:#EAB99A;" d="M42.882,36.986c-0.002,0.007-0.01,0.011-0.012,0.018c-1.971,5.043-6.626,9.102-6.866,9.471
				l-1.38-1.111c0.167-0.405,3.717-5.728,5.716-8.684L42.882,36.986z"/>
		</g>
		<g>
			<g>
				<path style="fill:#DEAD8E;" d="M56.964,44.821c-0.247,0.062-0.408,0.254-0.426,0.659l0.837,0.896l0.881-0.883L56.964,44.821z"/>
			</g>
			<g>
				<path style="fill:#EAB99A;" d="M54.579,43.661c-0.223-0.435-0.169-1.001-0.004-1.674c0.39-0.411,1.476,0.609,1.476,0.609
					l1.802,1.304c0.115,0.068,0.432,0.292,0.453,0.424l0.393,1.361c0.029,0.183-0.523,0.567-0.683,0.661
					c0,0-0.711,0.348-0.683-0.144c0.07-0.737-0.187-0.961-0.187-0.961c-0.169-0.171-0.169-0.095-0.869-0.513l-0.039,0.553
					c0.06,0.292,0.714,0.76,0.714,0.76l-0.029,0.216c-0.051,0.01-0.284,0.088-0.332,0.066c-0.192-0.089-0.695-0.306-0.728-0.363
					l-1.283-2.294C54.581,43.665,54.58,43.663,54.579,43.661z"/>
			</g>
		</g>
		<g>
			<path style="fill:#505050;" d="M43.52,24.524c0,0.152-0.033,1.666-0.105,3.655c-0.046,1.262-0.113,2.723-0.185,4.149
				c-0.007,0.047-0.007,0.086-0.007,0.133c-0.099,1.811-0.225,3.562-0.376,4.778v0.02h-0.007l-1.143,0.201
				c-0.732,0.129-1.423-0.405-1.473-1.146c-0.275-4.095-0.264-8.062,0.104-11.876c0-0.039,0.006-0.072,0.013-0.112
				c0.106-0.747,0.767-1.328,1.58-1.328c0.152,0,0.297,0.019,0.436,0.059C43.025,23.236,43.52,23.824,43.52,24.524z"/>
		</g>
		<g>
			<path style="fill:#EAB99A;" d="M55.453,43.309l-0.857-1.335c0.292-0.329,0.598-0.683,0.922-1.048
				c1.841-2.123,4.188-4.854,6.88-7.901c0.006-0.004,0.008-0.013,0.013-0.017l1.722,1.606c-2.319,2.713-5.37,5.925-7.634,7.842
				C56.148,42.752,55.799,43.039,55.453,43.309z"/>
		</g>
		<g>
			<path style="fill:#505050;" d="M64.134,34.59c-1.007,0.551-2.032,0.584-3.078,0c-0.786-0.923-0.705-1.077-1.769-2.521
				c-0.011-0.017-0.019-0.027-0.035-0.04c-0.885-1.206-2.631-2.38-3.39-3.455c-1.136-1.603-1.131-2.906-1.214-3.033
				c-0.388-0.592-0.293-1.364,0.182-1.881c0.092-0.1,0.198-0.192,0.319-0.273c0.68-0.445,1.557-0.324,2.049,0.246
				c0.027,0.029,0.057,0.05,0.073,0.087C59.939,27.044,61.936,30.547,64.134,34.59z"/>
		</g>
		<g>
			<g>
				<path style="fill:#606060;" d="M57.381,25.07c0.242-0.893-0.306-1.865-1.222-1.999c-0.091-0.014-0.185-0.021-0.281-0.021h-1.831
					c-0.373-0.015-0.702-0.063-1.002-0.135c-0.221-0.054-0.452-0.046-0.674,0.001l-3.114,0.65c-0.142,0.029-0.284,0.041-0.429,0.031
					c-0.489-0.033-1.707-0.153-2.828-0.558c-0.294-0.105-0.604-0.145-0.911-0.084c-0.246,0.049-0.511,0.082-0.804,0.094h-1.831
					c-0.033,0-0.066,0-0.099,0.007c-0.009,0-0.018,0.001-0.026,0.001c-0.986,0.059-1.632,1.072-1.374,2.025l0.734,2.704
					c0.116,0.429,0.018,0.871-0.202,1.257c-0.691,1.215,0.067,2.478,1.483,3.175c0.295,0.414,0.667,0.937,0.962,1.351
					c0.535,3.217,0.087,7.897-0.72,11.025c-0.264,1.021,1.151,1.298,2.206,1.298l7.201,0.13c1.044,0,2.855-0.287,2.595-1.298
					c-0.981-3.809-0.976-9.507-0.709-11.312c0.331-0.439,0.599-0.797,0.93-1.236c1.241-0.629,1.667-1.489,1.667-2.194
					c0-0.322-0.089-0.633-0.249-0.922c-0.221-0.4-0.322-0.855-0.202-1.297L57.381,25.07z"/>
			</g>
			<g>
				<path style="fill:#EAB99A;" d="M51.504,22.126c-0.081-0.081-0.145-0.175-0.214-0.266c-0.37-0.485-0.582-1.097-0.665-1.81H47.71
					c-0.088,0.749-0.317,1.387-0.729,1.883c-0.053,0.064-0.098,0.134-0.157,0.192c-0.32,0.327-0.756,0.565-1.295,0.724
					c1.54,0.701,3.458,0.761,3.458,0.761l3.77-0.773C52.239,22.678,51.818,22.443,51.504,22.126z"/>
			</g>
		</g>
		<g>
			<polygon style="fill:#404040;" points="46.138,22.506 43.668,22.961 46.711,25.749 49.04,23.593 			"/>
		</g>
		<g>
			<polygon style="fill:#404040;" points="51.797,22.506 54.266,22.961 51.115,25.749 49,23.633 			"/>
		</g>
		<g>
			<g>
				<path style="fill:#6D3C1F;" d="M54.336,14.54c-0.556-4.507-3.576-6.581-6.933-6.167c-0.004,0.001-0.007,0.001-0.01,0.002
					c-0.004,0-0.007,0-0.011,0.001c-3.358,0.414-5.782,3.161-5.225,7.668c0.158,1.281,0.783,2.852,0.836,4.357l5.785-0.714
					l0.021-0.003l5.786-0.714C54.271,17.498,54.495,15.821,54.336,14.54z"/>
			</g>
			<g>
				<path style="fill:#5D2C10;" d="M44.748,20.185l8.062-0.995c0,0,1.061-5.937-1.931-7.438c-2.992-1.501-6.067,0.749-6.067,0.749
					S42.232,14.734,44.748,20.185L44.748,20.185z"/>
			</g>
			<g>
				<path style="fill:#EAB99A;" d="M52.309,15.104c0.36,2.917-0.994,6.664-3.221,6.938c-0.106,0.013-0.206,0.019-0.308,0.011
					c-2.125-0.04-4.193-3.169-4.537-5.953c-0.345-2.79,1.011-5.272,3.073-5.735c0.099-0.019,0.197-0.038,0.303-0.051
					C49.846,10.039,51.948,12.182,52.309,15.104z"/>
			</g>
			<g>
				<path style="fill:#F5C4A5;" d="M51.699,15.181c0.344,2.783-0.875,6.318-2.919,6.873c-2.125-0.04-4.193-3.169-4.537-5.953
					c-0.011-0.086-0.022-0.179-0.019-0.267c-0.174-1.95,0.488-3.727,1.632-4.71c0.322-0.282,0.672-0.493,1.059-0.635l0.026-0.011
					c0.006-0.007,0.019-0.009,0.025-0.01c0.116-0.041,0.233-0.075,0.351-0.103c0.262-0.006,0.521,0.023,0.777,0.079
					c1.585,0.355,2.95,1.876,3.451,3.914C51.61,14.626,51.665,14.902,51.699,15.181z"/>
			</g>
			<g>
				<path style="fill:#EAB99A;" d="M51.833,14.303l-0.289,0.056l-7.32,1.476c-0.174-1.95,0.488-3.727,1.632-4.71l1.059-0.635
					l0.026-0.011l0.006-0.007l0.02-0.003l1.127-0.024l1.624-0.039L51.833,14.303z"/>
			</g>
			<g>
				<path style="fill:#6D3C1F;" d="M45.178,11.132c0,0-0.931,2.681-0.632,4.073l7.291-0.899c0,0-0.86-2.745-1.625-3.97
					C49.048,8.475,45.07,9.873,45.178,11.132z"/>
			</g>
			<g>
				<path style="fill:#5D2C10;" d="M49.02,14.653l0.704-0.087c0,0-0.467-3.446-1.377-4C48.347,10.566,49.166,13.794,49.02,14.653
					L49.02,14.653z"/>
			</g>
			<g>
				<path style="fill:#5D2C10;" d="M47.472,10.975c0,0-0.759,1.692-0.441,3.924l0,0l0.663-0.082
					C47.694,14.816,47.233,11.425,47.472,10.975z"/>
			</g>
		</g>
		<g>
			<rect x="49.366" y="65.778" style="fill:#6D3C1F;" width="3.007" height="30.508"/>
		</g>
		<g>
			<rect x="2.918" y="65.778" style="fill:#6D3C1F;" width="3.007" height="30.508"/>
		</g>
		<g>
			<path style="fill:#303030;" d="M28.239,92.993L28.239,92.993c-0.461,0-0.837-0.377-0.837-0.838V73.151
				c0-0.46,0.377-0.837,0.837-0.837l0,0c0.46,0,0.837,0.377,0.837,0.837v19.004C29.076,92.616,28.699,92.993,28.239,92.993z"/>
		</g>
		<g>
			<path style="fill:#303030;" d="M34.743,93.489H21.734c-0.576,0-1.047-0.472-1.047-1.047l0,0c0-0.576,0.471-1.048,1.047-1.048
				h13.008c0.576,0,1.047,0.472,1.047,1.048l0,0C35.79,93.018,35.318,93.489,34.743,93.489z"/>
		</g>
		<g>
			<path style="fill:#303030;" d="M37.29,73.957H18.836c-0.856,0-1.557-0.7-1.557-1.557v-0.56c0-0.856,0.701-1.558,1.557-1.558
				H37.29c0.856,0,1.557,0.701,1.557,1.558v0.56C38.847,73.257,38.146,73.957,37.29,73.957z"/>
		</g>
		<g>
			<path style="fill:#4D5A68;" d="M35.24,67.178H20.308c-0.302,0-0.55-0.248-0.55-0.55v-2.43c0-0.302,0.248-0.55,0.55-0.55H35.24
				c0.302,0,0.55,0.248,0.55,0.55v2.43C35.79,66.93,35.542,67.178,35.24,67.178z"/>
		</g>
		<g>
			<path style="fill:#4D5A68;" d="M33.81,72.326H22.081c-1.611,0-2.929-1.318-2.929-2.929v-0.69c0-1.61,1.318-2.929,2.929-2.929
				H33.81c1.611,0,2.929,1.318,2.929,2.929v0.69C36.739,71.008,35.42,72.326,33.81,72.326z"/>
		</g>
		<g>
			<rect x="0.508" y="62.902" style="fill:#8D5C3E;" width="54.355" height="3.708"/>
		</g>
		<g>
			<path style="fill:#2C3A48;" d="M35.305,70.655c0,1.92-3.361,1.659-7.398,1.659c-4.036,0-7.219,0.261-7.219-1.659
				c0-1.921,3.272-3.477,7.309-3.477C32.033,67.178,35.305,68.734,35.305,70.655z"/>
		</g>
		<g>
			<path style="fill:#DEAD8E;" d="M27.075,70.448c0.022-0.074,0.04-0.15,0.04-0.228c0-0.752-1.054-2.14-2.354-2.14
				c-1.3,0-2.354,1.388-2.354,2.14c0,0.062,0.018,0.122,0.032,0.183h-0.003c0,0-0.385,5.352-0.31,8.444
				c0.076,3.093,1.806,11.859,1.708,12.865c-0.098,1.006,1.995,0,1.995,0s1.086-7.33,1.476-12.779
				C27.591,74.927,27.191,71.355,27.075,70.448z"/>
		</g>
		<g>
			<path style="fill:#DEAD8E;" d="M33.618,70.403h-0.003c0.014-0.061,0.032-0.12,0.032-0.183c0-0.752-1.054-2.14-2.354-2.14
				s-2.354,1.388-2.354,2.14c0,0.078,0.018,0.153,0.04,0.228c-0.116,0.907-0.516,4.479-0.229,8.485
				c0.389,5.449,1.476,12.779,1.476,12.779s2.092,1.006,1.995,0c-0.097-1.006,1.632-9.772,1.708-12.865
				C34.002,75.755,33.618,70.403,33.618,70.403z"/>
		</g>
		<g>
			<path style="fill:#4D5A68;" d="M26.444,93.016c-0.115-0.293-0.397-0.486-0.712-0.486h-0.8h-0.8c-0.315,0-0.597,0.193-0.712,0.486
				l-0.749,1.913c-0.035,0.089-0.053,0.184-0.053,0.278v0.482c0,0.165,0.054,0.326,0.153,0.459l0.343,0.457h1.817h1.817l0.343-0.457
				c0.099-0.133,0.153-0.294,0.153-0.459v-0.482c0-0.095-0.018-0.189-0.053-0.278L26.444,93.016z"/>
		</g>
		<g>
			<path style="fill:#4D5A68;" d="M32.605,92.993c-0.115-0.293-0.397-0.486-0.712-0.486h-0.8h-0.8c-0.314,0-0.597,0.193-0.712,0.486
				l-0.749,1.913c-0.035,0.089-0.053,0.184-0.053,0.278v0.482c0,0.165,0.054,0.326,0.153,0.458l0.343,0.458h1.817h1.817l0.343-0.458
				c0.099-0.132,0.153-0.293,0.153-0.458v-0.482c0-0.095-0.018-0.189-0.053-0.278L32.605,92.993z"/>
		</g>
		<g>
			<path style="fill:#DEAD8E;" d="M26.332,93.167c0,0.771-0.63,1.4-1.4,1.4l0,0c-0.771,0-1.4-0.63-1.4-1.4l0.439-2.071
				c0-0.771,0.191-2.874,0.962-2.874l0,0c0.77,0,0.981,2.104,0.981,2.874L26.332,93.167z"/>
		</g>
		<g>
			<path style="fill:#DEAD8E;" d="M32.493,93.145c0,0.771-0.63,1.4-1.4,1.4l0,0c-0.771,0-1.4-0.63-1.4-1.4l0.438-2.071
				c0-0.771,0.191-2.874,0.962-2.874l0,0c0.77,0,0.981,2.104,0.981,2.874L32.493,93.145z"/>
		</g>
		<g>
			<g>
				<path style="fill:#EAB99A;" d="M16.299,58.075c0.007-0.001,0.013,0.006,0.02,0.006c3.887,0.997,7.315,1.928,9.995,2.643
					c0.466,0.119,0.913,0.238,1.333,0.345l0.039,1.559c-0.431-0.028-0.875-0.069-1.327-0.117c-2.911-0.311-6.145-1.031-9.541-1.963
					L16.299,58.075z"/>
			</g>
		</g>
		<g>
			<g>
				<path style="fill:#EAB99A;" d="M39.733,58.075c-0.006-0.001-0.013,0.006-0.019,0.006c-3.887,0.997-7.315,1.928-9.995,2.643
					c-0.466,0.119-0.913,0.238-1.333,0.345l-0.039,1.559c0.431-0.028,0.875-0.069,1.327-0.117c2.911-0.311,6.145-1.031,9.541-1.963
					L39.733,58.075z"/>
			</g>
		</g>
		<g>
			<g>
				<path style="fill:#F3AA43;" d="M34.625,39.03c0,4.337-6.562,6.896-6.562,6.896s-6.562-2.56-6.562-6.896
					c0-4.336,2.938-7.852,6.562-7.852S34.625,34.694,34.625,39.03z"/>
			</g>
		</g>
		<g>
			<g>
				<path style="fill:#EF893A;" d="M31.517,35.793c0,0,3.344,5.457-1.896,9.388l0,0l-3.679-0.318c0,0-2.288-2.505-1.732-4.921l0,0
					L31.517,35.793L31.517,35.793z"/>
			</g>
		</g>
		<g>
			<g>
				<path style="fill:#EAB99A;" d="M22.692,49.104c-0.046,0.138-0.545,1.551-1.229,3.387c-0.054,0.139-0.107,0.284-0.161,0.431
					c-0.2,0.529-0.407,1.083-0.622,1.651c0.007,0,0,0.008,0,0.008c-0.054,0.146-0.115,0.291-0.169,0.445
					c-0.169,0.43-0.338,0.867-0.507,1.306l-0.046,0.123c-0.438,1.121-0.392,2.22-0.476,3.156c-0.062,0.699-0.661,1.222-1.36,1.222
					h-0.007c-1.129-0.737-1.406-0.699-1.69-2.182c-0.062-0.315-0.177-0.622-0.1-0.93c0.991-4.001,1.797-6.045,3.402-9.678
					c0.008-0.038,0.023-0.069,0.039-0.107c0.315-0.622,1.044-0.968,1.767-0.783c0.038,0.008,0.084,0.016,0.122,0.03
					c0.146,0.046,0.284,0.107,0.392,0.185C22.623,47.744,22.907,48.451,22.692,49.104z"/>
			</g>
		</g>
		<g>
			<g>
				<path style="fill:#EAB99A;" d="M39.629,58.651c-0.284,1.482-0.553,1.444-1.69,2.182h-0.008c-0.699,0-1.298-0.522-1.359-1.222
					c-0.084-0.937-0.039-2.035-0.476-3.156l-0.039-0.123c-0.169-0.438-0.346-0.884-0.515-1.321c-0.338-0.876-0.661-1.736-0.945-2.52
					c-0.684-1.836-1.183-3.249-1.229-3.387c-0.215-0.653,0.069-1.36,0.637-1.736c0.115-0.077,0.246-0.139,0.392-0.185
					c0.046-0.015,0.084-0.022,0.131-0.03c0.722-0.185,1.444,0.161,1.759,0.783c0.016,0.038,0.031,0.069,0.046,0.107
					c1.597,3.633,2.404,5.677,3.395,9.678C39.805,58.029,39.69,58.337,39.629,58.651z"/>
			</g>
		</g>
		<g>
			<g>
				<path style="fill:#EAB99A;" d="M35.204,52.545c0.407,0.423,0.645,0.914,0.645,1.444c0,0.36-0.108,0.706-0.307,1.021
					c-0.315,0.515-0.86,0.944-1.567,1.252c-0.023,0.016-0.031,0.024-0.054,0.03c-0.13,0.062-0.261,0.108-0.407,0.154
					c-0.038,0.015-0.077,0.03-0.115,0.038c-0.015,0.031-0.015,0.046-0.023,0.077v0.008c-0.691,1.72-1.137,3.271-1.267,4.8h-8.165
					c-0.13-1.505-0.561-3.033-1.237-4.724c-0.015-0.054-0.038-0.107-0.061-0.161c-0.169-0.046-0.323-0.108-0.484-0.177
					c-0.3-0.131-0.576-0.276-0.822-0.445c-0.345-0.238-0.629-0.522-0.829-0.837c-0.2-0.323-0.315-0.669-0.315-1.037
					c0-0.53,0.238-1.021,0.645-1.444l-1.083-3.994c0-0.745,0.684-1.352,1.544-1.397h1.905c0.684-0.031,1.244-0.154,1.698-0.361
					c0.322-0.146,0.583-0.33,0.806-0.553c0.1-0.1,0.192-0.2,0.269-0.315c0.338-0.468,0.522-1.06,0.607-1.735h2.873
					c0.085,0.676,0.269,1.268,0.607,1.735c0.077,0.115,0.162,0.216,0.261,0.315c0.223,0.223,0.492,0.407,0.814,0.553
					c0.453,0.207,1.014,0.33,1.697,0.361h1.805c0.906,0,1.644,0.63,1.644,1.397L35.204,52.545z"/>
			</g>
		</g>
		<g>
			<g>
				<path style="fill:#F5C4A5;" d="M35.158,54.365c0,0.769-0.469,1.452-1.183,1.897c-0.023,0.016-0.031,0.024-0.054,0.03
					c-0.123,0.077-0.261,0.146-0.399,0.208c-0.054,0.022-0.092,0.046-0.146,0.062v0.008c-0.438,0.161-0.937,0.253-1.459,0.253
					c-1.797,0-3.249-1.099-3.249-2.458c0-1.352,1.452-2.458,3.249-2.458c0.507,0,0.983,0.093,1.414,0.254
					C34.413,52.553,35.158,53.397,35.158,54.365z"/>
			</g>
		</g>
		<g>
			<g>
				<path style="fill:#F5C4A5;" d="M27.162,54.365c0,1.359-1.459,2.458-3.249,2.458c-0.422,0-0.837-0.062-1.206-0.177
					c-0.2-0.054-0.376-0.123-0.545-0.207c-0.323-0.161-0.599-0.354-0.822-0.576c-0.369-0.361-0.599-0.807-0.66-1.282
					c0,0,0.007-0.008,0-0.008c-0.008-0.069-0.008-0.139-0.008-0.208c0-0.537,0.23-1.037,0.63-1.443
					c0.261-0.292,0.63-0.538,1.044-0.715c0.461-0.185,0.999-0.3,1.567-0.3C25.703,51.907,27.162,53.014,27.162,54.365z"/>
			</g>
		</g>
		<g>
			<g>
				<path style="fill:#EAB99A;" d="M32.072,38.457c0,2.899-1.779,6.405-3.993,6.405c-0.105,0-0.205-0.007-0.303-0.026
					c-2.076-0.297-3.723-3.611-3.723-6.379c0-2.773,1.627-5.041,3.703-5.245c0.099-0.006,0.198-0.013,0.303-0.013
					C30.274,33.199,32.072,35.552,32.072,38.457z"/>
			</g>
		</g>
		<g>
			<g>
				<path style="fill:#F5C4A5;" d="M31.466,38.457c0,2.768-1.621,6.082-3.69,6.379c-2.076-0.297-3.723-3.611-3.723-6.379
					c0-0.085,0-0.178,0.013-0.264c0.066-1.931,0.929-3.591,2.168-4.414c0.349-0.237,0.718-0.402,1.114-0.495l0.026-0.006
					c0.007-0.007,0.02-0.007,0.027-0.007c0.118-0.026,0.237-0.046,0.355-0.06c0.257,0.026,0.507,0.086,0.751,0.172
					c1.509,0.54,2.662,2.194,2.906,4.25C31.446,37.903,31.466,38.181,31.466,38.457z"/>
			</g>
		</g>
		<g>
			<g>
				<path style="fill:#F3AA43;" d="M23.624,34.67c0,0,0.766,1.812,4.034,2.307c3.269,0.494,3.928,1.976,4.257,2.965
					c0,0,1.812-4.283-0.934-5.93C28.236,32.364,24.832,31.925,23.624,34.67z"/>
			</g>
		</g>
		<g>
			<g>
				<path style="fill:#4C8EB5;" d="M35.542,55.011c0.169,0.438,0.346,0.883,0.515,1.321l0.039,0.123
					c0.137,0.351,0.223,0.698,0.284,1.041c0.562-0.153,1.115-0.33,1.623-0.617c0.452-0.256,0.855-0.576,1.281-0.864
					c-0.811-2.952-1.597-4.893-2.95-7.971c-0.016-0.038-0.031-0.069-0.046-0.107c-0.315-0.622-1.037-0.968-1.759-0.783h-1.69
					c-0.684-0.031-1.244-0.154-1.697-0.361l-3.119,2.865l-3.118-2.865c-0.454,0.207-1.014,0.33-1.698,0.361h-1.674
					c-0.722-0.185-1.452,0.161-1.767,0.783c-0.016,0.038-0.031,0.069-0.039,0.107c-1.394,3.154-2.185,5.111-3.018,8.19
					c0.819,0.765,1.869,1.12,2.926,1.475c0.061-0.41,0.157-0.83,0.322-1.254l0.046-0.123c0.169-0.438,0.338-0.876,0.507-1.306
					c0.2,0.314,0.484,0.599,0.829,0.837c0.223,0.223,0.5,0.415,0.822,0.576c0.169,0.084,0.345,0.153,0.545,0.207
					c0.676,1.69,1.106,3.219,1.237,4.724h8.165c0.13-1.528,0.576-3.08,1.267-4.8v-0.008c0.054-0.016,0.092-0.039,0.146-0.062
					c0.138-0.062,0.276-0.131,0.399-0.208c0.023-0.007,0.031-0.015,0.054-0.03C34.682,55.955,35.227,55.525,35.542,55.011z"/>
			</g>
		</g>
		<g>
			<g>
				<path style="fill:#A0A0A0;" d="M36.928,53.066v9.124c0,0.392-0.32,0.712-0.711,0.712H19.674c-0.391,0-0.712-0.32-0.712-0.712
					v-9.124c0-0.391,0.32-0.711,0.712-0.711h16.542C36.607,52.355,36.928,52.676,36.928,53.066z"/>
			</g>
		</g>
		<g>
			<g>
				<path style="fill:#909090;" d="M38.056,62.85H18.07c-0.195,0-0.355-0.16-0.355-0.355l0,0c0-0.195,0.16-0.356,0.355-0.356h19.986
					c0.195,0,0.355,0.16,0.355,0.356l0,0C38.411,62.689,38.251,62.85,38.056,62.85z"/>
			</g>
		</g>
		<g>
			<g>
				<circle style="fill:#D0D0D0;" cx="27.76" cy="56.951" r="1.095"/>
			</g>
		</g>
		<g>
			<path style="fill:#EAB99A;" d="M36.008,46.476l0.457,1.089c-0.014,0.033-0.688,1.34-1.061,1.854l-0.247-0.041l0.523-1.765
				c-0.293,0.223-1.322,1.343-1.322,1.343l-0.523,2.27c-0.031-0.016-1.452-0.812-1.764-1.116l0.496-1.591l0.349-1.505
				c0-0.132,0.288-0.389,0.397-0.475l1.604-1.674c0.436,0.358,1.65,0.18,2.086,0.545C36.607,45.729,36.008,46.476,36.008,46.476z"/>
		</g>
		<g>
			<rect x="1.399" y="61.59" style="fill:#F19B2C;" width="14.777" height="1.098"/>
		</g>
		<g>
			<rect x="0.018" y="60.084" style="fill:#D6741D;" width="14.778" height="1.568"/>
		</g>
		<g>
			<rect x="2.561" y="59.449" style="fill:#FCE2AA;" width="14.778" height="0.784"/>
		</g>
	</g>
</g>
</svg>
