<?xml version="1.0" encoding="iso-8859-1"?>
<!-- Generator: Adobe Illustrator 19.1.0, SVG Export Plug-In . SVG Version: 6.00 Build 0)  -->
<!DOCTYPE svg PUBLIC "-//W3C//DTD SVG 1.1//EN" "http://www.w3.org/Graphics/SVG/1.1/DTD/svg11.dtd">
<svg version="1.1" id="illustrations" xmlns="http://www.w3.org/2000/svg" xmlns:xlink="http://www.w3.org/1999/xlink" x="0px"
	 y="0px" viewBox="0 0 97.163 88.503" style="enable-background:new 0 0 97.163 88.503;" xml:space="preserve">
<g>
	<g>
		<polygon style="fill:#455556;" points="68.212,73.478 75.522,81.691 89.727,58.282 79.653,54.625 		"/>
	</g>
	<g>
		<ellipse style="fill:#5D2C10;" cx="48.833" cy="4.27" rx="3.367" ry="4.269"/>
	</g>
	<g>
		<ellipse style="fill:#2C3A48;" cx="48.809" cy="4.188" rx="1.162" ry="0.59"/>
	</g>
	<g>
		<path style="fill:#2C3A48;" d="M62.324,13.364c0,1.662-1.256,3.021-2.79,3.021H39.289c-1.535,0-2.79-1.359-2.79-3.021
			c0-2.37,1.774-4.292,3.963-4.292H58.36C60.549,9.073,62.324,10.994,62.324,13.364z"/>
	</g>
	<g>
		<polygon style="fill:#C52E25;" points="19.958,65.061 9.448,68.291 9.448,40.909 19.958,43.009 		"/>
	</g>
	<g>
		<path style="fill:#E54D42;" d="M11.018,74.45l-2.491,0.224c-2.165,0.193-4.909-1.574-5.101-3.739L0.85,41.911
			c-0.192-2.165,2.173-4.31,4.338-4.504l2.491-0.223c2.165-0.194,5.054,3.136,5.248,5.301l1.674,27.675
			C14.795,72.326,13.183,74.255,11.018,74.45z"/>
	</g>
	<g>
		<circle style="fill:#AD7C5E;" cx="48.307" cy="49.762" r="34.003"/>
	</g>
	<g>
		<g>
			<polygon style="fill:#F4CAAF;" points="18.867,53.536 21.049,54.263 21.049,54.774 18.867,56.125 			"/>
		</g>
		<g>
			<polygon style="fill:#EAB99A;" points="15.233,47.459 19.277,50.975 19.277,58.458 15.233,62.087 10.546,52.675 			"/>
		</g>
		<g>
			<polygon style="fill:#7D4C2E;" points="15.331,48.82 16.183,47.459 14.601,45.746 8.396,44.693 2.799,47.459 0,52.675 0,57.978 
				2.495,62.087 6.01,63.902 12.247,63.902 16.669,62.087 16.669,59.189 13.384,50.521 16.669,50.521 			"/>
		</g>
	</g>
	<g>
		<polygon style="fill:#E54D42;" points="4.083,37.883 23.185,30.171 38.015,40.337 34.786,44.165 23.394,37.088 9.67,44.165 		"/>
	</g>
	<g>
		<polygon style="fill:#E54D42;" points="11.078,64.426 27.821,67.177 35.476,57.7 40.14,59.898 29.854,74.689 8.103,74.671 		"/>
	</g>
	<g>
		
			<rect x="27.448" y="44.165" transform="matrix(0.9923 -0.1241 0.1241 0.9923 -6.0085 5.0049)" style="fill:#E0E0E0;" width="19.434" height="13.123"/>
	</g>
	<g>
		
			<rect x="27.448" y="44.165" transform="matrix(0.9999 -0.0168 0.0168 0.9999 -0.8485 0.6327)" style="fill:#F5F5F5;" width="19.435" height="13.122"/>
	</g>
	<g>
		<polygon style="fill:#EAB99A;" points="35.485,43.336 36.519,46.862 37.886,47.983 38.186,47.352 37.434,46.404 37.165,45.029 
			38.534,45.358 39.854,47.983 39.253,49.221 39.854,49.806 41.205,48.333 41.522,45.977 40.921,43.355 37.594,40.909 		"/>
	</g>
	<g>
		<path style="fill:#EAB99A;" d="M36.646,58.251l0.07-2.758l1.051-1.889c0.026-0.046,0.056-0.089,0.09-0.129l0.577-0.674
			l0.554,0.299l-0.554,1.196l-0.42,1.828h0.974l2.093-2.845l0.243-1.256l1.791,0.718l0.359,2.216l-1.794,3.484l-2.025,1.227
			L36.646,58.251z"/>
	</g>
	<g>
		<path style="fill:#556566;" d="M70.985,86.142l2.015,1.483c1.75,1.289,5.013,1.201,6.3-0.551l17.258-23.475
			c1.288-1.752,0.378-4.812-1.372-6.102l-2.014-1.482c-1.75-1.289-5.948,0.059-7.236,1.809L70.146,80.617
			C68.858,82.367,69.235,84.853,70.985,86.142z"/>
	</g>
	<g>
		<g>
			<path style="fill:#F4CAAF;" d="M74.925,63.981l-1.363-0.041c-0.516-0.015-0.859,0.527-0.625,0.987l0.646,1.267L74.925,63.981z"/>
		</g>
		<g>
			<path style="fill:#EAB99A;" d="M79.232,61.25l-2.134,0.366c-0.633,0.109-1.188,0.487-1.521,1.036l-2.845,4.688
				c-0.327,0.538-0.409,1.191-0.226,1.794l0.443,1.464c0.425,1.402,2.069,2.016,3.309,1.232l5.15-3.253
				c0.77-0.486,1.164-1.394,0.995-2.288l-0.616-3.264C81.563,61.835,80.425,61.045,79.232,61.25z"/>
		</g>
		<g>
			<polygon style="fill:#F7B23F;" points="80.593,61.994 80.571,60.388 82.813,59.744 88.664,62.063 92.013,67.332 91.7,73.243 
				88.95,77.776 84.685,79.995 80.738,79.722 75.407,76.487 72.567,72.642 74.07,70.164 81.375,64.458 78.567,62.754 			"/>
		</g>
	</g>
	<g>
		<path style="fill:#6D3C1F;" d="M55.543,9.881c-2.233,4.011-3.786,6.083-6.711,5.692c-3.707,0-6.711-2.548-6.711-5.692
			c0-3.144,3.004-5.693,6.711-5.693C52.539,4.188,55.543,6.737,55.543,9.881z"/>
	</g>
	<g>
		<path style="fill:#2C3A48;" d="M48.475,18.094c0,1.212-1.939,2.195-4.332,2.195c-2.393,0-4.332-0.983-4.332-2.195
			s-0.979-2.751,1.413-2.751C43.616,15.343,48.475,16.881,48.475,18.094z"/>
	</g>
	<g>
		<path style="fill:#2C3A48;" d="M58.634,18.282c0,1.212-1.94,2.195-4.332,2.195c-2.393,0-4.332-0.983-4.332-2.195
			c0-1.213,4.639-3.399,7.031-3.399C59.393,14.883,58.634,17.069,58.634,18.282z"/>
	</g>
	<g>
		<g>
			<path style="fill:#EAB99A;" d="M55.05,14.173c0,3.689-2.819,5.762-6.298,5.762c-3.479,0-6.298-2.072-6.298-5.762
				c0-3.689,2.819-6.681,6.298-6.681C52.231,7.493,55.05,10.484,55.05,14.173z"/>
		</g>
		<g>
			<ellipse style="fill:#EAB99A;" cx="48.752" cy="19.181" rx="0.782" ry="1.795"/>
		</g>
		<g>
			<path style="fill:#6D3C1F;" d="M43.641,16.652h8.755l0.833-0.616l1.421,0.349c0.349-0.161,3.203-8.355-1.805-11.063l-9.22,0.968
				C43.625,6.29,39.43,11.225,43.641,16.652z"/>
		</g>
	</g>
	<g>
		<path style="fill:#C5D5D6;" d="M60.356,39.597H38.885c-0.279,0-0.507-0.229-0.507-0.507v-9.679c0-0.279,0.229-0.507,0.507-0.507
			h21.471c0.279,0,0.507,0.228,0.507,0.507v9.679C60.863,39.369,60.635,39.597,60.356,39.597z"/>
	</g>
	<g>
		<g>
			<rect x="42.829" y="31.881" style="fill:#95A5A6;" width="13.968" height="6.407"/>
		</g>
		<g>
			<g>
				<rect x="46.086" y="32.24" style="fill:#C5D5D6;" width="7.549" height="0.881"/>
			</g>
			<g>
				<g>
					<rect x="43.26" y="33.36" style="fill:#C5D5D6;" width="1.573" height="0.717"/>
				</g>
				<g>
					<rect x="45.184" y="33.36" style="fill:#C5D5D6;" width="1.573" height="0.717"/>
				</g>
				<g>
					<rect x="47.107" y="33.36" style="fill:#C5D5D6;" width="1.574" height="0.717"/>
				</g>
				<g>
					<rect x="49.031" y="33.36" style="fill:#C5D5D6;" width="1.574" height="0.717"/>
				</g>
				<g>
					<rect x="50.955" y="33.36" style="fill:#C5D5D6;" width="1.573" height="0.717"/>
				</g>
				<g>
					<g>
						<rect x="52.878" y="33.36" style="fill:#C5D5D6;" width="1.573" height="0.717"/>
					</g>
				</g>
				<g>
					<g>
						<rect x="54.802" y="33.36" style="fill:#C5D5D6;" width="1.573" height="0.717"/>
					</g>
				</g>
			</g>
			<g>
				<g>
					<rect x="43.26" y="34.284" style="fill:#C5D5D6;" width="1.573" height="0.717"/>
				</g>
				<g>
					<rect x="45.184" y="34.284" style="fill:#C5D5D6;" width="1.573" height="0.717"/>
				</g>
				<g>
					<rect x="47.107" y="34.284" style="fill:#C5D5D6;" width="1.574" height="0.717"/>
				</g>
				<g>
					<rect x="49.031" y="34.284" style="fill:#C5D5D6;" width="1.574" height="0.717"/>
				</g>
				<g>
					<rect x="50.955" y="34.284" style="fill:#C5D5D6;" width="1.573" height="0.717"/>
				</g>
				<g>
					<g>
						<rect x="52.878" y="34.284" style="fill:#C5D5D6;" width="1.573" height="0.717"/>
					</g>
				</g>
				<g>
					<g>
						<rect x="54.802" y="34.284" style="fill:#C5D5D6;" width="1.573" height="0.717"/>
					</g>
				</g>
			</g>
			<g>
				<g>
					<rect x="43.26" y="35.208" style="fill:#C5D5D6;" width="1.573" height="0.717"/>
				</g>
				<g>
					<rect x="45.184" y="35.208" style="fill:#C5D5D6;" width="1.573" height="0.717"/>
				</g>
				<g>
					<rect x="47.107" y="35.208" style="fill:#C5D5D6;" width="1.574" height="0.717"/>
				</g>
				<g>
					<rect x="49.031" y="35.208" style="fill:#C5D5D6;" width="1.574" height="0.717"/>
				</g>
				<g>
					<rect x="50.955" y="35.208" style="fill:#C5D5D6;" width="1.573" height="0.717"/>
				</g>
				<g>
					<g>
						<rect x="52.878" y="35.208" style="fill:#C5D5D6;" width="1.573" height="0.717"/>
					</g>
				</g>
				<g>
					<g>
						<rect x="54.802" y="35.208" style="fill:#C5D5D6;" width="1.573" height="0.717"/>
					</g>
				</g>
			</g>
			<g>
				<g>
					<rect x="43.26" y="36.132" style="fill:#C5D5D6;" width="1.573" height="0.717"/>
				</g>
				<g>
					<rect x="45.184" y="36.132" style="fill:#C5D5D6;" width="1.573" height="0.717"/>
				</g>
				<g>
					<rect x="47.107" y="36.132" style="fill:#C5D5D6;" width="1.574" height="0.717"/>
				</g>
				<g>
					<rect x="49.031" y="36.132" style="fill:#C5D5D6;" width="1.574" height="0.717"/>
				</g>
				<g>
					<rect x="50.955" y="36.132" style="fill:#C5D5D6;" width="1.573" height="0.717"/>
				</g>
				<g>
					<g>
						<rect x="52.878" y="36.132" style="fill:#C5D5D6;" width="1.573" height="0.717"/>
					</g>
				</g>
				<g>
					<g>
						<rect x="54.802" y="36.132" style="fill:#C5D5D6;" width="1.573" height="0.717"/>
					</g>
				</g>
			</g>
			<g>
				<g>
					<rect x="43.26" y="37.056" style="fill:#C5D5D6;" width="0.762" height="0.717"/>
				</g>
				<g>
					<rect x="44.191" y="37.056" style="fill:#C5D5D6;" width="0.762" height="0.717"/>
				</g>
				<g>
					<rect x="45.122" y="37.056" style="fill:#C5D5D6;" width="0.762" height="0.717"/>
				</g>
				<g>
					<rect x="46.053" y="37.056" style="fill:#C5D5D6;" width="0.762" height="0.717"/>
				</g>
				<g>
					<rect x="46.984" y="37.056" style="fill:#C5D5D6;" width="0.762" height="0.717"/>
				</g>
				<g>
					<g>
						<rect x="47.916" y="37.056" style="fill:#C5D5D6;" width="0.762" height="0.717"/>
					</g>
				</g>
				<g>
					<g>
						<rect x="48.847" y="37.056" style="fill:#C5D5D6;" width="0.762" height="0.717"/>
					</g>
				</g>
			</g>
			<g>
				<g>
					<rect x="49.861" y="37.056" style="fill:#C5D5D6;" width="0.787" height="0.717"/>
				</g>
				<g>
					<rect x="50.823" y="37.056" style="fill:#C5D5D6;" width="0.787" height="0.717"/>
				</g>
				<g>
					<rect x="51.785" y="37.056" style="fill:#C5D5D6;" width="0.787" height="0.717"/>
				</g>
				<g>
					<rect x="52.747" y="37.056" style="fill:#C5D5D6;" width="0.787" height="0.717"/>
				</g>
				<g>
					<rect x="53.708" y="37.056" style="fill:#C5D5D6;" width="0.787" height="0.717"/>
				</g>
				<g>
					<g>
						<rect x="54.67" y="37.056" style="fill:#C5D5D6;" width="0.787" height="0.717"/>
					</g>
				</g>
				<g>
					<g>
						<rect x="55.632" y="37.056" style="fill:#C5D5D6;" width="0.787" height="0.717"/>
					</g>
				</g>
			</g>
		</g>
	</g>
	<g>
		<polygon style="fill:#F4CAAF;" points="42.018,29.179 46.013,31.311 47.077,32.051 46.741,32.236 45.272,31.496 44.547,31.496 
			44.547,31.819 46.741,33.393 47.473,34.087 47.473,34.866 46.741,35.8 45.465,35.8 41.523,33.254 40.103,31.599 		"/>
	</g>
	<g>
		<polygon style="fill:#F4CAAF;" points="56.345,28.201 54.667,29.505 53.603,30.663 53.372,31.311 53.834,31.681 54.36,30.755 
			55.543,30.477 54.36,32.489 52.539,33.023 52.539,33.763 53.649,34.866 54.442,34.866 57.259,33.347 58.331,30.995 		"/>
	</g>
	<g>
		<polygon style="fill:#2C3A48;" points="36.925,11.433 30.674,24.553 39.745,32.051 42.455,28.626 35.994,22.795 39.93,15.089 		
			"/>
	</g>
	<g>
		<polygon style="fill:#2C3A48;" points="62.082,11.897 66.423,24.322 58.555,31.311 56.056,27.793 62.304,22.337 59.018,16.13 		
			"/>
	</g>
	<g>
		<path style="fill:#95A5A6;" d="M61.835,40.011H37.406c-0.254,0-0.46-0.207-0.46-0.46l0,0c0-0.253,0.207-0.461,0.46-0.461h24.429
			c0.253,0,0.46,0.208,0.46,0.461l0,0C62.295,39.804,62.088,40.011,61.835,40.011z"/>
	</g>
	<g>
		<path style="fill:#95A5A6;" d="M52.187,31.533h-4.652c-0.292,0-0.53-0.239-0.53-0.53v-1.06c0-0.292,0.238-0.53,0.53-0.53h4.652
			c0.292,0,0.53,0.239,0.53,0.53v1.06C52.717,31.295,52.479,31.533,52.187,31.533z"/>
	</g>
	<g>
		<g>
			<path style="fill:#505050;" d="M48.301,56.206l16.696-16.696c0.217-0.217,0.571-0.217,0.788,0l7.527,7.526
				c0.217,0.217,0.217,0.572,0,0.789L56.617,64.521c-0.217,0.217-0.572,0.217-0.789,0l-7.526-7.527
				C48.084,56.777,48.084,56.422,48.301,56.206z"/>
		</g>
		<g>
			<g>
				
					<rect x="52.328" y="47.992" transform="matrix(-0.7071 0.7071 -0.7071 -0.7071 138.8676 45.5132)" style="fill:#303030;" width="15.361" height="7.046"/>
			</g>
			<g>
				<g>
					
						<rect x="57.69" y="52.938" transform="matrix(-0.7071 0.7071 -0.7071 -0.7071 143.3443 47.4697)" style="fill:#808080;" width="8.302" height="0.969"/>
				</g>
				<g>
					<g>
						
							<rect x="64.69" y="47.7" transform="matrix(-0.7071 0.7071 -0.7071 -0.7071 145.917 35.7443)" style="fill:#808080;" width="1.731" height="0.789"/>
					</g>
					<g>
						
							<rect x="63.194" y="49.196" transform="matrix(-0.7071 0.7071 -0.7071 -0.7071 144.4207 39.3553)" style="fill:#808080;" width="1.731" height="0.788"/>
					</g>
					<g>
						
							<rect x="61.698" y="50.691" transform="matrix(-0.7071 0.7071 -0.7071 -0.7071 142.9246 42.9695)" style="fill:#808080;" width="1.73" height="0.789"/>
					</g>
					<g>
						
							<rect x="60.202" y="52.187" transform="matrix(-0.7071 0.7071 -0.7071 -0.7071 141.4285 46.5816)" style="fill:#808080;" width="1.73" height="0.789"/>
					</g>
					<g>
						
							<rect x="58.706" y="53.684" transform="matrix(-0.7071 0.7071 -0.7071 -0.7071 139.9331 50.1899)" style="fill:#808080;" width="1.731" height="0.788"/>
					</g>
					<g>
						<g>
							
								<rect x="57.21" y="55.179" transform="matrix(-0.7071 0.7071 -0.7071 -0.7071 138.438 53.8014)" style="fill:#808080;" width="1.731" height="0.789"/>
						</g>
					</g>
					<g>
						<g>
							
								<rect x="55.714" y="56.676" transform="matrix(-0.7071 0.7071 -0.7071 -0.7071 136.9419 57.4133)" style="fill:#808080;" width="1.731" height="0.789"/>
						</g>
					</g>
				</g>
				<g>
					<g>
						
							<rect x="63.971" y="46.981" transform="matrix(-0.7071 0.7071 -0.7071 -0.7071 144.1823 35.0289)" style="fill:#808080;" width="1.73" height="0.789"/>
					</g>
					<g>
						
							<rect x="62.475" y="48.477" transform="matrix(-0.7071 0.7071 -0.7071 -0.7071 142.6866 38.6441)" style="fill:#808080;" width="1.731" height="0.789"/>
					</g>
					<g>
						
							<rect x="60.979" y="49.974" transform="matrix(-0.7074 0.7068 -0.7068 -0.7074 141.193 42.2841)" style="fill:#808080;" width="1.731" height="0.787"/>
					</g>
					<g>
						
							<rect x="59.484" y="51.468" transform="matrix(-0.7071 0.7071 -0.7071 -0.7071 139.695 45.862)" style="fill:#808080;" width="1.73" height="0.789"/>
					</g>
					<g>
						
							<rect x="57.988" y="52.965" transform="matrix(-0.7071 0.7071 -0.7071 -0.7071 138.1989 49.4738)" style="fill:#808080;" width="1.73" height="0.789"/>
					</g>
					<g>
						<g>
							
								<rect x="56.492" y="54.461" transform="matrix(-0.7071 0.7071 -0.7071 -0.7071 136.7029 53.0891)" style="fill:#808080;" width="1.731" height="0.789"/>
						</g>
					</g>
					<g>
						<g>
							
								<rect x="54.996" y="55.957" transform="matrix(-0.7071 0.7071 -0.7071 -0.7071 135.2067 56.701)" style="fill:#808080;" width="1.731" height="0.789"/>
						</g>
					</g>
				</g>
				<g>
					<g>
						
							<rect x="63.252" y="46.262" transform="matrix(-0.7071 0.7071 -0.7071 -0.7071 142.4466 34.3069)" style="fill:#808080;" width="1.731" height="0.789"/>
					</g>
					<g>
						
							<rect x="61.757" y="47.759" transform="matrix(-0.7071 0.7071 -0.7071 -0.7071 140.9518 37.9217)" style="fill:#808080;" width="1.731" height="0.788"/>
					</g>
					<g>
						
							<rect x="60.261" y="49.255" transform="matrix(-0.7071 0.7071 -0.7071 -0.7071 139.4563 41.53)" style="fill:#808080;" width="1.731" height="0.789"/>
					</g>
					<g>
						
							<rect x="58.765" y="50.751" transform="matrix(-0.7071 0.7071 -0.7071 -0.7071 137.9599 45.1412)" style="fill:#808080;" width="1.731" height="0.788"/>
					</g>
					<g>
						
							<rect x="57.269" y="52.246" transform="matrix(-0.7068 0.7074 -0.7074 -0.7068 136.4623 48.7209)" style="fill:#808080;" width="1.731" height="0.789"/>
					</g>
					<g>
						<g>
							
								<rect x="55.773" y="53.742" transform="matrix(-0.7071 0.7071 -0.7071 -0.7071 134.9675 52.364)" style="fill:#808080;" width="1.731" height="0.789"/>
						</g>
					</g>
					<g>
						<g>
							
								<rect x="54.277" y="55.238" transform="matrix(-0.7071 0.7071 -0.7071 -0.7071 133.4715 55.9759)" style="fill:#808080;" width="1.731" height="0.789"/>
						</g>
					</g>
				</g>
				<g>
					<g>
						
							<rect x="62.534" y="45.544" transform="matrix(-0.7071 0.7071 -0.7071 -0.7071 140.7127 33.5909)" style="fill:#808080;" width="1.73" height="0.788"/>
					</g>
					<g>
						
							<rect x="61.039" y="47.04" transform="matrix(-0.7071 0.7071 -0.7071 -0.7071 139.2174 37.2025)" style="fill:#808080;" width="1.73" height="0.789"/>
					</g>
					<g>
						
							<rect x="59.543" y="48.536" transform="matrix(-0.7071 0.7071 -0.7071 -0.7071 137.7214 40.8143)" style="fill:#808080;" width="1.73" height="0.789"/>
					</g>
					<g>
						
							<rect x="58.046" y="50.032" transform="matrix(-0.7071 0.7071 -0.7071 -0.7071 136.2253 44.4263)" style="fill:#808080;" width="1.73" height="0.789"/>
					</g>
					<g>
						
							<rect x="56.55" y="51.528" transform="matrix(-0.7071 0.7071 -0.7071 -0.7071 134.7288 48.0373)" style="fill:#808080;" width="1.73" height="0.788"/>
					</g>
					<g>
						<g>
							
								<rect x="55.054" y="53.024" transform="matrix(-0.7071 0.7071 -0.7071 -0.7071 133.2328 51.6524)" style="fill:#808080;" width="1.731" height="0.788"/>
						</g>
					</g>
					<g>
						<g>
							
								<rect x="53.558" y="54.519" transform="matrix(-0.7071 0.7071 -0.7071 -0.7071 131.7362 55.2636)" style="fill:#808080;" width="1.731" height="0.789"/>
						</g>
					</g>
				</g>
				<g>
					<g>
						
							<rect x="62.578" y="44.51" transform="matrix(-0.7074 0.7068 -0.7068 -0.7074 139.2991 32.1421)" style="fill:#808080;" width="0.838" height="0.788"/>
					</g>
					<g>
						
							<rect x="61.854" y="45.234" transform="matrix(-0.7071 0.7071 -0.7071 -0.7071 138.5697 33.8586)" style="fill:#808080;" width="0.837" height="0.789"/>
					</g>
					<g>
						
							<rect x="61.129" y="45.958" transform="matrix(-0.707 0.7072 -0.7072 -0.707 137.8446 35.6003)" style="fill:#808080;" width="0.838" height="0.789"/>
					</g>
					<g>
						
							<rect x="60.406" y="46.682" transform="matrix(-0.7071 0.7071 -0.7071 -0.7071 137.1213 37.3549)" style="fill:#808080;" width="0.837" height="0.789"/>
					</g>
					<g>
						
							<rect x="59.681" y="47.406" transform="matrix(-0.7071 0.7071 -0.7071 -0.7071 136.3972 39.1031)" style="fill:#808080;" width="0.838" height="0.789"/>
					</g>
					<g>
						<g>
							
								<rect x="58.958" y="48.13" transform="matrix(-0.7071 0.7071 -0.7071 -0.7071 135.6731 40.8512)" style="fill:#808080;" width="0.837" height="0.789"/>
						</g>
					</g>
					<g>
						<g>
							
								<rect x="58.233" y="48.854" transform="matrix(-0.7071 0.7071 -0.7071 -0.7071 134.9491 42.5998)" style="fill:#808080;" width="0.838" height="0.789"/>
						</g>
					</g>
				</g>
				<g>
					<g>
						
							<rect x="57.421" y="49.653" transform="matrix(-0.7071 0.7072 -0.7072 -0.7071 134.1503 44.521)" style="fill:#808080;" width="0.865" height="0.789"/>
					</g>
					<g>
						
							<rect x="56.673" y="50.401" transform="matrix(-0.7071 0.7071 -0.7071 -0.7071 133.4026 46.3327)" style="fill:#808080;" width="0.865" height="0.789"/>
					</g>
					<g>
						
							<rect x="55.925" y="51.149" transform="matrix(-0.707 0.7072 -0.7072 -0.707 132.654 48.1317)" style="fill:#808080;" width="0.865" height="0.788"/>
					</g>
					<g>
						
							<rect x="55.177" y="51.897" transform="matrix(-0.7077 0.7065 -0.7065 -0.7077 131.9081 50.0061)" style="fill:#808080;" width="0.865" height="0.787"/>
					</g>
					<g>
						
							<rect x="54.429" y="52.645" transform="matrix(-0.7076 0.7066 -0.7066 -0.7076 131.1591 51.8059)" style="fill:#808080;" width="0.865" height="0.787"/>
					</g>
					<g>
						<g>
							
								<rect x="53.68" y="53.393" transform="matrix(-0.7071 0.7071 -0.7071 -0.7071 130.4101 53.5557)" style="fill:#808080;" width="0.866" height="0.788"/>
						</g>
					</g>
					<g>
						<g>
							
								<rect x="52.933" y="54.14" transform="matrix(-0.7071 0.7071 -0.7071 -0.7071 129.6629 55.3613)" style="fill:#808080;" width="0.866" height="0.789"/>
						</g>
					</g>
				</g>
			</g>
		</g>
		<g>
			<path style="fill:#303030;" d="M46.829,57.033l18.996-18.996c0.197-0.197,0.52-0.197,0.717,0l0,0
				c0.197,0.197,0.197,0.519,0,0.717L47.545,57.75c-0.197,0.197-0.52,0.197-0.717,0l0,0C46.632,57.552,46.632,57.23,46.829,57.033z"
				/>
		</g>
		<g>
			<path style="fill:#303030;" d="M60.924,56.124l3.617-3.618c0.228-0.227,0.599-0.227,0.825,0l0.824,0.824
				c0.227,0.227,0.227,0.598,0,0.825l-3.618,3.618c-0.227,0.227-0.598,0.227-0.824,0l-0.824-0.825
				C60.697,56.721,60.697,56.35,60.924,56.124z"/>
		</g>
	</g>
	<g>
		<polygon style="fill:#EAB99A;" points="69.39,50.016 64.565,50.541 63.175,50.528 63.361,50.161 65.109,49.929 65.751,49.492 
			65.555,49.205 62.663,49.136 61.595,48.962 61.125,48.273 61.209,47.004 62.339,46.235 67.368,46.109 69.624,46.716 		"/>
	</g>
	<g>
		<polygon style="fill:#EAB99A;" points="58.967,61.78 59.724,59.43 59.989,57.624 59.788,56.85 59.101,56.797 59.203,58.03 
			58.248,59.071 58.068,56.366 59.466,54.662 58.982,53.952 57.195,53.62 56.434,54.138 54.724,57.439 55.314,61.218 		"/>
	</g>
	<g>
		<polygon style="fill:#556566;" points="95.883,58.478 85.332,43.294 68.826,46.501 69.39,50.016 83.272,49.824 86.469,60.039 		
			"/>
	</g>
	<g>
		<polygon style="fill:#556566;" points="76.134,77.541 59.802,72.895 58.967,61.78 55.135,60.95 54.757,76.575 73.362,87.844 		"/>
	</g>
</g>
</svg>
