<?xml version="1.0" encoding="utf-8"?>
<!-- Generator: Adobe Illustrator 19.1.0, SVG Export Plug-In . SVG Version: 6.00 Build 0)  -->
<!DOCTYPE svg PUBLIC "-//W3C//DTD SVG 1.1//EN" "http://www.w3.org/Graphics/SVG/1.1/DTD/svg11.dtd">
<svg version="1.1" id="illustrations" xmlns="http://www.w3.org/2000/svg" xmlns:xlink="http://www.w3.org/1999/xlink" x="0px"
	 y="0px" viewBox="-430 236.5 97.2 88.5" style="enable-background:new -430 236.5 97.2 88.5;" xml:space="preserve">
<style type="text/css">
	.st0{fill:#455556;}
	.st1{fill:#5D2C10;}
	.st2{fill:#661BE0;}
	.st3{fill:#A81C27;}
	.st4{fill:#E6515D;}
	.st5{fill:#AD7C5E;}
	.st6{fill:#543E36;}
	.st7{fill:#2A1F1B;}
	.st8{fill:#E0E0E0;}
	.st9{fill:#F5F5F5;}
	.st10{fill:#6AA81D;}
	.st11{fill:#F0D0B4;}
	.st12{fill:#F7B23F;}
	.st13{fill:#6D3C1F;}
	.st14{fill:#EAB99A;}
	.st15{fill:#C5D5D6;}
	.st16{fill:#95A5A6;}
	.st17{fill:#F4CAAF;}
	.st18{fill:#505050;}
	.st19{fill:#303030;}
	.st20{fill:#808080;}
</style>
<polygon class="st0" points="-361.8,310 -354.5,318.2 -340.3,294.8 -350.3,291.1 "/>
<ellipse class="st1" cx="-381.2" cy="240.8" rx="3.4" ry="4.3"/>
<ellipse class="st2" cx="-381.2" cy="240.7" rx="1.2" ry="0.6"/>
<path class="st2" d="M-367.7,249.9c0,1.7-1.3,3-2.8,3h-20.2c-1.5,0-2.8-1.4-2.8-3c0-2.4,1.8-4.3,4-4.3h17.9
	C-369.5,245.6-367.7,247.5-367.7,249.9z"/>
<polygon class="st3" points="-410,301.6 -420.6,304.8 -420.6,277.4 -410,279.5 "/>
<path class="st4" d="M-419,310.9l-2.5,0.2c-2.2,0.2-4.9-1.6-5.1-3.7l-2.6-29c-0.2-2.2,2.2-4.3,4.3-4.5l2.5-0.2
	c2.2-0.2,5.1,3.1,5.2,5.3l1.7,27.7C-415.2,308.8-416.8,310.8-419,310.9z"/>
<circle class="st5" cx="-381.7" cy="286.3" r="34"/>
<polygon class="st6" points="-411.1,290 -409,290.8 -409,291.3 -411.1,292.6 "/>
<polygon class="st6" points="-414.8,284 -410.7,287.5 -410.7,295 -414.8,298.6 -419.5,289.2 "/>
<polygon class="st7" points="-414.7,285.3 -413.8,284 -415.4,282.2 -421.6,281.2 -427.2,284 -430,289.2 -430,294.5 -427.5,298.6 
	-424,300.4 -417.8,300.4 -413.3,298.6 -413.3,295.7 -416.6,287 -413.3,287 "/>
<polygon class="st4" points="-425.9,274.4 -406.8,266.7 -392,276.8 -395.2,280.7 -406.6,273.6 -420.3,280.7 "/>
<polygon class="st4" points="-418.9,300.9 -402.2,303.7 -394.5,294.2 -389.9,296.4 -400.1,311.2 -421.9,311.2 "/>
<rect x="-402.6" y="280.7" transform="matrix(-0.9923 0.1241 -0.1241 -0.9923 -746.9888 620.9803)" class="st8" width="19.4" height="13.1"/>
<rect x="-402.6" y="280.7" transform="matrix(-0.9999 1.679931e-02 -1.679931e-02 -0.9999 -780.7884 581.0114)" class="st9" width="19.4" height="13.1"/>
<polygon class="st6" points="-394.5,279.8 -393.5,283.4 -392.1,284.5 -391.8,283.8 -392.6,282.9 -392.8,281.5 -391.5,281.9 
	-390.1,284.5 -390.7,285.7 -390.1,286.3 -388.8,284.8 -388.5,282.5 -389.1,279.9 -392.4,277.4 "/>
<path class="st6" d="M-393.4,294.7l0.1-2.8l1.1-1.9c0,0,0.1-0.1,0.1-0.1l0.6-0.7l0.6,0.3l-0.6,1.2l-0.4,1.8h1l2.1-2.8l0.2-1.3
	l1.8,0.7l0.4,2.2l-1.8,3.5l-2,1.2L-393.4,294.7z"/>
<path class="st10" d="M-359,322.6l2,1.5c1.8,1.3,5,1.2,6.3-0.6l17.3-23.5c1.3-1.8,0.4-4.8-1.4-6.1l-2-1.5c-1.8-1.3-5.9,0.1-7.2,1.8
	l-15.8,22.8C-361.1,318.9-360.8,321.4-359,322.6z"/>
<path class="st11" d="M-355.1,300.5l-1.4,0c-0.5,0-0.9,0.5-0.6,1l0.6,1.3L-355.1,300.5z"/>
<path class="st11" d="M-350.8,297.7l-2.1,0.4c-0.6,0.1-1.2,0.5-1.5,1l-2.8,4.7c-0.3,0.5-0.4,1.2-0.2,1.8l0.4,1.5
	c0.4,1.4,2.1,2,3.3,1.2l5.1-3.3c0.8-0.5,1.2-1.4,1-2.3l-0.6-3.3C-348.4,298.3-349.6,297.5-350.8,297.7z"/>
<polygon class="st12" points="-349.4,298.5 -349.4,296.9 -347.2,296.2 -341.3,298.6 -338,303.8 -338.3,309.7 -341,314.3 
	-345.3,316.5 -349.3,316.2 -354.6,313 -357.4,309.1 -355.9,306.7 -348.6,301 -351.4,299.3 "/>
<path class="st13" d="M-374.5,246.4c-2.2,4-3.8,6.1-6.7,5.7c-3.7,0-6.7-2.5-6.7-5.7s3-5.7,6.7-5.7S-374.5,243.2-374.5,246.4z"/>
<path class="st2" d="M-381.5,254.6c0,1.2-1.9,2.2-4.3,2.2s-4.3-1-4.3-2.2c0-1.2-1-2.8,1.4-2.8S-381.5,253.4-381.5,254.6z"/>
<path class="st2" d="M-371.4,254.8c0,1.2-1.9,2.2-4.3,2.2c-2.4,0-4.3-1-4.3-2.2c0-1.2,4.6-3.4,7-3.4S-371.4,253.6-371.4,254.8z"/>
<path class="st14" d="M-375,250.7c0,3.7-2.8,5.8-6.3,5.8c-3.5,0-6.3-2.1-6.3-5.8c0-3.7,2.8-6.7,6.3-6.7
	C-377.8,244-375,247-375,250.7z"/>
<ellipse class="st14" cx="-381.2" cy="255.7" rx="0.8" ry="1.8"/>
<path class="st13" d="M-386.4,253.1h8.8l0.8-0.6l1.4,0.3c0.3-0.2,3.2-8.4-1.8-11.1l-9.2,1C-386.4,242.8-390.6,247.7-386.4,253.1z"/>
<path class="st15" d="M-369.6,276.1h-21.5c-0.3,0-0.5-0.2-0.5-0.5v-9.7c0-0.3,0.2-0.5,0.5-0.5h21.5c0.3,0,0.5,0.2,0.5,0.5v9.7
	C-369.1,275.9-369.4,276.1-369.6,276.1z"/>
<rect x="-387.2" y="268.4" class="st16" width="14" height="6.4"/>
<rect x="-383.9" y="268.7" class="st15" width="7.5" height="0.9"/>
<rect x="-386.7" y="269.9" class="st15" width="1.6" height="0.7"/>
<rect x="-384.8" y="269.9" class="st15" width="1.6" height="0.7"/>
<rect x="-382.9" y="269.9" class="st15" width="1.6" height="0.7"/>
<rect x="-381" y="269.9" class="st15" width="1.6" height="0.7"/>
<rect x="-379" y="269.9" class="st15" width="1.6" height="0.7"/>
<g>
	<rect x="-377.1" y="269.9" class="st15" width="1.6" height="0.7"/>
</g>
<g>
	<rect x="-375.2" y="269.9" class="st15" width="1.6" height="0.7"/>
</g>
<rect x="-386.7" y="270.8" class="st15" width="1.6" height="0.7"/>
<rect x="-384.8" y="270.8" class="st15" width="1.6" height="0.7"/>
<rect x="-382.9" y="270.8" class="st15" width="1.6" height="0.7"/>
<rect x="-381" y="270.8" class="st15" width="1.6" height="0.7"/>
<rect x="-379" y="270.8" class="st15" width="1.6" height="0.7"/>
<g>
	<rect x="-377.1" y="270.8" class="st15" width="1.6" height="0.7"/>
</g>
<g>
	<rect x="-375.2" y="270.8" class="st15" width="1.6" height="0.7"/>
</g>
<rect x="-386.7" y="271.7" class="st15" width="1.6" height="0.7"/>
<rect x="-384.8" y="271.7" class="st15" width="1.6" height="0.7"/>
<rect x="-382.9" y="271.7" class="st15" width="1.6" height="0.7"/>
<rect x="-381" y="271.7" class="st15" width="1.6" height="0.7"/>
<rect x="-379" y="271.7" class="st15" width="1.6" height="0.7"/>
<g>
	<rect x="-377.1" y="271.7" class="st15" width="1.6" height="0.7"/>
</g>
<g>
	<rect x="-375.2" y="271.7" class="st15" width="1.6" height="0.7"/>
</g>
<rect x="-386.7" y="272.6" class="st15" width="1.6" height="0.7"/>
<rect x="-384.8" y="272.6" class="st15" width="1.6" height="0.7"/>
<rect x="-382.9" y="272.6" class="st15" width="1.6" height="0.7"/>
<rect x="-381" y="272.6" class="st15" width="1.6" height="0.7"/>
<rect x="-379" y="272.6" class="st15" width="1.6" height="0.7"/>
<g>
	<rect x="-377.1" y="272.6" class="st15" width="1.6" height="0.7"/>
</g>
<g>
	<rect x="-375.2" y="272.6" class="st15" width="1.6" height="0.7"/>
</g>
<rect x="-386.7" y="273.6" class="st15" width="0.8" height="0.7"/>
<rect x="-385.8" y="273.6" class="st15" width="0.8" height="0.7"/>
<rect x="-384.9" y="273.6" class="st15" width="0.8" height="0.7"/>
<rect x="-383.9" y="273.6" class="st15" width="0.8" height="0.7"/>
<rect x="-383" y="273.6" class="st15" width="0.8" height="0.7"/>
<g>
	<rect x="-382.1" y="273.6" class="st15" width="0.8" height="0.7"/>
</g>
<g>
	<rect x="-381.2" y="273.6" class="st15" width="0.8" height="0.7"/>
</g>
<rect x="-380.1" y="273.6" class="st15" width="0.8" height="0.7"/>
<rect x="-379.2" y="273.6" class="st15" width="0.8" height="0.7"/>
<rect x="-378.2" y="273.6" class="st15" width="0.8" height="0.7"/>
<rect x="-377.3" y="273.6" class="st15" width="0.8" height="0.7"/>
<rect x="-376.3" y="273.6" class="st15" width="0.8" height="0.7"/>
<g>
	<rect x="-375.3" y="273.6" class="st15" width="0.8" height="0.7"/>
</g>
<g>
	<rect x="-374.4" y="273.6" class="st15" width="0.8" height="0.7"/>
</g>
<polygon class="st17" points="-388,265.7 -384,267.8 -382.9,268.5 -383.3,268.7 -384.7,268 -385.5,268 -385.5,268.3 -383.3,269.9 
	-382.5,270.6 -382.5,271.4 -383.3,272.3 -384.5,272.3 -388.5,269.8 -389.9,268.1 "/>
<polygon class="st17" points="-373.7,264.7 -375.3,266 -376.4,267.2 -376.6,267.8 -376.2,268.2 -375.6,267.3 -374.5,267 -375.6,269 
	-377.5,269.5 -377.5,270.3 -376.4,271.4 -375.6,271.4 -372.7,269.8 -371.7,267.5 "/>
<polygon class="st2" points="-393.1,247.9 -399.3,261.1 -390.3,268.5 -387.5,265.1 -394,259.3 -390.1,251.6 "/>
<polygon class="st2" points="-367.9,248.4 -363.6,260.8 -371.4,267.8 -373.9,264.3 -367.7,258.8 -371,252.6 "/>
<path class="st16" d="M-368.2,276.5h-24.4c-0.3,0-0.5-0.2-0.5-0.5l0,0c0-0.3,0.2-0.5,0.5-0.5h24.4c0.3,0,0.5,0.2,0.5,0.5l0,0
	C-367.7,276.3-367.9,276.5-368.2,276.5z"/>
<path class="st16" d="M-377.8,268h-4.7c-0.3,0-0.5-0.2-0.5-0.5v-1.1c0-0.3,0.2-0.5,0.5-0.5h4.7c0.3,0,0.5,0.2,0.5,0.5v1.1
	C-377.3,267.8-377.5,268-377.8,268z"/>
<path class="st18" d="M-381.7,292.7L-365,276c0.2-0.2,0.6-0.2,0.8,0l7.5,7.5c0.2,0.2,0.2,0.6,0,0.8l-16.7,16.7
	c-0.2,0.2-0.6,0.2-0.8,0l-7.5-7.5C-381.9,293.3-381.9,292.9-381.7,292.7z"/>
<rect x="-377.7" y="284.5" transform="matrix(0.7071 -0.7071 0.7071 0.7071 -312.0258 -177.265)" class="st19" width="15.4" height="7"/>
<rect x="-372.3" y="289.4" transform="matrix(0.7071 -0.7071 0.7071 0.7071 -312.8351 -175.412)" class="st20" width="8.3" height="1"/>
<g>
	
		<rect x="-365.3" y="284.2" transform="matrix(0.7071 -0.7071 0.7071 0.7071 -307.9775 -174.3476)" class="st20" width="1.7" height="0.8"/>
</g>
<g>
	
		<rect x="-366.8" y="285.7" transform="matrix(0.7071 -0.7071 0.7071 0.7071 -309.4733 -174.9673)" class="st20" width="1.7" height="0.8"/>
</g>
<g>
	
		<rect x="-368.3" y="287.2" transform="matrix(0.7071 -0.7071 0.7071 0.7071 -310.9709 -175.5858)" class="st20" width="1.7" height="0.8"/>
</g>
<g>
	
		<rect x="-369.8" y="288.7" transform="matrix(0.7071 -0.7071 0.7071 0.7071 -312.4673 -176.2054)" class="st20" width="1.7" height="0.8"/>
</g>
<g>
	
		<rect x="-371.3" y="290.2" transform="matrix(0.7071 -0.7071 0.7071 0.7071 -313.961 -176.8261)" class="st20" width="1.7" height="0.8"/>
</g>
<g>
	<g>
		
			<rect x="-372.8" y="291.7" transform="matrix(0.7071 -0.7071 0.7071 0.7071 -315.4568 -177.4448)" class="st20" width="1.7" height="0.8"/>
	</g>
</g>
<g>
	<g>
		
			<rect x="-374.3" y="293.2" transform="matrix(0.7071 -0.7071 0.7071 0.7071 -316.9527 -178.0652)" class="st20" width="1.7" height="0.8"/>
	</g>
</g>
<g>
	
		<rect x="-366" y="283.5" transform="matrix(0.7071 -0.7071 0.7071 0.7071 -307.6816 -175.0646)" class="st20" width="1.7" height="0.8"/>
</g>
<g>
	
		<rect x="-367.5" y="285" transform="matrix(0.7071 -0.7071 0.7071 0.7071 -309.1804 -175.6832)" class="st20" width="1.7" height="0.8"/>
</g>
<g>
	
		<rect x="-369" y="286.5" transform="matrix(0.7074 -0.7068 0.7068 0.7074 -310.4764 -176.2807)" class="st20" width="1.7" height="0.8"/>
</g>
<g>
	
		<rect x="-370.5" y="288" transform="matrix(0.7071 -0.7071 0.7071 0.7071 -312.1691 -176.9232)" class="st20" width="1.7" height="0.8"/>
</g>
<g>
	
		<rect x="-372" y="289.5" transform="matrix(0.7071 -0.7071 0.7071 0.7071 -313.6649 -177.5436)" class="st20" width="1.7" height="0.8"/>
</g>
<g>
	<g>
		
			<rect x="-373.5" y="291" transform="matrix(0.7071 -0.7071 0.7071 0.7071 -315.1639 -178.1624)" class="st20" width="1.7" height="0.8"/>
	</g>
</g>
<g>
	<g>
		
			<rect x="-375" y="292.5" transform="matrix(0.7071 -0.7071 0.7071 0.7071 -316.6601 -178.7821)" class="st20" width="1.7" height="0.8"/>
	</g>
</g>
<g>
	
		<rect x="-366.7" y="282.8" transform="matrix(0.7071 -0.7071 0.7071 0.7071 -307.382 -175.7845)" class="st20" width="1.7" height="0.8"/>
</g>
<g>
	
		<rect x="-368.2" y="284.3" transform="matrix(0.7071 -0.7071 0.7071 0.7071 -308.8804 -176.4031)" class="st20" width="1.7" height="0.8"/>
</g>
<g>
	
		<rect x="-369.7" y="285.7" transform="matrix(0.7071 -0.7071 0.7071 0.7071 -310.3737 -177.0237)" class="st20" width="1.7" height="0.8"/>
</g>
<g>
	
		<rect x="-371.2" y="287.2" transform="matrix(0.7071 -0.7071 0.7071 0.7071 -311.8697 -177.6434)" class="st20" width="1.7" height="0.8"/>
</g>
<g>
	
		<rect x="-372.7" y="288.7" transform="matrix(0.7068 -0.7074 0.7074 0.7068 -313.5651 -178.2871)" class="st20" width="1.7" height="0.8"/>
</g>
<g>
	<g>
		
			<rect x="-374.2" y="290.2" transform="matrix(0.7071 -0.7071 0.7071 0.7071 -314.8616 -178.8828)" class="st20" width="1.7" height="0.8"/>
	</g>
</g>
<g>
	<g>
		
			<rect x="-375.7" y="291.7" transform="matrix(0.7071 -0.7071 0.7071 0.7071 -316.3578 -179.5024)" class="st20" width="1.7" height="0.8"/>
	</g>
</g>
<g>
	
		<rect x="-367.5" y="282" transform="matrix(0.7071 -0.7071 0.7071 0.7071 -307.0859 -176.5018)" class="st20" width="1.7" height="0.8"/>
</g>
<g>
	
		<rect x="-369" y="283.5" transform="matrix(0.7071 -0.7071 0.7071 0.7071 -308.5822 -177.1216)" class="st20" width="1.7" height="0.8"/>
</g>
<g>
	
		<rect x="-370.5" y="285" transform="matrix(0.7071 -0.7071 0.7071 0.7071 -310.0783 -177.7413)" class="st20" width="1.7" height="0.8"/>
</g>
<g>
	
		<rect x="-372" y="286.5" transform="matrix(0.7071 -0.7071 0.7071 0.7071 -311.5739 -178.3606)" class="st20" width="1.7" height="0.8"/>
</g>
<g>
	
		<rect x="-373.4" y="288" transform="matrix(0.7071 -0.7071 0.7071 0.7071 -313.0698 -178.9804)" class="st20" width="1.7" height="0.8"/>
</g>
<g>
	<g>
		
			<rect x="-374.9" y="289.5" transform="matrix(0.7071 -0.7071 0.7071 0.7071 -314.5686 -179.5992)" class="st20" width="1.7" height="0.8"/>
	</g>
</g>
<g>
	<g>
		
			<rect x="-376.4" y="291" transform="matrix(0.7071 -0.7071 0.7071 0.7071 -316.0646 -180.2191)" class="st20" width="1.7" height="0.8"/>
	</g>
</g>
<g>
	
		<rect x="-367.4" y="281" transform="matrix(0.7074 -0.7068 0.7068 0.7074 -306.2783 -177.0644)" class="st20" width="0.8" height="0.8"/>
</g>
<g>
	
		<rect x="-368.1" y="281.7" transform="matrix(0.7071 -0.7071 0.7071 0.7071 -307.197 -177.3899)" class="st20" width="0.8" height="0.8"/>
</g>
<g>
	
		<rect x="-368.9" y="282.5" transform="matrix(0.707 -0.7072 0.7072 0.707 -307.9889 -177.6966)" class="st20" width="0.8" height="0.8"/>
</g>
<g>
	
		<rect x="-369.6" y="283.2" transform="matrix(0.7071 -0.7071 0.7071 0.7071 -308.6455 -177.9899)" class="st20" width="0.8" height="0.8"/>
</g>
<g>
	
		<rect x="-370.3" y="283.9" transform="matrix(0.7071 -0.7071 0.7071 0.7071 -309.3694 -178.2896)" class="st20" width="0.8" height="0.8"/>
</g>
<g>
	<g>
		
			<rect x="-371" y="284.6" transform="matrix(0.7071 -0.7071 0.7071 0.7071 -310.0939 -178.5896)" class="st20" width="0.8" height="0.8"/>
	</g>
</g>
<g>
	<g>
		
			<rect x="-371.8" y="285.4" transform="matrix(0.7071 -0.7071 0.7071 0.7071 -310.8181 -178.8892)" class="st20" width="0.8" height="0.8"/>
	</g>
</g>
<g>
	
		<rect x="-372.6" y="286.1" transform="matrix(0.7071 -0.7072 0.7072 0.7071 -311.6504 -179.2285)" class="st20" width="0.9" height="0.8"/>
</g>
<g>
	
		<rect x="-373.3" y="286.9" transform="matrix(0.7071 -0.7071 0.7071 0.7071 -312.364 -179.5303)" class="st20" width="0.9" height="0.8"/>
</g>
<g>
	
		<rect x="-374.1" y="287.6" transform="matrix(0.707 -0.7072 0.7072 0.707 -313.1811 -179.8472)" class="st20" width="0.9" height="0.8"/>
</g>
<g>
	
		<rect x="-374.8" y="288.4" transform="matrix(0.7077 -0.7065 0.7065 0.7077 -313.4604 -180.0989)" class="st20" width="0.9" height="0.8"/>
</g>
<g>
	
		<rect x="-375.6" y="289.1" transform="matrix(0.7076 -0.7066 0.7066 0.7076 -314.2773 -180.4159)" class="st20" width="0.9" height="0.8"/>
</g>
<g>
	<g>
		
			<rect x="-376.3" y="289.9" transform="matrix(0.7071 -0.7071 0.7071 0.7071 -315.3557 -180.7695)" class="st20" width="0.9" height="0.8"/>
	</g>
</g>
<g>
	<g>
		
			<rect x="-377.1" y="290.6" transform="matrix(0.7071 -0.7071 0.7071 0.7071 -316.1042 -181.0788)" class="st20" width="0.9" height="0.8"/>
	</g>
</g>
<path class="st19" d="M-383.2,293.5l19-19c0.2-0.2,0.5-0.2,0.7,0l0,0c0.2,0.2,0.2,0.5,0,0.7l-19,19c-0.2,0.2-0.5,0.2-0.7,0l0,0
	C-383.4,294-383.4,293.7-383.2,293.5z"/>
<path class="st19" d="M-369.1,292.6l3.6-3.6c0.2-0.2,0.6-0.2,0.8,0l0.8,0.8c0.2,0.2,0.2,0.6,0,0.8l-3.6,3.6c-0.2,0.2-0.6,0.2-0.8,0
	l-0.8-0.8C-369.3,293.2-369.3,292.8-369.1,292.6z"/>
<polygon class="st11" points="-360.6,286.5 -365.4,287 -366.8,287 -366.6,286.7 -364.9,286.4 -364.2,286 -364.4,285.7 -367.3,285.6 
	-368.4,285.5 -368.9,284.8 -368.8,283.5 -367.7,282.7 -362.6,282.6 -360.4,283.2 "/>
<polygon class="st11" points="-371,298.3 -370.3,295.9 -370,294.1 -370.2,293.3 -370.9,293.3 -370.8,294.5 -371.8,295.6 
	-371.9,292.9 -370.5,291.2 -371,290.4 -372.8,290.1 -373.6,290.6 -375.3,293.9 -374.7,297.7 "/>
<polygon class="st10" points="-334.1,295 -344.7,279.8 -361.2,283 -360.6,286.5 -346.7,286.3 -343.5,296.5 "/>
<polygon class="st10" points="-353.9,314 -370.2,309.4 -371,298.3 -374.9,297.4 -375.2,313.1 -356.6,324.3 "/>
</svg>
