<?xml version="1.0" encoding="iso-8859-1"?>
<!-- Generator: Adobe Illustrator 19.1.0, SVG Export Plug-In . SVG Version: 6.00 Build 0)  -->
<!DOCTYPE svg PUBLIC "-//W3C//DTD SVG 1.1//EN" "http://www.w3.org/Graphics/SVG/1.1/DTD/svg11.dtd">
<svg version="1.1" id="illustrations" xmlns="http://www.w3.org/2000/svg" xmlns:xlink="http://www.w3.org/1999/xlink" x="0px"
	 y="0px" viewBox="0 0 97.771 78.57" style="enable-background:new 0 0 97.771 78.57;" xml:space="preserve">
<g>
	<g>
		<g>
			<path style="fill:#F3AA43;" d="M47.332,15.872c0,6.701-10.14,10.657-10.14,10.657s-10.139-3.956-10.139-10.657
				s4.54-12.133,10.139-12.133C42.792,3.739,47.332,9.171,47.332,15.872z"/>
		</g>
		<g>
			<path style="fill:#EF893A;" d="M42.53,10.869c0,0,5.167,8.433-2.93,14.507l0,0l-5.684-0.493c0,0-3.535-3.87-2.677-7.603l0,0
				L42.53,10.869L42.53,10.869z"/>
		</g>
		<g>
			<path style="fill:#EAB99A;" d="M27.929,45.093c0.05-0.758,0.097-1.536,0.14-2.325c0-0.071,0-0.131,0.01-0.202
				c0.111-2.176,0.211-4.403,0.282-6.327c0.11-3.033,0.161-5.341,0.161-5.572c0-1.068-0.756-1.965-1.773-2.237
				c-0.212-0.06-0.434-0.091-0.665-0.091c-1.239,0-2.247,0.887-2.408,2.025c-0.01,0.06-0.021,0.111-0.021,0.171
				c-0.454,4.704-0.542,9.567-0.341,14.558H27.929z"/>
		</g>
		<g>
			<path style="fill:#EAB99A;" d="M45.622,42.787c0.01,0.03,0.01,0.051,0.01,0.081c0.042,0.756,0.086,1.5,0.133,2.225h4.611
				c0.202-4.99,0.114-9.854-0.341-14.558c0.01-0.06-0.01-0.111-0.02-0.171c-0.151-1.139-1.169-2.025-2.408-2.025
				c-0.222,0-0.433,0.03-0.635,0.081c-1.038,0.262-1.804,1.169-1.804,2.247c0,0.231,0.05,2.499,0.161,5.491
				C45.4,38.163,45.5,40.51,45.622,42.787z"/>
		</g>
		<g>
			<path style="fill:#EAB99A;" d="M25.036,38.989c0,1.119,0.675,2.136,1.773,2.892c0.373,0.262,0.806,0.493,1.27,0.685
				c0.242,0.111,0.483,0.202,0.746,0.282c0.03,0.081,0.07,0.161,0.09,0.242c0.274,0.685,0.516,1.349,0.737,2.003h14.963
				c0.234-0.692,0.493-1.397,0.785-2.124v-0.01c0.01-0.041,0.02-0.07,0.04-0.111c0.061-0.019,0.121-0.04,0.182-0.06
				c0.222-0.07,0.423-0.15,0.625-0.241c0.03-0.011,0.05-0.021,0.08-0.041c1.754-0.766,2.902-2.055,2.902-3.516
				c0-0.816-0.373-1.582-0.998-2.237l1.673-6.166c0-1.189-1.139-2.167-2.539-2.167h-2.791c-1.804-0.071-3.053-0.574-3.879-1.411
				c-0.786-0.786-1.189-1.874-1.34-3.164h-4.443c-0.151,1.29-0.554,2.378-1.35,3.164c-0.816,0.837-2.066,1.34-3.87,1.411H26.9
				c-0.05,0-0.101,0-0.151,0.01c-1.33,0.06-2.388,1.007-2.388,2.156l1.672,6.166C25.409,37.407,25.036,38.172,25.036,38.989z"/>
		</g>
		<g>
			<path style="fill:#F5C4A5;" d="M48.15,39.573c0,1.179-0.715,2.237-1.824,2.932c-0.03,0.02-0.05,0.03-0.08,0.041
				c-0.191,0.121-0.403,0.232-0.615,0.322c-0.081,0.04-0.151,0.07-0.231,0.091v0.01c-0.675,0.252-1.441,0.403-2.257,0.403
				c-2.771,0-5.018-1.703-5.018-3.799s2.247-3.799,5.018-3.799c0.786,0,1.521,0.141,2.187,0.383
				C47.002,36.772,48.15,38.072,48.15,39.573z"/>
		</g>
		<g>
			<path style="fill:#F5C4A5;" d="M35.797,39.573c0,2.096-2.247,3.799-5.018,3.799c-0.655,0-1.29-0.101-1.864-0.282
				c-0.302-0.081-0.584-0.191-0.846-0.322c-0.494-0.242-0.917-0.544-1.26-0.887c-0.655-0.646-1.038-1.441-1.038-2.308
				c0-1.431,1.048-2.68,2.589-3.335c0.716-0.292,1.542-0.463,2.419-0.463C33.55,35.775,35.797,37.478,35.797,39.573z"/>
		</g>
		<g>
			<path style="fill:#FD6D60;" d="M27.929,45.093c0.05-0.758,0.097-1.536,0.14-2.325c0.262,0.131,0.544,0.241,0.846,0.322
				c0.274,0.685,0.516,1.349,0.737,2.003h14.963c0.234-0.692,0.493-1.397,0.785-2.124v-0.01c0.081-0.021,0.151-0.051,0.231-0.091
				c0.042,0.756,0.086,1.5,0.133,2.225h4.611c0.202-4.99,0.114-9.854-0.341-14.558c0.01-0.06-0.01-0.111-0.02-0.171
				c-0.151-1.139-1.169-2.025-2.408-2.025c-0.222,0-0.433,0.03-0.635,0.081h-2.398c-1.804-0.071-3.053-0.574-3.879-1.411h-7.134
				c-0.816,0.837-2.066,1.34-3.87,1.411H26.9c-0.05,0-0.101,0-0.151,0.01c-0.212-0.06-0.434-0.091-0.665-0.091
				c-1.239,0-2.247,0.887-2.408,2.025c-0.01,0.06-0.021,0.111-0.021,0.171c-0.454,4.704-0.542,9.567-0.341,14.558H27.929z"/>
		</g>
		<g>
			<path style="fill:#EAB99A;" d="M43.388,14.986c0,4.48-2.749,9.897-6.17,9.897c-0.163,0-0.315-0.01-0.468-0.041
				c-3.207-0.458-5.753-5.58-5.753-9.856c0-4.287,2.515-7.789,5.723-8.105c0.152-0.01,0.305-0.02,0.468-0.02
				C40.608,6.861,43.388,10.496,43.388,14.986z"/>
		</g>
		<g>
			<path style="fill:#F5C4A5;" d="M42.452,14.986c0,4.276-2.505,9.398-5.702,9.856c-3.207-0.458-5.753-5.58-5.753-9.856
				c0-0.132,0-0.275,0.021-0.407c0.102-2.983,1.435-5.549,3.35-6.822c0.54-0.367,1.11-0.621,1.721-0.764l0.041-0.01
				c0.01-0.01,0.031-0.01,0.041-0.01c0.183-0.04,0.366-0.071,0.55-0.092c0.397,0.041,0.784,0.133,1.161,0.265
				c2.331,0.834,4.113,3.39,4.49,6.567C42.421,14.131,42.452,14.559,42.452,14.986z"/>
		</g>
		<g>
			<path style="fill:#F3AA43;" d="M30.333,9.135c0,0,1.184,2.8,6.234,3.564c5.051,0.764,6.069,3.055,6.578,4.582
				c0,0,2.8-6.618-1.442-9.164C37.46,5.571,32.2,4.892,30.333,9.135z"/>
		</g>
	</g>
	<g>
		<g>
			<path style="fill:#E0E0E0;" d="M87.433,43.963l-1.549-14.645c-0.295-1.006-1.297-1.717-2.67-2.275l-4.055,11.375l0.889,5.545
				H87.433z"/>
		</g>
		<g>
			<path style="fill:#D0D0D0;" d="M55.52,43.963c1.089-5.239,2.098-10.147,2.098-10.147c0.08-0.408-2.238-2.539-2.529-2.835
				l-2.266-2.303c-0.659-0.67-1.794-0.408-2.093,0.483l-3.013,14.803H55.52z"/>
		</g>
		<g>
			<rect x="63.745" y="18.574" style="fill:#DEAD8E;" width="9.249" height="10.682"/>
		</g>
		<g>
			<g>
				<path style="fill:#EAB99A;" d="M73.607,13.894L73.607,13.894c0.669,0.244,1.373-0.117,1.565-0.803l0.591-2.116
					c0.164-0.587-0.17-1.238-0.743-1.448l0,0c-0.669-0.244-1.373,0.117-1.565,0.803l-0.592,2.116
					C72.701,13.033,73.035,13.684,73.607,13.894z"/>
			</g>
			<g>
				<path style="fill:#EAB99A;" d="M74.215,7.656l0.19,7.605c0.016,0.618-0.094,1.316-0.412,2.061
					c-0.77,1.808-0.77,1.808-3.411,4.458c-0.314,0.321-1.144,0.613-2.168,0.622c-0.172,0.004-0.336,0.008-0.494,0.004
					c-0.801-0.048-1.435-0.261-1.71-0.517c-2.769-2.516-2.769-2.516-3.629-4.282c-0.355-0.729-0.5-1.42-0.515-2.038l-0.191-7.605
					c-0.058-2.329,1.576-4.277,3.63-4.328l4.865-0.122C72.428,3.464,74.157,5.327,74.215,7.656z"/>
			</g>
			<g>
				<path style="fill:#F4CAAF;" d="M73.229,7.681l0.19,7.605c0.016,0.619-0.086,1.316-0.404,2.061
					c-0.77,1.808-0.77,1.808-3.411,4.458c-0.27,0.269-0.884,0.514-1.682,0.602c-0.801-0.048-1.435-0.261-1.71-0.517
					c-2.769-2.516-2.769-2.516-3.629-4.282c-0.355-0.729-0.5-1.42-0.515-2.038l-0.191-7.605c-0.058-2.329,1.576-4.277,3.63-4.328
					l3.878-0.097C71.441,3.488,73.17,5.352,73.229,7.681z"/>
			</g>
			<g>
				<path style="fill:#F4CAAF;" d="M62.735,14.166L62.735,14.166c-0.656,0.278-1.377-0.048-1.603-0.723l-0.697-2.083
					c-0.193-0.578,0.108-1.246,0.669-1.483l0,0c0.656-0.278,1.377,0.048,1.603,0.723l0.696,2.083
					C63.598,13.261,63.296,13.928,62.735,14.166z"/>
			</g>
			<g>
				<polygon style="fill:#D99237;" points="75.357,8.771 74.253,13.054 72.746,7.794 71.95,8.857 70.493,9.199 70.485,9.207 
					63.587,10.829 62.007,13.149 61.214,7.448 63.131,1.569 70.98,0 72.587,1.451 74.759,3.405 				"/>
			</g>
			<g>
				<path style="fill:#F3AA43;" d="M72.587,1.451l0.095,3.786c0.044,1.745-0.868,3.276-2.189,3.962l-0.007,0.008l-6.898,1.622
					l-1.58,2.319l-0.793-5.7l1.917-5.879L70.98,0L72.587,1.451z"/>
			</g>
		</g>
		<g>
			<path style="fill:#E0E0E0;" d="M50.683,31.005c0.983,4.304,2.256,8.605,3.43,12.958h28.341c1.058-4.219,2.213-8.532,3.229-12.913
				c0-0.018,0.009-0.036,0.009-0.053c0.356-1.54-0.463-3.08-1.878-3.677c-0.15-0.066-9.88-2.083-10.486-2.083l-4.582,5.013
				l-5.673-5.013c-0.514,0-9.51,1.814-10.014,1.914c-1.576,0.383-2.599,1.878-2.439,3.454
				C50.629,30.738,50.656,30.871,50.683,31.005z"/>
		</g>
		<g>
			<polygon style="fill:#E0E0E0;" points="82.168,43.963 82.29,41.635 53.583,39.973 53.835,43.963 			"/>
		</g>
		<g>
			<polygon style="fill:#3C4A58;" points="69.914,43.963 68.724,31.566 68.065,31.566 66.848,43.963 			"/>
		</g>
		<g>
			<polygon style="fill:#D0D0D0;" points="82.102,43.963 82.29,37.748 81.441,43.963 			"/>
		</g>
		<g>
			<path style="fill:#3C4A58;" d="M68.671,31.954h-0.604c-0.669,0-1.216-0.547-1.216-1.216v-0.354c0-0.669,0.547-1.216,1.216-1.216
				h0.604c0.669,0,1.216,0.547,1.216,1.216v0.354C69.888,31.407,69.34,31.954,68.671,31.954z"/>
		</g>
		<g>
			<polygon style="fill:#FFFFFF;" points="63.074,25.236 58.256,26.125 65.251,32.324 67.455,29.082 			"/>
		</g>
		<g>
			<polygon style="fill:#FFFFFF;" points="73.271,25.236 78.089,26.125 71.094,32.324 68.89,29.082 			"/>
		</g>
	</g>
	<g>
		<g>
			<path style="fill:#EAB99A;" d="M8.334,54.726l2.292-4.937c0.106-0.409-2.083-2.671-2.359-2.982l-2.119-2.439
				c-0.436-0.499-1.14-0.543-1.638-0.223c-0.205,0.124-0.382,0.32-0.48,0.578L0.265,54.07L0,54.726H8.334z"/>
		</g>
		<g>
			<path style="fill:#EAB99A;" d="M46.375,54.726l-0.264-0.655l-3.765-9.347c-0.098-0.258-0.276-0.454-0.481-0.578
				c-0.499-0.32-1.202-0.276-1.638,0.223l-2.119,2.439c-0.276,0.311-2.466,2.573-2.359,2.982l2.292,4.937H46.375z"/>
		</g>
		<g>
			<path style="fill:#EAB99A;" d="M8.614,53.587c0.108,0.394,0.209,0.77,0.31,1.139h28.759c0.046-0.187,0.09-0.368,0.137-0.561
				c0.027-0.071,0.045-0.151,0.062-0.231v-0.009c0.953-3.721,1.958-7.495,2.84-11.341c0.142-0.605,0.098-1.201-0.098-1.754v-0.009
				c-0.285-0.845-0.917-1.558-1.78-1.914c-0.16-0.071-9.721-1.994-9.721-1.994c-0.258-0.062-0.507-0.089-0.766-0.089H18.103
				c-0.258,0-0.516,0.027-0.766,0.089l-9.249,1.825c-1.068,0.258-1.887,1.033-2.243,1.994c-0.223,0.57-0.276,1.22-0.134,1.86
				C6.549,46.242,7.599,49.901,8.614,53.587z"/>
		</g>
		<g>
			<rect x="18.936" y="31.556" style="fill:#EAB99A;" width="9.25" height="8.219"/>
		</g>
		<g>
			<g>
				<path style="fill:#EAB99A;" d="M29.245,26.271L29.245,26.271c0.683,0.208,1.367-0.191,1.522-0.888l0.476-2.149
					c0.132-0.597-0.237-1.23-0.822-1.408l0,0c-0.683-0.208-1.367,0.191-1.522,0.888l-0.476,2.149
					C28.291,25.459,28.661,26.092,29.245,26.271z"/>
			</g>
			<g>
				<path style="fill:#EAB99A;" d="M29.478,20.528l0.539,6.769c0.044,0.559,0.012,1.098-0.097,1.609
					c-0.144,0.735-0.43,1.388-0.824,1.922c-0.249,0.36-0.556,0.666-0.89,0.905l-2.272,2.889c-0.316,0.468-1.31,0.726-2.197,0.72
					c-0.609-0.011-1.176-0.145-1.44-0.431l-2.717-2.509c-0.359-0.167-0.695-0.421-0.99-0.73c-0.48-0.464-0.875-1.08-1.134-1.792
					c-0.189-0.479-0.306-1.006-0.35-1.556l-0.539-6.769c-0.206-2.589,1.305-4.838,3.358-5.002l5.443-0.433
					C27.423,15.957,29.271,17.939,29.478,20.528z"/>
			</g>
			<g>
				<path style="fill:#F4CAAF;" d="M28.627,20.596l0.539,6.77c0.044,0.559,0.012,1.098-0.097,1.609
					c-0.145,0.735-0.431,1.388-0.824,1.922c-0.25,0.36-0.556,0.666-0.89,0.905l-2.272,2.889c-0.215,0.324-0.746,0.545-1.346,0.652
					c-0.609-0.011-1.176-0.145-1.44-0.431l-2.717-2.509c-0.359-0.167-0.695-0.421-0.99-0.73c-0.48-0.464-0.875-1.08-1.134-1.792
					c-0.189-0.479-0.306-1.006-0.35-1.556l-0.539-6.769c-0.206-2.589,1.305-4.838,3.358-5.002l4.592-0.365
					C26.572,16.025,28.42,18.006,28.627,20.596z"/>
			</g>
			<g>
				<path style="fill:#F4CAAF;" d="M17.702,27.19L17.702,27.19c-0.641,0.313-1.38,0.027-1.643-0.636l-0.811-2.047
					c-0.225-0.568,0.04-1.252,0.589-1.52l0,0c0.641-0.314,1.38-0.027,1.643,0.636l0.811,2.047
					C18.516,26.237,18.251,26.921,17.702,27.19z"/>
			</g>
			<g>
				<polygon style="fill:#7D4C2E;" points="30.174,19.834 29.672,25.332 27.479,21.947 25.598,21.723 18.696,20.91 17.626,26.53 
					17.572,26.798 17.503,26.505 16.221,21.158 17.092,15.392 17.839,15.332 18.952,12.799 19.58,13.601 20.618,11.917 
					23.683,13.802 24.439,12.729 28.215,15.894 28.25,15.866 29.048,15.129 				"/>
			</g>
			<g>
				<path style="fill:#8D5C3E;" d="M29.048,15.129l-0.683,2.183c0.167,2.09-1.039,3.932-2.767,4.41l-6.902-0.813l-1.07,5.62
					c-0.038-0.005-0.083-0.01-0.123-0.024l-1.666-3.519v-4.111l1.255-3.484l1.86-2.592l0.715-0.465l0.951-0.417l3.191-0.696
					l2.831,1.113l2.077,1.706L29.048,15.129z"/>
			</g>
		</g>
		<g>
			<path style="fill:#505050;" d="M8.689,54.726l0.122-0.304c0.098,0.355,0.071,0.192,0.109,0.304h28.764
				c0.046-0.187,0.09-0.368,0.137-0.561c0.007-0.02,0.095,0.214,0.217,0.561H44.5l1.993-0.996L40.98,41.312
				c-0.08-0.196-0.205-0.365-0.356-0.481v-0.009c-0.285-0.845-0.917-1.558-1.78-1.914c-0.16-0.071-9.721-1.994-9.721-1.994
				c-0.258-0.062-0.507-0.089-0.766-0.089l-4.798,7.442l-5.456-7.442c-0.258,0-0.516,0.027-0.766,0.089l-9.249,1.825
				c-1.068,0.258-1.887,1.033-2.243,1.994c-0.205,0.125-0.383,0.32-0.481,0.579L1.6,50.658l3.64,4.067H8.689z"/>
		</g>
		<g>
			<path style="fill:#404040;" d="M37.683,54.726c0.046-0.187,0.09-0.368,0.137-0.561l-0.276-6.472c0,0-0.849,3.649-1.674,7.032
				H37.683z"/>
		</g>
	</g>
	<g>
		<g>
			<rect y="56.045" style="fill:#55ACE0;" width="22.525" height="22.525"/>
		</g>
		<g>
			<rect x="25.082" y="56.045" style="fill:#F55D51;" width="22.525" height="22.525"/>
		</g>
		<g>
			<rect x="50.164" y="56.045" style="fill:#859596;" width="22.525" height="22.525"/>
		</g>
		<g>
			<rect x="75.246" y="56.045" style="fill:#EF893A;" width="22.525" height="22.525"/>
		</g>
		<g>
			<path style="fill:#FFFFFF;" d="M9.188,75.876V60.999H7.182V58.74h6.533v2.259h-1.928v14.877H9.188z"/>
		</g>
		<g>
			<path style="fill:#FFFFFF;" d="M33.414,75.876V58.74h5.745v2.249h-3.135v4.984h2.979v2.201h-2.979v5.452h3.252v2.249H33.414z"/>
		</g>
		<g>
			<path style="fill:#FFFFFF;" d="M57.181,75.876l2.444-17.136h3.447l2.6,17.136h-2.434l-0.409-3.058h-2.765l-0.37,3.058H57.181z
				 M62.556,70.726l-1.149-8.607h-0.039l-1.051,8.607H62.556z"/>
		</g>
		<g>
			<path style="fill:#FFFFFF;" d="M80.895,75.938V58.802h3.242l2.434,12.521l2.288-12.521h3.262v17.136h-2.327v-6.387l0.097-5.861
				l-2.307,12.17H85.51l-2.405-12.17l0.098,5.861v6.387H80.895z"/>
		</g>
	</g>
	<g>
		<g>
			<path style="fill:#6D3C1F;" d="M91.933,23.175c0-6.924-4.181-10.627-9.339-10.627c-0.005,0-0.011,0-0.016,0
				c-0.005,0-0.01,0-0.016,0c-5.158,0-9.339,3.704-9.339,10.627c0,1.968,0.852,11.532,0.651,13.819l8.221,1.998l9.235-2.568
				C91.129,34.137,91.933,25.143,91.933,23.175z"/>
		</g>
		<g>
			<path style="fill:#4893BF;" d="M73.144,54.775c0.094-1.228,0.179-2.563,0.253-3.922c0-0.07,0-0.131,0.01-0.202
				c0.111-2.176,0.212-4.402,0.282-6.327c0.111-3.033,0.161-5.34,0.161-5.572c0-1.068-0.755-1.965-1.773-2.237
				c-0.211-0.061-0.433-0.091-0.665-0.091c-1.239,0-2.247,0.887-2.408,2.025c-0.01,0.061-0.02,0.111-0.02,0.171
				c-0.502,5.203-0.551,10.604-0.258,16.154H73.144z"/>
		</g>
		<g>
			<path style="fill:#4893BF;" d="M92.886,50.942c0.438,2.186,0.383,2.707,0.612,3.788h4.273c-0.4-5.856-0.952-11.171-2.279-16.622
				c0.002-0.061-0.026-0.108-0.044-0.166c-0.312-1.106-1.445-1.838-2.672-1.662c-0.219,0.031-0.424,0.091-0.617,0.17
				c-0.99,0.407-1.619,1.413-1.466,2.48c0.033,0.229-0.815,2.027-0.28,4.973c0.354,1.975,2.009,4.724,2.453,6.961
				C92.879,50.892,92.882,50.911,92.886,50.942z"/>
		</g>
		<g>
			<path style="fill:#55ACE0;" d="M71.061,43.729c0.177,0.652,0.027,1.327-0.308,1.915c-1.054,1.853,0.103,3.777,2.261,4.841
				c0.45,0.631,1.017,1.429,1.467,2.06c0.116,0.7,0.195,1.454,0.253,2.231h15.672c0.04-1.029,0.107-1.888,0.192-2.47
				c1.195-0.169,4.861-3.035,3.579-6.638c-0.234-0.656-0.49-1.303-0.308-1.976l1.114-4.108c0.37-1.362-0.466-2.844-1.862-3.048
				c-0.14-0.021-0.283-0.031-0.429-0.031h-2.791c-0.568-0.022-1.512-0.217-1.969-0.327c-0.337-0.081-0.247,0.052-0.585,0.123
				c0,0-4.881,1.563-5.102,1.548c-0.747-0.051-3.328-1.129-5.036-1.745c0,0-0.497,0.166-0.964,0.259
				c-0.374,0.074-0.779,0.125-1.226,0.143h-2.791c-0.05,0-0.101,0-0.151,0.01c-0.013,0-0.026,0.001-0.039,0.002
				c-1.503,0.088-2.489,1.634-2.095,3.087L71.061,43.729z"/>
		</g>
		<g>
			<path style="fill:#5D2C10;" d="M77.901,18.31c4.188-2.764,5.074-2.83,9.321,0c4.246,2.83,0.125,17.991,0.125,17.991
				l-10.138-0.197C77.209,36.104,73.713,21.073,77.901,18.31z"/>
		</g>
		<g>
			<path style="fill:#EAB99A;" d="M86.022,35.094c-0.123-0.124-0.221-0.267-0.326-0.404c-0.564-0.741-0.886-1.672-1.014-2.76h-4.444
				c-0.134,1.143-0.483,2.114-1.111,2.871c-0.08,0.097-0.148,0.204-0.239,0.293c-0.487,0.5-1.152,0.863-1.975,1.104
				c1.042,0.475,2.846,1.812,5.549,1.812c2.867,0,5.47-1.832,5.47-1.832C87.143,35.936,86.501,35.579,86.022,35.094z"/>
		</g>
		<g>
			<path style="fill:#EAB99A;" d="M88.758,23.65c0,4.48-2.749,9.897-6.17,9.897c-0.163,0-0.315-0.01-0.468-0.041
				c-3.207-0.458-5.753-5.58-5.753-9.856c0-4.286,2.515-7.789,5.723-8.104c0.152-0.01,0.305-0.021,0.468-0.021
				C85.979,15.525,88.758,19.16,88.758,23.65z"/>
		</g>
		<g>
			<path style="fill:#F5C4A5;" d="M87.821,23.65c0,4.276-2.504,9.398-5.702,9.856c-3.207-0.458-5.753-5.58-5.753-9.856
				c0-0.132,0-0.275,0.021-0.407c0.102-2.983,1.436-5.549,3.35-6.822c0.539-0.366,1.11-0.621,1.721-0.764l0.04-0.01
				c0.01-0.01,0.031-0.01,0.041-0.01c0.183-0.041,0.366-0.071,0.55-0.092c0.397,0.041,0.784,0.132,1.161,0.265
				c2.331,0.835,4.113,3.391,4.49,6.567C87.791,22.795,87.821,23.223,87.821,23.65z"/>
		</g>
		<g>
			<path style="fill:#EAB99A;" d="M88.188,22.347l-0.448,0.031l-11.353,0.865c0.102-2.983,1.436-5.549,3.35-6.822l1.721-0.764
				l0.04-0.01l0.01-0.01h0.031l1.711,0.173l2.464,0.245L88.188,22.347z"/>
		</g>
		<g>
			<path style="fill:#6D3C1F;" d="M78.711,16.307c0,0-1.909,3.882-1.718,6.045h11.2c0,0-0.789-4.315-1.718-6.311
				C85.063,13.009,78.783,14.382,78.711,16.307z"/>
		</g>
		<g>
			<path style="fill:#5D2C10;" d="M83.866,22.353h1.082c0,0-0.063-5.302-1.336-6.311C83.611,16.042,84.247,21.08,83.866,22.353
				L83.866,22.353z"/>
		</g>
		<g>
			<path style="fill:#5D2C10;" d="M82.211,16.498c0,0-1.464,2.418-1.4,5.854l0,0h1.018C81.83,22.353,81.766,17.134,82.211,16.498z"
				/>
		</g>
	</g>
	<g>
		<g>
			<path style="fill:#95A5A6;" d="M75.117,54.726l-2.771-13.616c-0.299-0.891-1.434-1.153-2.093-0.483l-2.266,2.304
				c-0.292,0.296-2.609,2.428-2.53,2.835c0,0,0.861,4.191,1.852,8.961H75.117z"/>
		</g>
		<g>
			<polygon style="fill:#DEAD8E;" points="59.185,31.361 60.305,40.343 49.288,44.948 49.936,31.361 			"/>
		</g>
		<g>
			<g>
				<path style="fill:#EAB99A;" d="M62.363,22.86l-0.472,2.154c-0.107,0.454-0.437,0.783-0.837,0.89
					c-0.214,0.071-0.454,0.071-0.686,0c-0.062-0.018-0.116-0.036-0.169-0.071h-0.009c-0.481-0.24-0.766-0.81-0.65-1.344l0.24-1.086
					l0.16-0.712l0.08-0.347c0.089-0.392,0.347-0.694,0.686-0.837c0.125-0.062,0.267-0.098,0.41-0.098
					c0.018-0.009,0.044-0.009,0.062-0.009c0.125,0,0.24,0.018,0.365,0.053C62.123,21.631,62.496,22.264,62.363,22.86z"/>
			</g>
			<g>
				<path style="fill:#EAB99A;" d="M61.036,28.539c-0.142,0.73-0.427,1.389-0.819,1.923c-0.249,0.356-0.561,0.659-0.89,0.899
					l-0.142,0.178l-2.127,2.715c-0.321,0.463-1.318,0.721-2.199,0.721c-0.311-0.009-0.614-0.045-0.872-0.125
					c-0.24-0.071-0.436-0.169-0.57-0.312l-2.715-2.501c-0.267-0.125-0.534-0.311-0.766-0.525c-0.08-0.071-0.151-0.143-0.223-0.214
					c-0.481-0.463-0.881-1.077-1.139-1.789c-0.187-0.48-0.303-1.006-0.347-1.558l-0.08-1.015l-0.33-4.184L47.8,22.53l-0.107-1.344
					c-0.213-2.59,1.3-4.843,3.356-5.003l2.938-0.231l1.656-0.133l0.846-0.071c1.157-0.089,2.243,0.498,3.017,1.486
					c0.596,0.774,1.006,1.79,1.095,2.92l0.107,1.353l0.187,2.377l0.16,2.021l0.08,1.023C61.179,27.489,61.152,28.023,61.036,28.539z
					"/>
			</g>
			<g>
				<path style="fill:#F4CAAF;" d="M59.747,20.226l0.539,6.77c0.045,0.559,0.012,1.098-0.097,1.609
					c-0.145,0.735-0.431,1.388-0.824,1.922c-0.25,0.36-0.556,0.666-0.89,0.905l-2.272,2.889c-0.215,0.324-0.746,0.545-1.346,0.652
					c-0.609-0.011-1.176-0.145-1.439-0.431l-2.717-2.509c-0.359-0.167-0.695-0.421-0.99-0.73c-0.48-0.464-0.875-1.08-1.134-1.792
					c-0.188-0.479-0.306-1.006-0.35-1.556l-0.539-6.769c-0.207-2.589,1.305-4.838,3.358-5.002l4.592-0.365
					C57.692,15.655,59.541,17.636,59.747,20.226z"/>
			</g>
			<g>
				<path style="fill:#F4CAAF;" d="M48.822,26.819L48.822,26.819c-0.641,0.313-1.38,0.027-1.643-0.636l-0.811-2.046
					c-0.225-0.568,0.04-1.252,0.588-1.521l0,0c0.641-0.314,1.381-0.027,1.644,0.636l0.81,2.047
					C49.636,25.867,49.371,26.551,48.822,26.819z"/>
			</g>
			<g>
				<polygon style="fill:#47210C;" points="61.294,19.468 61.117,21.409 60.894,23.884 60.796,24.961 60.03,23.786 59.781,23.403 
					58.597,21.578 56.719,21.355 53.986,21.035 49.82,20.537 49.073,24.444 48.743,26.162 48.69,26.429 48.627,26.136 
					47.817,22.753 47.764,22.521 47.346,20.786 48.209,15.018 48.957,14.964 50.07,12.427 50.702,13.229 51.734,11.546 
					53.986,12.926 54.805,13.433 55.562,12.356 59.336,15.525 59.372,15.498 60.164,14.759 				"/>
			</g>
			<g>
				<path style="fill:#5D2C10;" d="M59.505,17.234c0,0.445-0.053,0.881-0.16,1.282c-0.365,1.389-1.353,2.484-2.626,2.84l-2.733-0.32
					l-4.166-0.499l-0.748,3.908l-0.33,1.718c-0.036-0.009-0.08-0.009-0.116-0.026l-0.81-3.383l-0.053-0.232l-0.418-1.736
					l0.863-5.768l0.748-0.053l1.113-2.537l0.632,0.801l1.033-1.683l2.252,1.38l0.819,0.507l0.757-1.077l3.774,3.169l0.036-0.027
					l0.116,1.442C59.497,17.038,59.505,17.136,59.505,17.234z"/>
			</g>
		</g>
		<g>
			<path style="fill:#A5B5B6;" d="M37.06,42.398c0.936,4.097,2.134,8.189,3.26,12.327h28.67c0.444-1.753,0.896-3.517,1.353-5.304
				c0.588-2.306,1.175-4.638,1.718-6.979c0-0.018,0.009-0.035,0.009-0.054c0.356-1.54-0.463-3.08-1.878-3.676
				c-0.15-0.067-9.88-2.083-10.486-2.083c-0.427,1.938-3.606,4.041-5.175,3.904c-1.171-0.102-3.783-2.263-5.079-3.904
				c-0.514,0-9.51,1.814-10.014,1.914c-1.576,0.383-2.6,1.878-2.439,3.454C37.007,42.132,37.033,42.266,37.06,42.398z"/>
		</g>
		<g>
			<polygon style="fill:#859596;" points="49.506,36.631 44.688,37.519 51.684,43.718 54.589,40.535 			"/>
		</g>
		<g>
			<polygon style="fill:#859596;" points="59.704,36.631 64.521,37.519 57.527,43.718 54.589,40.535 			"/>
		</g>
		<g>
			<rect x="54.53" y="40.535" style="fill:#95A5A6;" width="0.236" height="14.19"/>
		</g>
		<g>
			<circle style="fill:#95A5A6;" cx="55.858" cy="48.828" r="0.443"/>
		</g>
		<g>
			<path style="fill:#A5B5B6;" d="M41.865,54.726l0.699-4.358l-4.055-11.375c-1.373,0.557-2.376,1.269-2.67,2.275l-1.423,13.458
				H41.865z"/>
		</g>
	</g>
</g>
</svg>
