<?xml version="1.0" encoding="iso-8859-1"?>
<!-- Generator: Adobe Illustrator 19.1.0, SVG Export Plug-In . SVG Version: 6.00 Build 0)  -->
<!DOCTYPE svg PUBLIC "-//W3C//DTD SVG 1.1//EN" "http://www.w3.org/Graphics/SVG/1.1/DTD/svg11.dtd">
<svg version="1.1" id="illustrations" xmlns="http://www.w3.org/2000/svg" xmlns:xlink="http://www.w3.org/1999/xlink" x="0px"
	 y="0px" viewBox="0 0 108.939 81.062" style="enable-background:new 0 0 108.939 81.062;" xml:space="preserve">
<g>
	<g>
		<path style="fill:#303030;" d="M60.734,77.946H47.726c-0.576,0-1.047-0.471-1.047-1.047l0,0c0-0.576,0.471-1.047,1.047-1.047
			h13.008c0.576,0,1.048,0.471,1.048,1.047l0,0C61.782,77.476,61.31,77.946,60.734,77.946z"/>
	</g>
	<g>
		<path d="M36.041,76.453l0.431,2.252h2.473v-0.501l2.504,0.524h7.096l-0.328-1.138c0,0-5.235-1.19-6.286-3.084L36.041,76.453z"/>
	</g>
	<g>
		<rect x="26.505" y="0.5" style="fill:#F0F0F0;" width="51.752" height="36.737"/>
		<path style="fill:#808080;" d="M78.757,37.737H26.005V0h52.752V37.737z M27.005,36.737h50.752V1H27.005V36.737z"/>
	</g>
	<g>
		<path style="fill:#FD6D60;" d="M29.717,29.227c-0.073,0-0.148-0.016-0.219-0.05c-0.248-0.121-0.352-0.419-0.232-0.668l3.308-6.813
			c0.076-0.157,0.229-0.262,0.401-0.279c0.173-0.015,0.343,0.057,0.447,0.196l3.372,4.453l7.293-16.812
			c0.083-0.189,0.285-0.316,0.477-0.3c0.205,0.007,0.385,0.139,0.454,0.333l3.551,10.013L59.041,4.876
			c0.106-0.147,0.279-0.226,0.468-0.202c0.182,0.023,0.335,0.143,0.402,0.313l5.693,14.532l7.51-15.732
			c0.119-0.249,0.416-0.355,0.667-0.236c0.249,0.119,0.354,0.417,0.235,0.667L66.011,20.99c-0.086,0.18-0.276,0.294-0.469,0.284
			c-0.199-0.007-0.375-0.132-0.448-0.317l-5.78-14.754L48.821,20.654c-0.109,0.15-0.295,0.229-0.476,0.201
			c-0.184-0.026-0.338-0.152-0.4-0.328L44.5,10.816l-7.128,16.433c-0.071,0.163-0.223,0.276-0.399,0.297
			c-0.175,0.019-0.352-0.053-0.458-0.195l-3.397-4.485l-2.951,6.079C30.081,29.124,29.903,29.227,29.717,29.227z"/>
	</g>
	<g>
		<path style="fill:#5D2C10;" d="M71.677,77.237l0.482,2.275l-3.386-0.022l-2.504,0.022h-7.096l-0.213-1.056
			c0,0,6.9-0.552,7.938-4.735L71.677,77.237z"/>
	</g>
	<g>
		<polygon style="fill:#303030;" points="4.885,51.759 4.009,55.303 5.761,57.572 25.612,55.964 37.191,78.194 42.292,74.078 
			29.017,50.838 16.237,49.316 		"/>
	</g>
	<g>
		<path style="fill:#303030;" d="M61.48,49.793H46.628c-0.855,0-1.557-0.701-1.557-1.557V30.203c0-0.857,0.701-1.557,1.557-1.557
			H61.48c0.856,0,1.558,0.701,1.558,1.557v18.034C63.038,49.092,62.336,49.793,61.48,49.793z"/>
	</g>
	<g>
		<path style="fill:#303030;" d="M54.23,77.45L54.23,77.45c-0.46,0-0.837-0.376-0.837-0.837V57.609c0-0.461,0.377-0.837,0.837-0.837
			l0,0c0.461,0,0.838,0.376,0.838,0.837v19.004C55.068,77.074,54.691,77.45,54.23,77.45z"/>
	</g>
	<g>
		<path style="fill:#303030;" d="M10.929,79.414L10.929,79.414c-0.46,0-0.837-0.377-0.837-0.837V59.572
			c0-0.46,0.377-0.837,0.837-0.837l0,0c0.461,0,0.838,0.377,0.838,0.837v19.005C11.767,79.037,11.39,79.414,10.929,79.414z"/>
	</g>
	<g>
		<path style="fill:#303030;" d="M17.433,79.91H4.425c-0.575,0-1.047-0.472-1.047-1.047l0,0c0-0.576,0.472-1.048,1.047-1.048h13.008
			c0.576,0,1.048,0.472,1.048,1.048l0,0C18.481,79.438,18.009,79.91,17.433,79.91z"/>
	</g>
	<g>
		<path style="fill:#E54D42;" d="M63.282,58.414H44.828c-0.857,0-1.557-0.7-1.557-1.557v-0.56c0-0.856,0.7-1.557,1.557-1.557h18.454
			c0.856,0,1.557,0.7,1.557,1.557v0.56C64.838,57.714,64.138,58.414,63.282,58.414z"/>
	</g>
	<g>
		<path style="fill:#303030;" d="M22.051,61.16H3.597c-0.856,0-1.557-0.701-1.557-1.557v-0.561c0-0.855,0.7-1.557,1.557-1.557
			h18.454c0.856,0,1.557,0.701,1.557,1.557v0.561C23.608,60.459,22.908,61.16,22.051,61.16z"/>
	</g>
	<g>
		<path style="fill:#4D5A68;" d="M61.232,51.635H46.299c-0.303,0-0.55-0.247-0.55-0.55v-2.429c0-0.303,0.247-0.55,0.55-0.55h14.933
			c0.302,0,0.55,0.247,0.55,0.55v2.429C61.782,51.388,61.534,51.635,61.232,51.635z"/>
	</g>
	<g>
		<path style="fill:#505050;" d="M59.801,56.784H48.073c-1.61,0-2.929-1.318-2.929-2.93v-0.689c0-1.611,1.318-2.93,2.929-2.93
			h11.729c1.611,0,2.929,1.318,2.929,2.93v0.689C62.73,55.466,61.413,56.784,59.801,56.784z"/>
	</g>
	<g>
		<path style="fill:#303030;" d="M61.296,55.112c0,1.921-3.361,1.66-7.397,1.66c-4.037,0-7.22,0.261-7.22-1.66
			c0-1.921,3.272-3.478,7.309-3.478S61.296,53.191,61.296,55.112z"/>
	</g>
	<g>
		<path style="fill:#DEAD8E;" d="M53.067,54.905c0.021-0.074,0.04-0.149,0.04-0.228c0-0.752-1.055-2.14-2.354-2.14
			c-1.3,0-2.355,1.388-2.355,2.14c0,0.062,0.018,0.122,0.032,0.183h-0.003c0,0-0.386,5.352-0.31,8.445
			c0.075,3.093,1.806,11.859,1.708,12.865c-0.098,1.005,1.995,0,1.995,0s1.086-7.331,1.476-12.78
			C53.582,59.384,53.182,55.812,53.067,54.905z"/>
	</g>
	<g>
		<path style="fill:#DEAD8E;" d="M59.609,54.86h-0.003c0.015-0.06,0.032-0.12,0.032-0.183c0-0.752-1.055-2.14-2.354-2.14
			c-1.3,0-2.354,1.388-2.354,2.14c0,0.078,0.019,0.153,0.04,0.228c-0.115,0.907-0.516,4.479-0.229,8.485
			c0.39,5.449,1.476,12.78,1.476,12.78s2.093,1.005,1.995,0c-0.098-1.006,1.633-9.772,1.708-12.865
			C59.995,60.212,59.609,54.86,59.609,54.86z"/>
	</g>
	<g>
		<path style="fill:#E54D42;" d="M52.436,77.473c-0.115-0.293-0.397-0.485-0.712-0.485h-0.801h-0.8
			c-0.314,0-0.597,0.192-0.712,0.485l-0.748,1.914c-0.035,0.088-0.053,0.183-0.053,0.278v0.481c0,0.166,0.054,0.327,0.152,0.459
			l0.343,0.457h1.817h1.817l0.343-0.457c0.1-0.132,0.153-0.293,0.153-0.459v-0.481c0-0.096-0.018-0.19-0.053-0.278L52.436,77.473z"
			/>
	</g>
	<g>
		<path style="fill:#E54D42;" d="M58.597,77.45c-0.115-0.293-0.397-0.485-0.712-0.485h-0.801h-0.8c-0.314,0-0.597,0.192-0.712,0.485
			l-0.748,1.913c-0.035,0.089-0.053,0.184-0.053,0.279v0.481c0,0.166,0.054,0.327,0.152,0.459l0.343,0.457h1.817h1.817l0.343-0.457
			c0.1-0.132,0.153-0.293,0.153-0.459v-0.481c0-0.096-0.018-0.19-0.053-0.279L58.597,77.45z"/>
	</g>
	<g>
		<path style="fill:#DEAD8E;" d="M52.324,77.625c0,0.77-0.63,1.4-1.4,1.4l0,0c-0.77,0-1.4-0.631-1.4-1.4l0.438-2.072
			c0-0.769,0.192-2.873,0.962-2.873l0,0c0.771,0,0.981,2.104,0.981,2.873L52.324,77.625z"/>
	</g>
	<g>
		<path style="fill:#DEAD8E;" d="M58.485,77.603c0,0.77-0.63,1.399-1.4,1.399l0,0c-0.77,0-1.399-0.63-1.399-1.399l0.438-2.072
			c0-0.771,0.192-2.873,0.962-2.873l0,0c0.77,0,0.981,2.102,0.981,2.873L58.485,77.603z"/>
	</g>
	<g>
		<path style="fill:#F55D51;" d="M52.028,81.062h-2.336c-0.163,0-0.296-0.133-0.296-0.296l0,0c0-0.163,0.133-0.297,0.296-0.297
			h2.336c0.163,0,0.296,0.134,0.296,0.297l0,0C52.324,80.93,52.191,81.062,52.028,81.062z"/>
	</g>
	<g>
		<path style="fill:#F55D51;" d="M58.252,81.04h-2.335c-0.163,0-0.297-0.134-0.297-0.296l0,0c0-0.163,0.134-0.297,0.297-0.297h2.335
			c0.163,0,0.297,0.134,0.297,0.297l0,0C58.549,80.906,58.415,81.04,58.252,81.04z"/>
	</g>
	<g>
		<g>
			<path style="fill:#EAB99A;" d="M42.29,42.532c0.007,0,0.014,0.006,0.02,0.006c3.887,0.998,7.315,1.929,9.995,2.644
				c0.466,0.118,0.913,0.237,1.333,0.345l0.039,1.558c-0.431-0.028-0.876-0.069-1.327-0.116c-2.91-0.312-6.144-1.031-9.54-1.963
				L42.29,42.532z"/>
		</g>
	</g>
	<g>
		<g>
			<path style="fill:#EAB99A;" d="M65.725,42.532c-0.007,0-0.014,0.006-0.021,0.006c-3.887,0.998-7.315,1.929-9.994,2.644
				c-0.467,0.118-0.913,0.237-1.333,0.345l-0.04,1.558c0.432-0.028,0.876-0.069,1.327-0.116c2.911-0.312,6.145-1.031,9.541-1.963
				L65.725,42.532z"/>
		</g>
	</g>
	<g>
		<g>
			<path style="fill:#8D5C3E;" d="M58.652,33.445c1.093-4.36,1.965-8.342,1.965-9.957c0-4.337-2.938-7.852-6.562-7.852
				c-3.623,0-6.562,3.516-6.562,7.852c0,1.615,0.95,5.597,2.142,9.957H58.652z"/>
		</g>
	</g>
	<g>
		<g>
			<path style="fill:#6D3C1F;" d="M57.509,20.25c0,0,3.344,5.458-1.896,9.388l0,0l-3.678-0.319c0,0-2.288-2.504-1.732-4.92l0,0
				L57.509,20.25L57.509,20.25z"/>
		</g>
	</g>
	<g>
		<g>
			<path style="fill:#EAB99A;" d="M46.348,33.562c-0.046,0.138-0.545,1.552-1.229,3.387c-0.055,0.138-0.108,0.284-0.162,0.43
				c-0.199,0.53-0.407,1.083-0.622,1.651c0.008,0,0,0.008,0,0.008c-0.054,0.146-0.115,0.292-0.169,0.445
				c-0.169,0.43-0.338,0.868-0.507,1.306l-0.046,0.123c-0.438,1.121-0.392,2.22-0.477,3.157c-0.062,0.698-0.66,1.221-1.359,1.221
				H41.77c-1.129-0.737-1.405-0.698-1.689-2.181c-0.062-0.315-0.177-0.622-0.1-0.93c0.99-4.002,1.797-6.045,3.402-9.678
				c0.008-0.038,0.023-0.069,0.038-0.107c0.315-0.622,1.045-0.968,1.767-0.783c0.039,0.007,0.085,0.015,0.123,0.03
				c0.146,0.046,0.284,0.108,0.392,0.184C46.279,32.202,46.563,32.909,46.348,33.562z"/>
		</g>
	</g>
	<g>
		<g>
			<path style="fill:#EAB99A;" d="M65.621,43.109c-0.285,1.482-0.554,1.443-1.69,2.181h-0.008c-0.698,0-1.298-0.522-1.359-1.221
				c-0.084-0.938-0.038-2.036-0.477-3.157l-0.038-0.123c-0.169-0.438-0.346-0.883-0.515-1.321c-0.338-0.875-0.66-1.736-0.944-2.52
				c-0.684-1.835-1.183-3.249-1.229-3.387c-0.215-0.653,0.069-1.359,0.638-1.736c0.115-0.077,0.246-0.138,0.392-0.184
				c0.047-0.015,0.085-0.023,0.131-0.03c0.722-0.185,1.444,0.161,1.759,0.783c0.016,0.039,0.031,0.069,0.046,0.107
				c1.598,3.633,2.404,5.676,3.395,9.678C65.796,42.487,65.681,42.794,65.621,43.109z"/>
		</g>
	</g>
	<g>
		<g>
			<path style="fill:#EAB99A;" d="M61.196,37.002c0.407,0.422,0.646,0.914,0.646,1.444c0,0.361-0.107,0.707-0.308,1.021
				c-0.314,0.515-0.86,0.945-1.566,1.252c-0.023,0.015-0.031,0.023-0.054,0.031c-0.131,0.062-0.262,0.107-0.407,0.153
				c-0.038,0.016-0.077,0.031-0.115,0.039c-0.016,0.031-0.016,0.046-0.023,0.077v0.008c-0.691,1.721-1.137,3.272-1.268,4.801h-8.164
				c-0.131-1.506-0.562-3.034-1.237-4.724c-0.015-0.054-0.038-0.108-0.062-0.162c-0.169-0.046-0.322-0.107-0.483-0.177
				c-0.3-0.13-0.576-0.276-0.822-0.445c-0.346-0.238-0.63-0.522-0.829-0.838c-0.2-0.322-0.316-0.668-0.316-1.037
				c0-0.53,0.238-1.022,0.646-1.444l-1.083-3.994c0-0.745,0.684-1.352,1.544-1.398h1.905c0.684-0.031,1.244-0.154,1.697-0.361
				c0.322-0.146,0.584-0.33,0.807-0.553c0.1-0.1,0.191-0.2,0.269-0.315c0.338-0.469,0.522-1.06,0.606-1.736h2.873
				c0.084,0.676,0.269,1.267,0.606,1.736c0.077,0.115,0.161,0.215,0.262,0.315c0.223,0.223,0.491,0.407,0.813,0.553
				c0.453,0.208,1.015,0.33,1.698,0.361h1.805c0.906,0,1.644,0.629,1.644,1.398L61.196,37.002z"/>
		</g>
	</g>
	<g>
		<g>
			<path style="fill:#F5C4A5;" d="M61.15,38.823c0,0.768-0.469,1.452-1.183,1.897c-0.023,0.015-0.031,0.023-0.054,0.031
				c-0.123,0.077-0.262,0.146-0.399,0.208c-0.054,0.023-0.093,0.046-0.146,0.061v0.008c-0.438,0.162-0.937,0.253-1.459,0.253
				c-1.798,0-3.249-1.098-3.249-2.458c0-1.352,1.451-2.458,3.249-2.458c0.507,0,0.983,0.092,1.413,0.253
				C60.405,37.01,61.15,37.855,61.15,38.823z"/>
		</g>
	</g>
	<g>
		<g>
			<path style="fill:#F5C4A5;" d="M53.154,38.823c0,1.359-1.459,2.458-3.249,2.458c-0.422,0-0.837-0.062-1.206-0.176
				c-0.199-0.054-0.376-0.123-0.545-0.208c-0.322-0.162-0.6-0.354-0.822-0.576c-0.368-0.361-0.599-0.807-0.66-1.283
				c0,0,0.008-0.008,0-0.008c-0.008-0.069-0.008-0.138-0.008-0.207c0-0.538,0.23-1.037,0.63-1.444
				c0.261-0.292,0.63-0.538,1.045-0.714c0.461-0.184,0.998-0.299,1.566-0.299C51.695,36.365,53.154,37.471,53.154,38.823z"/>
		</g>
	</g>
	<g>
		<g>
			<path style="fill:#EAB99A;" d="M58.064,22.914c0,2.899-1.779,6.405-3.993,6.405c-0.105,0-0.204-0.006-0.303-0.026
				c-2.075-0.296-3.723-3.611-3.723-6.378c0-2.774,1.627-5.04,3.703-5.245c0.099-0.007,0.197-0.013,0.303-0.013
				C56.265,17.657,58.064,20.009,58.064,22.914z"/>
		</g>
	</g>
	<g>
		<g>
			<path style="fill:#F5C4A5;" d="M57.457,22.914c0,2.768-1.62,6.082-3.689,6.378c-2.075-0.296-3.723-3.611-3.723-6.378
				c0-0.085,0-0.178,0.013-0.263c0.066-1.931,0.929-3.591,2.168-4.415c0.35-0.237,0.719-0.402,1.113-0.494l0.026-0.007
				c0.007-0.006,0.021-0.006,0.026-0.006c0.119-0.026,0.237-0.046,0.356-0.059c0.257,0.026,0.507,0.085,0.751,0.171
				c1.509,0.541,2.662,2.194,2.906,4.25C57.438,22.361,57.457,22.638,57.457,22.914z"/>
		</g>
	</g>
	<g>
		<g>
			<path style="fill:#8D5C3E;" d="M49.616,19.128c0,0,0.766,1.812,4.034,2.306c3.269,0.494,3.928,1.977,4.257,2.965
				c0,0,1.812-4.283-0.934-5.93C54.228,16.822,50.824,16.382,49.616,19.128z"/>
		</g>
	</g>
	<g>
		<g>
			<path style="fill:#FD6D60;" d="M61.534,39.468c0.169,0.438,0.346,0.883,0.515,1.321l0.038,0.123
				c0.138,0.351,0.224,0.699,0.285,1.042c0.56-0.154,1.114-0.331,1.622-0.618c0.452-0.256,0.855-0.577,1.281-0.864
				c-0.811-2.953-1.597-4.893-2.95-7.971c-0.015-0.038-0.03-0.069-0.046-0.107c-0.314-0.622-1.037-0.968-1.759-0.783h-1.689
				c-0.684-0.031-1.245-0.154-1.698-0.361l-3.118,2.865l-3.118-2.865c-0.453,0.208-1.014,0.33-1.697,0.361h-1.675
				c-0.722-0.185-1.452,0.161-1.767,0.783c-0.016,0.039-0.031,0.069-0.038,0.107c-1.394,3.154-2.186,5.111-3.019,8.191
				c0.819,0.764,1.868,1.12,2.927,1.475c0.06-0.41,0.156-0.831,0.322-1.255l0.046-0.123c0.169-0.438,0.338-0.876,0.507-1.306
				c0.199,0.315,0.483,0.599,0.829,0.838c0.223,0.223,0.5,0.414,0.822,0.576c0.169,0.084,0.346,0.153,0.545,0.208
				c0.676,1.689,1.106,3.218,1.237,4.724H58.1c0.131-1.528,0.576-3.08,1.268-4.801V41.02c0.054-0.015,0.093-0.038,0.146-0.061
				c0.138-0.062,0.276-0.131,0.399-0.208c0.022-0.008,0.03-0.016,0.054-0.031C60.673,40.413,61.219,39.983,61.534,39.468z"/>
		</g>
	</g>
	<g>
		<g>
			<path style="fill:#303030;" d="M64.047,47.307H44.062c-0.195,0-0.355-0.16-0.355-0.355l0,0c0-0.195,0.16-0.355,0.355-0.355
				h19.985c0.195,0,0.355,0.16,0.355,0.355l0,0C64.403,47.146,64.243,47.307,64.047,47.307z"/>
		</g>
	</g>
	<g>
		<g>
			<path style="fill:#303030;" d="M35.694,47.307H15.707c-0.195,0-0.355-0.16-0.355-0.355l0,0c0-0.195,0.159-0.355,0.355-0.355
				h19.986c0.195,0,0.354,0.16,0.354,0.355l0,0C36.048,47.146,35.889,47.307,35.694,47.307z"/>
		</g>
	</g>
	<g>
		<g>
			<path style="fill:#606060;" d="M62.919,37.524v9.124c0,0.391-0.32,0.712-0.711,0.712H45.666c-0.392,0-0.712-0.321-0.712-0.712
				v-9.124c0-0.391,0.32-0.712,0.712-0.712h16.542C62.599,36.812,62.919,37.133,62.919,37.524z"/>
		</g>
	</g>
	<g>
		<g>
			<circle style="fill:#D0D0D0;" cx="53.751" cy="41.409" r="1.095"/>
		</g>
	</g>
	<g>
		<g>
			<polygon style="fill:#DEAD8E;" points="8.996,30.576 14.73,30.545 14.29,23.189 9.131,23.37 			"/>
		</g>
		<g>
			<polygon style="fill:#EAB99A;" points="8.765,22.177 12.259,26.735 16.44,27.05 17.211,26.562 19.066,25.385 16.105,16.845 
				16.08,16.779 			"/>
		</g>
		<g>
			<polygon style="fill:#F5C4A5;" points="9.538,21.688 13.032,26.246 17.211,26.562 19.066,25.385 16.531,17.738 12.771,16.202 			
				"/>
		</g>
		<g>
			<polygon style="fill:#8D5C3E;" points="13.691,17.374 13.868,22.417 12.45,21.586 11.755,24.582 9.223,26.007 5.561,20.623 
				6.376,16.148 13.064,13.968 12.861,14.809 16.56,15.93 17.25,18.454 			"/>
		</g>
		<g>
			<polygon style="fill:#F5C4A5;" points="19.118,22.299 17.632,23.174 17.045,19.775 			"/>
		</g>
	</g>
	<g>
		<polygon style="fill:#DEAD8E;" points="14.37,30.199 16.961,33.742 11.908,32.63 8.988,29.511 		"/>
	</g>
	<g>
		<polygon style="fill:#D5E5E6;" points="6.048,29.783 9.19,27.935 14.37,30.199 16.961,33.742 18.429,44.795 17,50.812 
			5.42,52.923 4.477,50.993 4.564,33 		"/>
	</g>
	<g>
		<polygon style="fill:#505050;" points="4.885,51.759 3.378,56.343 5.293,58.288 23.684,57.716 35.263,79.946 40.815,76.617 
			27.089,52.589 14.309,51.067 		"/>
	</g>
	<g>
		<path style="fill:#303030;" d="M36.041,78.194l0.431,2.253h2.473v-0.501l2.504,0.524h7.096l-0.328-1.138
			c0,0-5.235-1.189-6.286-3.084L36.041,78.194z"/>
	</g>
	<g>
		<polygon style="fill:#E3F4F5;" points="9.19,27.935 15.332,35.167 15.652,31.952 14.37,30.199 		"/>
	</g>
	<g>
		<rect x="17.605" y="50.235" style="fill:#859596;" width="3.008" height="30.509"/>
	</g>
	<g>
		<path style="fill:#303030;" d="M3.318,53.03L3.17,53.035c-0.741,0.022-1.365-0.565-1.389-1.306L1,26.109
			c-0.023-0.741,0.564-1.366,1.306-1.388l0.147-0.004c0.741-0.023,1.365,0.565,1.388,1.306l0.782,25.62
			C4.646,52.384,4.059,53.008,3.318,53.03z"/>
	</g>
	<g>
		<path style="fill:#303030;" d="M2.04,60.043c-0.239,0-0.479-0.085-0.67-0.258c-0.867-0.782-1.341-1.793-1.369-2.923
			c-0.072-2.853,2.623-5.628,2.932-5.936c0.391-0.39,1.023-0.389,1.412,0.001c0.391,0.39,0.391,1.023,0.001,1.414
			C3.679,53.012,1.956,55.121,2,56.814c0.016,0.591,0.241,1.063,0.71,1.486c0.41,0.369,0.442,1.002,0.072,1.412
			C2.585,59.932,2.313,60.043,2.04,60.043z"/>
	</g>
	<g>
		<path style="fill:#606060;" d="M35.612,47.371h-0.106c-0.24,0-0.437-0.196-0.437-0.436V31.988c0-0.24,0.196-0.437,0.437-0.437
			h0.106c0.24,0,0.437,0.197,0.437,0.437v14.946C36.048,47.175,35.852,47.371,35.612,47.371z"/>
	</g>
	<g>
		<path style="fill:#606060;" d="M30.722,47.307h-5.409c-0.53,0-0.964-0.434-0.964-0.964v-0.248c0-0.53,0.434-0.964,0.964-0.964
			h5.409c0.531,0,0.965,0.434,0.965,0.964v0.248C31.687,46.873,31.253,47.307,30.722,47.307z"/>
	</g>
	<g>
		<g>
			<path style="fill:#E3F4F5;" d="M5.269,32.395l2.599,15.221c0.006,0.255,0.13,0.492,0.334,0.644l1.789,1.325
				c0.433,0.32,1.052,0.147,1.257-0.351l2.523-3.206c0.057-0.14-2.777-13.672-2.777-13.672c-0.043-0.269-1.199-2.609-1.444-2.727
				L7.71,28.755C7.154,28.49,4.605,30.125,5.269,32.395z"/>
		</g>
		<g>
			<path style="fill:#E3F4F5;" d="M22.441,46.889c-0.153-0.856-0.258-1.757-0.406-2.614l-3.63-0.051l-8.181,0.738
				c-0.178,0.006-1.633,2.286-1.633,2.286c-0.222,0.256-0.207,0.64,0.034,0.877l1.629,1.605c0.162,0.159,0.396,0.222,0.615,0.163
				l7.808-1.82L22.441,46.889z"/>
		</g>
		<g>
			<path style="fill:#F3CFB8;" d="M22.815,46.79l-0.979,0.279c-0.086-0.929-0.173-1.857-0.254-2.786l1.145,0.047
				c0.077,0,0.153-0.013,0.227-0.036l4.025-1.563c0.21-0.068,1.545-0.506,1.731-0.39l3.276,1.883
				c0.257,0.161,0.558,1.306,0.502,1.604l-0.803,0.025l-2.554-1.045l-5.996,1.979C23.031,46.764,22.92,46.766,22.815,46.79z"/>
		</g>
	</g>
	<g>
		<polygon style="fill:#386885;" points="104.053,51.759 104.03,55.201 103.178,57.572 83.328,55.964 71.748,78.194 66.646,74.078 
			79.921,50.838 92.702,49.316 		"/>
	</g>
	<g>
		<path style="fill:#303030;" d="M98.009,79.414L98.009,79.414c0.461,0,0.837-0.377,0.837-0.837V59.572
			c0-0.46-0.376-0.837-0.837-0.837l0,0c-0.46,0-0.837,0.377-0.837,0.837v19.005C97.172,79.037,97.549,79.414,98.009,79.414z"/>
	</g>
	<g>
		<path style="fill:#303030;" d="M91.505,79.91h13.008c0.576,0,1.047-0.472,1.047-1.047l0,0c0-0.576-0.471-1.048-1.047-1.048H91.505
			c-0.576,0-1.047,0.472-1.047,1.048l0,0C90.458,79.438,90.929,79.91,91.505,79.91z"/>
	</g>
	<g>
		<path style="fill:#303030;" d="M86.887,61.16h18.455c0.856,0,1.557-0.701,1.557-1.557v-0.561c0-0.855-0.7-1.557-1.557-1.557
			H86.887c-0.856,0-1.557,0.701-1.557,1.557v0.561C85.331,60.459,86.031,61.16,86.887,61.16z"/>
	</g>
	<g>
		<g>
			<path style="fill:#909090;" d="M73.246,47.307h19.985c0.195,0,0.355-0.16,0.355-0.355l0,0c0-0.195-0.16-0.355-0.355-0.355H73.246
				c-0.195,0-0.355,0.16-0.355,0.355l0,0C72.89,47.146,73.05,47.307,73.246,47.307z"/>
		</g>
	</g>
	<g>
		<g>
			<polygon style="fill:#DEAD8E;" points="100.464,28.796 95.227,31.132 92.595,24.25 97.369,22.287 			"/>
		</g>
		<g>
			<path style="fill:#EAB99A;" d="M97.126,22.092l-0.304,3.796c-0.035,0.432-0.301,0.811-0.695,0.991l-3.471,1.579
				c-0.28,0.127-0.591,0.172-0.896,0.13l-0.438-0.061l-0.496-0.07c-0.983-0.139-1.742-0.935-1.833-1.925l-0.669-7.314l-0.005-0.07
				l7.867,1.682C96.773,20.955,97.174,21.495,97.126,22.092z"/>
		</g>
		<g>
			<path style="fill:#F5C4A5;" d="M96.305,20.922l-1.598,5.235l-3.385,2.369l-1.441-0.204c-0.431-0.061-0.765-0.407-0.811-0.84
				l-0.766-7.276l2.792-2.95L96.305,20.922z"/>
		</g>
		<g>
			<polygon style="fill:#F7B23F;" points="89.7,20.129 92.639,20.874 94.392,20.426 95.477,24.474 98.373,24.728 98.754,22.529 
				99.274,22.56 99.002,21.104 99.608,21.804 99.489,18.312 96.9,14.572 93.88,14.25 90.44,16.026 88.524,16.987 87.407,19.968 			
				"/>
		</g>
		<g>
			<path style="fill:#F5C4A5;" d="M87.958,24.947c-0.032,0.121-0.01,0.249,0.061,0.353c0.07,0.102,0.183,0.17,0.307,0.183
				l1.217,0.13l-0.867-3.338L87.958,24.947z"/>
		</g>
	</g>
	<g>
		<polygon style="fill:#DEAD8E;" points="95.167,29.638 91.977,33.742 97.032,32.63 99.951,29.511 		"/>
	</g>
	<g>
		<path style="fill:#505050;" d="M102.891,29.783l-2.94-1.848c-3.197,2.03-4.884,2.902-5.741,2.61l-2.232,3.197l-0.841,6.333
			l2.799,11.075l9.584,1.772l0.943-1.93L104.374,33L102.891,29.783z"/>
	</g>
	<g>
		<path style="fill:#447EA1;" d="M104.053,51.759l0.445,1.278c0.51,1.464,0.367,3.076-0.391,4.429l-0.462,0.822l-18.391-0.572
			l-11.58,22.23l-5.102-4.116l13.275-23.241l12.781-1.521L104.053,51.759z"/>
	</g>
	<g>
		<path style="fill:#6D3C1F;" d="M72.897,78.194l0.483,2.275l-3.386-0.023l-2.504,0.023h-7.096l-0.214-1.056
			c0,0,6.901-0.551,7.939-4.735L72.897,78.194z"/>
	</g>
	<g>
		<path style="fill:#303030;" d="M105.621,53.03l0.148,0.005c0.74,0.022,1.365-0.565,1.388-1.306l0.782-25.62
			c0.022-0.741-0.565-1.366-1.306-1.388l-0.148-0.004c-0.74-0.023-1.365,0.565-1.388,1.306l-0.782,25.62
			C104.292,52.384,104.88,53.008,105.621,53.03z"/>
	</g>
	<g>
		<path style="fill:#303030;" d="M106.899,60.043c-0.273,0-0.545-0.111-0.742-0.33c-0.37-0.41-0.338-1.043,0.072-1.412
			c0.47-0.424,0.694-0.896,0.71-1.489c0.043-1.703-1.679-3.804-2.345-4.469c-0.392-0.391-0.392-1.023-0.002-1.414
			c0.391-0.393,1.025-0.391,1.414-0.002c0.308,0.308,3.004,3.083,2.932,5.936c-0.028,1.13-0.502,2.141-1.369,2.923
			C107.377,59.958,107.138,60.043,106.899,60.043z"/>
	</g>
	<g>
		<path style="fill:#C0C0C0;" d="M73.327,47.371h0.107c0.239,0,0.437-0.196,0.437-0.436V31.988c0-0.24-0.197-0.437-0.437-0.437
			h-0.107c-0.24,0-0.437,0.197-0.437,0.437v14.946C72.89,47.175,73.086,47.371,73.327,47.371z"/>
	</g>
	<g>
		<path style="fill:#E0E0E0;" d="M78.216,47.307h5.409c0.531,0,0.965-0.434,0.965-0.964v-0.248c0-0.53-0.434-0.964-0.965-0.964
			h-5.409c-0.53,0-0.964,0.434-0.964,0.964v0.248C77.252,46.873,77.686,47.307,78.216,47.307z"/>
	</g>
	<g>
		<g>
			<path style="fill:#606060;" d="M103.67,32.395l-2.599,15.221c-0.007,0.255-0.13,0.492-0.334,0.644l-1.789,1.325
				c-0.434,0.32-1.053,0.147-1.257-0.351l-2.523-3.206c-0.058-0.14,2.777-13.672,2.777-13.672c0.042-0.269,1.198-2.609,1.444-2.727
				l1.839-0.875C101.786,28.49,104.333,30.125,103.67,32.395z"/>
		</g>
		<g>
			<path style="fill:#606060;" d="M86.499,46.889c0.152-0.856,0.258-1.757,0.405-2.614l3.631-0.051l8.18,0.738
				c0.179,0.006,1.634,2.286,1.634,2.286c0.221,0.256,0.206,0.64-0.034,0.877l-1.629,1.605c-0.162,0.159-0.396,0.222-0.615,0.163
				l-7.808-1.82L86.499,46.889z"/>
		</g>
		<g>
			<path style="fill:#F3CFB8;" d="M86.124,46.79l0.978,0.279c0.087-0.929,0.173-1.857,0.255-2.786L86.21,44.33
				c-0.076,0-0.153-0.013-0.227-0.036l-4.025-1.563c-0.209-0.068-1.545-0.506-1.731-0.39l-3.276,1.883
				c-0.257,0.161-0.559,1.306-0.503,1.604l0.804,0.025l2.554-1.045l5.995,1.979C85.908,46.764,86.018,46.766,86.124,46.79z"/>
		</g>
	</g>
	<g>
		<rect x="10.929" y="47.36" style="fill:#C5D5D6;" width="85.496" height="3.707"/>
	</g>
	<g>
		<rect x="90.928" y="50.235" style="fill:#859596;" width="3.007" height="30.509"/>
	</g>
</g>
</svg>
