<?xml version="1.0" encoding="utf-8"?>
<!-- Generator: Adobe Illustrator 19.1.0, SVG Export Plug-In . SVG Version: 6.00 Build 0)  -->
<!DOCTYPE svg PUBLIC "-//W3C//DTD SVG 1.1//EN" "http://www.w3.org/Graphics/SVG/1.1/DTD/svg11.dtd">
<svg version="1.1" id="illustrations" xmlns="http://www.w3.org/2000/svg" xmlns:xlink="http://www.w3.org/1999/xlink" x="0px"
	 y="0px" viewBox="-447 232.4 64.1 96.6" style="enable-background:new -447 232.4 64.1 96.6;" xml:space="preserve">
<style type="text/css">
	.st0{fill:#5C6A78;}
	.st1{fill:#E0E0E0;}
	.st2{fill:#E02634;}
	.st3{fill:#EC7D85;}
	.st4{fill:#A81C27;}
	.st5{fill:#8C9AA8;}
	.st6{fill:#2C3A48;}
	.st7{fill:#F2F2F2;}
	.st8{fill:#404040;}
	.st9{fill:#758586;}
	.st10{fill:#7C8A98;}
	.st11{fill:#C0C0C0;}
	.st12{fill:#455556;}
	.st13{fill:#A5B5B6;}
	.st14{fill:#707070;}
	.st15{fill:#354546;}
	.st16{fill:#808080;}
	.st17{fill:#3C4A58;}
	.st18{fill:#DEAD8E;}
	.st19{fill:#926D5A;}
	.st20{fill:#505050;}
	.st21{fill:#606060;}
	.st22{fill:#2A1F1B;}
	.st23{fill:#9C7761;}
	.st24{fill:#6D3C1F;}
	.st25{fill:#303030;}
	.st26{fill:#4D5A68;}
	.st27{fill:#8D5C3E;}
	.st28{fill:#EAB99A;}
	.st29{fill:#F3AA43;}
	.st30{fill:#EF893A;}
	.st31{fill:#F5C4A5;}
	.st32{fill:#4C8EB5;}
	.st33{fill:#A0A0A0;}
	.st34{fill:#909090;}
	.st35{fill:#D0D0D0;}
	.st36{fill:#F19B2C;}
	.st37{fill:#D6741D;}
	.st38{fill:#FCE2AA;}
	.st39{fill:#E0A131;}
	.st40{fill:#8CC63F;}
	.st41{fill:#31D4E0;}
	.st42{fill:#6A26E0;}
</style>
<path class="st0" d="M-421,329h-2.3c-0.2,0-0.3-0.1-0.3-0.3l0,0c0-0.2,0.1-0.3,0.3-0.3h2.3c0.2,0,0.3,0.1,0.3,0.3l0,0
	C-420.7,328.9-420.8,329-421,329z"/>
<path class="st0" d="M-414.7,329h-2.3c-0.2,0-0.3-0.1-0.3-0.3l0,0c0-0.2,0.1-0.3,0.3-0.3h2.3c0.2,0,0.3,0.1,0.3,0.3l0,0
	C-414.4,328.8-414.6,329-414.7,329z"/>
<rect x="-445" y="297.2" class="st1" width="25.1" height="25.5"/>
<g>
	<g>
		<rect x="-441.4" y="271.1" class="st2" width="17.3" height="8.3"/>
	</g>
</g>
<g>
	<g>
		<rect x="-442" y="269.7" class="st3" width="18.5" height="3.4"/>
	</g>
</g>
<g>
	<g>
		<path class="st4" d="M-429.5,276.3c0,0.5-0.4,0.9-0.9,0.9h-4.7c-0.5,0-0.9-0.4-0.9-0.9v-0.1c0-0.5,0.4-0.9,0.9-0.9h4.7
			C-429.9,275.3-429.5,275.7-429.5,276.3L-429.5,276.3z"/>
	</g>
</g>
<g>
	<g>
		<rect x="-441.4" y="287.4" class="st0" width="17.3" height="8.3"/>
	</g>
</g>
<g>
	<g>
		<rect x="-442" y="286" class="st5" width="18.5" height="3.4"/>
	</g>
</g>
<g>
	<g>
		<path class="st6" d="M-429.5,292.5c0,0.5-0.4,0.9-0.9,0.9h-4.7c-0.5,0-0.9-0.4-0.9-0.9v-0.1c0-0.5,0.4-0.9,0.9-0.9h4.7
			C-429.9,291.6-429.5,292-429.5,292.5L-429.5,292.5z"/>
	</g>
</g>
<rect x="-419.9" y="232.4" class="st7" width="2" height="90.4"/>
<rect x="-445.4" y="295.8" class="st7" width="26.5" height="1.4"/>
<g>
	<rect x="-421" y="244.9" class="st8" width="0.8" height="11.2"/>
</g>
<g>
	<rect x="-423.9" y="240.9" class="st9" width="2.9" height="15.1"/>
</g>
<g>
	<rect x="-427" y="238" class="st10" width="3.1" height="18"/>
</g>
<g>
	<rect x="-428.5" y="241.4" class="st6" width="1.5" height="14.6"/>
</g>
<g>
	<rect x="-430.1" y="239.2" class="st11" width="1.6" height="16.9"/>
</g>
<g>
	<rect x="-433.3" y="242.4" class="st0" width="3.2" height="13.6"/>
</g>
<g>
	<rect x="-434.1" y="245.7" class="st12" width="0.7" height="10.3"/>
</g>
<g>
	<rect x="-436.7" y="242.1" class="st13" width="2.6" height="14"/>
</g>
<g>
	<rect x="-439.4" y="239.4" class="st14" width="2.7" height="16.7"/>
</g>
<g>
	<rect x="-440.7" y="242.5" class="st15" width="1.3" height="13.5"/>
</g>
<g>
	<rect x="-442.1" y="240.4" class="st9" width="1.4" height="15.6"/>
</g>
<g>
	<rect x="-445" y="243.4" class="st16" width="2.9" height="12.6"/>
</g>
<rect x="-447" y="232.4" class="st7" width="2" height="90.4"/>
<rect x="-445.4" y="256" class="st7" width="26.5" height="1.4"/>
<rect x="-445.4" y="279.6" class="st7" width="26.5" height="1.4"/>
<rect x="-445.4" y="233.4" class="st7" width="26.5" height="1.4"/>
<rect x="-445.4" y="257.5" class="st1" width="25.5" height="8.8"/>
<path class="st16" d="M-430,261.8h-5.1c-0.4,0-0.7-0.3-0.7-0.7l0,0c0-0.4,0.3-0.7,0.7-0.7h5.1c0.4,0,0.7,0.3,0.7,0.7l0,0
	C-429.2,261.5-429.6,261.8-430,261.8z"/>
<path class="st16" d="M-430,301.9h-5.1c-0.4,0-0.7-0.3-0.7-0.7l0,0c0-0.4,0.3-0.8,0.7-0.8h5.1c0.4,0,0.7,0.3,0.7,0.8l0,0
	C-429.2,301.5-429.6,301.9-430,301.9z"/>
<path class="st17" d="M-396.2,277.7v5.3c0,0.9-0.6,1.6-1.5,1.7c-0.1,0-0.2,0-0.3,0h-0.1c-0.9,0-1.7-0.8-1.7-1.7v-5.3
	c0-0.3,0.1-0.5,0.2-0.8c0.3-0.6,0.9-1,1.6-1c0.5,0,0.9,0.2,1.2,0.5c0.1,0.1,0.2,0.3,0.3,0.5C-396.2,277.2-396.2,277.4-396.2,277.7z"
	/>
<path class="st18" d="M-398.4,311c0,0.1,0,0.2,0,0.3l-1.1,12.4h-2.2l-1.2-12.6c0-0.1,0-0.1,0-0.2l0.2-7.5c0,0,0,0,0,0l0-0.6h3.7
	l0,0.7v0L-398.4,311z"/>
<path class="st17" d="M-397.9,276.9l0,1.5l0,0.7v0.2l-0.1,5.5v0.1l-0.9,18.6v0c0,0-0.6,1.6-1.7,1.6c-1.1,0.1-1.9-1.7-2-1.8
	c0,0,0,0,0,0l-3-19.1c0,0,0-0.4,0-1c0-0.1,0-0.2,0-0.4c0,0,0-0.1,0-0.1c0-0.1,0-0.2,0-0.4c0-0.1,0-0.3,0-0.4c0,0,0-0.1,0-0.1
	c0-0.2,0.1-0.3,0.1-0.5c0.1-0.6,0.3-1.3,0.5-2c0-0.1,0.1-0.1,0.1-0.2c0.1-0.2,0.2-0.4,0.3-0.7c0.2-0.5,0.5-1,0.8-1.5
	C-403.8,276.9-397.9,276.9-397.9,276.9z"/>
<path class="st18" d="M-392.8,310.9c0,0.1,0,0.1,0,0.2l-1.2,12.6h-2.2l-1.1-12.4c0-0.1,0-0.2,0-0.3l0.5-7.4v0l0-0.7h3.7l0,0.6
	c0,0,0,0,0,0L-392.8,310.9z"/>
<path class="st17" d="M-390,284.2l-3,19.1c0,0,0,0,0,0c-0.1,0.1-1,1.9-2,1.8c-1.1-0.1-1.7-1.6-1.7-1.6v0l-0.9-18.6v-0.2l-0.1-5.5
	v-0.9l0-1.5h5.9c0.3,0.5,0.6,1,0.8,1.5c0.1,0.2,0.2,0.4,0.3,0.7c0,0.1,0.1,0.1,0.1,0.2C-389.8,281.9-390,284.2-390,284.2z"/>
<path class="st17" d="M-393,303.4C-393,303.4-393,303.4-393,303.4l0.2,7.5c0,0.1,0,0.1,0,0.2l-1.2,12.6h0c0,0.2,0,0.4,0.1,0.6h-2.3
	c0-0.2,0-0.4,0-0.6l-1.1-12.4c0-0.1,0-0.2,0-0.3l0.5-7.4v0l-0.9-18.6v-0.2c-0.1,0-0.2,0-0.3,0h-0.1v0.1l-0.9,18.6v0l0.5,7.4
	c0,0.1,0,0.2,0,0.3l-1.1,12.4h0c0,0.2,0,0.4,0,0.6h-2.3c0-0.2,0.1-0.4,0.1-0.6h0l-1.2-12.6c0-0.1,0-0.1,0-0.2l-0.6-7.5
	c0,0-2.3-19.1-2.3-19.1s0-0.4,0-1c0-0.1,0-0.2,0-0.4c0,0,0-0.1,0-0.1c0-0.1,0-0.2,0-0.4c0-0.1,0-0.3,0-0.4c0,0,0-0.1,0-0.1
	c0-0.2,0.1-0.3,0.1-0.5c0.1-0.6,0.3-1.3,0.5-2c0-0.1,0.1-0.1,0.1-0.2c0.1-0.2,0.2-0.4,0.3-0.7h13.5c0.1,0.2,0.2,0.4,0.3,0.7
	c0,0.1,0.1,0.1,0.1,0.2c0.9,2.6,0.7,4.9,0.7,4.9L-393,303.4z"/>
<polygon class="st6" points="-402,322.6 -402.5,327.2 -400.8,328.4 -398.6,327.2 -399,322.6 "/>
<polygon class="st17" points="-402.5,327.2 -400.7,326.6 -398.6,327.2 -400.8,328.4 "/>
<polygon class="st6" points="-396.5,322.6 -396.9,327.2 -395.2,328.4 -393.1,327.2 -393.5,322.6 "/>
<polygon class="st17" points="-396.9,327.2 -395.2,326.6 -393.1,327.2 -395.2,328.4 "/>
<path class="st19" d="M-404.1,269.4C-404.1,269.4-404.1,269.4-404.1,269.4c-2,5.1-6.6,9.1-6.9,9.5l-1.4-1.1c0.2-0.4,3.7-5.7,5.7-8.7
	L-404.1,269.4z"/>
<path class="st18" d="M-390,277.2c-0.2,0.1-0.4,0.3-0.4,0.7l0.8,0.9l0.9-0.9L-390,277.2z"/>
<path class="st19" d="M-392.4,276.1c-0.2-0.4-0.2-1,0-1.7c0.4-0.4,1.5,0.6,1.5,0.6l1.8,1.3c0.1,0.1,0.4,0.3,0.5,0.4l0.4,1.4
	c0,0.2-0.5,0.6-0.7,0.7c0,0-0.7,0.3-0.7-0.1c0.1-0.7-0.2-1-0.2-1c-0.2-0.2-0.2-0.1-0.9-0.5l0,0.6c0.1,0.3,0.7,0.8,0.7,0.8l0,0.2
	c-0.1,0-0.3,0.1-0.3,0.1c-0.2-0.1-0.7-0.3-0.7-0.4L-392.4,276.1C-392.4,276.1-392.4,276.1-392.4,276.1z"/>
<path class="st20" d="M-403.5,256.9c0,0.2,0,1.7-0.1,3.7c0,1.3-0.1,2.7-0.2,4.1c0,0,0,0.1,0,0.1c-0.1,1.8-0.2,3.6-0.4,4.8v0h0
	l-1.1,0.2c-0.7,0.1-1.4-0.4-1.5-1.1c-0.3-4.1-0.3-8.1,0.1-11.9c0,0,0-0.1,0-0.1c0.1-0.7,0.8-1.3,1.6-1.3c0.2,0,0.3,0,0.4,0.1
	C-404,255.6-403.5,256.2-403.5,256.9z"/>
<path class="st19" d="M-391.5,275.7l-0.9-1.3c0.3-0.3,0.6-0.7,0.9-1c1.8-2.1,4.2-4.9,6.9-7.9c0,0,0,0,0,0l1.7,1.6
	c-2.3,2.7-5.4,5.9-7.6,7.8C-390.9,275.1-391.2,275.4-391.5,275.7z"/>
<path class="st20" d="M-382.9,267c-1,0.6-2,0.6-3.1,0c-0.8-0.9-0.7-1.1-1.8-2.5c0,0,0,0,0,0c-0.9-1.2-2.6-2.4-3.4-3.5
	c-1.1-1.6-1.1-2.9-1.2-3c-0.4-0.6-0.3-1.4,0.2-1.9c0.1-0.1,0.2-0.2,0.3-0.3c0.7-0.4,1.6-0.3,2,0.2c0,0,0.1,0.1,0.1,0.1
	C-387.1,259.4-385.1,262.9-382.9,267z"/>
<path class="st21" d="M-389.6,257.5c0.2-0.9-0.3-1.9-1.2-2c-0.1,0-0.2,0-0.3,0h-1.8c-0.4,0-0.7-0.1-1-0.1c-0.2-0.1-0.5,0-0.7,0
	l-3.1,0.6c-0.1,0-0.3,0-0.4,0c-0.5,0-1.7-0.2-2.8-0.6c-0.3-0.1-0.6-0.1-0.9-0.1c-0.2,0-0.5,0.1-0.8,0.1h-1.8c0,0-0.1,0-0.1,0
	c0,0,0,0,0,0c-1,0.1-1.6,1.1-1.4,2l0.7,2.7c0.1,0.4,0,0.9-0.2,1.3c-0.7,1.2,0.1,2.5,1.5,3.2c0.3,0.4,0.7,0.9,1,1.4
	c0.5,3.2,0.1,7.9-0.7,11c-0.3,1,1.2,1.3,2.2,1.3l7.2,0.1c1,0,2.9-0.3,2.6-1.3c-1-3.8-1-9.5-0.7-11.3c0.3-0.4,0.6-0.8,0.9-1.2
	c1.2-0.6,1.7-1.5,1.7-2.2c0-0.3-0.1-0.6-0.2-0.9c-0.2-0.4-0.3-0.9-0.2-1.3L-389.6,257.5z"/>
<path class="st19" d="M-395.5,254.5c-0.1-0.1-0.1-0.2-0.2-0.3c-0.4-0.5-0.6-1.1-0.7-1.8h-2.9c-0.1,0.7-0.3,1.4-0.7,1.9
	c-0.1,0.1-0.1,0.1-0.2,0.2c-0.3,0.3-0.8,0.6-1.3,0.7c1.5,0.7,3.5,0.8,3.5,0.8l3.8-0.8C-394.8,255.1-395.2,254.8-395.5,254.5z"/>
<polygon class="st8" points="-400.9,254.9 -403.3,255.4 -400.3,258.1 -398,256 "/>
<polygon class="st8" points="-395.2,254.9 -392.7,255.4 -395.9,258.1 -398,256 "/>
<path class="st22" d="M-392.7,246.9c-0.6-4.5-3.6-6.6-6.9-6.2c0,0,0,0,0,0c0,0,0,0,0,0c-3.4,0.4-5.8,3.2-5.2,7.7
	c0.2,1.3,0.8,2.9,0.8,4.4l5.8-0.7l0,0l5.8-0.7C-392.7,249.9-392.5,248.2-392.7,246.9z"/>
<path d="M-402.3,252.6l8.1-1c0,0,1.1-5.9-1.9-7.4c-3-1.5-6.1,0.7-6.1,0.7S-404.8,247.1-402.3,252.6L-402.3,252.6z"/>
<path class="st19" d="M-394.7,247.5c0.4,2.9-1,6.7-3.2,6.9c-0.1,0-0.2,0-0.3,0c-2.1,0-4.2-3.2-4.5-6c-0.3-2.8,1-5.3,3.1-5.7
	c0.1,0,0.2,0,0.3-0.1C-397.2,242.4-395.1,244.6-394.7,247.5z"/>
<path class="st23" d="M-395.3,247.6c0.3,2.8-0.9,6.3-2.9,6.9c-2.1,0-4.2-3.2-4.5-6c0-0.1,0-0.2,0-0.3c-0.2-1.9,0.5-3.7,1.6-4.7
	c0.3-0.3,0.7-0.5,1.1-0.6l0,0c0,0,0,0,0,0c0.1,0,0.2-0.1,0.4-0.1c0.3,0,0.5,0,0.8,0.1c1.6,0.4,3,1.9,3.5,3.9
	C-395.4,247-395.3,247.3-395.3,247.6z"/>
<path class="st19" d="M-395.2,246.7l-0.3,0.1l-7.3,1.5c-0.2-2,0.5-3.7,1.6-4.7l1.1-0.6l0,0l0,0l0,0l1.1,0l1.6,0L-395.2,246.7z"/>
<path class="st22" d="M-401.8,243.5c0,0-0.9,2.7-0.6,4.1l7.3-0.9c0,0-0.9-2.7-1.6-4C-398,240.9-401.9,242.3-401.8,243.5z"/>
<path d="M-398,247l0.7-0.1c0,0-0.5-3.4-1.4-4C-398.7,243-397.8,246.2-398,247L-398,247z"/>
<path d="M-399.5,243.4c0,0-0.8,1.7-0.4,3.9l0,0l0.7-0.1C-399.3,247.2-399.8,243.8-399.5,243.4z"/>
<rect x="-397.6" y="298.2" class="st24" width="3" height="30.5"/>
<rect x="-444.1" y="298.2" class="st24" width="3" height="30.5"/>
<path class="st25" d="M-418.8,325.4L-418.8,325.4c-0.5,0-0.8-0.4-0.8-0.8v-19c0-0.5,0.4-0.8,0.8-0.8l0,0c0.5,0,0.8,0.4,0.8,0.8v19
	C-417.9,325-418.3,325.4-418.8,325.4z"/>
<path class="st25" d="M-412.3,325.9h-13c-0.6,0-1-0.5-1-1l0,0c0-0.6,0.5-1,1-1h13c0.6,0,1,0.5,1,1l0,0
	C-411.2,325.4-411.7,325.9-412.3,325.9z"/>
<path class="st25" d="M-409.7,306.4h-18.5c-0.9,0-1.6-0.7-1.6-1.6v-0.6c0-0.9,0.7-1.6,1.6-1.6h18.5c0.9,0,1.6,0.7,1.6,1.6v0.6
	C-408.2,305.7-408.9,306.4-409.7,306.4z"/>
<path class="st26" d="M-411.8,299.6h-14.9c-0.3,0-0.6-0.2-0.6-0.6v-2.4c0-0.3,0.2-0.5,0.6-0.5h14.9c0.3,0,0.6,0.2,0.6,0.5v2.4
	C-411.2,299.3-411.5,299.6-411.8,299.6z"/>
<path class="st26" d="M-413.2,304.7h-11.7c-1.6,0-2.9-1.3-2.9-2.9v-0.7c0-1.6,1.3-2.9,2.9-2.9h11.7c1.6,0,2.9,1.3,2.9,2.9v0.7
	C-410.3,303.4-411.6,304.7-413.2,304.7z"/>
<rect x="-446.5" y="295.3" class="st27" width="54.4" height="3.7"/>
<path class="st6" d="M-411.7,303c0,1.9-3.4,1.7-7.4,1.7c-4,0-7.2,0.3-7.2-1.7c0-1.9,3.3-3.5,7.3-3.5
	C-415,299.6-411.7,301.1-411.7,303z"/>
<path class="st18" d="M-419.9,302.8c0-0.1,0-0.1,0-0.2c0-0.8-1.1-2.1-2.4-2.1c-1.3,0-2.4,1.4-2.4,2.1c0,0.1,0,0.1,0,0.2h0
	c0,0-0.4,5.4-0.3,8.4c0.1,3.1,1.8,11.9,1.7,12.9c-0.1,1,2,0,2,0s1.1-7.3,1.5-12.8C-419.4,307.3-419.8,303.8-419.9,302.8z"/>
<path class="st18" d="M-413.4,302.8L-413.4,302.8c0-0.1,0-0.1,0-0.2c0-0.8-1.1-2.1-2.4-2.1c-1.3,0-2.4,1.4-2.4,2.1
	c0,0.1,0,0.2,0,0.2c-0.1,0.9-0.5,4.5-0.2,8.5c0.4,5.4,1.5,12.8,1.5,12.8s2.1,1,2,0c-0.1-1,1.6-9.8,1.7-12.9
	C-413,308.1-413.4,302.8-413.4,302.8z"/>
<path class="st26" d="M-420.6,325.4c-0.1-0.3-0.4-0.5-0.7-0.5h-0.8h-0.8c-0.3,0-0.6,0.2-0.7,0.5l-0.7,1.9c0,0.1-0.1,0.2-0.1,0.3v0.5
	c0,0.2,0.1,0.3,0.2,0.5l0.3,0.5h1.8h1.8l0.3-0.5c0.1-0.1,0.2-0.3,0.2-0.5v-0.5c0-0.1,0-0.2-0.1-0.3L-420.6,325.4z"/>
<path class="st26" d="M-414.4,325.4c-0.1-0.3-0.4-0.5-0.7-0.5h-0.8h-0.8c-0.3,0-0.6,0.2-0.7,0.5l-0.7,1.9c0,0.1-0.1,0.2-0.1,0.3v0.5
	c0,0.2,0.1,0.3,0.2,0.5l0.3,0.5h1.8h1.8l0.3-0.5c0.1-0.1,0.2-0.3,0.2-0.5v-0.5c0-0.1,0-0.2-0.1-0.3L-414.4,325.4z"/>
<path class="st18" d="M-420.7,325.6c0,0.8-0.6,1.4-1.4,1.4l0,0c-0.8,0-1.4-0.6-1.4-1.4l0.4-2.1c0-0.8,0.2-2.9,1-2.9l0,0
	c0.8,0,1,2.1,1,2.9L-420.7,325.6z"/>
<path class="st18" d="M-414.5,325.5c0,0.8-0.6,1.4-1.4,1.4l0,0c-0.8,0-1.4-0.6-1.4-1.4l0.4-2.1c0-0.8,0.2-2.9,1-2.9l0,0
	c0.8,0,1,2.1,1,2.9L-414.5,325.5z"/>
<path class="st28" d="M-430.7,290.5C-430.7,290.5-430.7,290.5-430.7,290.5c3.9,1,7.3,1.9,10,2.6c0.5,0.1,0.9,0.2,1.3,0.3l0,1.6
	c-0.4,0-0.9-0.1-1.3-0.1c-2.9-0.3-6.1-1-9.5-2L-430.7,290.5z"/>
<path class="st28" d="M-407.3,290.5C-407.3,290.5-407.3,290.5-407.3,290.5c-3.9,1-7.3,1.9-10,2.6c-0.5,0.1-0.9,0.2-1.3,0.3l0,1.6
	c0.4,0,0.9-0.1,1.3-0.1c2.9-0.3,6.1-1,9.5-2L-407.3,290.5z"/>
<path class="st29" d="M-412.4,271.4c0,4.3-6.6,6.9-6.6,6.9s-6.6-2.6-6.6-6.9s2.9-7.9,6.6-7.9C-415.3,263.6-412.4,267.1-412.4,271.4z
	"/>
<path class="st30" d="M-415.5,268.2c0,0,3.3,5.5-1.9,9.4l0,0l-3.7-0.3c0,0-2.3-2.5-1.7-4.9l0,0L-415.5,268.2L-415.5,268.2z"/>
<path class="st28" d="M-424.3,281.5c0,0.1-0.5,1.6-1.2,3.4c-0.1,0.1-0.1,0.3-0.2,0.4c-0.2,0.5-0.4,1.1-0.6,1.7c0,0,0,0,0,0
	c-0.1,0.1-0.1,0.3-0.2,0.4c-0.2,0.4-0.3,0.9-0.5,1.3l0,0.1c-0.4,1.1-0.4,2.2-0.5,3.2c-0.1,0.7-0.7,1.2-1.4,1.2h0
	c-1.1-0.7-1.4-0.7-1.7-2.2c-0.1-0.3-0.2-0.6-0.1-0.9c1-4,1.8-6,3.4-9.7c0,0,0-0.1,0-0.1c0.3-0.6,1-1,1.8-0.8c0,0,0.1,0,0.1,0
	c0.1,0,0.3,0.1,0.4,0.2C-424.4,280.1-424.1,280.8-424.3,281.5z"/>
<path class="st28" d="M-407.4,291c-0.3,1.5-0.6,1.4-1.7,2.2h0c-0.7,0-1.3-0.5-1.4-1.2c-0.1-0.9,0-2-0.5-3.2l0-0.1
	c-0.2-0.4-0.3-0.9-0.5-1.3c-0.3-0.9-0.7-1.7-0.9-2.5c-0.7-1.8-1.2-3.2-1.2-3.4c-0.2-0.7,0.1-1.4,0.6-1.7c0.1-0.1,0.2-0.1,0.4-0.2
	c0,0,0.1,0,0.1,0c0.7-0.2,1.4,0.2,1.8,0.8c0,0,0,0.1,0,0.1c1.6,3.6,2.4,5.7,3.4,9.7C-407.2,290.4-407.3,290.7-407.4,291z"/>
<path class="st28" d="M-411.8,284.9c0.4,0.4,0.6,0.9,0.6,1.4c0,0.4-0.1,0.7-0.3,1c-0.3,0.5-0.9,0.9-1.6,1.3c0,0,0,0-0.1,0
	c-0.1,0.1-0.3,0.1-0.4,0.2c0,0-0.1,0-0.1,0c0,0,0,0,0,0.1v0c-0.7,1.7-1.1,3.3-1.3,4.8h-8.2c-0.1-1.5-0.6-3-1.2-4.7
	c0-0.1,0-0.1-0.1-0.2c-0.2,0-0.3-0.1-0.5-0.2c-0.3-0.1-0.6-0.3-0.8-0.4c-0.3-0.2-0.6-0.5-0.8-0.8c-0.2-0.3-0.3-0.7-0.3-1
	c0-0.5,0.2-1,0.6-1.4l-1.1-4c0-0.7,0.7-1.4,1.5-1.4h1.9c0.7,0,1.2-0.2,1.7-0.4c0.3-0.1,0.6-0.3,0.8-0.6c0.1-0.1,0.2-0.2,0.3-0.3
	c0.3-0.5,0.5-1.1,0.6-1.7h2.9c0.1,0.7,0.3,1.3,0.6,1.7c0.1,0.1,0.2,0.2,0.3,0.3c0.2,0.2,0.5,0.4,0.8,0.6c0.5,0.2,1,0.3,1.7,0.4h1.8
	c0.9,0,1.6,0.6,1.6,1.4L-411.8,284.9z"/>
<path class="st31" d="M-411.8,286.8c0,0.8-0.5,1.5-1.2,1.9c0,0,0,0-0.1,0c-0.1,0.1-0.3,0.1-0.4,0.2c-0.1,0-0.1,0-0.1,0.1v0
	c-0.4,0.2-0.9,0.3-1.5,0.3c-1.8,0-3.2-1.1-3.2-2.5c0-1.4,1.5-2.5,3.2-2.5c0.5,0,1,0.1,1.4,0.3C-412.6,284.9-411.8,285.8-411.8,286.8
	z"/>
<path class="st31" d="M-419.8,286.8c0,1.4-1.5,2.5-3.2,2.5c-0.4,0-0.8-0.1-1.2-0.2c-0.2-0.1-0.4-0.1-0.5-0.2
	c-0.3-0.2-0.6-0.4-0.8-0.6c-0.4-0.4-0.6-0.8-0.7-1.3c0,0,0,0,0,0c0-0.1,0-0.1,0-0.2c0-0.5,0.2-1,0.6-1.4c0.3-0.3,0.6-0.5,1-0.7
	c0.5-0.2,1-0.3,1.6-0.3C-421.3,284.3-419.8,285.4-419.8,286.8z"/>
<path class="st28" d="M-414.9,270.9c0,2.9-1.8,6.4-4,6.4c-0.1,0-0.2,0-0.3,0c-2.1-0.3-3.7-3.6-3.7-6.4c0-2.8,1.6-5,3.7-5.2
	c0.1,0,0.2,0,0.3,0C-416.7,265.6-414.9,267.9-414.9,270.9z"/>
<path class="st31" d="M-415.5,270.9c0,2.8-1.6,6.1-3.7,6.4c-2.1-0.3-3.7-3.6-3.7-6.4c0-0.1,0-0.2,0-0.3c0.1-1.9,0.9-3.6,2.2-4.4
	c0.3-0.2,0.7-0.4,1.1-0.5l0,0c0,0,0,0,0,0c0.1,0,0.2,0,0.4-0.1c0.3,0,0.5,0.1,0.8,0.2c1.5,0.5,2.7,2.2,2.9,4.2
	C-415.6,270.3-415.5,270.6-415.5,270.9z"/>
<path class="st29" d="M-423.4,267.1c0,0,0.8,1.8,4,2.3c3.3,0.5,3.9,2,4.3,3c0,0,1.8-4.3-0.9-5.9
	C-418.8,264.8-422.2,264.3-423.4,267.1z"/>
<path class="st32" d="M-411.5,287.4c0.2,0.4,0.3,0.9,0.5,1.3l0,0.1c0.1,0.4,0.2,0.7,0.3,1c0.6-0.2,1.1-0.3,1.6-0.6
	c0.5-0.3,0.9-0.6,1.3-0.9c-0.8-3-1.6-4.9-3-8c0,0,0-0.1,0-0.1c-0.3-0.6-1-1-1.8-0.8h-1.7c-0.7,0-1.2-0.2-1.7-0.4l-3.1,2.9l-3.1-2.9
	c-0.5,0.2-1,0.3-1.7,0.4h-1.7c-0.7-0.2-1.5,0.2-1.8,0.8c0,0,0,0.1,0,0.1c-1.4,3.2-2.2,5.1-3,8.2c0.8,0.8,1.9,1.1,2.9,1.5
	c0.1-0.4,0.2-0.8,0.3-1.3l0-0.1c0.2-0.4,0.3-0.9,0.5-1.3c0.2,0.3,0.5,0.6,0.8,0.8c0.2,0.2,0.5,0.4,0.8,0.6c0.2,0.1,0.3,0.2,0.5,0.2
	c0.7,1.7,1.1,3.2,1.2,4.7h8.2c0.1-1.5,0.6-3.1,1.3-4.8v0c0.1,0,0.1,0,0.1-0.1c0.1-0.1,0.3-0.1,0.4-0.2c0,0,0,0,0.1,0
	C-412.3,288.3-411.8,287.9-411.5,287.4z"/>
<path class="st33" d="M-410.1,285.5v9.1c0,0.4-0.3,0.7-0.7,0.7h-16.5c-0.4,0-0.7-0.3-0.7-0.7v-9.1c0-0.4,0.3-0.7,0.7-0.7h16.5
	C-410.4,284.8-410.1,285.1-410.1,285.5z"/>
<path class="st34" d="M-408.9,295.2h-20c-0.2,0-0.4-0.2-0.4-0.4l0,0c0-0.2,0.2-0.4,0.4-0.4h20c0.2,0,0.4,0.2,0.4,0.4l0,0
	C-408.6,295.1-408.7,295.2-408.9,295.2z"/>
<circle class="st35" cx="-419.2" cy="289.3" r="1.1"/>
<path class="st19" d="M-411,278.9l0.5,1.1c0,0-0.7,1.3-1.1,1.9l-0.2,0l0.5-1.8c-0.3,0.2-1.3,1.3-1.3,1.3l-0.5,2.3
	c0,0-1.5-0.8-1.8-1.1l0.5-1.6l0.3-1.5c0-0.1,0.3-0.4,0.4-0.5l1.6-1.7c0.4,0.4,1.6,0.2,2.1,0.5C-410.4,278.1-411,278.9-411,278.9z"/>
<rect x="-445.6" y="294" class="st36" width="14.8" height="1.1"/>
<rect x="-447" y="292.5" class="st37" width="14.8" height="1.6"/>
<rect x="-444.4" y="291.8" class="st38" width="14.8" height="0.8"/>
<g>
	<g>
		<circle class="st2" cx="-602" cy="274.4" r="43.9"/>
	</g>
	<g>
		<circle class="st39" cx="-468.3" cy="91.3" r="43.9"/>
	</g>
	<g>
		<circle class="st40" cx="-253.9" cy="161.2" r="43.9"/>
	</g>
	<g>
		<circle class="st41" cx="-253.9" cy="386.4" r="43.9"/>
	</g>
	<g>
		<circle class="st42" cx="-468.3" cy="457.5" r="43.9"/>
	</g>
</g>
</svg>
