<?xml version="1.0" encoding="utf-8"?>
<!-- Generator: Adobe Illustrator 19.1.0, SVG Export Plug-In . SVG Version: 6.00 Build 0)  -->
<!DOCTYPE svg PUBLIC "-//W3C//DTD SVG 1.1//EN" "http://www.w3.org/Graphics/SVG/1.1/DTD/svg11.dtd">
<svg version="1.1" id="illustrations" xmlns="http://www.w3.org/2000/svg" xmlns:xlink="http://www.w3.org/1999/xlink" x="0px"
	 y="0px" viewBox="-448 224.4 62.3 112.6" style="enable-background:new -448 224.4 62.3 112.6;" xml:space="preserve">
<style type="text/css">
	.st0{fill:#EAB99A;}
	.st1{fill:#332923;}
	.st2{fill:#B08874;}
	.st3{fill:#C5D5D6;}
	.st4{fill:#DEAD8E;}
	.st5{fill:#CEA28B;}
	.st6{fill:#3C4A58;}
	.st7{fill:#2C3A48;}
	.st8{fill:#D5E5E6;}
	.st9{fill:#F4CAAF;}
	.st10{fill:#5D2C10;}
	.st11{fill:#6D3C1F;}
	.st12{fill:#E0E0E0;}
	.st13{fill:#303030;}
	.st14{fill:#505050;}
	.st15{fill:#404040;}
	.st16{fill:#7D4C2E;}
	.st17{fill:#F7C46F;}
	.st18{fill:#D0D0D0;}
	.st19{fill:#FFFFFF;}
	.st20{fill:#F3AA43;}
	.st21{fill:#F8BE49;}
	.st22{fill:#F5C4A5;}
	.st23{fill:#E02634;}
	.st24{fill:#E0A131;}
	.st25{fill:#8CC63F;}
	.st26{fill:#31D4E0;}
	.st27{fill:#6A26E0;}
</style>
<path class="st0" d="M-414.2,235.9l0.4-1.5c0.1-0.2,0.2-0.5,0.4-0.6l1.1-0.7c0.2-0.1,0.4-0.2,0.6-0.2l0,0c0.5,0,1,0.4,1.1,0.9
	l0.4,2.1c0.1,0.6-0.3,1.2-0.9,1.3l-1.4,0.2c-0.1,0-0.2,0-0.3,0l-1.7,1.7C-415.2,238.9-414.4,236.5-414.2,235.9z"/>
<path class="st1" d="M-391.6,257.1c0,1.2-0.1,3.5-0.4,5.4c0,0.3-0.1,0.6-0.2,0.9c-0.2,1-0.5,1.8-0.8,2.2c-1.5,1.9-4-0.5-4-0.5
	s-2.5,3-4,1.2c-0.4-0.5-0.7-1.6-0.9-2.9c0-0.3-0.1-0.6-0.1-0.9c-0.2-2-0.3-4.2-0.3-5.4c0-5,2.4-9.1,5.3-9.1
	C-394,248-391.6,252.1-391.6,257.1z"/>
<path d="M-393.5,252.7c0,0,3.4,5.5-1.9,9.4l0,0l-3.7-0.3c0,0-2.3-2.5-1.7-4.9l0,0L-393.5,252.7L-393.5,252.7z"/>
<path class="st2" d="M-386.3,289.1h-1.6c-0.2-0.6-0.4-1.2-0.5-1.9c-0.8-2.6-1.7-5.9-2.8-9.5c0,0,0,0,0,0l2.5,0.5
	c1,3.2,1.7,6.3,2.2,9.1C-386.4,287.9-386.3,288.5-386.3,289.1z"/>
<path class="st2" d="M-387.9,289.8c0.2-0.5,0-0.7-0.2-1.2c0.6,0,1.1-0.3,1.6-0.3l0.6,4c0,0.1,0.1,0.5,0,0.6l-2.2,2.4
	c-0.1,0.1-0.2,0-0.4,0c0,0-0.6-0.3-0.2-0.6c0.6-0.5,1.4-2,1.4-2c0-0.2-0.1-0.2-0.2-1l-0.4,0.4c-0.2,0.2-0.1,1.3-0.1,1.3l-0.3-0.2
	c0,0-0.1-0.1-0.1-0.1c-0.1-0.2-0.3-0.7-0.3-0.8L-387.9,289.8C-387.9,289.8-387.9,289.8-387.9,289.8z"/>
<path class="st3" d="M-388.7,278.2l-2.5-0.4h0v0c-0.2-1.2-0.3-2.9-0.4-4.7v0c-0.1-1.5-0.1-3-0.2-4.3c-0.1-2-0.1-3.4-0.1-3.6
	c0-0.7,0.5-1.3,1.2-1.5c0.1,0,0.3-0.1,0.4-0.1c0.8,0,1.5,0.6,1.6,1.3c0,0,0,0.1,0,0.1C-388.3,269.1-388.3,273.6-388.7,278.2z"/>
<path class="st2" d="M-410.4,241l-1.5,0.5c-0.1,0.6,0.5,7.9,0.7,11.7c0,0,0,0,0,0l2.3-1.2C-408.9,252-410.3,241.6-410.4,241z"/>
<path class="st2" d="M-389.7,268.9c0.4,0.4,0.7,0.9,0.7,1.5c0,0.6-0.3,1.1-0.7,1.5c-0.3,0.3-0.7,0.6-1.2,0.8h0
	c-0.1,0.1-0.3,0.1-0.4,0.2c0,0-0.1,0-0.1,0c0,0,0,0,0,0.1v0c-1.7,4.2-2,7.4,0.3,11.5c0.1,0.2,0.2,0.4,0.3,0.5H-403
	c0.1-0.2,0.2-0.4,0.3-0.5c2.2-4.1,1.9-7.3,0.3-11.4c0-0.1,0-0.1-0.1-0.2c-0.2-0.1-0.3-0.1-0.5-0.2c-0.3-0.1-0.6-0.3-0.8-0.4
	c-0.1-0.1-0.2-0.2-0.3-0.3c-0.5-0.5-0.8-1-0.8-1.7c0-0.5,0.2-1,0.6-1.5l-1.1-4c0-0.7,0.5-1.2,1.3-1.4c0.1,0,0.2,0,0.3,0h1.9
	c0.3,0,0.6,0,0.8-0.1c0.2,0,0.4-0.1,0.6-0.2c0.4-0.1,0.7-0.3,1-0.6c0,0,0.1-0.1,0.1-0.1c0.4-0.4,0.6-0.8,0.8-1.3
	c0.1-0.2,0.1-0.5,0.1-0.8h2.9c0,0.3,0.1,0.5,0.1,0.8c0.1,0.5,0.4,1,0.8,1.3c0,0,0.1,0.1,0.1,0.1c0.2,0.2,0.4,0.3,0.7,0.4
	c0.1,0,0.2,0.1,0.3,0.1c0.4,0.1,0.9,0.2,1.4,0.2h1.8c0.2,0,0.4,0,0.5,0.1c0.7,0.2,1.1,0.7,1.1,1.3L-389.7,268.9z"/>
<path class="st2" d="M-395.3,285.8v5.4c0,0.9-0.7,1.6-1.5,1.7c-0.1,0-0.2,0-0.3,0h-0.1c-0.9,0-1.7-0.8-1.7-1.8v-5.4
	c0-0.3,0.1-0.5,0.2-0.8c0.3-0.6,0.9-1,1.6-1c0.5,0,0.9,0.2,1.2,0.5c0.1,0.1,0.2,0.3,0.3,0.5C-395.4,285.2-395.3,285.5-395.3,285.8z"
	/>
<path class="st4" d="M-397.6,319.4c0,0.1,0,0.2,0,0.3l-1.1,12.5h-2.2l-1.2-12.8c0-0.1,0-0.1,0-0.2l0.2-7.6c0,0,0,0,0,0l0-0.6h3.7
	l0,0.7v0L-397.6,319.4z"/>
<path class="st2" d="M-397.1,285l0,1.5l0,0.7v0.2l-0.1,5.6v0.1l-0.9,18.8v0c0,0-0.6,1.6-1.8,1.7c-1.1,0.1-2-1.7-2-1.8c0,0,0,0,0,0
	l-3.1-19.3c0,0,0-0.4,0-1.1c0-0.1,0-0.2,0-0.4c0,0,0-0.1,0-0.1c0-0.1,0-0.2,0-0.4c0-0.1,0-0.3,0-0.4c0,0,0-0.1,0-0.1
	c0-0.2,0.1-0.4,0.1-0.5c0.1-0.6,0.3-1.4,0.5-2.1c0-0.1,0.1-0.1,0.1-0.2c0.1-0.2,0.2-0.4,0.3-0.7c0.2-0.5,0.5-1,0.8-1.5
	C-403,285-397.1,285-397.1,285z"/>
<path class="st5" d="M-389.8,270.7c0,0.8-0.5,1.5-1.2,2h0c-0.1,0.1-0.2,0.1-0.4,0.2c0,0-0.1,0-0.1,0.1v0c-0.4,0.2-0.9,0.3-1.5,0.3
	c-1.8,0-3.3-1.1-3.3-2.5c0-1.4,1.5-2.5,3.3-2.5c0.5,0,1,0.1,1.4,0.3C-390.5,268.9-389.8,269.7-389.8,270.7z"/>
<path class="st5" d="M-397.9,270.7c0,1.4-1.5,2.5-3.3,2.5c-0.4,0-0.9-0.1-1.2-0.2c-0.2-0.1-0.4-0.1-0.6-0.2
	c-0.3-0.1-0.6-0.3-0.8-0.6c-0.4-0.4-0.7-1-0.7-1.5c0-0.9,0.7-1.8,1.7-2.2c0.5-0.2,1-0.3,1.6-0.3
	C-399.4,268.2-397.9,269.4-397.9,270.7z"/>
<path class="st4" d="M-391.9,319.3c0,0.1,0,0.1,0,0.2l-1.2,12.8h-2.2l-1.1-12.5c0-0.1,0-0.2,0-0.3l0.5-7.5v0l0-0.7h3.7l0,0.6
	c0,0,0,0,0,0L-391.9,319.3z"/>
<path class="st2" d="M-389.1,292.4l-3.1,19.3c0,0,0,0,0,0c-0.1,0.1-1,1.9-2,1.8c-1.1-0.1-1.8-1.7-1.8-1.7v0l-0.9-18.8v-0.2l-0.1-5.5
	v-0.9l0-1.5h6c0.3,0.5,0.6,1,0.8,1.5c0.1,0.2,0.2,0.4,0.3,0.7c0,0.1,0.1,0.1,0.1,0.2C-388.9,290-389.1,292.4-389.1,292.4z"/>
<path class="st2" d="M-392.9,255.3c0,2.9-1.8,6.4-4,6.4c-0.1,0-0.2,0-0.3,0c-2.1-0.3-3.7-3.6-3.7-6.4c0-2.8,1.6-5.1,3.7-5.3
	c0.1,0,0.2,0,0.3,0C-394.7,250.1-392.9,252.4-392.9,255.3z"/>
<path class="st5" d="M-393.5,255.3c0,2.8-1.6,6.1-3.7,6.4c-2.1-0.3-3.7-3.6-3.7-6.4c0-0.1,0-0.2,0-0.3c0.1-1.9,0.9-3.6,2.2-4.4
	c0.3-0.2,0.7-0.4,1.1-0.5l0,0c0,0,0,0,0,0c0.1,0,0.2,0,0.4-0.1c0.3,0,0.5,0.1,0.8,0.2c1.5,0.5,2.7,2.2,2.9,4.3
	C-393.6,254.8-393.5,255.1-393.5,255.3z"/>
<path class="st1" d="M-393.5,251.6c0,0,0.3,1.8-3,2.3c-3.3,0.5-3.9,2-4.3,3c0,0-1.8-4.3,0.9-5.9
	C-397.1,249.2-394.8,248.8-393.5,251.6z"/>
<path class="st6" d="M-392.2,311.7C-392.2,311.7-392.2,311.7-392.2,311.7l0.2,7.6c0,0.1,0,0.1,0,0.2l-1.2,12.8h0
	c0,0.2,0,0.4,0.1,0.6h-2.3c0-0.2,0-0.4,0-0.6l-1.1-12.5c0-0.1,0-0.2,0-0.3l0.5-7.5v0l-0.9-18.8v-0.2c-0.1,0-0.2,0-0.3,0h-0.1v0.1
	l-0.9,18.8v0l0.5,7.5c0,0.1,0,0.2,0,0.3l-1.1,12.5h0c0,0.2,0,0.4,0,0.6h-2.3c0-0.2,0.1-0.4,0.1-0.6h0l-1.2-12.8c0-0.1,0-0.1,0-0.2
	l0.2-7.6c0,0,0,0,0,0l-3.1-19.3c0,0,0-0.4,0-1.1c0-0.1,0-0.2,0-0.4c0,0,0-0.1,0-0.1c0-0.1,0-0.2,0-0.4c0-0.1,0-0.3,0-0.4
	c0,0,0-0.1,0-0.1c0-0.2,0.1-0.4,0.1-0.5c0.1-0.6,0.3-1.4,0.5-2.1c0-0.1,0.1-0.1,0.1-0.2c0.1-0.2,0.2-0.4,0.3-0.7h13.7
	c0.1,0.2,0.2,0.4,0.3,0.7c0,0.1,0.1,0.1,0.1,0.2c0.9,2.6,0.7,5,0.7,5L-392.2,311.7z"/>
<polygon class="st7" points="-401.2,331.1 -401.7,335.8 -400,337 -397.8,335.8 -398.2,331.1 "/>
<polygon class="st6" points="-401.7,335.8 -399.9,335.2 -397.8,335.8 -400,337 "/>
<polygon class="st7" points="-395.6,331.1 -396.1,335.8 -394.4,337 -392.2,335.8 -392.6,331.1 "/>
<polygon class="st6" points="-396.1,335.8 -394.3,335.2 -392.2,335.8 -394.4,337 "/>
<path class="st8" d="M-389.7,268.9c0.4,0.4,0.7,0.9,0.7,1.5c0,0.6-0.3,1.1-0.7,1.5c-0.3,0.3-0.7,0.6-1.2,0.8h0
	c-0.1,0.1-0.2,0.1-0.4,0.2c0,0-0.1,0-0.1,0.1v0c-1.7,4.2-2,7.4,0.3,11.5c0.1,0.2,0.2,0.4,0.3,0.5H-403c0.1-0.2,0.2-0.4,0.3-0.5
	c2.2-4.1,1.9-7.3,0.3-11.4c-0.2-0.1-0.4-0.1-0.6-0.2c-0.3-0.1-0.6-0.3-0.8-0.6c-0.1-0.1-0.2-0.2-0.3-0.3c-0.5-0.5-0.8-1-0.8-1.7
	c0-0.5,0.2-1,0.6-1.5l-1.1-4c0-0.7,0.5-1.2,1.3-1.4c0.1,0,0.2,0,0.3,0h1.9c0.3,0,0.6,0,0.8-0.1c0.2,0,0.4-0.1,0.6-0.2
	c0.4-0.1,0.7-0.3,1-0.6l0,0c1.7,1.4,3.3,1.4,4.9,0l0,0c0.2,0.2,0.4,0.3,0.7,0.5c0.1,0,0.2,0.1,0.3,0.1c0.4,0.1,0.9,0.2,1.4,0.2h1.8
	c0.2,0,0.4,0,0.5,0.1c0.7,0.2,1.1,0.7,1.1,1.3L-389.7,268.9z"/>
<path class="st7" d="M-389.8,287.3h-14.4c0-0.1,0.1-0.1,0.1-0.2c0.1-0.2,0.2-0.4,0.3-0.7c0.2-0.5,0.5-1,0.8-1.5h0.1
	c0.1-0.2,0.2-0.4,0.3-0.5h11.4c0.1,0.2,0.2,0.4,0.3,0.5h0.1c0.3,0.5,0.6,1,0.8,1.5c0.1,0.2,0.2,0.4,0.3,0.7
	C-389.9,287.2-389.9,287.3-389.8,287.3z"/>
<path d="M-435.4,335.4h-1.6c-0.8,0-1.4-0.6-1.4-1.4v-2.2c0-0.8,0.6-1.4,1.4-1.4h1.6c0.8,0,1.4,0.6,1.4,1.4v2.2
	C-434,334.8-434.6,335.4-435.4,335.4z"/>
<path d="M-427.7,335.4h-1.6c-0.8,0-1.4-0.6-1.4-1.4v-2.2c0-0.8,0.6-1.4,1.4-1.4h1.6c0.8,0,1.4,0.6,1.4,1.4v2.2
	C-426.3,334.8-426.9,335.4-427.7,335.4z"/>
<rect x="-435.4" y="254" class="st4" width="6.1" height="7"/>
<path class="st0" d="M-428.9,251.7L-428.9,251.7c0.4,0.2,0.9-0.1,1-0.5l0.4-1.4c0.1-0.4-0.1-0.8-0.5-0.9l0,0c-0.4-0.2-0.9,0.1-1,0.5
	l-0.4,1.4C-429.5,251.1-429.3,251.6-428.9,251.7z"/>
<path class="st0" d="M-428.5,247.6l0.1,5c0,0.4-0.1,0.9-0.3,1.4c-0.5,1.2-0.5,1.2-2.2,2.9c-0.2,0.2-0.8,0.4-1.4,0.4
	c-0.1,0-0.2,0-0.3,0c-0.5,0-0.9-0.2-1.1-0.3c-1.8-1.6-1.8-1.6-2.4-2.8c-0.2-0.5-0.3-0.9-0.3-1.3l-0.1-5c0-1.5,1-2.8,2.4-2.8l3.2-0.1
	C-429.7,244.9-428.5,246.1-428.5,247.6z"/>
<path class="st9" d="M-429.2,247.6l0.1,5c0,0.4-0.1,0.9-0.3,1.4c-0.5,1.2-0.5,1.2-2.2,2.9c-0.2,0.2-0.6,0.3-1.1,0.4
	c-0.5,0-0.9-0.2-1.1-0.3c-1.8-1.6-1.8-1.6-2.4-2.8c-0.2-0.5-0.3-0.9-0.3-1.3l-0.1-5c0-1.5,1-2.8,2.4-2.8l2.5-0.1
	C-430.3,244.9-429.2,246.1-429.2,247.6z"/>
<path class="st9" d="M-436,251.9L-436,251.9c-0.4,0.2-0.9,0-1.1-0.5l-0.5-1.4c-0.1-0.4,0.1-0.8,0.4-1l0,0c0.4-0.2,0.9,0,1.1,0.5
	l0.5,1.4C-435.5,251.3-435.7,251.7-436,251.9z"/>
<polygon class="st10" points="-427.8,248.3 -428.5,251.1 -429.5,247.7 -430,248.4 -430.9,248.6 -431,248.6 -435.5,249.7 
	-436.5,251.2 -437,247.5 -435.8,243.6 -430.6,242.6 -429.6,243.5 -428.1,244.8 "/>
<path class="st11" d="M-429.6,243.5l0.1,2.5c0,1.1-0.6,2.1-1.4,2.6l0,0l-4.5,1.1l-1,1.5l-0.5-3.7l1.3-3.9l5.1-1L-429.6,243.5z"/>
<path class="st11" d="M-424.4,288.2l-0.8,5.1h-14.3l-0.9-5c-0.1-0.6-0.1-1.2,0.1-1.7l0.1-0.4l0.7-2.2v0h14.3l0.6,2.2l0.1,0.5
	C-424.4,287.1-424.3,287.7-424.4,288.2z"/>
<path class="st12" d="M-421,262.1C-421,262.1-421,262.2-421,262.1c-1.3,3-1.7,6.8-2.5,10.1c-1,3.9-1.7,7.8-1.8,11.3
	c0,0.1,0,0.2,0,0.3c0,0,0,0,0,0.1c-0.2,1-1,1.7-2.1,1.7h-10.1c-1,0-1.9-0.8-2.1-1.7v0c0,0,0,0,0-0.1c0-0.1,0-0.2,0-0.3
	c0-4.1-0.8-8-1.8-11.8c-0.8-3.2-1.8-6.4-2.5-9.6c0-0.1,0-0.2,0-0.3c-0.1-1,0.6-2,1.6-2.3c0.3-0.1,6.2-1.3,6.6-1.3l3.7,3.3l3-3.3
	c0.4,0,6.8,1.3,6.9,1.4C-421.3,260.1-420.7,261.1-421,262.1z"/>
<polygon class="st11" points="-424.4,288.2 -432.5,287.4 -432.4,293.2 -432.1,308.5 -431.9,315.9 -431.5,331.7 -425.9,331.7 
	-425.7,317.1 -425.5,309.4 -424.6,298.5 "/>
<polygon class="st11" points="-440.5,288.3 -440.3,298.5 -439.5,309.4 -439.2,317.1 -439,331.7 -433.4,331.7 -433.1,315.9 
	-432.8,308.5 -432.6,296.1 -432.6,293.2 -432.5,287.4 -432.6,287.4 "/>
<polygon class="st13" points="-437.3,331.7 -439.3,334.7 -439.3,335.7 -433.6,335.7 -433.6,334.2 -434.6,331.7 "/>
<polygon class="st14" points="-439.3,334.7 -437,333.7 -433.6,334.7 -433.6,335.7 -439.3,335.7 "/>
<polygon class="st13" points="-425.1,334.7 -425.1,335.7 -430.7,335.7 -430.7,334.2 -429.8,331.7 -427.1,331.7 "/>
<polygon class="st14" points="-425.1,334.7 -425.1,335.7 -430.7,335.7 -430.7,334.7 -427,333.7 "/>
<path class="st15" d="M-424.6,286.1h-15.6l0.7-2.2v0c0,0,0,0,0-0.1h14.3c0,0,0,0,0,0.1h0.1L-424.6,286.1z"/>
<polygon class="st12" points="-442,268 -441.3,279.5 -440.5,281.9 -439.6,283.9 -425.2,283.9 -424.6,282.5 -423.8,280.1 
	-423.2,269.1 "/>
<path class="st16" d="M-436.4,286.4L-436.4,286.4c-0.2,0-0.3-0.1-0.3-0.3v-2.4c0-0.1,0.1-0.3,0.3-0.3h0c0.1,0,0.3,0.1,0.3,0.3v2.4
	C-436.2,286.3-436.3,286.4-436.4,286.4z"/>
<path class="st12" d="M-421.5,264.6l9.6-15.1c0.2-0.2,0.2-0.5,0.2-0.7l-0.5-2.2c-0.1-0.5-0.7-0.8-1.2-0.6l-3,1.3
	c-0.1,0.1-8.2,12.7-8.2,12.7c-0.1,0.2,0.8,2.1,0.9,2.3l0.8,1.9C-422.6,264.9-421.9,265-421.5,264.6z"/>
<path class="st12" d="M-412.4,237.2c-0.9,0-1.8-0.1-2.6-0.1l-0.8,3.6l-0.9,8.2c0,0.2,1.9,2,1.9,2c0.2,0.3,0.6,0.3,0.9,0.1l1.9-1.3
	c0.2-0.1,0.3-0.3,0.3-0.6l-0.3-8L-412.4,237.2z"/>
<path class="st11" d="M-433.5,290.6l-5.2,1.9c-0.4,0.1-0.9-0.1-1-0.5l-0.2-0.4c-0.1-0.4,0.1-0.9,0.5-1l5.2-1.9
	c0.4-0.1,0.9,0.1,1,0.5l0.2,0.4C-432.8,290-433.1,290.5-433.5,290.6z"/>
<polygon class="st6" points="-432.5,262.5 -434,277.2 -432.5,280.5 -430.7,277.2 -432.1,262.5 "/>
<path class="st17" d="M-431.1,286.4h-1.9c-0.2,0-0.4-0.2-0.4-0.4V284c0-0.2,0.2-0.4,0.4-0.4h1.9c0.2,0,0.4,0.2,0.4,0.4v1.9
	C-430.7,286.2-430.9,286.4-431.1,286.4z"/>
<polygon class="st18" points="-421,262.2 -422.4,267.8 -423.8,280.1 -425.2,283.9 -429,283.9 -426.1,282.9 -423.2,267.3 "/>
<path class="st16" d="M-427.9,286.4L-427.9,286.4c-0.2,0-0.3-0.1-0.3-0.3v-2.4c0-0.1,0.1-0.3,0.3-0.3h0c0.1,0,0.3,0.1,0.3,0.3v2.4
	C-427.6,286.3-427.7,286.4-427.9,286.4z"/>
<polygon class="st10" points="-430.1,310.7 -429.7,331.7 -431.6,331.7 -432,315.9 -432.2,308.5 -432.4,293.2 -431.2,291.7 
	-430.5,287.6 -430.3,286.5 -430.3,287.6 -430.8,305.5 "/>
<path class="st6" d="M-432.1,262.8h-0.4c-0.4,0-0.8-0.4-0.8-0.8v-0.2c0-0.4,0.4-0.8,0.8-0.8h0.4c0.4,0,0.8,0.4,0.8,0.8v0.2
	C-431.3,262.4-431.7,262.8-432.1,262.8z"/>
<polygon class="st19" points="-435.8,258.4 -439,258.9 -434.4,263 -432.9,260.9 "/>
<polygon class="st19" points="-429.1,258.4 -426,258.9 -430.6,263 -432,260.9 "/>
<polygon class="st18" points="-422.9,267.9 -425,264.5 -424,262.1 "/>
<polygon class="st18" points="-422.9,267.3 -423.2,262.8 -421.7,261.3 "/>
<g>
	<path class="st20" d="M-413.8,230.4c-0.8,0-1.6-0.4-2.1-1l-0.2-0.2c-0.9-1.1-0.7-2.8,0.4-3.7c0.5-0.4,1-0.6,1.6-0.6
		c0.8,0,1.6,0.4,2.1,1l0.2,0.2c0.9,1.1,0.7,2.8-0.4,3.7C-412.7,230.2-413.2,230.4-413.8,230.4z M-414,225.6c-0.4,0-0.8,0.1-1.2,0.4
		c-0.8,0.7-1,1.9-0.3,2.7l0.2,0.2c0.4,0.5,0.9,0.7,1.5,0.7c0.4,0,0.8-0.1,1.2-0.4c0.8-0.7,1-1.9,0.3-2.7l-0.2-0.2
		C-412.9,225.9-413.4,225.6-414,225.6z"/>
</g>
<g>
	<path class="st20" d="M-410.9,229.8c-1.1-0.9-1.3-2.6-0.4-3.7l0.2-0.2c0.5-0.6,1.2-1,2.1-1c0.6,0,1.2,0.2,1.6,0.6
		c1.1,0.9,1.3,2.6,0.4,3.7l-0.2,0.2c-0.5,0.6-1.2,1-2.1,1C-409.8,230.4-410.4,230.2-410.9,229.8z M-410.5,226.3l-0.2,0.2
		c-0.7,0.8-0.5,2,0.3,2.7c0.3,0.3,0.8,0.4,1.2,0.4c0.6,0,1.1-0.3,1.5-0.7l0.2-0.2c0.7-0.8,0.5-2-0.3-2.7c-0.3-0.3-0.8-0.4-1.2-0.4
		C-409.6,225.6-410.2,225.9-410.5,226.3z"/>
</g>
<path class="st20" d="M-408.3,224.4C-408.3,224.4-408.3,224.4-408.3,224.4c0,0.1,0,0.2,0,0.3c0,0.1,0,0.1,0,0.2c0,0,0,0,0,0.1
	c0,0,0,0,0,0c0,0.1,0,0.2,0,0.3c-0.2,3.3-1.6,7.3-3.2,7.3c-1.6,0-3-4.1-3.2-7.3c0-0.1,0-0.2,0-0.3v0c0-0.1,0-0.2,0-0.3
	c0-0.1,0-0.2,0-0.3c0,0,0,0,0,0C-414.8,224.4-408.3,224.4-408.3,224.4z"/>
<path class="st21" d="M-408.3,224.4C-408.3,224.4-408.3,224.4-408.3,224.4c0,0.1,0,0.2,0,0.3c0,0.1,0,0.1,0,0.2c0,0,0,0,0,0.1v0
	c0,0.1,0,0.2-0.1,0.3c-0.5,2.6-1.6,5.1-2.9,5.1c-1.3,0-2.4-2.5-2.9-5.1c0-0.1,0-0.2-0.1-0.3c0-0.1,0-0.2-0.1-0.3c0-0.1,0-0.2,0-0.3
	H-408.3z"/>
<path class="st20" d="M-411.2,234.2c0,1,0.1,1.7,0.3,1.7v0.5c0,0.2-0.2,0.3-0.5,0.3h-0.1c-0.3,0-0.5-0.1-0.5-0.3v-0.5
	c0.1-0.2,0.2-0.9,0.2-1.7s-0.1-1.5-0.2-1.7V232c0-0.2,0.2-0.3,0.5-0.3h0.1c0.3,0,0.5,0.1,0.5,0.3v0.5
	C-411.1,232.4-411.2,233.2-411.2,234.2z"/>
<path class="st20" d="M-410.4,236.3c0,0.2-0.2,0.4-0.4,0.4h-1.4c-0.2,0-0.4-0.2-0.4-0.4c0,0,0,0,0,0c0-0.1,0-0.2,0.1-0.2
	c0.1-0.1,0.2-0.1,0.3-0.1h1.4C-410.6,235.9-410.5,236-410.4,236.3C-410.4,236.2-410.4,236.3-410.4,236.3z"/>
<path class="st20" d="M-409.6,237.1c0,0.3-0.2,0.5-0.5,0.5h-2.7c-0.3,0-0.5-0.2-0.5-0.5c0,0,0-0.1,0-0.1c0-0.1,0.1-0.2,0.1-0.3
	c0.1-0.1,0.2-0.2,0.4-0.2h2.7c0.3,0,0.5,0.2,0.5,0.4C-409.6,237-409.6,237-409.6,237.1z"/>
<path class="st21" d="M-408.7,238c0,0.4-0.3,0.6-0.6,0.6h-4.4c-0.4,0-0.6-0.3-0.6-0.6c0,0,0-0.1,0-0.1c0-0.1,0.1-0.3,0.2-0.4
	c0.1-0.1,0.3-0.2,0.5-0.2h4.4C-409,237.4-408.8,237.6-408.7,238C-408.7,238-408.7,238-408.7,238z"/>
<path class="st20" d="M-408.7,238c0,0.4-0.3,0.6-0.6,0.6h-4.4c-0.4,0-0.6-0.3-0.6-0.6c0,0,0-0.1,0-0.1L-408.7,238
	C-408.7,238-408.7,238-408.7,238z"/>
<path class="st21" d="M-409.6,237h-3.8c0-0.1,0.1-0.2,0.1-0.3c0.1-0.1,0.2-0.2,0.4-0.2h2.7C-409.9,236.5-409.7,236.7-409.6,237z"/>
<path class="st21" d="M-410.4,236.2h-2.1c0-0.1,0-0.2,0.1-0.2c0.1-0.1,0.2-0.1,0.3-0.1h1.4C-410.6,235.9-410.5,236-410.4,236.2z"/>
<path class="st15" d="M-408,239.9c0,0.2-0.1,0.3-0.3,0.3h-6.4c-0.2,0-0.3-0.1-0.3-0.3v-1.1c0-0.2,0.1-0.3,0.3-0.3h6.4
	c0.2,0,0.3,0.1,0.3,0.3V239.9z"/>
<path class="st20" d="M-408,224.7c0,0.2-0.1,0.3-0.3,0.3c0,0,0,0,0,0v0h-6.4c0,0,0,0,0,0c-0.2,0-0.3-0.1-0.3-0.3
	c0-0.1,0-0.2,0.1-0.2c0,0,0.1-0.1,0.2-0.1c0,0,0,0,0,0h6.4c0,0,0,0,0,0C-408.1,224.4-408,224.5-408,224.7z"/>
<path class="st20" d="M-408.3,225c0,0.1,0,0.2,0,0.3h-6.4c0-0.1,0-0.2,0-0.3C-414.8,225-408.3,225-408.3,225z"/>
<path class="st21" d="M-408,224.7h-7c0-0.1,0-0.2,0.1-0.2c0,0,0.1-0.1,0.2-0.1c0,0,0,0,0,0h6.5c0,0,0,0,0,0
	C-408.1,224.4-408,224.5-408,224.7z"/>
<circle class="st20" cx="-414" cy="229.5" r="0.3"/>
<circle class="st21" cx="-413.9" cy="229.6" r="0.3"/>
<circle class="st20" cx="-409" cy="229.5" r="0.3"/>
<circle class="st21" cx="-409.1" cy="229.6" r="0.3"/>
<path class="st22" d="M-410.7,233l-0.5,0.1c-0.4,0.1-0.7,0.4-0.8,0.7c-0.1,0.4-0.3,0.9-0.2,1.3c0.1,0.7,0.3,1.5,0.7,1.7
	c0.4,0.1,1.5,0.1,1.5,0C-409.8,236.6-409.9,233.3-410.7,233z"/>
<path class="st2" d="M-410.4,241c0.1,0,0.2,0,0.3,0c0.6,0,2.7-0.1,3-0.4c0.3-0.4,0.7-1.7,0.6-2c-0.1-0.3-0.3,0-0.3,0l-0.3,0.7
	c-0.1,0.3-0.4,0.6-0.7,0.7l-0.6,0.2c-0.3,0.1-0.6,0.1-0.9-0.1l-0.5-0.3c-0.3-0.2-0.7-0.2-1,0l-0.4,0.2c-0.4,0.2-0.6,0.6-0.6,1v0.7
	L-410.4,241z"/>
<polygon class="st2" points="-410.5,239.6 -408.4,239.2 -408.5,239.5 -409.7,240.3 "/>
<path class="st8" d="M-408.9,251.7l-2.3,0.9v0.6c0.2,2,6.8,16.4,7,16c0.4-0.6-0.5-3.6,0.2-3.8c0.1,0,0.3-0.1,0.4-0.2
	c0.7-0.4,1-1.2,0.8-1.9c0,0,0-0.1,0-0.1C-404.5,259.4-406.4,255.6-408.9,251.7z"/>
<path class="st12" d="M-442.6,259.8l2.7,7.5l-2.5,15.4c0,0-0.9,0.4-1.9,0.3c-1-0.1-2.2-1.4-2.2-1.4l2.1-20.2
	C-444.2,260.6-443.5,260.1-442.6,259.8z"/>
<polygon class="st12" points="-442.4,282.5 -442.6,288.1 -443.8,296 -446.6,296.1 -446.5,281.5 -443.5,281.3 "/>
<path class="st0" d="M-443.6,295.8c-0.3,5.3-0.1,3.4-0.6,6.8h-0.4c-0.5-1.3-0.5-0.8-0.2-2.9c-0.7,0.2-1,0.6-1,1.1
	c-0.1,0.8-0.3,1.5,0.4,1.9c0.3,0.2,0.5,0.4,0.6,0.8l0.1,0.6c-2.2-1.1-2.7-1.2-2.9-1.9c-0.1-0.4-0.5-1.8-0.4-2.2l0.5-2.4
	c0,0,1.1-2.2,1.1-2.2C-446.2,295.1-443.6,295.1-443.6,295.8z"/>
<g>
	<g>
		<circle class="st23" cx="-591" cy="280.4" r="43.9"/>
	</g>
	<g>
		<circle class="st24" cx="-457.3" cy="97.3" r="43.9"/>
	</g>
	<g>
		<circle class="st25" cx="-242.9" cy="167.2" r="43.9"/>
	</g>
	<g>
		<circle class="st26" cx="-242.9" cy="392.4" r="43.9"/>
	</g>
	<g>
		<circle class="st27" cx="-457.3" cy="463.5" r="43.9"/>
	</g>
</g>
</svg>
