<?xml version="1.0" encoding="iso-8859-1"?>
<!-- Generator: Adobe Illustrator 19.1.0, SVG Export Plug-In . SVG Version: 6.00 Build 0)  -->
<!DOCTYPE svg PUBLIC "-//W3C//DTD SVG 1.1//EN" "http://www.w3.org/Graphics/SVG/1.1/DTD/svg11.dtd">
<svg version="1.1" id="Layer_1" xmlns="http://www.w3.org/2000/svg" xmlns:xlink="http://www.w3.org/1999/xlink" x="0px" y="0px"
	 viewBox="0 0 79.663 103.861" style="enable-background:new 0 0 79.663 103.861;" xml:space="preserve">
<g>
	<g>
		<g>
			<path style="fill:#EAB99A;" d="M69.853,8.803c-0.002,0.149-0.037,0.295-0.101,0.43c-0.063,0.134-0.151,0.257-0.269,0.36
				l-0.977,0.863l-1.082,0.949l-0.005,0.003L64.45,14.1l-4.279,2.102l-5.627-0.02l-7.226,5.745l-2.632-10.99l0.005-0.005l4.759-4.51
				l0.007-0.007l0.689-0.035l0.71-0.035l0.317-0.015l8.796-0.436l0.111-0.005l2.521-2.124l1.21-1.022L69.853,8.803z"/>
		</g>
		<g>
			<path style="fill:#F5C4A5;" d="M46.835,11.617c0,0.234-0.073,0.473-0.224,0.675l-0.39,0.518l-3.35,4.452
				c-0.37,0.496-1.08,0.594-1.575,0.224c-0.244-0.187-0.393-0.453-0.433-0.735c-0.007-0.056-0.012-0.111-0.012-0.166
				c0-0.237,0.073-0.476,0.224-0.677c0,0,3.615-4.973,3.617-4.976c0.073-0.095,0.284-0.176,0.379-0.241
				c0.388-0.267,0.921-0.274,1.319,0.025c0.126,0.096,0.224,0.211,0.294,0.34C46.785,11.227,46.835,11.42,46.835,11.617z"/>
		</g>
		<g>
			<path style="fill:#EAB99A;" d="M49.337,17.253l-4.153,4.057c-0.413,0.404-1.082,0.396-1.485-0.018l0,0
				c-0.404-0.413-0.396-1.082,0.017-1.485l4.153-4.057c0.413-0.404,1.082-0.396,1.485,0.018l0,0
				C49.759,16.181,49.751,16.85,49.337,17.253z"/>
		</g>
		<g>
			<path style="fill:#EAB99A;" d="M51.758,17.674l-4.153,4.057c-0.414,0.403-1.082,0.396-1.486-0.017l0,0
				c-0.404-0.414-0.396-1.082,0.018-1.486l4.153-4.057c0.414-0.404,1.082-0.396,1.486,0.017l0,0
				C52.179,16.602,52.171,17.27,51.758,17.674z"/>
		</g>
		<g>
			<path style="fill:#F5C4A5;" d="M69.853,8.803c-0.002,0.149-0.037,0.295-0.101,0.43c-0.063,0.134-0.151,0.257-0.269,0.36
				l-0.977,0.863l-1.002,0.884c-0.025,0.023-0.053,0.045-0.08,0.065l-0.005,0.003c-0.453,0.325-1.092,0.259-1.467-0.167l-0.05-0.058
				l-4.397-4.988c-0.4-0.453-0.355-1.152,0.098-1.553l0.999-0.878l0.981-0.866c0.071-0.062,0.148-0.116,0.229-0.156
				c0.436-0.219,0.984-0.128,1.321,0.254l4.447,5.046C69.772,8.26,69.863,8.534,69.853,8.803z"/>
		</g>
		<g>
			<path style="fill:#EAB99A;" d="M48.942,12.852l-5.145,6.663c-0.382,0.494-1.098,0.586-1.592,0.205l0,0
				c-0.495-0.382-0.586-1.098-0.205-1.592l5.145-6.663c0.382-0.494,1.099-0.587,1.593-0.205l0,0
				C49.231,11.641,49.323,12.357,48.942,12.852z"/>
		</g>
		<g>
			<path style="fill:#EAB99A;" d="M60.992,7.22v7.605c0,0.287-0.091,0.554-0.242,0.775c-0.247,0.363-0.665,0.601-1.133,0.601h-9.05
				c-0.757,0-1.376-0.619-1.376-1.376V7.22c0-0.297,0.096-0.571,0.259-0.798c0.186-0.262,0.463-0.456,0.785-0.534
				c0.105-0.027,0.219-0.043,0.332-0.043h9.05c0.113,0,0.227,0.015,0.333,0.043c0.007,0,0.013,0.003,0.02,0.005
				C60.557,6.05,60.992,6.586,60.992,7.22z"/>
		</g>
		<g>
			<path style="fill:#EAB99A;" d="M64.14,14.345l-3.582,1.76c-0.468,0.23-1.039,0.035-1.269-0.433l-0.167-0.34
				c-0.23-0.468,0.805-0.898,1.273-1.128l2.706-1.371c0.468-0.23,1.075-0.564,1.305-0.097l0.167,0.339
				C64.803,13.544,64.608,14.116,64.14,14.345z"/>
		</g>
		<g>
			<g>
				<path style="fill:#D5E5E6;" d="M41.946,37.129c0.553,0,1.054,0.226,1.415,0.591h0.721c-0.743-1.012-1.937-1.674-3.286-1.674
					c-1.349,0-2.543,0.662-3.286,1.674h3.021C40.892,37.355,41.392,37.129,41.946,37.129z"/>
			</g>
			<g>
				<path style="fill:#556566;" d="M37.279,36.594c0.04-0.43,0.081-0.858,0.127-1.277c-0.858,0.606-1.546,1.435-1.981,2.404h1.006
					C36.66,37.305,36.946,36.926,37.279,36.594z"/>
			</g>
			<g>
				<path style="fill:#556566;" d="M45.16,37.72h1.006c-0.436-0.968-1.124-1.797-1.982-2.404c0.046,0.419,0.088,0.848,0.128,1.277
					C44.645,36.926,44.931,37.305,45.16,37.72z"/>
			</g>
			<g>
				<path style="fill:#556566;" d="M36.431,37.72h0.752c0.03-0.379,0.061-0.755,0.096-1.126
					C36.946,36.926,36.66,37.305,36.431,37.72z"/>
			</g>
			<g>
				<path style="fill:#556566;" d="M45.16,37.72c-0.229-0.415-0.515-0.794-0.848-1.126c0.035,0.372,0.066,0.747,0.097,1.126H45.16z"
					/>
			</g>
			<g>
				<path style="fill:#556566;" d="M37.509,37.72c0.743-1.012,1.938-1.674,3.286-1.674c1.349,0,2.543,0.662,3.286,1.674h0.327
					c-0.03-0.379-0.062-0.755-0.097-1.126c-0.901-0.897-2.144-1.453-3.516-1.453c-1.373,0-2.615,0.555-3.516,1.453
					c-0.035,0.372-0.066,0.747-0.096,1.126H37.509z"/>
			</g>
			<g>
				<path style="fill:#FFFFFF;" d="M41.946,37.129c-0.554,0-1.054,0.226-1.416,0.591h2.831C43,37.355,42.499,37.129,41.946,37.129z"
					/>
			</g>
			<g>
				<g>
					<path style="fill:#DEEFF0;" d="M35.829,27.601c0.494-1.037,0.997-1.997,1.481-2.861c0.299-0.534,0.598-1.036,0.883-1.498
						c1.399-2.294,2.508-3.667,2.598-3.78c0.005-0.009,0.005-0.009,0.005-0.009s0,0.004,0.005,0.009l0.001,0.001l0.001-0.001
						c0.005-0.009,0.005-0.009,0.005-0.009s0,0.004,0.004,0.009c0.095,0.113,1.191,1.471,2.576,3.74
						c0.303,0.489,0.615,1.014,0.932,1.584c0.471,0.837,0.956,1.761,1.43,2.762c-0.003,0-0.007,0.001-0.01,0.002
						c1.366,2.862,2.66,6.336,3.355,10.171h14.812V13.369H17.793V37.72h14.703C33.188,33.909,34.471,30.455,35.829,27.601z"/>
				</g>
				<g>
					<path style="fill:#C52E25;" d="M37.407,35.316c0.293-2.659,0.696-5.104,1.125-7.231c0,0,0-0.001,0-0.001
						c-0.951-0.1-1.852-0.262-2.691-0.483c0.494-1.037,0.996-1.997,1.48-2.861c0.299-0.534,0.598-1.036,0.883-1.498
						c1.354-2.221,2.428-3.567,2.578-3.754c0.002-0.006,0.008-0.023,0.009-0.026c-0.09,0.113-1.199,1.486-2.598,3.78
						c-0.285,0.462-0.584,0.964-0.883,1.498c-0.483,0.865-0.986,1.825-1.481,2.861c-1.358,2.854-2.641,6.309-3.332,10.12h2.929
						C35.86,36.752,36.549,35.923,37.407,35.316z"/>
				</g>
				<g>
					<polygon style="fill:#E54D42;" points="40.801,19.462 40.8,19.461 40.801,19.462 					"/>
				</g>
				<g>
					<path style="fill:#E54D42;" d="M43.066,28.058c-0.004,0.001-0.008,0.001-0.012,0.001c0.429,2.134,0.834,4.588,1.129,7.258
						c0.858,0.606,1.546,1.435,1.982,2.404h2.929c-0.695-3.834-1.989-7.309-3.355-10.171C44.91,27.779,44.013,27.954,43.066,28.058z
						"/>
				</g>
				<g>
					<path style="fill:#D53D33;" d="M40.801,19.462l0-0.001c-0.005-0.005-0.005-0.009-0.005-0.009s0,0-0.005,0.009
						c-0.001,0.003-0.007,0.02-0.009,0.026C40.786,19.481,40.798,19.466,40.801,19.462z"/>
				</g>
				<g>
					<path style="fill:#D53D33;" d="M38.543,28.085c-0.004,0-0.007-0.001-0.011-0.002c0,0,0,0.001,0,0.002
						c-0.428,2.128-0.832,4.572-1.125,7.231c0.959-0.678,2.127-1.081,3.389-1.081c1.262,0,2.429,0.403,3.388,1.081
						c-0.294-2.67-0.7-5.124-1.129-7.258c-0.762,0.094-1.55,0.139-2.361,0.14C39.956,28.198,39.236,28.162,38.543,28.085z"/>
				</g>
				<g>
					<path style="fill:#556566;" d="M37.407,35.316c-0.046,0.419-0.087,0.848-0.127,1.277c0.901-0.898,2.144-1.453,3.516-1.453
						c1.373,0,2.615,0.556,3.516,1.453c-0.04-0.43-0.082-0.858-0.128-1.277c-0.959-0.678-2.126-1.081-3.388-1.081
						C39.534,34.235,38.366,34.638,37.407,35.316z"/>
				</g>
				<g>
					<path style="fill:#DEEFF0;" d="M44.309,24.785c0.471,0.837,0.955,1.761,1.43,2.762c0,0,0.001,0.001,0.001,0.002
						c0.003-0.001,0.007-0.002,0.01-0.002c-0.475-1.001-0.959-1.924-1.43-2.762c-0.317-0.571-0.629-1.096-0.932-1.584
						c-1.385-2.269-2.481-3.626-2.576-3.74c-0.004-0.005-0.004-0.009-0.004-0.009s0,0-0.005,0.009l-0.001,0.001
						c0.098,0.117,1.192,1.474,2.575,3.739C43.679,23.69,43.991,24.214,44.309,24.785z"/>
				</g>
				<g>
					<path style="fill:#E47E30;" d="M44.309,24.785c0.471,0.837,0.955,1.761,1.43,2.762c0,0,0.001,0.001,0.001,0.002
						c0.003-0.001,0.007-0.002,0.01-0.002c-0.475-1.001-0.959-1.924-1.43-2.762c-0.317-0.571-0.629-1.096-0.932-1.584
						c-1.385-2.269-2.481-3.626-2.576-3.74c-0.004-0.005-0.004-0.009-0.004-0.009s0,0-0.005,0.009l-0.001,0.001
						c0.098,0.117,1.192,1.474,2.575,3.739C43.679,23.69,43.991,24.214,44.309,24.785z"/>
				</g>
				<g>
					<path style="fill:#C52E25;" d="M39.483,23.924c0.668-2.627,1.227-4.237,1.299-4.438c-0.15,0.187-1.224,1.533-2.578,3.754
						c-0.285,0.462-0.584,0.964-0.883,1.498c-0.484,0.865-0.986,1.825-1.48,2.861c0.839,0.221,1.741,0.383,2.691,0.483
						c0.2-0.985,0.403-1.905,0.603-2.751C39.251,24.835,39.369,24.364,39.483,23.924z"/>
				</g>
				<g>
					<path style="fill:#E47E30;" d="M39.483,23.924c0.668-2.627,1.227-4.237,1.299-4.438c-0.15,0.187-1.224,1.533-2.578,3.754
						c-0.285,0.462-0.584,0.964-0.883,1.498c-0.484,0.865-0.986,1.825-1.48,2.861c0.839,0.221,1.741,0.383,2.691,0.483
						c0.2-0.985,0.403-1.905,0.603-2.751C39.251,24.835,39.369,24.364,39.483,23.924z"/>
				</g>
				<g>
					<path style="fill:#E54D42;" d="M42.104,23.902c0.113,0.448,0.231,0.924,0.354,1.431c0.199,0.838,0.398,1.748,0.598,2.725
						c0,0,0,0.001,0,0.001c0.004,0,0.008,0,0.012-0.001c0.946-0.103,1.844-0.279,2.673-0.508c0-0.001,0-0.002-0.001-0.002
						c-0.475-1.001-0.959-1.924-1.43-2.762c-0.317-0.571-0.629-1.095-0.933-1.584c-1.383-2.265-2.477-3.622-2.575-3.739l0,0
						C40.848,19.59,41.417,21.218,42.104,23.902z"/>
				</g>
				<g>
					<path style="fill:#E47E30;" d="M42.104,23.902c0.113,0.448,0.231,0.924,0.354,1.431c0.199,0.838,0.398,1.748,0.598,2.725
						c0,0,0,0.001,0,0.001c0.004,0,0.008,0,0.012-0.001c0.946-0.103,1.844-0.279,2.673-0.508c0-0.001,0-0.002-0.001-0.002
						c-0.475-1.001-0.959-1.924-1.43-2.762c-0.317-0.571-0.629-1.095-0.933-1.584c-1.383-2.265-2.477-3.622-2.575-3.739l0,0
						C40.848,19.59,41.417,21.218,42.104,23.902z"/>
				</g>
				<g>
					<path style="fill:#D53D33;" d="M42.457,25.332c-0.123-0.506-0.24-0.982-0.354-1.431c-0.686-2.684-1.255-4.311-1.303-4.439
						c-0.003,0.003-0.015,0.019-0.019,0.024c-0.072,0.201-0.63,1.811-1.299,4.438c-0.114,0.44-0.231,0.911-0.349,1.408
						c-0.2,0.846-0.403,1.766-0.603,2.751c0.004,0.001,0.007,0.002,0.011,0.002c0.693,0.077,1.413,0.113,2.151,0.113
						c0.811,0,1.599-0.045,2.361-0.14c0,0,0-0.001,0-0.001C42.855,27.081,42.656,26.171,42.457,25.332z"/>
				</g>
				<g>
					<path style="fill:#E47E30;" d="M42.457,25.332c-0.123-0.506-0.24-0.982-0.354-1.431c-0.686-2.684-1.255-4.311-1.303-4.439
						c-0.003,0.003-0.015,0.019-0.019,0.024c-0.072,0.201-0.63,1.811-1.299,4.438c-0.114,0.44-0.231,0.911-0.349,1.408
						c-0.2,0.846-0.403,1.766-0.603,2.751c0.004,0.001,0.007,0.002,0.011,0.002c0.693,0.077,1.413,0.113,2.151,0.113
						c0.811,0,1.599-0.045,2.361-0.14c0,0,0-0.001,0-0.001C42.855,27.081,42.656,26.171,42.457,25.332z"/>
				</g>
			</g>
		</g>
		<g>
			<g>
				<path style="fill:#F5C4A5;" d="M53.665,12.073l-6.233,6.309c-0.621,0.628-1.642,0.634-2.27,0.014l0,0
					c-0.628-0.62-0.634-1.642-0.014-2.269l6.233-6.309c0.62-0.628,1.642-0.634,2.269-0.014l0,0
					C54.279,10.424,54.286,11.445,53.665,12.073z"/>
			</g>
			<g>
				<path style="fill:#F3CFB8;" d="M45.915,18.039l-0.273-0.223c-0.393-0.32-0.453-0.902-0.133-1.295l0,0
					c0.319-0.393,0.902-0.453,1.295-0.133l0.273,0.223c0.393,0.319,0.452,0.902,0.132,1.295l0,0
					C46.89,18.298,46.307,18.358,45.915,18.039z"/>
			</g>
		</g>
		<g>
			<path style="fill:#F5C4A5;" d="M62.315,12.869h-9.838c-0.692,0-1.258-0.566-1.258-1.258v-1.174c0-0.692,0.566-1.258,1.258-1.258
				h9.838c0.692,0,1.258,0.566,1.258,1.258v1.174C63.573,12.303,63.007,12.869,62.315,12.869z"/>
		</g>
		<g>
			<path style="fill:#F5C4A5;" d="M69.853,8.803c-0.002,0.149-0.037,0.295-0.101,0.43l-3.851,1.951l-3.221,1.631L51.859,9.342
				l-2.207-0.164l0.496-2.798l0.088-0.491h9.845l2.521-2.124l1.21-1.022L69.853,8.803z"/>
		</g>
		<g>
			<path style="fill:#F5C4A5;" d="M52.405,7.482l-1.241,0.992l-0.841,0.67l-1.132,0.903l-3.09,2.768l-0.005-0.005l-0.491-0.657
				l-0.914-1.221l0.254-0.241l4.505-4.268c0.186-0.262,0.463-0.456,0.785-0.534c0.105-0.027,0.219-0.043,0.332-0.043h0.091
				l0.045,0.043l0.47,0.441L52.405,7.482z"/>
		</g>
		<g>
			<path style="fill:#505050;" d="M68.824,10.177L62,4.478c-0.566-0.473-0.643-1.322-0.17-1.888l1.762-2.11
				c0.473-0.566,1.323-0.643,1.889-0.17l6.825,5.699c0.566,0.473,0.642,1.322,0.169,1.888l-1.762,2.11
				C70.24,10.573,69.39,10.65,68.824,10.177z"/>
		</g>
	</g>
	<g>
		<g>
			<path style="fill:#DEAD8E;" d="M22.758,38.268l6.427,0.42c0.64,0.042,1.129,0.599,1.087,1.239l0,0
				c-0.042,0.639-0.599,1.128-1.239,1.087l-6.428-0.42c-0.639-0.042-1.128-0.6-1.087-1.239l0,0
				C21.561,38.716,22.119,38.227,22.758,38.268z"/>
		</g>
		<g>
			<g>
				<path style="fill:#DEAD8E;" d="M18.468,42.116l9.313-0.693c0.691-0.051,1.298,0.472,1.35,1.163l0,0
					c0.051,0.691-0.472,1.298-1.163,1.35l-9.313,0.693c-0.691,0.051-1.298-0.472-1.349-1.163l0,0
					C17.254,42.775,17.778,42.168,18.468,42.116z"/>
			</g>
			<g>
				<path style="fill:#DEAD8E;" d="M17.775,43.74l7.538-0.561c0.559-0.042,1.051,0.382,1.092,0.941l0,0
					c0.042,0.559-0.382,1.051-0.941,1.092l-7.538,0.561c-0.559,0.042-1.05-0.382-1.092-0.941l0,0
					C16.792,44.273,17.216,43.782,17.775,43.74z"/>
			</g>
			<g>
				<g>
					<path style="fill:#DEAD8E;" d="M10.561,55.144c-0.274,0.708-0.061,1.477,0.61,1.118l3.792-1.839
						c3.612-2.11,5.243-6.635,5.264-7.391c0,0-1.573-0.071-1.553-0.11l3.913-7.612c0.018-0.035,0.034-0.072,0.046-0.11l0.542-1.585
						c0.119-0.348-0.008-0.732-0.311-0.94l0,0c-0.224-0.154-0.51-0.187-0.763-0.088l-4.809,1.886
						c-0.214,0.084-0.382,0.253-0.465,0.467L10.561,55.144z"/>
				</g>
				<g>
					<path style="fill:#DEAD8E;" d="M10.561,55.144c-0.274,0.708-0.061,1.477,0.61,1.118l3.792-1.839
						c3.612-2.11,5.243-6.635,5.264-7.391c0,0-1.573-0.071-1.553-0.11l3.913-7.612c0.018-0.035,0.034-0.072,0.046-0.11l0.542-1.585
						c0.119-0.348-0.008-0.732-0.311-0.94l0,0c-0.224-0.154-0.51-0.187-0.763-0.088l-4.809,1.886
						c-0.214,0.084-0.382,0.253-0.465,0.467L10.561,55.144z"/>
				</g>
			</g>
			<g>
				<g>
					<path style="fill:#DEEFF0;" d="M33.89,62.103v-1.585c0-0.103,0.017-0.201,0.031-0.3h-1.01c-0.015,0-0.029-0.004-0.044-0.004
						c-0.04,1.66-0.08,3.226-0.116,4.596h3.367v-0.447C34.885,64.343,33.89,63.344,33.89,62.103z"/>
				</g>
				<g>
					<path style="fill:#DEEFF0;" d="M47.699,60.218h-1.164c0.014,0.099,0.03,0.197,0.03,0.3v1.584c0,1.242-0.995,2.241-2.228,2.26
						v0.447h3.63c-0.036-1.373-0.076-2.943-0.116-4.607C47.801,60.208,47.751,60.218,47.699,60.218z"/>
				</g>
				<g>
					<path style="fill:#DEEFF0;" d="M48.604,39.029c0.312,1.725,0.501,3.522,0.522,5.369c2.193,9.007,10.679,11.97,10.679,11.97
						l-7.258,8.442h10.869V39.029H48.604z"/>
				</g>
				<g>
					<path style="fill:#DEEFF0;" d="M20.914,56.368c0,0,8.198-2.856,10.564-11.5v-0.13c0-1.968,0.197-3.878,0.529-5.708H17.302
						V64.81h10.869L20.914,56.368z"/>
				</g>
				<g>
					<path style="fill:#E47E30;" d="M44.302,64.366l-2.889,0.001l-0.05,0.364h1.681v0.079h1.294v-0.447
						C44.325,64.362,44.314,64.366,44.302,64.366z"/>
				</g>
				<g>
					<path style="fill:#E47E30;" d="M37.413,64.729l1.834,0.001l-0.05-0.364H38.72c-0.002,0-0.003-0.001-0.005-0.001h-2.562
						c-0.012,0-0.023-0.003-0.035-0.003v0.447h1.295V64.729z"/>
				</g>
				<g>
					<path style="fill:#B51F18;" d="M21.517,57.046c0,0,7.049-2.456,9.961-9.705v-2.474c-2.365,8.644-10.564,11.5-10.564,11.5
						l7.258,8.442h0.02L21.517,57.046z"/>
				</g>
				<g>
					<path style="fill:#95A5A6;" d="M36.629,62.969c-0.11-0.267-0.173-0.559-0.173-0.866v-1.585c0-0.103,0.017-0.201,0.03-0.3H33.92
						c-0.014,0.099-0.031,0.197-0.031,0.3v1.585c0,1.241,0.996,2.24,2.228,2.259v-1.394L36.629,62.969z"/>
				</g>
				<g>
					<path style="fill:#95A5A6;" d="M36.629,62.969l-0.512,0v1.394c0.012,0,0.023,0.003,0.035,0.003h2.562
						C37.774,64.363,36.969,63.789,36.629,62.969z"/>
				</g>
				<g>
					<polygon style="fill:#B5C5C6;" points="38.72,64.366 39.197,64.366 39.197,64.366 					"/>
				</g>
				<g>
					<polygon style="fill:#B5C5C6;" points="41.413,64.366 41.413,64.366 44.302,64.366 42.006,64.366 					"/>
				</g>
				<g>
					<path style="fill:#B5C5C6;" d="M44.27,60.518v1.584c0,0.308-0.062,0.601-0.173,0.867h0.24v1.393
						c1.233-0.019,2.228-1.018,2.228-2.26v-1.584c0-0.103-0.017-0.201-0.03-0.3H44.24C44.253,60.317,44.27,60.415,44.27,60.518z"/>
				</g>
				<g>
					<path style="fill:#B5C5C6;" d="M44.097,62.969c-0.34,0.821-1.148,1.396-2.091,1.396h2.295c0.012,0,0.023-0.003,0.036-0.003
						v-1.393H44.097z"/>
				</g>
				<g>
					<polygon style="fill:#A5B5B6;" points="41.413,64.366 42.006,64.366 41.413,64.366 					"/>
				</g>
				<g>
					<polygon style="fill:#A5B5B6;" points="39.196,64.366 38.715,64.366 38.72,64.366 39.197,64.366 					"/>
				</g>
				<g>
					<path style="fill:#A5B5B6;" d="M36.487,60.218c-0.013,0.099-0.03,0.197-0.03,0.3v1.585c0,0.307,0.063,0.599,0.173,0.866h2.374
						l-0.38-2.751H36.487z"/>
				</g>
				<g>
					<path style="fill:#A5B5B6;" d="M41.605,62.969h2.492c0.11-0.267,0.173-0.559,0.173-0.867v-1.584c0-0.103-0.017-0.201-0.03-0.3
						h-2.254L41.605,62.969z"/>
				</g>
				<g>
					<path style="fill:#A5B5B6;" d="M39.003,62.969h-2.374c0.339,0.819,1.145,1.394,2.085,1.396h0.481L39.003,62.969z"/>
				</g>
				<g>
					<path style="fill:#A5B5B6;" d="M41.413,64.366h0.594c0.943,0,1.751-0.575,2.091-1.396h-2.492L41.413,64.366z"/>
				</g>
				<g>
					<path style="fill:#A5100E;" d="M32.25,60.049c-0.042,1.748-0.084,3.374-0.121,4.76h0.621c0.036-1.37,0.076-2.936,0.116-4.596
						C32.644,60.206,32.437,60.147,32.25,60.049z"/>
				</g>
				<g>
					<path style="fill:#A5100E;" d="M31.477,58.785c0-0.076,0.011-0.15,0.022-0.223h-0.023l0.001-11.221
						c-2.912,7.249-9.961,9.705-9.961,9.705l6.675,7.764h3.938c0.037-1.386,0.079-3.013,0.121-4.76
						C31.793,59.81,31.477,59.336,31.477,58.785z"/>
				</g>
				<g>
					<path style="fill:#B51F18;" d="M49.132,47.05c2.837,7.472,10.069,9.996,10.069,9.996l-6.674,7.764h0.02l7.258-8.442
						c0,0-8.486-2.962-10.679-11.97c0.001,0.113,0.006,0.226,0.006,0.339V47.05z"/>
				</g>
				<g>
					<path style="fill:#A5100E;" d="M48.467,59.991c-0.181,0.116-0.39,0.187-0.615,0.211c0.04,1.664,0.08,3.234,0.116,4.607h0.622
						C48.552,63.408,48.51,61.761,48.467,59.991z"/>
				</g>
				<g>
					<path style="fill:#A5100E;" d="M49.11,58.562c0.012,0.073,0.022,0.146,0.022,0.222c0,0.508-0.266,0.952-0.666,1.206
						c0.043,1.77,0.085,3.417,0.123,4.818h3.938l6.674-7.764c0,0-7.231-2.523-10.069-9.996v11.512H49.11z"/>
				</g>
				<g>
					<path style="fill:#657576;" d="M35.035,58.562h-2.13c-0.013,0.559-0.026,1.109-0.039,1.651c0.015,0,0.029,0.004,0.044,0.004
						h1.01C34.016,59.507,34.437,58.905,35.035,58.562z"/>
				</g>
				<g>
					<path style="fill:#657576;" d="M45.422,58.562c0.597,0.342,1.018,0.944,1.113,1.655h1.164c0.052,0,0.102-0.01,0.153-0.015
						c-0.013-0.539-0.025-1.086-0.038-1.64H45.422z"/>
				</g>
				<g>
					<path style="fill:#657576;" d="M37.601,58.562h-1.144v0h-1.422c-0.598,0.343-1.019,0.945-1.114,1.656h2.566
						C36.583,59.507,37.003,58.905,37.601,58.562z"/>
				</g>
				<g>
					<path style="fill:#657576;" d="M45.422,58.562h-2.294c0.596,0.343,1.017,0.944,1.112,1.655h2.295
						C46.44,59.506,46.019,58.905,45.422,58.562z"/>
				</g>
				<g>
					<path style="fill:#657576;" d="M38.395,58.562h-0.794c-0.597,0.343-1.018,0.944-1.114,1.655h2.137L38.395,58.562z"/>
				</g>
				<g>
					<path style="fill:#657576;" d="M41.986,60.218h2.254c-0.095-0.711-0.516-1.312-1.112-1.655h-0.913L41.986,60.218z"/>
				</g>
				<g>
					<path style="fill:#657576;" d="M32.286,58.562c-0.011,0.503-0.023,1-0.035,1.487c0.186,0.098,0.393,0.157,0.616,0.164
						c0.013-0.542,0.026-1.093,0.039-1.651H32.286z"/>
				</g>
				<g>
					<path style="fill:#657576;" d="M31.499,58.562c-0.012,0.073-0.022,0.146-0.022,0.223c0,0.552,0.316,1.025,0.773,1.265
						c0.012-0.487,0.024-0.984,0.035-1.487H31.499z"/>
				</g>
				<g>
					<path style="fill:#657576;" d="M47.814,58.562c0.013,0.554,0.025,1.102,0.038,1.64c0.225-0.024,0.434-0.096,0.615-0.211
						c-0.011-0.469-0.022-0.946-0.034-1.429H47.814z"/>
				</g>
				<g>
					<path style="fill:#657576;" d="M49.132,58.785c0-0.076-0.011-0.15-0.022-0.222h-0.677c0.011,0.483,0.022,0.96,0.034,1.429
						C48.866,59.736,49.132,59.292,49.132,58.785z"/>
				</g>
				<g>
					<path style="fill:#C52E25;" d="M32.506,43.493c0.038-0.257,0.075-0.514,0.102-0.78c0.681-6.545,0.542,4.678,0.323,14.638h3.525
						l0.001-11.469c-1.248-1.081-2.042-2.672-2.042-4.448c0-0.857,0.188-1.669,0.519-2.405h-2.929
						c-0.332,1.83-0.529,3.74-0.529,5.708v0.13c0.242-0.883,0.423-1.826,0.528-2.834C32.357,38.653,32.49,40.014,32.506,43.493z"/>
				</g>
				<g>
					<path style="fill:#C52E25;" d="M32.506,43.493c-0.016-3.479-0.149-4.84-0.502-1.459c-0.105,1.007-0.286,1.95-0.528,2.834v2.474
						C31.941,46.184,32.298,44.903,32.506,43.493z"/>
				</g>
				<g>
					<path style="fill:#C52E25;" d="M32.311,57.486c0.183-0.085,0.385-0.135,0.6-0.135h0.021c0.219-9.96,0.358-21.183-0.323-14.638
						c-0.028,0.266-0.065,0.523-0.102,0.78C32.522,46.932,32.424,52.441,32.311,57.486z"/>
				</g>
				<g>
					<path style="fill:#C52E25;" d="M31.499,58.562c0.075-0.48,0.385-0.878,0.811-1.076c0.113-5.045,0.212-10.554,0.196-13.994
						c-0.209,1.411-0.565,2.691-1.029,3.849l-0.001,11.221H31.499z"/>
				</g>
				<g>
					<path style="fill:#C52E25;" d="M35.035,58.562c0.331-0.19,0.709-0.308,1.119-0.308h0.303v-0.903h-3.525
						c-0.009,0.406-0.018,0.81-0.027,1.211H35.035z"/>
				</g>
				<g>
					<path style="fill:#C52E25;" d="M36.153,58.254c-0.409,0-0.788,0.117-1.119,0.308h1.422v-0.308H36.153z"/>
				</g>
				<g>
					<path style="fill:#C52E25;" d="M32.311,57.486c-0.008,0.361-0.017,0.72-0.025,1.076h0.619c0.009-0.401,0.018-0.805,0.027-1.211
						h-0.021C32.696,57.351,32.494,57.401,32.311,57.486z"/>
				</g>
				<g>
					<path style="fill:#C52E25;" d="M31.499,58.562h0.786c0.008-0.355,0.017-0.715,0.025-1.076
						C31.884,57.684,31.575,58.082,31.499,58.562z"/>
				</g>
				<g>
					<polygon style="fill:#E54D42;" points="49.132,58.562 49.11,58.562 49.11,58.562 					"/>
				</g>
				<g>
					<rect x="46.618" y="57.366" style="fill:#E54D42;" width="0" height="2.392"/>
				</g>
				<g>
					<polygon style="fill:#E54D42;" points="36.457,58.562 37.601,58.562 37.601,58.562 					"/>
				</g>
				<g>
					<polygon style="fill:#E54D42;" points="44.153,58.562 43.127,58.562 43.127,58.562 45.422,58.562 45.422,58.562 44.153,58.562 
											"/>
				</g>
				<g>
					<rect x="42.671" y="58.106" style="fill:#E54D42;" width="0" height="0.913"/>
				</g>
				<g>
					<rect x="37.601" y="58.562" style="fill:#E54D42;" width="0.794" height="0"/>
				</g>
				<g>
					<rect x="48.124" y="58.253" style="fill:#E54D42;" width="0" height="0.619"/>
				</g>
				<g>
					<rect x="48.771" y="58.224" style="fill:#E54D42;" width="0" height="0.677"/>
				</g>
				<g>
					<path style="fill:#E54D42;" d="M46.194,41.434c0,1.776-0.793,3.367-2.041,4.447l0,11.47h3.546c0.03,0,0.058,0.007,0.088,0.009
						c-0.219-9.962-0.359-21.194,0.324-14.647c0.027,0.263,0.064,0.518,0.102,0.772c0.016-3.472,0.149-4.829,0.501-1.451
						c0.086,0.833,0.23,1.617,0.413,2.364c-0.021-1.847-0.209-3.644-0.522-5.369h-2.929C46.005,39.764,46.193,40.577,46.194,41.434z
						"/>
				</g>
				<g>
					<path style="fill:#E54D42;" d="M48.212,43.484c0.191,1.298,0.509,2.483,0.92,3.566v-2.313c0-0.113-0.005-0.226-0.006-0.339
						c-0.182-0.747-0.326-1.532-0.413-2.364C48.361,38.655,48.229,40.013,48.212,43.484z"/>
				</g>
				<g>
					<path style="fill:#E54D42;" d="M48.212,43.484c-0.038-0.254-0.074-0.509-0.102-0.772c-0.683-6.546-0.542,4.685-0.324,14.647
						c0.227,0.014,0.437,0.079,0.623,0.187C48.295,52.481,48.196,46.937,48.212,43.484z"/>
				</g>
				<g>
					<path style="fill:#E54D42;" d="M48.41,57.546c0.369,0.212,0.632,0.579,0.7,1.016h0.022V47.05
						c-0.411-1.083-0.729-2.268-0.92-3.566C48.196,46.937,48.295,52.481,48.41,57.546z"/>
				</g>
				<g>
					<path style="fill:#E54D42;" d="M44.302,58.255c0.409,0,0.789,0.117,1.12,0.307l2.392,0c-0.009-0.398-0.018-0.799-0.027-1.203
						c-0.03-0.002-0.058-0.009-0.088-0.009h-3.546v0.904H44.302z"/>
				</g>
				<g>
					<polygon style="fill:#E54D42;" points="44.302,58.255 44.153,58.255 44.153,58.255 					"/>
				</g>
				<g>
					<path style="fill:#E54D42;" d="M44.153,58.562h1.269c-0.331-0.19-0.711-0.308-1.12-0.307h-0.149V58.562z"/>
				</g>
				<g>
					<path style="fill:#E54D42;" d="M48.433,58.562c-0.008-0.336-0.016-0.675-0.023-1.016c-0.186-0.107-0.396-0.172-0.623-0.187
						c0.009,0.403,0.018,0.805,0.027,1.203H48.433z"/>
				</g>
				<g>
					<path style="fill:#E54D42;" d="M48.41,57.546c0.008,0.341,0.016,0.68,0.023,1.016h0.677
						C49.042,58.125,48.778,57.758,48.41,57.546z"/>
				</g>
				<g>
					<rect x="36.457" y="58.562" style="fill:#D53D33;" width="1.145" height="0.001"/>
				</g>
				<g>
					<rect x="43.127" y="58.562" style="fill:#D53D33;" width="1.025" height="0.001"/>
				</g>
				<g>
					<rect x="42.671" y="58.106" style="fill:#D53D33;" width="0.001" height="0.913"/>
				</g>
				<g>
					<rect x="37.997" y="58.165" style="fill:#D53D33;" width="0.001" height="0.794"/>
				</g>
				<g>
					<path style="fill:#D53D33;" d="M36.457,45.882l-0.001,11.469h1.771l-0.101-0.727l2.177-4.179l2.178,4.179l-0.1,0.727h1.771
						l0-11.47c-1.033,0.896-2.377,1.442-3.849,1.442S37.49,46.777,36.457,45.882z"/>
				</g>
				<g>
					<polygon style="fill:#D53D33;" points="38.352,58.254 38.228,57.351 36.457,57.351 36.457,58.254 					"/>
				</g>
				<g>
					<polygon style="fill:#D53D33;" points="42.257,58.254 44.153,58.255 44.153,57.351 42.382,57.351 					"/>
				</g>
				<g>
					<path style="fill:#D53D33;" d="M38.357,58.291l-0.005-0.037h-1.896v0.308h1.145C37.832,58.43,38.085,58.335,38.357,58.291z"/>
				</g>
				<g>
					<rect x="43.205" y="57.307" style="fill:#D53D33;" width="0" height="1.896"/>
				</g>
				<g>
					<path style="fill:#D53D33;" d="M43.127,58.562h1.026v-0.307h-1.896l-0.004,0.024C42.569,58.314,42.864,58.411,43.127,58.562z"
						/>
				</g>
				<g>
					<path style="fill:#D53D33;" d="M38.357,58.291c-0.272,0.044-0.526,0.139-0.756,0.271h0.793L38.357,58.291z"/>
				</g>
				<g>
					<path style="fill:#D53D33;" d="M42.253,58.279l-0.039,0.283h0.913C42.864,58.411,42.569,58.314,42.253,58.279z"/>
				</g>
				<g>
					<path style="fill:#D5E5E6;" d="M36.227,41.433c0,0.5,0.095,0.977,0.26,1.419c0.029-1.094,0.086-2.163,0.161-3.211
						C36.38,40.183,36.227,40.789,36.227,41.433z"/>
				</g>
				<g>
					<path style="fill:#D5E5E6;" d="M44.383,41.433c0-0.643-0.154-1.25-0.42-1.792c0.075,1.048,0.131,2.116,0.161,3.209
						C44.289,42.409,44.383,41.932,44.383,41.433z"/>
				</g>
				<g>
					<path style="fill:#D5E5E6;" d="M36.486,42.852c0.578,1.551,2.069,2.66,3.818,2.659c1.75,0.001,3.241-1.109,3.819-2.66
						c-0.03-1.094-0.086-2.162-0.161-3.209c-0.106-0.216-0.23-0.42-0.372-0.613H42.87c0.357,0.36,0.578,0.855,0.578,1.403
						c0.001,1.101-0.892,1.994-1.994,1.994c-1.1,0-1.993-0.893-1.993-1.994c0-0.547,0.222-1.042,0.579-1.403h-3.021
						c-0.141,0.192-0.266,0.397-0.372,0.613C36.573,40.69,36.516,41.758,36.486,42.852z"/>
				</g>
				<g>
					<path style="fill:#556566;" d="M36.459,44.603c-0.711-0.862-1.138-1.966-1.138-3.17c0-0.872,0.225-1.691,0.619-2.404h-1.006
						c-0.331,0.735-0.519,1.548-0.519,2.405c0,1.776,0.793,3.368,2.042,4.448v-1.146C36.457,44.691,36.459,44.648,36.459,44.603z"/>
				</g>
				<g>
					<path style="fill:#556566;" d="M45.288,41.433c0,1.204-0.427,2.308-1.137,3.169c0,0.045,0.002,0.089,0.002,0.134v1.145
						c1.247-1.081,2.041-2.671,2.041-4.447c0-0.857-0.188-1.669-0.519-2.405h-1.006C45.063,39.742,45.288,40.561,45.288,41.433z"/>
				</g>
				<g>
					<path style="fill:#556566;" d="M44.151,44.602c-0.914,1.108-2.298,1.814-3.847,1.814c-1.548,0-2.932-0.706-3.846-1.813
						c0,0.044-0.002,0.088-0.002,0.133v1.146c1.033,0.895,2.376,1.441,3.848,1.441s2.815-0.546,3.849-1.442v-1.145
						C44.153,44.691,44.151,44.647,44.151,44.602z"/>
				</g>
				<g>
					<path style="fill:#556566;" d="M36.227,41.433c0-0.644,0.154-1.25,0.42-1.792c0.015-0.205,0.029-0.41,0.045-0.613H35.94
						c-0.394,0.713-0.619,1.532-0.619,2.404c0,1.204,0.427,2.309,1.138,3.17c0.001-0.589,0.012-1.172,0.027-1.751
						C36.321,42.41,36.227,41.933,36.227,41.433z"/>
				</g>
				<g>
					<path style="fill:#556566;" d="M43.962,39.642c0.267,0.542,0.42,1.148,0.42,1.792c0,0.499-0.094,0.976-0.259,1.418
						c0.016,0.579,0.026,1.162,0.028,1.751c0.71-0.861,1.137-1.965,1.137-3.169c0-0.872-0.225-1.691-0.619-2.404h-0.751
						C43.934,39.232,43.948,39.437,43.962,39.642z"/>
				</g>
				<g>
					<path style="fill:#556566;" d="M40.305,45.511c-1.749,0.001-3.24-1.108-3.818-2.659c-0.016,0.579-0.026,1.162-0.027,1.751
						c0.914,1.107,2.297,1.813,3.846,1.813c1.549,0,2.933-0.706,3.847-1.814c-0.001-0.589-0.012-1.172-0.028-1.751
						C43.546,44.402,42.054,45.512,40.305,45.511z"/>
				</g>
				<g>
					<path style="fill:#FFFFFF;" d="M39.461,40.432c0,1.101,0.894,1.994,1.993,1.994c1.102,0,1.995-0.893,1.994-1.994
						c0-0.547-0.221-1.042-0.578-1.403H40.04C39.683,39.389,39.461,39.884,39.461,40.432z"/>
				</g>
				<g>
					<polygon style="fill:#A5100E;" points="40.305,64.73 41.362,64.73 41.413,64.366 40.305,64.366 					"/>
				</g>
				<g>
					<rect x="40.859" y="63.812" style="fill:#A5100E;" width="0" height="1.108"/>
				</g>
				<g>
					<rect x="40.858" y="63.812" style="fill:#A5100E;" width="0.001" height="1.108"/>
				</g>
				<g>
					<polygon style="fill:#A5100E;" points="40.304,62.969 41.605,62.969 41.986,60.218 40.304,60.218 					"/>
				</g>
				<g>
					<polygon style="fill:#A5100E;" points="40.305,64.366 41.413,64.366 41.605,62.969 40.304,62.969 					"/>
				</g>
				<g>
					<polygon style="fill:#A5100E;" points="40.304,60.218 41.986,60.218 42.214,58.562 40.304,58.562 					"/>
				</g>
				<g>
					<rect x="40.304" y="58.562" style="fill:#A5100E;" width="1.91" height="0"/>
				</g>
				<g>
					<rect x="41.259" y="57.607" style="fill:#A5100E;" width="0.001" height="1.91"/>
				</g>
				<g>
					<polygon style="fill:#A5100E;" points="42.382,57.351 42.482,56.624 40.304,52.446 40.304,57.351 					"/>
				</g>
				<g>
					<polygon style="fill:#A5100E;" points="40.304,58.254 42.007,58.254 42.01,58.254 42.257,58.254 42.382,57.351 40.304,57.351 
											"/>
				</g>
				<g>
					<rect x="42.01" y="58.254" style="fill:#A5100E;" width="0.247" height="0.001"/>
				</g>
				<g>
					<path style="fill:#A5100E;" d="M42.257,58.255H42.01c0.083,0,0.163,0.015,0.243,0.024L42.257,58.255z"/>
				</g>
				<g>
					<rect x="41.156" y="57.403" style="fill:#A5100E;" width="0.003" height="1.703"/>
				</g>
				<g>
					<rect x="40.304" y="58.254" style="fill:#A5100E;" width="1.706" height="0.001"/>
				</g>
				<g>
					<path style="fill:#A5100E;" d="M40.304,58.562h1.91l0.039-0.283c-0.081-0.009-0.16-0.024-0.243-0.024l-1.706,0V58.562z"/>
				</g>
				<g>
					<polygon style="fill:#850309;" points="40.305,64.366 39.197,64.366 39.247,64.73 40.305,64.73 					"/>
				</g>
				<g>
					<rect x="39.197" y="64.366" style="fill:#850309;" width="1.108" height="0"/>
				</g>
				<g>
					<rect x="39.75" y="63.812" style="fill:#850309;" width="0.001" height="1.108"/>
				</g>
				<g>
					<polygon style="fill:#850309;" points="40.304,60.218 38.624,60.218 39.003,62.969 40.304,62.969 					"/>
				</g>
				<g>
					<polygon style="fill:#850309;" points="40.304,62.969 39.003,62.969 39.196,64.366 40.305,64.366 					"/>
				</g>
				<g>
					<polygon style="fill:#850309;" points="38.395,58.562 38.624,60.218 40.304,60.218 40.304,58.562 					"/>
				</g>
				<g>
					<rect x="38.395" y="58.562" style="fill:#850309;" width="1.91" height="0"/>
				</g>
				<g>
					<rect x="38.395" y="58.562" style="fill:#850309;" width="1.91" height="0.001"/>
				</g>
				<g>
					<polygon style="fill:#850309;" points="40.304,52.446 38.127,56.624 38.228,57.351 40.304,57.351 					"/>
				</g>
				<g>
					<polygon style="fill:#850309;" points="38.718,58.254 38.72,58.254 40.304,58.254 40.304,57.351 38.228,57.351 38.352,58.254 
											"/>
				</g>
				<g>
					<path style="fill:#850309;" d="M38.718,58.254h-0.366l0.005,0.037C38.476,58.272,38.595,58.254,38.718,58.254z"/>
				</g>
				<g>
					<polygon style="fill:#850309;" points="40.304,58.254 38.72,58.254 40.304,58.254 					"/>
				</g>
				<g>
					<rect x="38.719" y="58.253" style="fill:#850309;" width="1.584" height="0.002"/>
				</g>
				<g>
					<path style="fill:#850309;" d="M38.395,58.562h1.91v-0.308h-1.586c-0.124,0-0.243,0.018-0.361,0.037L38.395,58.562z"/>
				</g>
			</g>
			<g>
				<path style="fill:#EAB99A;" d="M27.844,41.977c0,0.453-0.276,0.882-0.725,1.051l-0.242,0.092l-5.206,2.739
					c-0.08,0.042-2.142,1.768-2.234,1.787c0,0-1.918,3.932-5.262,6.607l-8.973,6c-0.767,0.514-1.792-0.035-1.792-0.955v-5.436
					c0-0.33,0.138-0.641,0.383-0.859l3.664-3.284c0.096-0.084,0.172-0.18,0.234-0.292l6.399-11.336
					c0.13-0.23,0.334-0.411,0.58-0.506l3.66-1.435c0.169-0.069,0.353-0.092,0.533-0.077l3.464,0.357l-1.163,2.11
					c0,0-0.928,0.058-1.815,0.338c-0.434,0.138-0.882,0.211-1.097,0.614l-0.84,1.604c-0.391,0.74,0.119,1.638,0.959,1.684
					l2.348,0.123c0.165,0.007,0.334-0.02,0.487-0.081l4.374-1.573c0.069-0.05,0.142-0.088,0.222-0.119l0.53-0.2
					c0.579-0.215,1.228,0.081,1.442,0.66C27.821,41.716,27.844,41.846,27.844,41.977z"/>
			</g>
			<g>
				<path style="fill:#F2D5C2;" d="M25.462,42.478L25.462,42.478c-0.169-0.439,0.052-0.936,0.491-1.104l0.405-0.156
					c0.439-0.169,0.936,0.052,1.104,0.491l0,0c0.169,0.439-0.052,0.936-0.491,1.104l-0.405,0.156
					C26.127,43.138,25.631,42.917,25.462,42.478z"/>
			</g>
			<g>
				<path style="fill:#505050;" d="M5.972,60.345H1.317C0.593,60.345,0,59.752,0,59.028v-8.694c0-0.724,0.593-1.317,1.317-1.317
					h4.654c0.725,0,1.317,0.593,1.317,1.317v8.694C7.289,59.752,6.696,60.345,5.972,60.345z"/>
			</g>
			<g>
				<path style="fill:#EAB99A;" d="M21.45,36.346l6.409,0.646c0.638,0.064,1.107,0.639,1.043,1.276l0,0
					c-0.065,0.638-0.639,1.107-1.276,1.043l-6.409-0.646c-0.638-0.064-1.107-0.639-1.043-1.276l0,0
					C20.238,36.751,20.812,36.282,21.45,36.346z"/>
			</g>
		</g>
	</g>
	<g>
		<g>
			<path style="fill:#DEAD8E;" d="M57.924,73.129l-6.427,0.42c-0.64,0.042-1.129,0.599-1.087,1.239l0,0
				c0.042,0.64,0.599,1.129,1.239,1.087l6.427-0.42c0.64-0.042,1.128-0.599,1.087-1.239l0,0
				C59.122,73.577,58.564,73.087,57.924,73.129z"/>
		</g>
		<g>
			<path style="fill:#DEAD8E;" d="M62.735,76.245l-9.313-0.693c-0.691-0.052-1.298,0.472-1.35,1.162l0,0
				c-0.051,0.691,0.472,1.298,1.163,1.35l9.313,0.693c0.691,0.051,1.298-0.472,1.35-1.163l0,0
				C63.949,76.904,63.426,76.297,62.735,76.245z"/>
		</g>
		<g>
			<path style="fill:#DEAD8E;" d="M62.073,80.559l-6.017-4.576c-0.446-0.339-1.089-0.252-1.428,0.194l0,0
				c-0.339,0.446-0.252,1.089,0.194,1.428l6.016,4.576c0.446,0.339,1.089,0.252,1.429-0.194l0,0
				C62.607,81.541,62.52,80.899,62.073,80.559z"/>
		</g>
		<g>
			<path style="fill:#DEAD8E;" d="M58.942,70.921l-6.44,0.089c-0.641,0.009-1.158,0.54-1.149,1.181l0,0
				c0.009,0.641,0.541,1.158,1.182,1.149l6.44-0.089c0.641-0.009,1.158-0.54,1.149-1.181l0,0
				C60.115,71.43,59.583,70.912,58.942,70.921z"/>
		</g>
		<g>
			<path style="fill:#DEAD8E;" d="M66.875,93.983l0.067-0.138c-2.822,0.138-3.44-2.45-3.625-3.595l-0.731-4.523
				c-0.185-1.145,0.6-2.233,1.745-2.418l0,0c1.145-0.185,2.233,0.6,2.418,1.745l0.731,4.524
				C67.666,90.723,68.02,93.798,66.875,93.983z"/>
		</g>
		<g>
			<path style="fill:#DEAD8E;" d="M77.512,96.602l-3.634-11.889c-0.02-0.064-0.035-0.13-0.046-0.197l-1.287-7.825
				c0.01-1.243-1.675-1.897-1.836-1.961l-9.159-3.675c-0.179-0.072-0.371-0.109-0.563-0.109h-3.567
				c-0.667,0-1.255,0.437-1.449,1.074l-0.999,3.287c-0.043,0.143-0.065,0.291-0.065,0.44v1.339v0.439
				c0,0.205-0.061,0.404-0.174,0.574l0,0c-0.113,0.17-0.173,0.37-0.173,0.574l0,0c0,0.461,0.21,0.897,0.57,1.184l7.239,5.771
				c0.304,0.242,0.503,0.592,0.556,0.977l0.141,2.109c0.042,0.298,0.649,1.449,0.85,1.673l1.862,0.906
				c0.211,0.236,1.079,2.528,1.114,2.842l0.677,6.197c0.111,1.021,1.186,1.637,2.123,1.218l6.989-3.124
				C77.379,98.116,77.735,97.333,77.512,96.602z"/>
		</g>
		<g>
			<g>
				<path style="fill:#DEEFF0;" d="M50.103,70.559c0,0,0-0.01,0-0.022L49.5,71.238c0,0-0.062-2.085-0.142-5.139h-3.63l0,4.596
					c0,6.165-4.111,11.163-4.111,11.163s-4.11-4.998-4.109-11.163v-4.596H34.14c-0.081,3.054-0.142,5.138-0.142,5.138l-0.603-0.701
					c0,0.012,0,0.022,0,0.022l-3.834-4.46H18.692v23.774h46.114V66.099H53.937L50.103,70.559z"/>
			</g>
			<g>
				<path style="fill:#E47E30;" d="M44.433,70.428c0,4.223-2.815,7.647-2.815,7.647s-2.815-3.424-2.815-7.646v-4.33h-1.295v4.596
					c0,6.165,4.109,11.163,4.109,11.163s4.111-4.999,4.111-11.163l0-4.596h-1.295V70.428z"/>
			</g>
			<g>
				<path style="fill:#F3AA43;" d="M41.694,73.677l-1.047-7.578h-1.846v4.33c0,4.222,2.815,7.646,2.815,7.646
					s2.815-3.424,2.815-7.647v-4.329h-1.692L41.694,73.677z"/>
			</g>
			<g>
				<polygon style="fill:#F3AA43;" points="40.636,66.019 38.802,66.019 38.802,66.099 40.647,66.099 				"/>
			</g>
			<g>
				<polygon style="fill:#F3AA43;" points="44.433,66.099 44.433,66.02 42.752,66.019 42.741,66.099 				"/>
			</g>
			<g>
				<path style="fill:#B51F18;" d="M29.561,66.099l3.834,4.46c0,0,0-0.01,0-0.022l-3.815-4.438H29.561z"/>
			</g>
			<g>
				<path style="fill:#A5100E;" d="M33.396,70.536l0.603,0.701c0,0,0.061-2.084,0.142-5.138h-0.621
					C33.452,68.621,33.401,70.344,33.396,70.536z"/>
			</g>
			<g>
				<path style="fill:#A5100E;" d="M29.581,66.099l3.815,4.438c0.006-0.193,0.056-1.915,0.124-4.438H29.581z"/>
			</g>
			<g>
				<path style="fill:#B51F18;" d="M50.103,70.536c0,0.012,0,0.022,0,0.022l3.834-4.46h-0.02L50.103,70.536z"/>
			</g>
			<g>
				<path style="fill:#A5100E;" d="M49.357,66.099c0.08,3.054,0.142,5.139,0.142,5.139l0.603-0.701
					c-0.006-0.193-0.057-1.915-0.124-4.438H49.357z"/>
			</g>
			<g>
				<path style="fill:#A5100E;" d="M49.979,66.099c0.067,2.522,0.118,4.244,0.124,4.438l3.814-4.438H49.979z"/>
			</g>
			<g>
				<polygon style="fill:#A5100E;" points="42.741,66.099 41.694,66.099 41.694,73.677 				"/>
			</g>
			<g>
				<polygon style="fill:#A5100E;" points="41.694,66.099 42.741,66.099 42.752,66.019 41.694,66.019 				"/>
			</g>
			<g>
				<polygon style="fill:#850309;" points="41.694,73.677 41.694,66.099 40.647,66.099 				"/>
			</g>
			<g>
				<polygon style="fill:#850309;" points="41.694,66.099 41.694,66.019 40.636,66.019 40.647,66.099 				"/>
			</g>
		</g>
		<g>
			<path style="fill:#EAB99A;" d="M78.163,98.241l-3.484-10.908c-0.082-0.249-0.466-0.842-0.655-1.024l-6.251-6.61
				c-0.038-0.037-0.78-0.615-0.822-0.647l-5.499-3.877l-1.209-0.955c-0.583-0.46-1.403-0.462-1.988-0.005
				c-0.742,0.579-0.659,1.455-0.021,2.147l2.839,2.64c0.053,0.057,2.465,3.486,2.465,3.486l0.597,4.614h0
				c-0.023,0.19-0.022,0.386,0.01,0.584l0.731,4.524c0.162,1.003,1.018,1.73,1.997,1.77c0,0,0,0.002,0,0.002l0,0l0.715,6.546
				c0.058,1.602,0.83,1.858,1.926,1.585l0,0l7.487-1.802C77.923,100.096,78.459,99.138,78.163,98.241z"/>
		</g>
		<g>
			<path style="fill:#F2D5C2;" d="M59.858,74.243L59.858,74.243c0.392,0.448,0.345,1.136-0.103,1.527l-0.236,0.206
				c-0.448,0.392-1.135,0.345-1.527-0.103l0,0c-0.392-0.448-0.345-1.135,0.103-1.527l0.235-0.206
				C58.779,73.749,59.466,73.795,59.858,74.243z"/>
		</g>
		<g>
			<path style="fill:#505050;" d="M78.073,103.861H67.535c-0.874,0-1.589-0.715-1.589-1.589v-3.257c0-0.875,0.715-1.589,1.589-1.589
				h10.539c0.874,0,1.589,0.715,1.589,1.589v3.257C79.663,103.146,78.947,103.861,78.073,103.861z"/>
		</g>
	</g>
</g>
</svg>
