<?xml version="1.0" encoding="iso-8859-1"?>
<!-- Generator: Adobe Illustrator 19.1.0, SVG Export Plug-In . SVG Version: 6.00 Build 0)  -->
<!DOCTYPE svg PUBLIC "-//W3C//DTD SVG 1.1//EN" "http://www.w3.org/Graphics/SVG/1.1/DTD/svg11.dtd">
<svg version="1.1" id="illustrations" xmlns="http://www.w3.org/2000/svg" xmlns:xlink="http://www.w3.org/1999/xlink" x="0px"
	 y="0px" viewBox="0 0 65.982 65.983" style="enable-background:new 0 0 65.982 65.983;" xml:space="preserve">
<g>
	<g>
		<path style="fill:#EF893A;" d="M24.935,45.905l-21.12,0.011l-2.679,0.008C0.506,45.926-0.002,46.438,0,47.067l0.009,2.688
			l0.026,6.023l0.008,2.676c0.001,0.304,0.123,0.596,0.339,0.81c0.216,0.214,0.509,0.333,0.812,0.332l3.339-0.018l22.351-0.067
			C26.517,54.973,24.926,50.46,24.935,45.905z"/>
	</g>
	<g>
		<g>
			<g>
				<polygon style="fill:#DEAD8E;" points="24.412,45.904 21.032,35.42 19.452,36.597 17.55,46.194 				"/>
			</g>
			<g>
				<path style="fill:#F5C4A5;" d="M3.976,50.461l-0.632-5.478c-0.049-0.425-0.056-0.855-0.021-1.282l0.591-7.186
					c-0.008-1.794,3.289-5.444,2.525-9.853l11.487,6.529c1.795-0.008,3.268,1.454,3.277,3.248l0.061,13.946
					c0.008,1.794-1.454,3.269-3.248,3.277L7.253,53.709C5.458,53.717,3.983,52.255,3.976,50.461z"/>
			</g>
			<g>
				<path style="fill:#F5C4A5;" d="M20.152,36.76c0.007,2.098-1.708,3.826-3.806,3.839l-6.022,0.026
					c-2.104,0.007-3.833-1.702-3.84-3.806l-0.026-6.907L6.405,4.534c-0.013-2.105,1.702-4.493,3.8-4.499l6.022-0.026
					c2.104-0.007,3.833,1.702,3.84,3.806l0.059,26.097L20.152,36.76z"/>
			</g>
			<g>
				<ellipse style="fill:#F3CFB8;" cx="5.879" cy="52.822" rx="0.868" ry="0.517"/>
			</g>
			<g>
				<ellipse style="fill:#F3CFB8;" cx="10.338" cy="51.628" rx="0.868" ry="0.517"/>
			</g>
			<g>
				<ellipse style="fill:#F3CFB8;" cx="15.047" cy="51.582" rx="0.867" ry="0.517"/>
			</g>
			<g>
				<ellipse style="fill:#F3CFB8;" cx="19.213" cy="51.857" rx="0.868" ry="0.517"/>
			</g>
			<g>
				<path style="fill:#F5C4A5;" d="M20.297,63.537L20.297,63.537c-0.972,0.067-1.822-0.674-1.89-1.646l-0.772-11.207
					c-0.067-0.973,0.674-1.823,1.646-1.89l0,0c0.972-0.067,1.822,0.674,1.89,1.646l0.772,11.207
					C22.011,62.62,21.27,63.471,20.297,63.537z"/>
			</g>
			<g>
				<path style="fill:#F5C4A5;" d="M16.231,65.664L16.231,65.664c-1.093,0.076-2.05-0.757-2.125-1.851l-0.869-12.604
					c-0.075-1.093,0.758-2.05,1.852-2.125l0,0c1.094-0.075,2.05,0.758,2.125,1.852l0.869,12.604
					C18.157,64.632,17.324,65.589,16.231,65.664z"/>
			</g>
			<g>
				<path style="fill:#F5C4A5;" d="M11.677,65.978L11.677,65.978c-1.093,0.076-2.05-0.757-2.125-1.851L8.683,51.523
					c-0.075-1.093,0.758-2.05,1.852-2.125l0,0c1.094-0.076,2.05,0.757,2.125,1.851l0.869,12.604
					C13.604,64.946,12.771,65.903,11.677,65.978z"/>
			</g>
			<g>
				<path style="fill:#F5C4A5;" d="M7.258,63.39L7.258,63.39c-0.904,0.062-1.695-0.627-1.758-1.531L4.154,50.39
					c-0.061-0.904,1.254-0.645,2.158-0.707l0,0c0.904-0.062,1.694,0.626,1.757,1.531l0.719,10.419
					C8.851,62.536,8.161,63.327,7.258,63.39z"/>
			</g>
			<g>
				<path style="fill:#F2D5C2;" d="M21.511,61.613L21.511,61.613c0.065,0.654-0.417,1.242-1.07,1.307l-0.343,0.034
					c-0.654,0.065-1.242-0.417-1.308-1.07l0,0c-0.065-0.654,0.416-1.242,1.07-1.307l0.343-0.034
					C20.857,60.478,21.445,60.959,21.511,61.613z"/>
			</g>
			<g>
				<path style="fill:#F2D5C2;" d="M17.544,63.514L17.544,63.514c0.065,0.653-0.416,1.242-1.07,1.307l-0.343,0.035
					c-0.654,0.065-1.242-0.416-1.308-1.07l0,0c-0.066-0.653,0.417-1.242,1.07-1.307l0.343-0.034
					C16.891,62.379,17.479,62.86,17.544,63.514z"/>
			</g>
			<g>
				<path style="fill:#F2D5C2;" d="M12.978,64.036L12.978,64.036c0.066,0.653-0.416,1.242-1.069,1.307l-0.344,0.034
					c-0.653,0.065-1.242-0.416-1.307-1.07l0,0c-0.065-0.654,0.416-1.242,1.069-1.307l0.344-0.034
					C12.324,62.901,12.912,63.382,12.978,64.036z"/>
			</g>
			<g>
				<path style="fill:#F2D5C2;" d="M8.291,61.641L8.291,61.641c0.051,0.515-0.328,0.978-0.843,1.029l-0.27,0.027
					C6.664,62.749,6.2,62.37,6.149,61.855l0,0c-0.052-0.515,0.327-0.978,0.842-1.029l0.27-0.027
					C7.776,60.748,8.239,61.127,8.291,61.641z"/>
			</g>
		</g>
		<g>
			<path style="fill:#F55D51;" d="M20.081,28.914L6.458,29.912L6.405,4.534L6.388,1.195C6.386,0.89,6.506,0.598,6.72,0.382
				c0.214-0.216,0.505-0.338,0.81-0.339l2.676-0.008l6.022-0.026L18.916,0c0.629-0.002,1.141,0.506,1.143,1.135l0.009,2.679
				L20.081,28.914z"/>
		</g>
	</g>
	<g>
		<g>
			<g>
				<polygon style="fill:#DEAD8E;" points="20.152,23.869 30.563,21.033 29.386,19.452 20.075,18.087 				"/>
			</g>
			<g>
				<path style="fill:#F5C4A5;" d="M15.522,3.976l5.477-0.632c0.426-0.049,0.856-0.056,1.282-0.021l7.186,0.591
					c1.794-0.008,5.443,3.289,9.853,2.525l-6.528,11.487c0.008,1.795-1.454,3.269-3.248,3.277l-13.946,0.062
					c-1.794,0.008-3.269-1.454-3.276-3.247L12.273,7.253C12.266,5.458,13.728,3.984,15.522,3.976z"/>
			</g>
			<g>
				<path style="fill:#F5C4A5;" d="M29.224,20.153c-2.098,0.006-3.826-1.708-3.84-3.807l-0.026-6.023
					c-0.006-2.104,1.702-3.832,3.807-3.839l6.906-0.026l25.379-0.053c2.104-0.013,4.492,1.702,4.499,3.8l0.026,6.022
					c0.006,2.104-1.702,3.832-3.807,3.839L36.07,20.126L29.224,20.153z"/>
			</g>
			<g>
				<ellipse style="fill:#F3CFB8;" cx="13.161" cy="5.879" rx="0.517" ry="0.867"/>
			</g>
			<g>
				<ellipse style="fill:#F3CFB8;" cx="14.355" cy="10.339" rx="0.517" ry="0.868"/>
			</g>
			<g>
				<ellipse style="fill:#F3CFB8;" cx="14.401" cy="15.047" rx="0.517" ry="0.868"/>
			</g>
			<g>
				<ellipse style="fill:#F3CFB8;" cx="14.126" cy="19.214" rx="0.517" ry="0.868"/>
			</g>
			<g>
				<path style="fill:#F5C4A5;" d="M2.445,20.297L2.445,20.297c-0.067-0.972,0.674-1.823,1.645-1.89l11.207-0.772
					c0.973-0.067,1.823,0.673,1.89,1.646l0,0c0.067,0.972-0.674,1.823-1.646,1.89L4.335,21.943
					C3.362,22.011,2.513,21.27,2.445,20.297z"/>
			</g>
			<g>
				<path style="fill:#F5C4A5;" d="M0.318,16.231L0.318,16.231c-0.075-1.093,0.758-2.05,1.852-2.126l12.603-0.869
					c1.094-0.075,2.05,0.758,2.125,1.851l0,0c0.075,1.094-0.758,2.05-1.85,2.125L2.444,18.082
					C1.351,18.158,0.395,17.325,0.318,16.231z"/>
			</g>
			<g>
				<path style="fill:#F5C4A5;" d="M0.005,11.677L0.005,11.677c-0.075-1.093,0.758-2.05,1.852-2.125l12.602-0.869
					c1.094-0.076,2.051,0.758,2.126,1.851l0,0c0.075,1.094-0.758,2.05-1.852,2.126L2.13,13.528
					C1.036,13.604,0.08,12.771,0.005,11.677z"/>
			</g>
			<g>
				<path style="fill:#F5C4A5;" d="M2.594,7.258L2.594,7.258C2.531,6.354,3.22,5.563,4.124,5.501l11.47-1.346
					c0.903-0.062,0.643,1.254,0.706,2.158l0,0c0.062,0.904-0.626,1.694-1.53,1.757L4.351,8.788C3.446,8.85,2.656,8.161,2.594,7.258z
					"/>
			</g>
			<g>
				<path style="fill:#F2D5C2;" d="M4.37,21.511L4.37,21.511c-0.654,0.066-1.242-0.416-1.308-1.07l-0.034-0.343
					c-0.064-0.654,0.417-1.242,1.07-1.307l0,0c0.653-0.065,1.242,0.417,1.307,1.07l0.035,0.343
					C5.505,20.857,5.023,21.446,4.37,21.511z"/>
			</g>
			<g>
				<path style="fill:#F2D5C2;" d="M2.469,17.544L2.469,17.544c-0.653,0.066-1.241-0.416-1.307-1.07l-0.034-0.343
					c-0.065-0.654,0.416-1.242,1.069-1.307l0,0c0.654-0.065,1.242,0.417,1.308,1.07l0.034,0.343
					C3.604,16.89,3.122,17.479,2.469,17.544z"/>
			</g>
			<g>
				<path style="fill:#F2D5C2;" d="M1.947,12.978L1.947,12.978c-0.654,0.066-1.242-0.416-1.308-1.07l-0.034-0.343
					c-0.064-0.654,0.416-1.242,1.07-1.307l0,0c0.653-0.065,1.242,0.417,1.307,1.07l0.034,0.343
					C3.082,12.325,2.601,12.913,1.947,12.978z"/>
			</g>
			<g>
				<path style="fill:#F2D5C2;" d="M4.341,8.291L4.341,8.291C3.826,8.342,3.363,7.963,3.313,7.449l-0.027-0.27
					C3.234,6.664,3.613,6.201,4.128,6.149l0,0c0.515-0.051,0.978,0.328,1.028,0.842l0.027,0.27C5.235,7.777,4.856,8.24,4.341,8.291z
					"/>
			</g>
		</g>
		<g>
			<path style="fill:#55ACE0;" d="M37.069,20.081L36.07,6.458l25.379-0.053l3.339-0.018c0.304-0.002,0.597,0.118,0.812,0.332
				c0.216,0.214,0.338,0.506,0.339,0.81l0.009,2.676l0.026,6.022l0.008,2.688c0.002,0.629-0.506,1.141-1.135,1.143l-2.68,0.008
				L37.069,20.081z"/>
		</g>
	</g>
	<g>
		<g>
			<g>
				<polygon style="fill:#DEAD8E;" points="41.474,20.079 44.95,30.563 46.53,29.386 47.637,20.076 				"/>
			</g>
			<g>
				<path style="fill:#F5C4A5;" d="M62.007,15.522l0.632,5.477c0.049,0.426,0.057,0.855,0.021,1.282l-0.592,7.187
					c0.008,1.794-3.289,5.444-2.525,9.853l-11.487-6.529c-1.794,0.008-3.269-1.454-3.277-3.248l-0.062-13.946
					c-0.008-1.794,1.454-3.269,3.248-3.277l10.766-0.048C60.524,12.266,61.999,13.727,62.007,15.522z"/>
			</g>
			<g>
				<path style="fill:#F5C4A5;" d="M45.83,29.223c-0.007-2.098,1.708-3.826,3.806-3.839l6.022-0.026
					c2.104-0.006,3.833,1.702,3.84,3.806l0.026,6.907l0.053,25.378c0.013,2.104-1.702,4.492-3.8,4.499l-6.022,0.026
					c-2.105,0.006-3.833-1.702-3.839-3.807l-0.06-26.097L45.83,29.223z"/>
			</g>
			<g>
				<ellipse style="fill:#F3CFB8;" cx="60.103" cy="13.161" rx="0.868" ry="0.517"/>
			</g>
			<g>
				<ellipse style="fill:#F3CFB8;" cx="55.644" cy="14.355" rx="0.868" ry="0.517"/>
			</g>
			<g>
				<ellipse style="fill:#F3CFB8;" cx="50.936" cy="14.401" rx="0.868" ry="0.517"/>
			</g>
			<g>
				<ellipse style="fill:#F3CFB8;" cx="46.769" cy="14.126" rx="0.868" ry="0.517"/>
			</g>
			<g>
				<path style="fill:#F5C4A5;" d="M45.686,2.445L45.686,2.445c0.972-0.067,1.822,0.674,1.89,1.647l0.773,11.206
					c0.067,0.972-0.674,1.823-1.646,1.89l0,0c-0.973,0.067-1.823-0.673-1.891-1.646L44.039,4.335
					C43.973,3.363,44.713,2.513,45.686,2.445z"/>
			</g>
			<g>
				<path style="fill:#F5C4A5;" d="M49.752,0.319L49.752,0.319c1.094-0.075,2.05,0.758,2.125,1.852l0.869,12.604
					c0.075,1.093-0.758,2.05-1.852,2.125l0,0c-1.093,0.076-2.05-0.758-2.125-1.851L47.9,2.444
					C47.825,1.35,48.658,0.394,49.752,0.319z"/>
			</g>
			<g>
				<path style="fill:#F5C4A5;" d="M54.306,0.005L54.306,0.005c1.094-0.075,2.05,0.758,2.125,1.852L57.3,14.459
					c0.075,1.094-0.758,2.05-1.852,2.126l0,0c-1.093,0.075-2.05-0.757-2.125-1.851L52.454,2.13
					C52.379,1.036,53.212,0.08,54.306,0.005z"/>
			</g>
			<g>
				<path style="fill:#F5C4A5;" d="M58.725,2.594L58.725,2.594c0.904-0.062,1.695,0.626,1.758,1.53l1.346,11.47
					c0.062,0.904-1.254,0.644-2.158,0.707l0,0c-0.904,0.062-1.694-0.627-1.757-1.53L57.194,4.35
					C57.133,3.447,57.821,2.656,58.725,2.594z"/>
			</g>
			<g>
				<path style="fill:#F2D5C2;" d="M44.472,4.37L44.472,4.37c-0.064-0.653,0.417-1.242,1.07-1.307l0.344-0.034
					c0.653-0.065,1.241,0.416,1.307,1.07l0,0c0.065,0.653-0.416,1.242-1.07,1.307L45.779,5.44
					C45.125,5.505,44.537,5.024,44.472,4.37z"/>
			</g>
			<g>
				<path style="fill:#F2D5C2;" d="M48.439,2.469L48.439,2.469c-0.064-0.654,0.417-1.242,1.07-1.307l0.344-0.034
					c0.653-0.065,1.241,0.416,1.307,1.07l0,0c0.065,0.654-0.416,1.242-1.07,1.307l-0.343,0.034
					C49.092,3.604,48.504,3.122,48.439,2.469z"/>
			</g>
			<g>
				<path style="fill:#F2D5C2;" d="M53.005,1.947L53.005,1.947c-0.065-0.654,0.416-1.242,1.069-1.307l0.344-0.034
					c0.653-0.065,1.242,0.416,1.307,1.07l0,0c0.065,0.654-0.416,1.242-1.069,1.307l-0.344,0.034
					C53.658,3.082,53.07,2.601,53.005,1.947z"/>
			</g>
			<g>
				<path style="fill:#F2D5C2;" d="M57.691,4.341L57.691,4.341c-0.051-0.515,0.328-0.977,0.843-1.029l0.271-0.027
					c0.515-0.051,0.978,0.328,1.028,0.842l0,0c0.052,0.515-0.327,0.978-0.842,1.029l-0.271,0.027
					C58.206,5.235,57.743,4.856,57.691,4.341z"/>
			</g>
		</g>
		<g>
			<path style="fill:#859596;" d="M45.901,37.069l13.623-0.999l0.053,25.378l0.017,3.339c0.002,0.304-0.117,0.596-0.332,0.812
				c-0.214,0.216-0.505,0.338-0.81,0.339l-2.676,0.009l-6.022,0.026l-2.689,0.008c-0.629,0.002-1.141-0.506-1.143-1.135l-0.008-2.68
				L45.901,37.069z"/>
		</g>
	</g>
	<g>
		<g>
			<polygon style="fill:#DEAD8E;" points="45.904,41.513 35.42,44.95 36.597,46.531 45.907,47.902 			"/>
		</g>
		<g>
			<path style="fill:#F5C4A5;" d="M50.461,62.007l-5.478,0.632c-0.426,0.049-0.855,0.056-1.282,0.021l-7.186-0.591
				c-1.795,0.008-5.444-3.289-9.854-2.525l6.529-11.488c-0.009-1.794,1.453-3.269,3.247-3.276l13.946-0.062
				c1.794-0.008,3.269,1.454,3.276,3.248l0.048,10.765C53.717,60.524,52.255,61.999,50.461,62.007z"/>
		</g>
		<g>
			<path style="fill:#F5C4A5;" d="M40.599,49.636c-0.014-2.098-1.741-3.812-3.839-3.806l-6.848,0.026l-5.929,0.014
				c-0.011,4.567,0.427,9.116,0.795,13.665l5.134-0.01l6.906-0.026c2.105-0.007,3.813-1.735,3.807-3.839L40.599,49.636z"/>
		</g>
		<g>
			<ellipse style="fill:#F3CFB8;" cx="52.822" cy="60.103" rx="0.517" ry="0.867"/>
		</g>
		<g>
			<ellipse style="fill:#F3CFB8;" cx="51.628" cy="55.644" rx="0.517" ry="0.867"/>
		</g>
		<g>
			<ellipse style="fill:#F3CFB8;" cx="51.582" cy="50.936" rx="0.517" ry="0.868"/>
		</g>
		<g>
			<ellipse style="fill:#F3CFB8;" cx="51.857" cy="46.769" rx="0.517" ry="0.867"/>
		</g>
		<g>
			<path style="fill:#F5C4A5;" d="M63.537,45.685L63.537,45.685c0.067,0.973-0.674,1.823-1.646,1.89l-11.207,0.772
				c-0.973,0.067-1.823-0.674-1.89-1.646l0,0c-0.067-0.973,0.674-1.823,1.646-1.89l11.206-0.773
				C62.62,43.973,63.471,44.713,63.537,45.685z"/>
		</g>
		<g>
			<path style="fill:#F5C4A5;" d="M65.664,49.752L65.664,49.752c0.075,1.094-0.758,2.05-1.852,2.125l-12.604,0.869
				c-1.094,0.075-2.05-0.758-2.125-1.852l0,0c-0.075-1.093,0.758-2.05,1.852-2.125l12.604-0.869
				C64.632,47.825,65.589,48.659,65.664,49.752z"/>
		</g>
		<g>
			<path style="fill:#F5C4A5;" d="M65.978,54.306L65.978,54.306c0.075,1.094-0.757,2.05-1.85,2.126L51.523,57.3
				c-1.094,0.075-2.05-0.758-2.126-1.852l0,0c-0.075-1.093,0.758-2.05,1.852-2.125l12.604-0.869
				C64.946,52.379,65.902,53.212,65.978,54.306z"/>
		</g>
		<g>
			<path style="fill:#F5C4A5;" d="M63.389,58.725L63.389,58.725c0.062,0.904-0.626,1.694-1.53,1.757L50.39,61.828
				c-0.904,0.062-0.645-1.254-0.707-2.158l0,0c-0.062-0.904,0.626-1.695,1.53-1.757l10.419-0.718
				C62.536,57.133,63.327,57.821,63.389,58.725z"/>
		</g>
		<g>
			<path style="fill:#F2D5C2;" d="M61.612,44.472L61.612,44.472c0.654-0.065,1.242,0.417,1.308,1.07l0.034,0.343
				c0.064,0.654-0.417,1.242-1.07,1.307l0,0c-0.653,0.065-1.241-0.417-1.307-1.07l-0.034-0.343
				C60.478,45.125,60.959,44.537,61.612,44.472z"/>
		</g>
		<g>
			<path style="fill:#F2D5C2;" d="M63.514,48.439L63.514,48.439c0.653-0.065,1.242,0.417,1.307,1.07l0.035,0.343
				c0.064,0.653-0.417,1.242-1.07,1.307l0,0c-0.654,0.065-1.242-0.416-1.307-1.07l-0.035-0.343
				C62.379,49.092,62.86,48.504,63.514,48.439z"/>
		</g>
		<g>
			<path style="fill:#F2D5C2;" d="M64.035,53.005L64.035,53.005c0.654-0.065,1.242,0.417,1.308,1.07l0.034,0.343
				c0.065,0.653-0.416,1.242-1.07,1.307l0,0c-0.653,0.065-1.241-0.416-1.307-1.07l-0.034-0.343
				C62.9,53.658,63.382,53.07,64.035,53.005z"/>
		</g>
		<g>
			<path style="fill:#F2D5C2;" d="M61.642,57.692L61.642,57.692c0.515-0.051,0.978,0.328,1.028,0.842l0.027,0.271
				c0.052,0.515-0.328,0.978-0.842,1.029l0,0c-0.515,0.051-0.979-0.328-1.029-0.842l-0.027-0.271
				C60.748,58.206,61.127,57.743,61.642,57.692z"/>
		</g>
	</g>
	<g>
		<path style="fill:#EF893A;" d="M24.778,59.535l5.134-0.01l-0.998-13.623l-4.931,0.002C23.975,50.46,24.411,54.997,24.778,59.535z"
			/>
	</g>
</g>
</svg>
