<?xml version="1.0" encoding="iso-8859-1"?>
<!-- Generator: Adobe Illustrator 19.1.0, SVG Export Plug-In . SVG Version: 6.00 Build 0)  -->
<!DOCTYPE svg PUBLIC "-//W3C//DTD SVG 1.1//EN" "http://www.w3.org/Graphics/SVG/1.1/DTD/svg11.dtd">
<svg version="1.1" id="illustrations" xmlns="http://www.w3.org/2000/svg" xmlns:xlink="http://www.w3.org/1999/xlink" x="0px"
	 y="0px" viewBox="0 0 89.833 77.949" style="enable-background:new 0 0 89.833 77.949;" xml:space="preserve">
<g>
	<g>
		<g>
			<g>
				<path style="fill:#6D3C1F;" d="M54.746,9.582C54.746,3.339,51.014,0,46.409,0c-0.005,0-0.009,0.001-0.014,0.001
					C46.391,0.001,46.386,0,46.381,0c-4.604,0-8.336,3.339-8.336,9.582c0,1.774,0.76,10.397,0.581,12.459l7.338,1.801l8.244-2.315
					C54.029,19.465,54.746,11.356,54.746,9.582z"/>
			</g>
		</g>
		<g>
			<g>
				<path style="fill:#2C3A48;" d="M38.52,37.693c0.084-1.097,0.159-2.289,0.226-3.501c0-0.063,0-0.117,0.009-0.18
					c0.1-1.942,0.189-3.93,0.252-5.648c0.1-2.708,0.145-4.767,0.145-4.974c0-0.954-0.675-1.754-1.583-1.997
					c-0.189-0.054-0.387-0.081-0.594-0.081c-1.106,0-2.006,0.792-2.149,1.808c-0.01,0.054-0.019,0.099-0.019,0.153
					c-0.448,4.645-0.491,9.465-0.23,14.42H38.52z"/>
			</g>
		</g>
		<g>
			<g>
				<path style="fill:#2C3A48;" d="M53.914,37.693c-0.084-1.097-0.159-2.289-0.226-3.501c0-0.063,0-0.117-0.009-0.18
					c-0.1-1.942-0.189-3.93-0.252-5.648c-0.1-2.708-0.145-4.767-0.145-4.974c0-0.954,0.675-1.754,1.583-1.997
					c0.189-0.054,0.387-0.081,0.594-0.081c1.106,0,2.006,0.792,2.149,1.808c0.009,0.054,0.019,0.099,0.019,0.153
					c0.448,4.645,0.491,9.465,0.23,14.42H53.914z"/>
			</g>
		</g>
		<g>
			<g>
				<path style="fill:#3C4A58;" d="M57.47,24.133c0.33-1.216-0.416-2.538-1.662-2.721c-0.125-0.018-0.253-0.028-0.384-0.028h-2.491
					c-0.507-0.02-1.35-0.194-1.757-0.292c-0.301-0.072-0.221,0.046-0.523,0.109c0,0-3.488,1.117-4.358,1.341
					c-0.87-0.224-4.358-1.341-4.358-1.341c-0.303-0.063-0.223-0.181-0.524-0.109c-0.407,0.098-1.25,0.272-1.757,0.292h-2.491
					c-0.131,0-0.259,0.009-0.384,0.028c-1.246,0.183-1.992,1.505-1.662,2.721l0.995,3.667c0.162,0.6-0.066,1.178-0.275,1.764
					c-1.145,3.215,1.183,5.773,2.249,5.924c0.077,0.519,1.082,1.286,1.117,2.204h6.98h0.219h6.98
					c0.035-0.918,1.04-1.685,1.117-2.204c1.066-0.151,3.394-2.709,2.249-5.924c-0.209-0.586-0.437-1.164-0.274-1.764L57.47,24.133z"
					/>
			</g>
		</g>
		<g>
			<g>
				<path style="fill:#5D2C10;" d="M42.222,5.143c3.738-2.467,4.528-2.526,8.319,0c3.79,2.526,0.111,16.059,0.111,16.059
					l-9.049-0.176C41.604,21.026,38.483,7.61,42.222,5.143z"/>
			</g>
		</g>
		<g>
			<g>
				<path style="fill:#EAB99A;" d="M49.471,20.125c-0.11-0.11-0.198-0.238-0.292-0.361c-0.503-0.661-0.791-1.493-0.904-2.463h-3.967
					c-0.119,1.02-0.432,1.887-0.991,2.562c-0.072,0.087-0.133,0.182-0.214,0.262c-0.436,0.446-1.028,0.771-1.763,0.985
					c0.93,0.423,2.541,1.617,4.954,1.617c2.558,0,4.882-1.635,4.882-1.635C50.471,20.877,49.898,20.558,49.471,20.125z"/>
			</g>
		</g>
		<g>
			<g>
				<path style="fill:#EAB99A;" d="M51.912,9.911c0,3.998-2.453,8.833-5.507,8.833c-0.146,0-0.282-0.009-0.418-0.036
					c-2.863-0.409-5.136-4.98-5.136-8.797c0-3.826,2.245-6.953,5.108-7.234c0.136-0.009,0.273-0.018,0.418-0.018
					C49.432,2.658,51.912,5.902,51.912,9.911z"/>
			</g>
		</g>
		<g>
			<g>
				<path style="fill:#F5C4A5;" d="M51.076,9.911c0,3.817-2.235,8.389-5.089,8.797c-2.863-0.409-5.136-4.98-5.136-8.797
					c0-0.118,0-0.246,0.019-0.364c0.091-2.663,1.281-4.953,2.99-6.089c0.481-0.328,0.99-0.555,1.536-0.682l0.036-0.009
					c0.009-0.009,0.027-0.009,0.036-0.009c0.164-0.036,0.327-0.063,0.491-0.082c0.355,0.036,0.699,0.118,1.036,0.236
					c2.081,0.745,3.671,3.026,4.008,5.862C51.049,9.147,51.076,9.529,51.076,9.911z"/>
			</g>
		</g>
		<g>
			<g>
				<path style="fill:#EAB99A;" d="M51.403,8.747l-0.4,0.027L40.87,9.547c0.091-2.663,1.281-4.953,2.99-6.089l1.536-0.682
					l0.036-0.009l0.009-0.009h0.027l1.527,0.155l2.199,0.218L51.403,8.747z"/>
			</g>
		</g>
		<g>
			<g>
				<path style="fill:#6D3C1F;" d="M42.944,3.355c0,0-1.704,3.465-1.533,5.396h9.997c0,0-0.704-3.852-1.534-5.633
					C48.614,0.412,43.009,1.637,42.944,3.355z"/>
			</g>
		</g>
		<g>
			<g>
				<path style="fill:#5D2C10;" d="M47.546,8.752h0.966c0,0-0.058-4.733-1.193-5.633C47.318,3.119,47.887,7.616,47.546,8.752
					L47.546,8.752z"/>
			</g>
		</g>
		<g>
			<g>
				<path style="fill:#5D2C10;" d="M46.068,3.526c0,0-1.306,2.159-1.249,5.226l0,0h0.908C45.728,8.752,45.671,4.094,46.068,3.526z"
					/>
			</g>
		</g>
		<g>
			<g>
				<polygon style="fill:#2C3A48;" points="38.65,21.312 42.024,20.854 46.403,31.436 				"/>
			</g>
		</g>
		<g>
			<g>
				<polygon style="fill:#2C3A48;" points="54.157,21.312 50.784,20.854 46.403,31.436 				"/>
			</g>
		</g>
		<g>
			<g>
				<polygon style="fill:#E0E0E0;" points="42.348,21.636 46.403,31.436 50.784,20.854 				"/>
			</g>
		</g>
	</g>
	<g>
		<g>
			<rect x="25.023" y="37.635" style="fill:#F0F0F0;" width="43.086" height="30.586"/>
		</g>
		<g>
			<path style="fill:#808080;" d="M68.581,68.694H24.55V37.163h44.031V68.694z M25.495,67.749h42.141V38.108H25.495V67.749z"/>
		</g>
	</g>
	<g>
		<g>
			<g>
				<path style="fill:#707070;" d="M6.65,77.22l0.624-3.891L3.654,63.176c-1.227,0.498-2.121,1.133-2.384,2.031L0,77.22H6.65z"/>
			</g>
		</g>
		<g>
			<g>
				<path style="fill:#707070;" d="M36.331,77.22l-2.475-12.154c-0.267-0.796-1.279-1.03-1.868-0.432l-2.022,2.056
					c-0.26,0.265-2.329,2.167-2.258,2.531c0,0,0.769,3.741,1.652,7.999H36.331z"/>
			</g>
		</g>
		<g>
			<g>
				<polygon style="fill:#DEAD8E;" points="22.109,56.364 23.109,64.381 13.275,68.492 13.854,56.364 				"/>
			</g>
		</g>
		<g>
			<g>
				<g>
					<path style="fill:#EAB99A;" d="M24.946,48.776l-0.422,1.923c-0.095,0.405-0.389,0.699-0.746,0.794
						c-0.191,0.064-0.405,0.064-0.612,0c-0.056-0.016-0.104-0.032-0.15-0.063h-0.009c-0.429-0.214-0.683-0.723-0.58-1.2l0.215-0.969
						l0.143-0.636l0.072-0.31c0.079-0.35,0.31-0.62,0.611-0.747c0.111-0.056,0.238-0.087,0.366-0.087
						c0.016-0.008,0.039-0.008,0.056-0.008c0.11,0,0.214,0.016,0.325,0.048C24.732,47.679,25.066,48.244,24.946,48.776z"/>
				</g>
			</g>
			<g>
				<g>
					<path style="fill:#EAB99A;" d="M23.762,53.845c-0.127,0.651-0.381,1.239-0.73,1.716c-0.223,0.318-0.501,0.588-0.795,0.802
						l-0.127,0.159l-1.899,2.423c-0.286,0.413-1.176,0.644-1.962,0.644c-0.278-0.008-0.549-0.04-0.779-0.111
						c-0.214-0.063-0.389-0.151-0.508-0.278l-2.424-2.233c-0.238-0.111-0.477-0.278-0.684-0.469
						c-0.071-0.063-0.135-0.127-0.198-0.191c-0.429-0.413-0.787-0.961-1.018-1.597c-0.166-0.429-0.27-0.898-0.31-1.391l-0.071-0.906
						l-0.294-3.734l-0.016-0.199l-0.096-1.2c-0.19-2.312,1.16-4.322,2.995-4.465l2.622-0.206l1.479-0.119l0.755-0.064
						c1.032-0.079,2.002,0.445,2.693,1.327c0.532,0.691,0.897,1.597,0.978,2.606l0.095,1.208l0.167,2.121l0.144,1.804l0.071,0.914
						C23.89,52.908,23.865,53.384,23.762,53.845z"/>
				</g>
			</g>
			<g>
				<g>
					<path style="fill:#F4CAAF;" d="M22.611,46.425l0.48,6.042c0.04,0.499,0.011,0.979-0.087,1.436
						c-0.129,0.657-0.384,1.239-0.735,1.716c-0.223,0.322-0.496,0.594-0.794,0.808l-2.028,2.579
						c-0.191,0.289-0.665,0.486-1.201,0.582c-0.544-0.01-1.05-0.129-1.284-0.384l-2.425-2.239c-0.32-0.149-0.62-0.376-0.884-0.652
						c-0.429-0.414-0.781-0.964-1.013-1.599c-0.168-0.427-0.273-0.898-0.312-1.389l-0.481-6.042
						c-0.184-2.312,1.165-4.319,2.998-4.465l4.099-0.327C20.777,42.345,22.427,44.113,22.611,46.425z"/>
				</g>
			</g>
			<g>
				<g>
					<path style="fill:#F4CAAF;" d="M12.859,52.31L12.859,52.31c-0.572,0.28-1.232,0.024-1.467-0.568l-0.723-1.827
						c-0.201-0.507,0.035-1.118,0.525-1.357l0,0c0.572-0.28,1.231-0.024,1.467,0.568l0.723,1.827
						C13.586,51.46,13.35,52.071,12.859,52.31z"/>
				</g>
			</g>
			<g>
				<g>
					<polygon style="fill:#D99237;" points="23.992,45.749 23.834,47.481 23.635,49.689 23.548,50.651 22.864,49.602 22.642,49.261 
						21.585,47.632 19.908,47.433 17.469,47.147 13.751,46.702 13.083,50.19 12.789,51.724 12.741,51.962 12.686,51.7 
						11.963,48.681 11.915,48.474 11.542,46.925 12.313,41.776 12.98,41.728 13.973,39.464 14.537,40.179 15.459,38.677 
						17.469,39.909 18.2,40.362 18.875,39.4 22.244,42.229 22.276,42.205 22.983,41.545 					"/>
				</g>
			</g>
			<g>
				<g>
					<path style="fill:#F3AA43;" d="M22.396,43.754c0,0.397-0.048,0.787-0.144,1.144c-0.325,1.24-1.207,2.217-2.344,2.535
						l-2.439-0.286l-3.718-0.445l-0.668,3.488l-0.294,1.533c-0.031-0.008-0.071-0.008-0.104-0.024l-0.723-3.019l-0.048-0.207
						l-0.373-1.549l0.771-5.149l0.667-0.048l0.993-2.264l0.564,0.715l0.922-1.501l2.01,1.231l0.731,0.453l0.675-0.961l3.369,2.829
						l0.032-0.024l0.104,1.287C22.388,43.58,22.396,43.667,22.396,43.754z"/>
				</g>
			</g>
		</g>
		<g>
			<g>
				<path style="fill:#808080;" d="M2.36,66.216c0.835,3.657,1.905,7.31,2.91,11.004h25.591c0.396-1.566,0.8-3.139,1.208-4.734
					c0.524-2.058,1.049-4.14,1.533-6.229c0-0.016,0.008-0.032,0.008-0.048c0.318-1.375-0.413-2.749-1.677-3.281
					c-0.134-0.06-8.818-1.859-9.359-1.859c-0.382,1.729-3.219,3.607-4.62,3.485c-1.045-0.091-3.376-2.021-4.533-3.485
					c-0.459,0-8.488,1.62-8.938,1.708c-1.406,0.342-2.32,1.677-2.178,3.083C2.313,65.978,2.337,66.097,2.36,66.216z"/>
			</g>
		</g>
		<g>
			<g>
				<polygon style="fill:#505050;" points="13.471,61.068 9.17,61.861 15.413,67.394 18.007,64.553 				"/>
			</g>
		</g>
		<g>
			<g>
				<polygon style="fill:#505050;" points="22.572,61.068 26.873,61.861 20.629,67.394 18.007,64.553 				"/>
			</g>
		</g>
		<g>
			<g>
				<rect x="17.954" y="64.553" style="fill:#505050;" width="0.211" height="12.667"/>
			</g>
		</g>
		<g>
			<g>
				<circle style="fill:#505050;" cx="19.14" cy="72.133" r="0.573"/>
			</g>
		</g>
		<g>
			<g>
				<circle style="fill:#505050;" cx="19.14" cy="75.936" r="0.573"/>
			</g>
		</g>
	</g>
	<g>
		<g>
			<g>
				<path style="fill:#D0D0D0;" d="M89.833,77.949L88.45,64.877c-0.263-0.898-0.895-1.351-2.121-1.849l-3.883,9.971l0.794,4.951
					H89.833z"/>
			</g>
		</g>
		<g>
			<g>
				<path style="fill:#D0D0D0;" d="M61.347,77.949c0.973-4.677,1.873-9.058,1.873-9.058c0.071-0.364-1.998-2.267-2.258-2.531
					l-2.022-2.056c-0.589-0.599-1.602-0.365-1.868,0.431l-2.689,13.213H61.347z"/>
			</g>
		</g>
		<g>
			<g>
				<rect x="68.69" y="55.286" style="fill:#DEAD8E;" width="8.255" height="9.535"/>
			</g>
		</g>
		<g>
			<g>
				<g>
					<path style="fill:#EAB99A;" d="M77.492,51.108L77.492,51.108c0.597,0.218,1.226-0.104,1.396-0.716l0.528-1.889
						c0.147-0.524-0.152-1.105-0.663-1.292l0,0c-0.597-0.218-1.226,0.104-1.396,0.717l-0.528,1.889
						C76.683,50.34,76.982,50.922,77.492,51.108z"/>
				</g>
			</g>
			<g>
				<g>
					<path style="fill:#EAB99A;" d="M78.034,45.541l0.171,6.789c0.014,0.552-0.084,1.175-0.368,1.84
						c-0.687,1.613-0.687,1.613-3.044,3.979c-0.28,0.287-1.02,0.548-1.935,0.556c-0.154,0.004-0.301,0.007-0.44,0.003
						c-0.716-0.043-1.281-0.233-1.527-0.461c-2.472-2.246-2.472-2.246-3.239-3.822c-0.316-0.65-0.445-1.267-0.459-1.819
						l-0.171-6.789c-0.052-2.079,1.406-3.817,3.241-3.863l4.342-0.109C76.44,41.799,77.983,43.462,78.034,45.541z"/>
				</g>
			</g>
			<g>
				<g>
					<path style="fill:#F4CAAF;" d="M77.154,45.563l0.17,6.789c0.014,0.552-0.077,1.174-0.361,1.839
						c-0.687,1.613-0.687,1.613-3.044,3.979c-0.24,0.241-0.789,0.458-1.501,0.537c-0.716-0.043-1.281-0.233-1.527-0.461
						c-2.472-2.246-2.472-2.246-3.239-3.822c-0.316-0.65-0.445-1.267-0.459-1.819l-0.171-6.789
						c-0.052-2.079,1.406-3.817,3.241-3.863l3.462-0.086C75.559,41.821,77.103,43.484,77.154,45.563z"/>
				</g>
			</g>
			<g>
				<g>
					<path style="fill:#F4CAAF;" d="M67.787,51.352L67.787,51.352c-0.585,0.248-1.229-0.043-1.431-0.646l-0.622-1.86
						c-0.172-0.516,0.097-1.112,0.598-1.324l0,0c0.586-0.248,1.229,0.042,1.431,0.646l0.622,1.86
						C68.558,50.544,68.288,51.14,67.787,51.352z"/>
				</g>
			</g>
			<g>
				<g>
					<polygon style="fill:#5D2C10;" points="79.054,46.537 78.068,50.359 76.723,45.665 76.013,46.613 74.712,46.918 74.705,46.926 
						68.548,48.374 67.138,50.444 66.43,45.355 68.141,40.108 75.147,38.707 76.581,40.002 78.521,41.747 					"/>
				</g>
			</g>
			<g>
				<g>
					<path style="fill:#7D4C2E;" d="M76.581,40.002l0.085,3.379c0.039,1.557-0.774,2.924-1.954,3.536l-0.007,0.008l-6.157,1.448
						l-1.41,2.07l-0.708-5.088l1.711-5.247l7.006-1.401L76.581,40.002z"/>
				</g>
			</g>
		</g>
		<g>
			<g>
				<path style="fill:#E0E0E0;" d="M57.029,66.382c0.878,3.842,2.015,7.681,3.062,11.567h25.297
					c0.944-3.766,1.975-7.616,2.883-11.527c0-0.016,0.008-0.032,0.008-0.047c0.318-1.374-0.413-2.749-1.677-3.282
					c-0.134-0.06-8.818-1.859-9.359-1.859l-4.09,4.475l-5.063-4.475c-0.459,0-8.489,1.62-8.938,1.708
					c-1.407,0.341-2.32,1.676-2.178,3.083C56.982,66.144,57.006,66.263,57.029,66.382z"/>
			</g>
		</g>
		<g>
			<g>
				<polygon style="fill:#E0E0E0;" points="85.133,77.949 85.242,75.871 59.617,74.387 59.844,77.949 				"/>
			</g>
		</g>
		<g>
			<g>
				<polygon style="fill:#3C4A58;" points="74.194,77.949 73.133,66.883 72.545,66.883 71.459,77.949 				"/>
			</g>
		</g>
		<g>
			<g>
				<polygon style="fill:#D0D0D0;" points="85.074,77.949 85.242,72.401 84.484,77.949 				"/>
			</g>
		</g>
		<g>
			<g>
				<path style="fill:#3C4A58;" d="M73.086,67.23h-0.538c-0.598,0-1.086-0.489-1.086-1.086v-0.315c0-0.598,0.488-1.086,1.086-1.086
					h0.538c0.598,0,1.086,0.488,1.086,1.086v0.315C74.172,66.741,73.684,67.23,73.086,67.23z"/>
			</g>
		</g>
		<g>
			<g>
				<polygon style="fill:#FFFFFF;" points="68.09,61.233 63.789,62.027 70.033,67.56 72,64.666 				"/>
			</g>
		</g>
		<g>
			<g>
				<polygon style="fill:#FFFFFF;" points="77.191,61.233 81.492,62.027 75.249,67.56 73.281,64.666 				"/>
			</g>
		</g>
	</g>
	<g>
		<g>
			<g>
				<g>
					<g>
						
							<rect x="26.874" y="45.447" transform="matrix(0.0493 -0.9988 0.9988 0.0493 -18.7285 86.2491)" style="fill:#E0E0E0;" width="18.138" height="15.032"/>
					</g>
				</g>
			</g>
		</g>
		<g>
			<g>
				<g>
					<g>
						
							<rect x="22.602" y="52.484" transform="matrix(-0.0493 0.9988 -0.9988 -0.0493 85.9204 23.7209)" style="fill:#C0C0C0;" width="18.138" height="0.536"/>
					</g>
				</g>
			</g>
		</g>
		<g>
			<g>
				<g>
					<g>
						
							<rect x="28.623" y="52.781" transform="matrix(-0.0494 0.9988 -0.9988 -0.0494 92.5373 18.0223)" style="fill:#C0C0C0;" width="18.138" height="0.536"/>
					</g>
				</g>
			</g>
		</g>
		<g>
			<g>
				<g>
					<g>
						
							<rect x="19.887" y="52.55" transform="matrix(-0.0493 0.9988 -0.9988 -0.0493 82.9376 26.2915)" style="fill:#C0C0C0;" width="18.138" height="0.135"/>
					</g>
				</g>
			</g>
		</g>
		<g>
			<g>
				<g>
					<g>
						
							<rect x="21.075" y="52.608" transform="matrix(-0.0493 0.9988 -0.9988 -0.0493 84.2429 25.1667)" style="fill:#C0C0C0;" width="18.138" height="0.136"/>
					</g>
				</g>
			</g>
		</g>
		<g>
			<g>
				<g>
					<g>
						
							<rect x="23.831" y="52.745" transform="matrix(-0.0493 0.9988 -0.9988 -0.0493 87.27 22.5574)" style="fill:#C0C0C0;" width="18.138" height="0.135"/>
					</g>
				</g>
			</g>
		</g>
		<g>
			<g>
				<g>
					<g>
						
							<rect x="25.018" y="52.803" transform="matrix(-0.0494 0.9988 -0.9988 -0.0494 88.5763 21.4358)" style="fill:#C0C0C0;" width="18.138" height="0.136"/>
					</g>
				</g>
			</g>
		</g>
		<g>
			<g>
				<g>
					<g>
						
							<rect x="26.207" y="52.862" transform="matrix(-0.0493 0.9988 -0.9988 -0.0493 89.8811 20.3074)" style="fill:#C0C0C0;" width="18.138" height="0.136"/>
					</g>
				</g>
			</g>
		</g>
		<g>
			<g>
				<g>
					<g>
						
							<rect x="27.395" y="52.921" transform="matrix(-0.0493 0.9988 -0.9988 -0.0493 91.1862 19.1823)" style="fill:#C0C0C0;" width="18.138" height="0.135"/>
					</g>
				</g>
			</g>
		</g>
		<g>
			<g>
				<g>
					<g>
						
							<rect x="29.794" y="53.039" transform="matrix(-0.0494 0.9988 -0.9988 -0.0494 93.8242 16.913)" style="fill:#C0C0C0;" width="18.138" height="0.136"/>
					</g>
				</g>
			</g>
		</g>
		<g>
			<g>
				<g>
					<g>
						
							<rect x="30.983" y="53.098" transform="matrix(-0.0493 0.9988 -0.9988 -0.0493 95.1279 15.7845)" style="fill:#C0C0C0;" width="18.138" height="0.135"/>
					</g>
				</g>
			</g>
		</g>
		<g>
			<g>
				<g>
					<g>
						
							<rect x="32.171" y="53.156" transform="matrix(-0.0493 0.9988 -0.9988 -0.0493 96.433 14.6594)" style="fill:#C0C0C0;" width="18.138" height="0.136"/>
					</g>
				</g>
			</g>
		</g>
		<g>
			<g>
				<g>
					<g>
						
							<rect x="33.36" y="53.216" transform="matrix(-0.0493 0.9988 -0.9988 -0.0493 97.7394 13.5336)" style="fill:#C0C0C0;" width="18.138" height="0.135"/>
					</g>
				</g>
			</g>
		</g>
		<g>
			<g>
				<g>
					<g>
						
							<rect x="35.538" y="48.3" transform="matrix(0.0501 -0.9987 0.9987 0.0501 -21.7382 88.777)" style="fill:#C0C0C0;" width="0.527" height="15.032"/>
					</g>
				</g>
			</g>
		</g>
		<g>
			<g>
				<g>
					<g>
						
							<rect x="35.831" y="42.375" transform="matrix(0.0481 -0.9988 0.9988 0.0481 -15.4738 83.5447)" style="fill:#C0C0C0;" width="0.526" height="15.032"/>
					</g>
				</g>
			</g>
		</g>
		<g>
			<g>
				<g>
					<g>
						
							<rect x="35.487" y="53.312" transform="matrix(0.0435 -0.9991 0.9991 0.0435 -26.7627 93.7043)" style="fill:#C0C0C0;" width="0.133" height="15.032"/>
					</g>
				</g>
			</g>
		</g>
		<g>
			<g>
				<g>
					<g>
						
							<rect x="35.545" y="52.143" transform="matrix(0.0443 -0.999 0.999 0.0443 -25.5657 92.5948)" style="fill:#C0C0C0;" width="0.133" height="15.032"/>
					</g>
				</g>
			</g>
		</g>
		<g>
			<g>
				<g>
					<g>
						
							<rect x="35.602" y="50.974" transform="matrix(0.0442 -0.999 0.999 0.0442 -24.3408 91.5376)" style="fill:#C0C0C0;" width="0.133" height="15.032"/>
					</g>
				</g>
			</g>
		</g>
		<g>
			<g>
				<g>
					<g>
						
							<rect x="35.661" y="49.804" transform="matrix(0.0518 -0.9987 0.9987 0.0518 -23.3681 90.0269)" style="fill:#C0C0C0;" width="0.133" height="15.032"/>
					</g>
				</g>
			</g>
		</g>
		<g>
			<g>
				<g>
					<g>
						
							<rect x="35.794" y="47.092" transform="matrix(0.0517 -0.9987 0.9987 0.0517 -20.5294 87.5952)" style="fill:#C0C0C0;" width="0.133" height="15.032"/>
					</g>
				</g>
			</g>
		</g>
		<g>
			<g>
				<g>
					<g>
						
							<rect x="35.852" y="45.922" transform="matrix(0.0517 -0.9987 0.9987 0.0517 -19.3051 86.5463)" style="fill:#C0C0C0;" width="0.133" height="15.032"/>
					</g>
				</g>
			</g>
		</g>
		<g>
			<g>
				<g>
					<g>
						
							<rect x="35.91" y="44.752" transform="matrix(0.0509 -0.9987 0.9987 0.0509 -18.0573 85.5358)" style="fill:#C0C0C0;" width="0.133" height="15.033"/>
					</g>
				</g>
			</g>
		</g>
		<g>
			<g>
				<g>
					<g>
						
							<rect x="35.967" y="43.583" transform="matrix(0.0507 -0.9987 0.9987 0.0507 -16.8264 84.4958)" style="fill:#C0C0C0;" width="0.134" height="15.033"/>
					</g>
				</g>
			</g>
		</g>
		<g>
			<g>
				<g>
					<g>
						
							<rect x="36.084" y="41.221" transform="matrix(0.0511 -0.9987 0.9987 0.0511 -14.3709 82.3474)" style="fill:#C0C0C0;" width="0.133" height="15.032"/>
					</g>
				</g>
			</g>
		</g>
		<g>
			<g>
				<g>
					<g>
						
							<rect x="36.142" y="40.051" transform="matrix(0.0509 -0.9987 0.9987 0.0509 -13.1415 81.3053)" style="fill:#C0C0C0;" width="0.133" height="15.032"/>
					</g>
				</g>
			</g>
		</g>
		<g>
			<g>
				<g>
					<g>
						
							<rect x="36.199" y="38.881" transform="matrix(0.0509 -0.9987 0.9987 0.0509 -11.9187 80.2528)" style="fill:#C0C0C0;" width="0.133" height="15.032"/>
					</g>
				</g>
			</g>
		</g>
		<g>
			<g>
				<g>
					<g>
						
							<rect x="36.258" y="37.712" transform="matrix(0.0516 -0.9987 0.9987 0.0516 -10.7196 79.1683)" style="fill:#C0C0C0;" width="0.133" height="15.033"/>
					</g>
				</g>
			</g>
		</g>
		<g>
			<g>
				<g>
					<g>
						<path style="fill:#404040;" d="M40.055,55.967c-0.35-0.672-0.813-1.249-1.321-1.679c0.111-0.601,0.186-1.228,0.218-1.875
							c0.082-1.668-0.105-3.58-0.504-5.115c-0.272-1.052-0.884-2.825-1.924-2.876c-1.039-0.051-1.822,1.652-2.197,2.672
							c-0.548,1.489-0.924,3.373-1.006,5.041c-0.033,0.666-0.02,1.315,0.036,1.937c-0.524,0.374-1.017,0.885-1.416,1.495
							c-0.562,0.859-0.879,1.804-0.893,2.662c-0.013,0.879,0.295,1.566,0.882,1.943l0.135,0.085l2.185-3.335l1.24,0.062
							c-0.007,0.116-0.013,0.238-0.019,0.364c-0.193,3.904,0.142,3.921,0.269,3.927c0.126,0.006,0.461,0.023,0.653-3.882
							c0.007-0.126,0.012-0.248,0.017-0.364l1.217,0.06l1.774,3.394l0.08,0.137l0.143-0.071c0.608-0.309,0.985-0.962,1.061-1.844
							C40.754,57.849,40.531,56.877,40.055,55.967z M39.607,60.192l-1.717-3.289c0.105-0.207,0.206-0.425,0.296-0.653
							c0.06-0.154,0.119-0.314,0.171-0.479c0.034-0.102,0.067-0.206,0.099-0.312c0.046-0.156,0.09-0.316,0.129-0.48
							c0.028-0.112,0.052-0.227,0.075-0.341c0.424,0.39,0.811,0.893,1.112,1.472c0.448,0.858,0.658,1.77,0.593,2.566
							C40.304,59.38,40.035,59.914,39.607,60.192z M36.073,57.376c-0.073,1.477-0.195,2.578-0.298,3.163
							c-0.047-0.592-0.059-1.7,0.015-3.177c0.006-0.126,0.014-0.245,0.021-0.364c0.002-0.052,0.005-0.106,0.008-0.158
							c0.004-0.054,0.007-0.104,0.011-0.156c0.072-1.135,0.172-1.993,0.259-2.485c0.039,0.498,0.053,1.362,0.014,2.498
							c-0.003,0.052-0.004,0.103-0.006,0.157c-0.002,0.052-0.005,0.106-0.006,0.158C36.084,57.131,36.079,57.25,36.073,57.376z
							 M36.443,54.821c-0.004-0.139-0.01-0.265-0.018-0.376c-0.01-0.167-0.024-0.306-0.04-0.421
							c-0.009-0.065-0.018-0.122-0.027-0.172c-0.013-0.062-0.025-0.114-0.038-0.158c-0.02-0.065-0.042-0.111-0.062-0.145
							c-0.051-0.081-0.101-0.084-0.134-0.085c-0.035-0.002-0.087-0.003-0.147,0.078c-0.024,0.032-0.048,0.078-0.073,0.14
							c-0.003,0.009-0.007,0.018-0.011,0.026c-0.004,0.012-0.008,0.024-0.014,0.037c-0.009,0.027-0.018,0.057-0.028,0.089
							c-0.01,0.031-0.019,0.065-0.028,0.102c-0.029,0.112-0.059,0.252-0.087,0.424c-0.02,0.111-0.037,0.235-0.057,0.377
							c-0.062,0.459-0.12,1.082-0.173,1.931l-1.058-0.052l-0.185-0.009l-0.033-0.001c-0.02-0.05-0.036-0.103-0.056-0.154
							c-0.058-0.162-0.113-0.328-0.163-0.504c-0.044-0.154-0.085-0.314-0.12-0.479c-0.023-0.1-0.045-0.203-0.064-0.308
							c-0.03-0.154-0.057-0.313-0.079-0.478c-0.022-0.15-0.038-0.306-0.055-0.461c-0.007-0.058-0.015-0.114-0.019-0.172
							c-0.006-0.059-0.008-0.118-0.013-0.176c-0.041-0.556-0.052-1.131-0.022-1.721c0.081-1.639,0.448-3.489,0.985-4.95
							c0.578-1.573,1.281-2.494,1.882-2.464c0.6,0.03,1.21,1.015,1.63,2.638c0.391,1.506,0.574,3.384,0.493,5.022
							c-0.028,0.574-0.092,1.129-0.185,1.666c-0.011,0.058-0.019,0.116-0.029,0.173c-0.011,0.058-0.022,0.114-0.034,0.171
							c-0.034,0.169-0.068,0.336-0.109,0.5c-0.038,0.159-0.081,0.313-0.126,0.467c-0.029,0.102-0.06,0.202-0.094,0.301
							c-0.053,0.16-0.108,0.314-0.166,0.463c-0.057,0.143-0.117,0.281-0.181,0.416c-0.028,0.061-0.057,0.121-0.086,0.18
							c-0.007,0.012-0.012,0.025-0.019,0.038l-0.145-0.007l-1.035-0.051C36.453,55.891,36.457,55.279,36.443,54.821z M31.368,58.233
							c0.012-0.799,0.312-1.685,0.842-2.496c0.341-0.521,0.751-0.964,1.188-1.304c0.012,0.097,0.02,0.195,0.034,0.291
							c0.023,0.167,0.052,0.332,0.081,0.491c0.021,0.109,0.044,0.216,0.066,0.32c0.038,0.17,0.08,0.336,0.126,0.494
							c0.074,0.265,0.16,0.518,0.255,0.751l-1.987,3.034C31.571,59.49,31.357,58.935,31.368,58.233z"/>
					</g>
				</g>
			</g>
			<g>
				<g>
					<g>
						<path style="fill:#404040;" d="M36.367,47.588c-0.819-0.04-1.52,0.583-1.56,1.39c-0.039,0.806,0.596,1.497,1.415,1.537
							c0.82,0.04,1.52-0.584,1.56-1.39C37.822,48.318,37.188,47.628,36.367,47.588z M36.238,50.2
							c-0.644-0.032-1.142-0.573-1.11-1.207c0.031-0.634,0.58-1.124,1.224-1.092c0.644,0.032,1.142,0.574,1.11,1.207
							C37.431,49.743,36.882,50.232,36.238,50.2z"/>
					</g>
				</g>
			</g>
			<g>
				<g>
					<g>
						<path style="fill:#404040;" d="M36.201,50.958c-0.483-0.024-0.896,0.344-0.92,0.82c-0.023,0.476,0.352,0.882,0.834,0.906
							c0.483,0.024,0.896-0.344,0.92-0.819C37.059,51.388,36.685,50.982,36.201,50.958z M36.131,52.37
							c-0.308-0.015-0.546-0.274-0.531-0.577c0.016-0.302,0.278-0.536,0.586-0.521c0.308,0.015,0.545,0.273,0.53,0.576
							C36.701,52.151,36.439,52.385,36.131,52.37z"/>
					</g>
				</g>
			</g>
		</g>
	</g>
	<g>
		<g>
			<g>
				<g>
					
						<rect x="42.095" y="41.093" transform="matrix(1 -0.006 0.006 1 -0.2933 0.3214)" style="fill:#FFFFFF;" width="22.526" height="15.808"/>
				</g>
			</g>
		</g>
		<g>
			<g>
				<g>
					<g>
						<g>
							<path style="fill:#BCCAD8;" d="M53.753,49.066c-0.162-0.094-0.554,0.233-1.042,0.833c0.298-0.773,0.394-1.312,0.228-1.451
								c-0.2-0.08-0.63,0.265-1.167,0.893c0.292-0.716,0.393-1.217,0.23-1.314c-0.296-0.176-1.356,1.063-2.369,2.765
								c-1.014,1.705-1.593,3.228-1.295,3.405c0.104,0.064,0.31-0.054,0.572-0.311c-0.611,1.286-0.888,2.254-0.656,2.449
								c0.278,0.109,0.997-0.597,1.833-1.75c-0.098,0.354-0.104,0.59,0.002,0.653c0.297,0.177,1.357-1.062,2.368-2.768
								C53.471,50.768,54.05,49.244,53.753,49.066z"/>
						</g>
					</g>
				</g>
			</g>
			<g>
				<g>
					<g>
						<g>
							<path style="fill:#ACBAC8;" d="M52.398,50.592c-0.102-0.06-0.331,0.12-0.61,0.453c0.16-0.437,0.206-0.749,0.103-0.833
								c-0.124-0.049-0.375,0.139-0.684,0.49c0.158-0.405,0.209-0.694,0.106-0.754c-0.183-0.109-0.794,0.583-1.366,1.541
								c-0.57,0.962-0.883,1.829-0.701,1.938c0.067,0.039,0.189-0.025,0.343-0.167c-0.342,0.729-0.483,1.282-0.341,1.399
								c0.172,0.07,0.589-0.322,1.067-0.966c-0.05,0.202-0.049,0.337,0.016,0.379c0.186,0.107,0.795-0.582,1.366-1.542
								C52.267,51.566,52.582,50.7,52.398,50.592z"/>
						</g>
					</g>
				</g>
			</g>
			<g>
				<g>
					<g>
						<g>
							<path style="fill:#F9B14D;" d="M52.751,48.795c0,0.001,0,0.003,0.003,0.006l-5.728,3.211
								c-0.002-0.001-0.003-0.003-0.004-0.005c-0.553-0.985,0.283-2.505,1.863-3.393C50.467,47.729,52.196,47.81,52.751,48.795z"/>
						</g>
					</g>
				</g>
			</g>
			<g>
				<g>
					<g>
						<g>
							<path style="fill:#F9B14D;" d="M52.742,48.789c-0.001,0-0.006,0-0.006,0l-0.082,6.565c0.003,0,0.004,0,0.007,0
								c1.128,0.015,2.062-1.441,2.087-3.256C54.769,50.285,53.871,48.804,52.742,48.789z"/>
						</g>
					</g>
				</g>
			</g>
			<g>
				<g>
					<g>
						<g>
							<path style="fill:#DC4437;" d="M55.388,48.807c-0.41,0.692-0.863,1.311-1.327,1.833c-0.098,0.11-0.196,0.216-0.296,0.317
								c-0.062,0.069-0.132,0.136-0.198,0.201c-0.109,0.105-0.215,0.205-0.325,0.297c-0.19,0.166-0.381,0.313-0.563,0.439
								l-2.679-1.589c0.024-0.225,0.062-0.46,0.119-0.707c0.029-0.139,0.062-0.283,0.106-0.429c0.022-0.087,0.049-0.179,0.079-0.27
								c0.042-0.135,0.086-0.273,0.139-0.41c0.235-0.658,0.566-1.352,0.973-2.042c0.757-1.271,1.815-2.571,2.83-3.492
								c1.062-0.96,2.069-1.508,2.629-1.174c0.562,0.333,0.563,1.481,0.226,2.87C56.777,45.984,56.142,47.537,55.388,48.807z"/>
						</g>
					</g>
				</g>
			</g>
			<g>
				<g>
					<g>
						<g>
							<path style="fill:#850309;" d="M57.101,44.653l-2.855-1.696c1.062-0.96,2.069-1.508,2.629-1.174
								C57.436,42.116,57.438,43.264,57.101,44.653z"/>
						</g>
					</g>
				</g>
			</g>
			<g>
				<g>
					<g>
						<g>
							<path style="fill:#850309;" d="M54.061,50.64c-0.098,0.11-0.196,0.216-0.296,0.317l-3.461-2.057
								c0.042-0.135,0.086-0.273,0.139-0.41L54.061,50.64z"/>
						</g>
					</g>
				</g>
			</g>
			<g>
				<g>
					<g>
						<g>
							<path style="fill:#850309;" d="M53.566,51.159c-0.109,0.105-0.215,0.205-0.325,0.297L50.118,49.6
								c0.029-0.139,0.062-0.283,0.106-0.429L53.566,51.159z"/>
						</g>
					</g>
				</g>
			</g>
			<g>
				<g>
					<g>
						<g>
							<path style="fill:#F9B14D;" d="M51.362,51.655c-0.933,1.57-1.792,2.786-1.917,2.711c-0.124-0.074,0.531-1.407,1.467-2.982
								c0.936-1.571,1.794-2.786,1.918-2.713C52.954,48.746,52.297,50.082,51.362,51.655z"/>
						</g>
					</g>
				</g>
			</g>
			<g>
				<g>
					<g>
						<g>
							<path style="fill:#C5D3E1;" d="M55.849,45.771c-0.325,0.547-1.035,0.729-1.583,0.401c-0.549-0.324-0.729-1.032-0.402-1.582
								c0.325-0.547,1.034-0.728,1.583-0.401C55.991,44.513,56.175,45.223,55.849,45.771z"/>
						</g>
					</g>
				</g>
				<g>
					<g>
						<g>
							<path style="fill:#850309;" d="M54.215,46.26c-0.596-0.354-0.793-1.126-0.439-1.722c0.354-0.595,1.127-0.792,1.724-0.439
								c0.595,0.355,0.791,1.13,0.438,1.723C55.583,46.417,54.811,46.615,54.215,46.26z M55.394,44.276
								c-0.498-0.296-1.146-0.132-1.44,0.367c-0.298,0.498-0.132,1.146,0.366,1.44c0.498,0.297,1.146,0.133,1.44-0.366
								C56.058,45.217,55.893,44.573,55.394,44.276z"/>
						</g>
					</g>
				</g>
			</g>
			<g>
				<g>
					<g>
						<g>
							<circle style="fill:#C5D3E1;" cx="53.605" cy="47.285" r="0.624"/>
						</g>
					</g>
				</g>
				<g>
					<g>
						<g>
							<path style="fill:#850309;" d="M53.234,47.91c-0.345-0.203-0.458-0.652-0.254-0.997c0.206-0.343,0.653-0.458,0.996-0.252
								c0.345,0.205,0.46,0.651,0.253,0.995C54.026,48,53.579,48.114,53.234,47.91z M53.872,46.838
								c-0.247-0.149-0.568-0.066-0.715,0.181c-0.147,0.246-0.064,0.567,0.183,0.715c0.245,0.145,0.568,0.065,0.714-0.182
								C54.2,47.303,54.119,46.985,53.872,46.838z"/>
						</g>
					</g>
				</g>
			</g>
		</g>
	</g>
	<g>
		<g>
			<circle style="fill:#DC4437;" cx="36.094" cy="43.927" r="1.093"/>
		</g>
	</g>
	<g>
		<g>
			<circle style="fill:#455556;" cx="43.9" cy="41.407" r="0.939"/>
		</g>
	</g>
	<g>
		<g>
			<circle style="fill:#455556;" cx="62.282" cy="41.029" r="0.939"/>
		</g>
	</g>
	<g>
		<g>
			<path style="fill:#DC4437;" d="M48.739,63.413c-0.012,0-0.024-0.001-0.036-0.003c-0.098-0.016-0.175-0.089-0.194-0.186
				l-0.817-3.915l-2.725,1.72c-0.111,0.066-0.257,0.036-0.326-0.074c-0.07-0.111-0.037-0.256,0.073-0.327l3.015-1.901
				c0.065-0.042,0.146-0.046,0.218-0.018c0.071,0.031,0.124,0.094,0.14,0.17l0.758,3.635l1.465-2.577
				c0.059-0.105,0.187-0.148,0.296-0.102l1.957,0.812l1.3-2.066c0.04-0.064,0.108-0.105,0.185-0.11
				c0.074-0.013,0.148,0.026,0.196,0.084l2.314,2.772l3.422-3.442c0.044-0.045,0.104-0.07,0.168-0.07h6.284
				c0.131,0,0.236,0.106,0.236,0.236c0,0.13-0.105,0.236-0.236,0.236h-6.186l-3.535,3.557c-0.047,0.048-0.115,0.072-0.178,0.07
				c-0.066-0.003-0.129-0.034-0.171-0.085l-2.272-2.722l-1.233,1.96c-0.062,0.099-0.184,0.138-0.29,0.092l-1.948-0.808l-1.67,2.94
				C48.902,63.367,48.824,63.413,48.739,63.413z"/>
		</g>
	</g>
	<g>
		<g>
			<g>
				<path style="fill:#FD6D60;" d="M42.126,65.26L42.126,65.26c-0.228-0.052-0.373-0.281-0.32-0.51l0.638-2.795
					c0.053-0.229,0.281-0.373,0.51-0.32l0,0c0.229,0.052,0.372,0.281,0.32,0.509l-0.639,2.796
					C42.583,65.169,42.354,65.312,42.126,65.26z"/>
			</g>
		</g>
		<g>
			<g>
				<path style="fill:#E54D42;" d="M42.787,62.363L42.787,62.363c-0.268-0.061-0.438-0.331-0.377-0.599l0.751-3.29
					c0.062-0.268,0.331-0.438,0.6-0.377l0,0c0.269,0.062,0.438,0.331,0.377,0.6l-0.751,3.29
					C43.325,62.255,43.056,62.424,42.787,62.363z"/>
			</g>
		</g>
	</g>
</g>
</svg>
