<?xml version="1.0" encoding="utf-8"?>
<!-- Generator: Adobe Illustrator 19.1.0, SVG Export Plug-In . SVG Version: 6.00 Build 0)  -->
<!DOCTYPE svg PUBLIC "-//W3C//DTD SVG 1.1//EN" "http://www.w3.org/Graphics/SVG/1.1/DTD/svg11.dtd">
<svg version="1.1" id="illustrations" xmlns="http://www.w3.org/2000/svg" xmlns:xlink="http://www.w3.org/1999/xlink" x="0px"
	 y="0px" viewBox="-434 242.1 89.8 77.9" style="enable-background:new -434 242.1 89.8 77.9;" xml:space="preserve">
<style type="text/css">
	.st0{fill:#6D3C1F;}
	.st1{fill:#1A0738;}
	.st2{fill:#330E70;}
	.st3{fill:#5D2C10;}
	.st4{fill:#ECC19C;}
	.st5{fill:#F0D0B4;}
	.st6{fill:#C2A4F3;}
	.st7{fill:#F0F0F0;}
	.st8{fill:#808080;}
	.st9{fill:#707070;}
	.st10{fill:#926D5A;}
	.st11{fill:#9C7761;}
	.st12{fill:#B5917C;}
	.st13{fill:#2D241F;}
	.st14{fill:#505050;}
	.st15{fill:#D0D0D0;}
	.st16{fill:#DEAD8E;}
	.st17{fill:#EAB99A;}
	.st18{fill:#F4CAAF;}
	.st19{fill:#7D4C2E;}
	.st20{fill:#E0E0E0;}
	.st21{fill:#3C4A58;}
	.st22{fill:#FFFFFF;}
	.st23{fill:#C0C0C0;}
	.st24{fill:#404040;}
	.st25{fill:#BCCAD8;}
	.st26{fill:#ACBAC8;}
	.st27{fill:#E0A131;}
	.st28{fill:#E02634;}
	.st29{fill:#70131A;}
	.st30{fill:#C5D3E1;}
	.st31{fill:#455556;}
	.st32{fill:#A81D27;}
	.st33{fill:#8CC63F;}
	.st34{fill:#31D4E0;}
	.st35{fill:#6A26E0;}
</style>
<path class="st0" d="M-379.3,251.6c0-6.2-3.7-9.6-8.3-9.6c0,0,0,0,0,0c0,0,0,0,0,0c-4.6,0-8.3,3.3-8.3,9.6c0,1.8,0.8,10.4,0.6,12.5
	l7.3,1.8l8.2-2.3C-380,261.5-379.3,253.4-379.3,251.6z"/>
<path class="st1" d="M-395.5,279.7c0.1-1.1,0.2-2.3,0.2-3.5c0-0.1,0-0.1,0-0.2c0.1-1.9,0.2-3.9,0.3-5.6c0.1-2.7,0.1-4.8,0.1-5
	c0-1-0.7-1.8-1.6-2c-0.2-0.1-0.4-0.1-0.6-0.1c-1.1,0-2,0.8-2.1,1.8c0,0.1,0,0.1,0,0.2c-0.4,4.6-0.5,9.5-0.2,14.4
	C-399.4,279.7-395.5,279.7-395.5,279.7z"/>
<path class="st1" d="M-380.1,279.7c-0.1-1.1-0.2-2.3-0.2-3.5c0-0.1,0-0.1,0-0.2c-0.1-1.9-0.2-3.9-0.3-5.6c-0.1-2.7-0.1-4.8-0.1-5
	c0-1,0.7-1.8,1.6-2c0.2-0.1,0.4-0.1,0.6-0.1c1.1,0,2,0.8,2.1,1.8c0,0.1,0,0.1,0,0.2c0.4,4.6,0.5,9.5,0.2,14.4
	C-376.1,279.7-380.1,279.7-380.1,279.7z"/>
<path class="st2" d="M-376.5,266.2c0.3-1.2-0.4-2.5-1.7-2.7c-0.1,0-0.3,0-0.4,0h-2.5c-0.5,0-1.4-0.2-1.8-0.3c-0.3-0.1-0.2,0-0.5,0.1
	c0,0-3.5,1.1-4.4,1.3c-0.9-0.2-4.4-1.3-4.4-1.3c-0.3-0.1-0.2-0.2-0.5-0.1c-0.4,0.1-1.2,0.3-1.8,0.3h-2.5c-0.1,0-0.3,0-0.4,0
	c-1.2,0.2-2,1.5-1.7,2.7l1,3.7c0.2,0.6-0.1,1.2-0.3,1.8c-1.1,3.2,1.2,5.8,2.2,5.9c0.1,0.5,1.1,1.3,1.1,2.2h7h0.2h7
	c0-0.9,1-1.7,1.1-2.2c1.1-0.2,3.4-2.7,2.2-5.9c-0.2-0.6-0.4-1.2-0.3-1.8L-376.5,266.2z"/>
<path class="st3" d="M-391.8,247.2c3.7-2.5,4.5-2.5,8.3,0c3.8,2.5,0.1,16.1,0.1,16.1l-9-0.2C-392.4,263.1-395.5,249.7-391.8,247.2z"
	/>
<path class="st4" d="M-384.5,262.2c-0.1-0.1-0.2-0.2-0.3-0.4c-0.5-0.7-0.8-1.5-0.9-2.5h-4c-0.1,1-0.4,1.9-1,2.6
	c-0.1,0.1-0.1,0.2-0.2,0.3c-0.4,0.4-1,0.8-1.8,1c0.9,0.4,2.5,1.6,5,1.6c2.6,0,4.9-1.6,4.9-1.6C-383.5,262.9-384.1,262.6-384.5,262.2
	z"/>
<path class="st4" d="M-382.1,252c0,4-2.5,8.8-5.5,8.8c-0.1,0-0.3,0-0.4,0c-2.9-0.4-5.1-5-5.1-8.8c0-3.8,2.2-7,5.1-7.2
	c0.1,0,0.3,0,0.4,0C-384.6,244.7-382.1,248-382.1,252z"/>
<path class="st5" d="M-382.9,252c0,3.8-2.2,8.4-5.1,8.8c-2.9-0.4-5.1-5-5.1-8.8c0-0.1,0-0.2,0-0.4c0.1-2.7,1.3-5,3-6.1
	c0.5-0.3,1-0.6,1.5-0.7l0,0c0,0,0,0,0,0c0.2,0,0.3-0.1,0.5-0.1c0.4,0,0.7,0.1,1,0.2c2.1,0.7,3.7,3,4,5.9
	C-383,251.2-382.9,251.6-382.9,252z"/>
<path class="st4" d="M-382.6,250.8l-0.4,0l-10.1,0.8c0.1-2.7,1.3-5,3-6.1l1.5-0.7l0,0l0,0h0l1.5,0.2l2.2,0.2L-382.6,250.8z"/>
<path class="st0" d="M-391.1,245.4c0,0-1.7,3.5-1.5,5.4h10c0,0-0.7-3.9-1.5-5.6C-385.4,242.5-391,243.7-391.1,245.4z"/>
<path class="st3" d="M-386.5,250.8h1c0,0-0.1-4.7-1.2-5.6C-386.7,245.2-386.1,249.7-386.5,250.8L-386.5,250.8z"/>
<path class="st3" d="M-387.9,245.6c0,0-1.3,2.2-1.2,5.2l0,0h0.9C-388.3,250.8-388.3,246.1-387.9,245.6z"/>
<polygon class="st1" points="-395.4,263.4 -392,262.9 -387.6,273.5 "/>
<polygon class="st1" points="-379.8,263.4 -383.2,262.9 -387.6,273.5 "/>
<polygon class="st6" points="-391.7,263.7 -387.6,273.5 -383.2,262.9 "/>
<rect x="-409" y="279.7" class="st7" width="43.1" height="30.6"/>
<path class="st8" d="M-365.4,310.7h-44v-31.5h44C-365.4,279.2-365.4,310.7-365.4,310.7z M-408.5,309.8h42.1v-29.6h-42.1V309.8z"/>
<path class="st9" d="M-427.4,319.3l0.6-3.9l-3.6-10.2c-1.2,0.5-2.1,1.1-2.4,2l-1.3,12H-427.4z"/>
<path class="st9" d="M-397.7,319.3l-2.5-12.2c-0.3-0.8-1.3-1-1.9-0.4l-2,2.1c-0.3,0.3-2.3,2.2-2.3,2.5c0,0,0.8,3.7,1.7,8H-397.7z"/>
<polygon class="st10" points="-411.9,298.4 -410.9,306.4 -420.7,310.5 -420.1,298.4 "/>
<path class="st11" d="M-409.1,290.8l-0.4,1.9c-0.1,0.4-0.4,0.7-0.7,0.8c-0.2,0.1-0.4,0.1-0.6,0c-0.1,0-0.1,0-0.1-0.1h0
	c-0.4-0.2-0.7-0.7-0.6-1.2l0.2-1l0.1-0.6l0.1-0.3c0.1-0.4,0.3-0.6,0.6-0.7c0.1-0.1,0.2-0.1,0.4-0.1c0,0,0,0,0.1,0c0.1,0,0.2,0,0.3,0
	C-409.3,289.7-408.9,290.3-409.1,290.8z"/>
<path class="st11" d="M-410.2,295.9c-0.1,0.7-0.4,1.2-0.7,1.7c-0.2,0.3-0.5,0.6-0.8,0.8l-0.1,0.2l-1.9,2.4c-0.3,0.4-1.2,0.6-2,0.6
	c-0.3,0-0.5,0-0.8-0.1c-0.2-0.1-0.4-0.2-0.5-0.3l-2.4-2.2c-0.2-0.1-0.5-0.3-0.7-0.5c-0.1-0.1-0.1-0.1-0.2-0.2c-0.4-0.4-0.8-1-1-1.6
	c-0.2-0.4-0.3-0.9-0.3-1.4l-0.1-0.9l-0.3-3.7l0-0.2l-0.1-1.2c-0.2-2.3,1.2-4.3,3-4.5l2.6-0.2l1.5-0.1l0.8-0.1c1-0.1,2,0.4,2.7,1.3
	c0.5,0.7,0.9,1.6,1,2.6l0.1,1.2l0.2,2.1l0.1,1.8l0.1,0.9C-410.1,295-410.1,295.4-410.2,295.9z"/>
<path class="st12" d="M-411.4,288.5l0.5,6c0,0.5,0,1-0.1,1.4c-0.1,0.7-0.4,1.2-0.7,1.7c-0.2,0.3-0.5,0.6-0.8,0.8l-2,2.6
	c-0.2,0.3-0.7,0.5-1.2,0.6c-0.5,0-1.1-0.1-1.3-0.4l-2.4-2.2c-0.3-0.1-0.6-0.4-0.9-0.7c-0.4-0.4-0.8-1-1-1.6
	c-0.2-0.4-0.3-0.9-0.3-1.4l-0.5-6c-0.2-2.3,1.2-4.3,3-4.5l4.1-0.3C-413.2,284.4-411.6,286.2-411.4,288.5z"/>
<path class="st12" d="M-421.1,294.4L-421.1,294.4c-0.6,0.3-1.2,0-1.5-0.6l-0.7-1.8c-0.2-0.5,0-1.1,0.5-1.4l0,0
	c0.6-0.3,1.2,0,1.5,0.6l0.7,1.8C-420.4,293.5-420.6,294.1-421.1,294.4z"/>
<polygon points="-410,287.8 -410.2,289.5 -410.4,291.7 -410.5,292.7 -411.1,291.7 -411.4,291.3 -412.4,289.7 -414.1,289.5 
	-416.5,289.2 -420.2,288.8 -420.9,292.2 -421.2,293.8 -421.3,294 -421.3,293.8 -422,290.7 -422.1,290.5 -422.5,289 -421.7,283.8 
	-421,283.8 -420,281.5 -419.5,282.2 -418.5,280.7 -416.5,282 -415.8,282.4 -415.1,281.5 -411.8,284.3 -411.7,284.3 -411,283.6 "/>
<path class="st13" d="M-411.6,285.8c0,0.4,0,0.8-0.1,1.1c-0.3,1.2-1.2,2.2-2.3,2.5l-2.4-0.3l-3.7-0.4l-0.7,3.5l-0.3,1.5
	c0,0-0.1,0-0.1,0l-0.7-3l0-0.2l-0.4-1.5l0.8-5.1l0.7,0l1-2.3l0.6,0.7l0.9-1.5l2,1.2l0.7,0.5l0.7-1l3.4,2.8l0,0l0.1,1.3
	C-411.6,285.6-411.6,285.7-411.6,285.8z"/>
<path class="st8" d="M-431.6,308.3c0.8,3.7,1.9,7.3,2.9,11h25.6c0.4-1.6,0.8-3.1,1.2-4.7c0.5-2.1,1-4.1,1.5-6.2c0,0,0,0,0,0
	c0.3-1.4-0.4-2.7-1.7-3.3c-0.1-0.1-8.8-1.9-9.4-1.9c-0.4,1.7-3.2,3.6-4.6,3.5c-1-0.1-3.4-2-4.5-3.5c-0.5,0-8.5,1.6-8.9,1.7
	c-1.4,0.3-2.3,1.7-2.2,3.1C-431.7,308-431.7,308.1-431.6,308.3z"/>
<polygon class="st14" points="-420.5,303.1 -424.8,303.9 -418.6,309.4 -416,306.6 "/>
<polygon class="st14" points="-411.4,303.1 -407.1,303.9 -413.4,309.4 -416,306.6 "/>
<rect x="-416" y="306.6" class="st14" width="0.2" height="12.7"/>
<circle class="st14" cx="-414.9" cy="314.2" r="0.6"/>
<circle class="st14" cx="-414.9" cy="318" r="0.6"/>
<path class="st15" d="M-344.2,320l-1.4-13.1c-0.3-0.9-0.9-1.4-2.1-1.8l-3.9,10l0.8,5L-344.2,320L-344.2,320z"/>
<path class="st15" d="M-372.7,320c1-4.7,1.9-9.1,1.9-9.1c0.1-0.4-2-2.3-2.3-2.5l-2-2.1c-0.6-0.6-1.6-0.4-1.9,0.4l-2.7,13.2
	L-372.7,320L-372.7,320z"/>
<rect x="-365.3" y="297.3" class="st16" width="8.3" height="9.5"/>
<path class="st17" d="M-356.5,293.2L-356.5,293.2c0.6,0.2,1.2-0.1,1.4-0.7l0.5-1.9c0.1-0.5-0.2-1.1-0.7-1.3l0,0
	c-0.6-0.2-1.2,0.1-1.4,0.7l-0.5,1.9C-357.3,292.4-357,293-356.5,293.2z"/>
<path class="st17" d="M-356,287.6l0.2,6.8c0,0.6-0.1,1.2-0.4,1.8c-0.7,1.6-0.7,1.6-3,4c-0.3,0.3-1,0.5-1.9,0.6c-0.2,0-0.3,0-0.4,0
	c-0.7,0-1.3-0.2-1.5-0.5c-2.5-2.2-2.5-2.2-3.2-3.8c-0.3-0.7-0.4-1.3-0.5-1.8l-0.2-6.8c-0.1-2.1,1.4-3.8,3.2-3.9l4.3-0.1
	C-357.6,283.9-356,285.5-356,287.6z"/>
<path class="st18" d="M-356.8,287.6l0.2,6.8c0,0.6-0.1,1.2-0.4,1.8c-0.7,1.6-0.7,1.6-3,4c-0.2,0.2-0.8,0.5-1.5,0.5
	c-0.7,0-1.3-0.2-1.5-0.5c-2.5-2.2-2.5-2.2-3.2-3.8c-0.3-0.6-0.4-1.3-0.5-1.8l-0.2-6.8c-0.1-2.1,1.4-3.8,3.2-3.9l3.5-0.1
	C-358.4,283.9-356.9,285.5-356.8,287.6z"/>
<path class="st18" d="M-366.2,293.4L-366.2,293.4c-0.6,0.2-1.2,0-1.4-0.6l-0.6-1.9c-0.2-0.5,0.1-1.1,0.6-1.3l0,0
	c0.6-0.2,1.2,0,1.4,0.6l0.6,1.9C-365.4,292.6-365.7,293.2-366.2,293.4z"/>
<polygon class="st3" points="-354.9,288.6 -355.9,292.4 -357.3,287.7 -358,288.7 -359.3,289 -359.3,289 -365.5,290.4 -366.9,292.5 
	-367.6,287.4 -365.9,282.2 -358.9,280.8 -357.4,282.1 -355.5,283.8 "/>
<path class="st19" d="M-357.4,282.1l0.1,3.4c0,1.6-0.8,2.9-2,3.5l0,0l-6.2,1.4l-1.4,2.1l-0.7-5.1l1.7-5.2l7-1.4L-357.4,282.1z"/>
<path class="st20" d="M-377,308.4c0.9,3.8,2,7.7,3.1,11.6h25.3c0.9-3.8,2-7.6,2.9-11.5c0,0,0,0,0,0c0.3-1.4-0.4-2.7-1.7-3.3
	c-0.1-0.1-8.8-1.9-9.4-1.9l-4.1,4.5l-5.1-4.5c-0.5,0-8.5,1.6-8.9,1.7c-1.4,0.3-2.3,1.7-2.2,3.1C-377,308.2-377,308.3-377,308.4z"/>
<polygon class="st20" points="-348.9,320 -348.8,317.9 -374.4,316.4 -374.2,320 "/>
<polygon class="st21" points="-359.8,320 -360.9,308.9 -361.5,308.9 -362.5,320 "/>
<polygon class="st15" points="-348.9,320 -348.8,314.5 -349.5,320 "/>
<path class="st21" d="M-360.9,309.3h-0.5c-0.6,0-1.1-0.5-1.1-1.1v-0.3c0-0.6,0.5-1.1,1.1-1.1h0.5c0.6,0,1.1,0.5,1.1,1.1v0.3
	C-359.8,308.8-360.3,309.3-360.9,309.3z"/>
<polygon class="st22" points="-365.9,303.3 -370.2,304.1 -364,309.6 -362,306.7 "/>
<polygon class="st22" points="-356.8,303.3 -352.5,304.1 -358.8,309.6 -360.7,306.7 "/>
<g>
	
		<rect x="-407.1" y="287.5" transform="matrix(-4.929921e-02 0.9988 -0.9988 -4.929921e-02 -123.0284 707.1282)" class="st20" width="18.1" height="15"/>
</g>
<g>
	
		<rect x="-411.4" y="294.5" transform="matrix(4.929921e-02 -0.9988 0.9988 4.929921e-02 -676.9409 -121.5699)" class="st23" width="18.1" height="0.5"/>
</g>
<g>
	
		<rect x="-405.4" y="294.8" transform="matrix(4.939897e-02 -0.9988 0.9988 4.939897e-02 -671.4719 -115.3043)" class="st23" width="18.1" height="0.5"/>
</g>
<g>
	
		<rect x="-414.1" y="294.6" transform="matrix(4.929921e-02 -0.9988 0.9988 4.929921e-02 -679.3873 -124.4091)" class="st23" width="18.1" height="0.1"/>
</g>
<g>
	
		<rect x="-412.9" y="294.7" transform="matrix(4.929921e-02 -0.9988 0.9988 4.929921e-02 -678.3164 -123.1662)" class="st23" width="18.1" height="0.1"/>
</g>
<g>
	
		<rect x="-410.2" y="294.8" transform="matrix(4.929921e-02 -0.9988 0.9988 4.929921e-02 -675.8339 -120.2847)" class="st23" width="18.1" height="0.1"/>
</g>
<g>
	
		<rect x="-409" y="294.9" transform="matrix(4.939897e-02 -0.9988 0.9988 4.939897e-02 -674.7208 -119.0746)" class="st23" width="18.1" height="0.1"/>
</g>
<g>
	
		<rect x="-407.8" y="294.9" transform="matrix(4.929921e-02 -0.9988 0.9988 4.929921e-02 -673.6916 -117.7995)" class="st23" width="18.1" height="0.1"/>
</g>
<g>
	
		<rect x="-406.6" y="295" transform="matrix(4.929921e-02 -0.9988 0.9988 4.929921e-02 -672.6206 -116.5571)" class="st23" width="18.1" height="0.1"/>
</g>
<g>
	
		<rect x="-404.2" y="295.1" transform="matrix(4.939897e-02 -0.9988 0.9988 4.939897e-02 -670.416 -114.0801)" class="st23" width="18.1" height="0.1"/>
</g>
<g>
	
		<rect x="-403" y="295.2" transform="matrix(4.929921e-02 -0.9988 0.9988 4.929921e-02 -669.3864 -112.805)" class="st23" width="18.1" height="0.1"/>
</g>
<g>
	
		<rect x="-401.8" y="295.2" transform="matrix(4.929921e-02 -0.9988 0.9988 4.929921e-02 -668.3154 -111.5626)" class="st23" width="18.1" height="0.1"/>
</g>
<g>
	
		<rect x="-400.6" y="295.3" transform="matrix(4.929921e-02 -0.9988 0.9988 4.929921e-02 -667.2444 -110.3198)" class="st23" width="18.1" height="0.1"/>
</g>
<g>
	
		<rect x="-398.5" y="290.4" transform="matrix(-5.010221e-02 0.9987 -0.9987 -5.010221e-02 -120.6565 710.4943)" class="st23" width="0.5" height="15"/>
</g>
<g>
	
		<rect x="-398.2" y="284.4" transform="matrix(-4.810204e-02 0.9988 -0.9988 -4.810204e-02 -125.4398 703.4338)" class="st23" width="0.5" height="15"/>
</g>
<g>
	
		<rect x="-398.5" y="295.4" transform="matrix(-4.349797e-02 0.9991 -0.9991 -4.349797e-02 -113.1812 714.1202)" class="st23" width="0.1" height="15"/>
</g>
<g>
	
		<rect x="-398.5" y="294.2" transform="matrix(-4.430081e-02 0.999 -0.999 -4.430081e-02 -114.6211 713.0766)" class="st23" width="0.1" height="15"/>
</g>
<g>
	
		<rect x="-398.4" y="293" transform="matrix(-4.420100e-02 0.999 -0.999 -4.420100e-02 -115.6922 711.7687)" class="st23" width="0.1" height="15"/>
</g>
<g>
	
		<rect x="-398.3" y="291.8" transform="matrix(-5.179780e-02 0.9987 -0.9987 -5.179780e-02 -119.9374 712.6098)" class="st23" width="0.1" height="15"/>
</g>
<g>
	
		<rect x="-398.2" y="289.1" transform="matrix(-5.169807e-02 0.9987 -0.9987 -5.169807e-02 -122.4625 709.5981)" class="st23" width="0.1" height="15"/>
</g>
<g>
	
		<rect x="-398.1" y="288" transform="matrix(-5.169807e-02 0.9987 -0.9987 -5.169807e-02 -123.5664 708.3116)" class="st23" width="0.1" height="15"/>
</g>
<g>
	
		<rect x="-398.1" y="286.8" transform="matrix(-5.090019e-02 0.9987 -0.9987 -5.090019e-02 -124.3491 706.8079)" class="st23" width="0.1" height="15"/>
</g>
<g>
	
		<rect x="-398" y="285.6" transform="matrix(-5.070071e-02 0.9987 -0.9987 -5.070071e-02 -125.3702 705.4679)" class="st23" width="0.1" height="15"/>
</g>
<g>
	
		<rect x="-397.9" y="283.3" transform="matrix(-5.109967e-02 0.9987 -0.9987 -5.109967e-02 -127.7745 702.9746)" class="st23" width="0.1" height="15"/>
</g>
<g>
	
		<rect x="-397.9" y="282.1" transform="matrix(-5.090019e-02 0.9987 -0.9987 -5.090019e-02 -128.8005 701.6352)" class="st23" width="0.1" height="15"/>
</g>
<g>
	
		<rect x="-397.8" y="280.9" transform="matrix(-5.090019e-02 0.9987 -0.9987 -5.090019e-02 -129.9078 700.3496)" class="st23" width="0.1" height="15"/>
</g>
<g>
	
		<rect x="-397.7" y="279.8" transform="matrix(-5.159834e-02 0.9987 -0.9987 -5.159834e-02 -131.3018 699.2446)" class="st23" width="0.1" height="15"/>
</g>
<g>
	<path class="st24" d="M-393.9,298c-0.3-0.7-0.8-1.2-1.3-1.7c0.1-0.6,0.2-1.2,0.2-1.9c0.1-1.7-0.1-3.6-0.5-5.1
		c-0.3-1.1-0.9-2.8-1.9-2.9c-1-0.1-1.8,1.7-2.2,2.7c-0.5,1.5-0.9,3.4-1,5c0,0.7,0,1.3,0,1.9c-0.5,0.4-1,0.9-1.4,1.5
		c-0.6,0.9-0.9,1.8-0.9,2.7c0,0.9,0.3,1.6,0.9,1.9l0.1,0.1l2.2-3.3l1.2,0.1c0,0.1,0,0.2,0,0.4c-0.2,3.9,0.1,3.9,0.3,3.9
		c0.1,0,0.5,0,0.7-3.9c0-0.1,0-0.2,0-0.4l1.2,0.1l1.8,3.4l0.1,0.1l0.1-0.1c0.6-0.3,1-1,1.1-1.8C-393.2,299.9-393.5,298.9-393.9,298z
		 M-394.4,302.2l-1.7-3.3c0.1-0.2,0.2-0.4,0.3-0.7c0.1-0.2,0.1-0.3,0.2-0.5c0-0.1,0.1-0.2,0.1-0.3c0-0.2,0.1-0.3,0.1-0.5
		c0-0.1,0.1-0.2,0.1-0.3c0.4,0.4,0.8,0.9,1.1,1.5c0.4,0.9,0.7,1.8,0.6,2.6C-393.7,301.4-394,302-394.4,302.2z M-397.9,299.4
		c-0.1,1.5-0.2,2.6-0.3,3.2c0-0.6-0.1-1.7,0-3.2c0-0.1,0-0.2,0-0.4c0-0.1,0-0.1,0-0.2c0-0.1,0-0.1,0-0.2c0.1-1.1,0.2-2,0.3-2.5
		c0,0.5,0.1,1.4,0,2.5c0,0.1,0,0.1,0,0.2c0,0.1,0,0.1,0,0.2C-397.9,299.2-397.9,299.3-397.9,299.4z M-397.6,296.9c0-0.1,0-0.3,0-0.4
		c0-0.2,0-0.3,0-0.4c0-0.1,0-0.1,0-0.2c0-0.1,0-0.1,0-0.2c0-0.1,0-0.1-0.1-0.1c-0.1-0.1-0.1-0.1-0.1-0.1c0,0-0.1,0-0.1,0.1
		c0,0,0,0.1-0.1,0.1c0,0,0,0,0,0c0,0,0,0,0,0c0,0,0,0.1,0,0.1c0,0,0,0.1,0,0.1c0,0.1-0.1,0.3-0.1,0.4c0,0.1,0,0.2-0.1,0.4
		c-0.1,0.5-0.1,1.1-0.2,1.9l-1.1-0.1l-0.2,0l0,0c0,0,0-0.1-0.1-0.2c-0.1-0.2-0.1-0.3-0.2-0.5c0-0.2-0.1-0.3-0.1-0.5
		c0-0.1,0-0.2-0.1-0.3c0-0.2-0.1-0.3-0.1-0.5c0-0.2,0-0.3-0.1-0.5c0-0.1,0-0.1,0-0.2c0-0.1,0-0.1,0-0.2c0-0.6-0.1-1.1,0-1.7
		c0.1-1.6,0.4-3.5,1-4.9c0.6-1.6,1.3-2.5,1.9-2.5c0.6,0,1.2,1,1.6,2.6c0.4,1.5,0.6,3.4,0.5,5c0,0.6-0.1,1.1-0.2,1.7
		c0,0.1,0,0.1,0,0.2c0,0.1,0,0.1,0,0.2c0,0.2-0.1,0.3-0.1,0.5c0,0.2-0.1,0.3-0.1,0.5c0,0.1-0.1,0.2-0.1,0.3
		c-0.1,0.2-0.1,0.3-0.2,0.5c-0.1,0.1-0.1,0.3-0.2,0.4c0,0.1-0.1,0.1-0.1,0.2c0,0,0,0,0,0l-0.1,0l-1-0.1
		C-397.5,297.9-397.5,297.3-397.6,296.9z M-402.6,300.3c0-0.8,0.3-1.7,0.8-2.5c0.3-0.5,0.8-1,1.2-1.3c0,0.1,0,0.2,0,0.3
		c0,0.2,0.1,0.3,0.1,0.5c0,0.1,0,0.2,0.1,0.3c0,0.2,0.1,0.3,0.1,0.5c0.1,0.3,0.2,0.5,0.3,0.8l-2,3
		C-402.4,301.5-402.6,301-402.6,300.3z"/>
</g>
<g>
	<path class="st24" d="M-397.6,289.6c-0.8,0-1.5,0.6-1.6,1.4c0,0.8,0.6,1.5,1.4,1.5c0.8,0,1.5-0.6,1.6-1.4
		C-396.2,290.4-396.8,289.7-397.6,289.6z M-397.8,292.3c-0.6,0-1.1-0.6-1.1-1.2c0-0.6,0.6-1.1,1.2-1.1c0.6,0,1.1,0.6,1.1,1.2
		C-396.6,291.8-397.1,292.3-397.8,292.3z"/>
</g>
<g>
	<path class="st24" d="M-397.8,293c-0.5,0-0.9,0.3-0.9,0.8c0,0.5,0.4,0.9,0.8,0.9c0.5,0,0.9-0.3,0.9-0.8
		C-396.9,293.4-397.3,293-397.8,293z M-397.9,294.4c-0.3,0-0.5-0.3-0.5-0.6c0-0.3,0.3-0.5,0.6-0.5c0.3,0,0.5,0.3,0.5,0.6
		C-397.3,294.2-397.6,294.4-397.9,294.4z"/>
</g>
<rect x="-391.9" y="283.1" transform="matrix(-1 5.999892e-03 -5.999892e-03 -1 -759.5295 584.3771)" class="st22" width="22.5" height="15.8"/>
<g>
	<g>
		<path class="st25" d="M-380.2,291.1c-0.2-0.1-0.6,0.2-1,0.8c0.3-0.8,0.4-1.3,0.2-1.5c-0.2-0.1-0.6,0.3-1.2,0.9
			c0.3-0.7,0.4-1.2,0.2-1.3c-0.3-0.2-1.4,1.1-2.4,2.8c-1,1.7-1.6,3.2-1.3,3.4c0.1,0.1,0.3-0.1,0.6-0.3c-0.6,1.3-0.9,2.3-0.7,2.4
			c0.3,0.1,1-0.6,1.8-1.8c-0.1,0.4-0.1,0.6,0,0.7c0.3,0.2,1.4-1.1,2.4-2.8C-380.5,292.8-380,291.3-380.2,291.1z"/>
	</g>
</g>
<g>
	<g>
		<path class="st26" d="M-381.6,292.6c-0.1-0.1-0.3,0.1-0.6,0.5c0.2-0.4,0.2-0.7,0.1-0.8c-0.1,0-0.4,0.1-0.7,0.5
			c0.2-0.4,0.2-0.7,0.1-0.8c-0.2-0.1-0.8,0.6-1.4,1.5c-0.6,1-0.9,1.8-0.7,1.9c0.1,0,0.2,0,0.3-0.2c-0.3,0.7-0.5,1.3-0.3,1.4
			c0.2,0.1,0.6-0.3,1.1-1c0,0.2,0,0.3,0,0.4c0.2,0.1,0.8-0.6,1.4-1.5C-381.7,293.6-381.4,292.8-381.6,292.6z"/>
	</g>
</g>
<g>
	<g>
		<path class="st27" d="M-381.2,290.8C-381.2,290.8-381.2,290.8-381.2,290.8l-5.7,3.2c0,0,0,0,0,0c-0.6-1,0.3-2.5,1.9-3.4
			C-383.5,289.8-381.8,289.9-381.2,290.8z"/>
	</g>
</g>
<g>
	<g>
		<path class="st27" d="M-381.3,290.8C-381.3,290.8-381.3,290.8-381.3,290.8l-0.1,6.6c0,0,0,0,0,0c1.1,0,2.1-1.4,2.1-3.3
			C-379.2,292.3-380.1,290.9-381.3,290.8z"/>
	</g>
</g>
<g>
	<g>
		<path class="st28" d="M-378.6,290.9c-0.4,0.7-0.9,1.3-1.3,1.8c-0.1,0.1-0.2,0.2-0.3,0.3c-0.1,0.1-0.1,0.1-0.2,0.2
			c-0.1,0.1-0.2,0.2-0.3,0.3c-0.2,0.2-0.4,0.3-0.6,0.4l-2.7-1.6c0-0.2,0.1-0.5,0.1-0.7c0-0.1,0.1-0.3,0.1-0.4c0-0.1,0-0.2,0.1-0.3
			c0-0.1,0.1-0.3,0.1-0.4c0.2-0.7,0.6-1.4,1-2c0.8-1.3,1.8-2.6,2.8-3.5c1.1-1,2.1-1.5,2.6-1.2c0.6,0.3,0.6,1.5,0.2,2.9
			C-377.2,288-377.9,289.6-378.6,290.9z"/>
	</g>
</g>
<g>
	<g>
		<path class="st29" d="M-376.9,286.7l-2.9-1.7c1.1-1,2.1-1.5,2.6-1.2C-376.6,284.2-376.6,285.3-376.9,286.7z"/>
	</g>
</g>
<g>
	<g>
		<path class="st29" d="M-379.9,292.7c-0.1,0.1-0.2,0.2-0.3,0.3l-3.5-2.1c0-0.1,0.1-0.3,0.1-0.4L-379.9,292.7z"/>
	</g>
</g>
<g>
	<g>
		<path class="st29" d="M-380.4,293.2c-0.1,0.1-0.2,0.2-0.3,0.3l-3.1-1.9c0-0.1,0.1-0.3,0.1-0.4L-380.4,293.2z"/>
	</g>
</g>
<g>
	<g>
		<path class="st27" d="M-382.6,293.7c-0.9,1.6-1.8,2.8-1.9,2.7c-0.1-0.1,0.5-1.4,1.5-3c0.9-1.6,1.8-2.8,1.9-2.7
			C-381,290.8-381.7,292.1-382.6,293.7z"/>
	</g>
</g>
<g>
	<g>
		<path class="st30" d="M-378.2,287.8c-0.3,0.5-1,0.7-1.6,0.4c-0.5-0.3-0.7-1-0.4-1.6c0.3-0.5,1-0.7,1.6-0.4
			C-378,286.6-377.8,287.3-378.2,287.8z"/>
	</g>
</g>
<g>
	<g>
		<path class="st29" d="M-379.8,288.3c-0.6-0.4-0.8-1.1-0.4-1.7c0.4-0.6,1.1-0.8,1.7-0.4c0.6,0.4,0.8,1.1,0.4,1.7
			C-378.4,288.5-379.2,288.7-379.8,288.3z M-378.6,286.3c-0.5-0.3-1.1-0.1-1.4,0.4c-0.3,0.5-0.1,1.1,0.4,1.4
			c0.5,0.3,1.1,0.1,1.4-0.4C-377.9,287.3-378.1,286.6-378.6,286.3z"/>
	</g>
</g>
<g>
	<g>
		<circle class="st30" cx="-380.4" cy="289.3" r="0.6"/>
	</g>
</g>
<g>
	<g>
		<path class="st29" d="M-380.8,290c-0.3-0.2-0.5-0.7-0.3-1c0.2-0.3,0.7-0.5,1-0.3c0.3,0.2,0.5,0.7,0.3,1
			C-380,290.1-380.4,290.2-380.8,290z M-380.1,288.9c-0.2-0.1-0.6-0.1-0.7,0.2c-0.1,0.2-0.1,0.6,0.2,0.7c0.2,0.1,0.6,0.1,0.7-0.2
			C-379.8,289.4-379.9,289-380.1,288.9z"/>
	</g>
</g>
<circle class="st28" cx="-397.9" cy="286" r="1.1"/>
<circle class="st31" cx="-390.1" cy="283.5" r="0.9"/>
<circle class="st31" cx="-371.7" cy="283.1" r="0.9"/>
<path class="st28" d="M-385.3,305.5C-385.3,305.5-385.3,305.5-385.3,305.5c-0.1,0-0.2-0.1-0.2-0.2l-0.8-3.9l-2.7,1.7
	c-0.1,0.1-0.3,0-0.3-0.1c-0.1-0.1,0-0.3,0.1-0.3l3-1.9c0.1,0,0.1,0,0.2,0c0.1,0,0.1,0.1,0.1,0.2l0.8,3.6l1.5-2.6
	c0.1-0.1,0.2-0.1,0.3-0.1l2,0.8l1.3-2.1c0-0.1,0.1-0.1,0.2-0.1c0.1,0,0.1,0,0.2,0.1l2.3,2.8l3.4-3.4c0,0,0.1-0.1,0.2-0.1h6.3
	c0.1,0,0.2,0.1,0.2,0.2s-0.1,0.2-0.2,0.2h-6.2l-3.5,3.6c0,0-0.1,0.1-0.2,0.1c-0.1,0-0.1,0-0.2-0.1l-2.3-2.7l-1.2,2
	c-0.1,0.1-0.2,0.1-0.3,0.1l-1.9-0.8l-1.7,2.9C-385.1,305.4-385.2,305.5-385.3,305.5z"/>
<path class="st28" d="M-391.9,307.3L-391.9,307.3c-0.2-0.1-0.4-0.3-0.3-0.5l0.6-2.8c0.1-0.2,0.3-0.4,0.5-0.3l0,0
	c0.2,0.1,0.4,0.3,0.3,0.5l-0.6,2.8C-391.4,307.2-391.6,307.4-391.9,307.3z"/>
<path class="st32" d="M-391.2,304.4L-391.2,304.4c-0.3-0.1-0.4-0.3-0.4-0.6l0.8-3.3c0.1-0.3,0.3-0.4,0.6-0.4l0,0
	c0.3,0.1,0.4,0.3,0.4,0.6l-0.8,3.3C-390.7,304.3-390.9,304.5-391.2,304.4z"/>
<g>
	<g>
		<circle class="st28" cx="-508" cy="284.1" r="23.5"/>
	</g>
	<g>
		<circle class="st27" cx="-436.5" cy="186.2" r="23.5"/>
	</g>
	<g>
		<circle class="st33" cx="-322" cy="223.6" r="23.5"/>
	</g>
	<g>
		<circle class="st34" cx="-322" cy="343.9" r="23.5"/>
	</g>
	<g>
		<circle class="st35" cx="-436.5" cy="381.9" r="23.5"/>
	</g>
</g>
</svg>
