<?xml version="1.0" encoding="iso-8859-1"?>
<!-- Generator: Adobe Illustrator 19.1.0, SVG Export Plug-In . SVG Version: 6.00 Build 0)  -->
<!DOCTYPE svg PUBLIC "-//W3C//DTD SVG 1.1//EN" "http://www.w3.org/Graphics/SVG/1.1/DTD/svg11.dtd">
<svg version="1.1" id="illustrations" xmlns="http://www.w3.org/2000/svg" xmlns:xlink="http://www.w3.org/1999/xlink" x="0px"
	 y="0px" viewBox="0 0 82.767 79.412" style="enable-background:new 0 0 82.767 79.412;" xml:space="preserve">
<g>
	<g>
		<g>
			<path style="fill:#303030;" d="M81.555,61.083H37.052c-0.667,0-1.212-0.545-1.212-1.212V33.697c0-0.667,0.545-1.212,1.212-1.212
				h44.503c0.667,0,1.212,0.545,1.212,1.212v26.173C82.767,60.537,82.221,61.083,81.555,61.083z"/>
		</g>
		<g>
			<rect x="37.81" y="34.02" style="fill:#556566;" width="42.569" height="25.529"/>
		</g>
		<g>
			<g>
				<path style="fill:#E0E0E0;" d="M73.125,59.548l-0.151-1.431c-0.231-0.789-0.606-1.244-1.684-1.681l-1.267,3.111H73.125z"/>
			</g>
			<g>
				<path style="fill:#D0D0D0;" d="M49.049,59.548c-0.109-0.105-0.193-0.186-0.232-0.224l-1.777-1.807
					c-0.518-0.525-1.407-0.32-1.642,0.379l-0.336,1.651H49.049z"/>
			</g>
			<g>
				<rect x="55.608" y="49.593" style="fill:#DEAD8E;" width="7.255" height="8.379"/>
			</g>
			<g>
				<g>
					<path style="fill:#EAB99A;" d="M63.345,45.921L63.345,45.921c0.524,0.192,1.077-0.092,1.227-0.629l0.464-1.66
						c0.128-0.461-0.134-0.971-0.583-1.135l0,0c-0.524-0.192-1.077,0.092-1.227,0.629l-0.464,1.66
						C62.633,45.246,62.896,45.757,63.345,45.921z"/>
				</g>
				<g>
					<path style="fill:#EAB99A;" d="M63.821,41.029l0.149,5.966c0.012,0.485-0.074,1.032-0.323,1.617
						c-0.604,1.418-0.604,1.418-2.675,3.497c-0.246,0.252-0.897,0.481-1.701,0.488c-0.135,0.004-0.264,0.006-0.387,0.003
						c-0.629-0.038-1.125-0.205-1.342-0.405c-2.173-1.973-2.173-1.973-2.847-3.359c-0.278-0.571-0.392-1.113-0.404-1.598
						l-0.149-5.966c-0.046-1.827,1.236-3.355,2.848-3.395l3.816-0.096C62.419,37.74,63.775,39.202,63.821,41.029z"/>
				</g>
				<g>
					<path style="fill:#F4CAAF;" d="M63.047,41.048l0.15,5.966c0.012,0.485-0.068,1.032-0.317,1.617
						c-0.604,1.418-0.604,1.418-2.675,3.497c-0.211,0.211-0.694,0.403-1.319,0.472c-0.629-0.038-1.125-0.205-1.342-0.405
						c-2.173-1.973-2.173-1.973-2.847-3.359c-0.278-0.571-0.392-1.113-0.404-1.598l-0.149-5.966
						c-0.046-1.827,1.236-3.355,2.848-3.395l3.042-0.077C61.646,37.76,63.002,39.221,63.047,41.048z"/>
				</g>
				<g>
					<path style="fill:#F4CAAF;" d="M54.816,46.135L54.816,46.135c-0.515,0.217-1.081-0.038-1.257-0.567l-0.547-1.635
						c-0.151-0.453,0.085-0.977,0.525-1.163l0,0c0.515-0.218,1.08,0.038,1.258,0.567l0.546,1.634
						C55.493,45.425,55.257,45.949,54.816,46.135z"/>
				</g>
				<g>
					<polygon style="fill:#F7B23F;" points="64.717,41.904 63.851,45.263 62.668,41.138 62.044,41.971 60.901,42.239 60.896,42.246 
						55.484,43.518 54.245,45.337 53.623,40.866 55.126,36.254 61.284,35.023 62.544,36.162 64.248,37.694 					"/>
				</g>
				<g>
					<path style="fill:#F8BE49;" d="M62.544,36.162l0.074,2.97c0.034,1.368-0.68,2.57-1.717,3.107l-0.006,0.007l-5.411,1.272
						l-1.239,1.819l-0.622-4.471l1.503-4.611l6.157-1.231L62.544,36.162z"/>
				</g>
			</g>
			<g>
				<path style="fill:#E0E0E0;" d="M45.362,59.344c0.016,0.068,0.034,0.136,0.05,0.205h27.364c0.013-0.057,0.028-0.113,0.041-0.17
					c0-0.014,0.007-0.028,0.007-0.042c0.279-1.208-0.363-2.416-1.473-2.884c-0.118-0.052-7.75-1.634-8.226-1.634l-3.593,3.932
					l-4.45-3.932c-0.403,0-7.46,1.423-7.855,1.501c-1.236,0.3-2.039,1.473-1.913,2.709C45.32,59.134,45.341,59.239,45.362,59.344z"
					/>
			</g>
			<g>
				<path style="fill:#263536;" d="M60.149,59.548c0.062-0.126,0.099-0.265,0.099-0.414v-0.277c0-0.525-0.43-0.954-0.954-0.954
					H58.82c-0.525,0-0.954,0.429-0.954,0.954v0.277c0,0.149,0.038,0.288,0.099,0.414H60.149z"/>
			</g>
			<g>
				<polygon style="fill:#FFFFFF;" points="62.31,59.548 66.86,55.516 63.081,54.819 59.645,57.835 60.808,59.548 				"/>
			</g>
			<g>
				<polygon style="fill:#FFFFFF;" points="57.354,59.548 58.518,57.835 55.082,54.819 51.303,55.516 55.853,59.548 				"/>
			</g>
		</g>
	</g>
	<g>
		<g>
			<path style="fill:#303030;" d="M56.597,28.598H12.094c-0.667,0-1.212-0.545-1.212-1.212V1.212C10.882,0.545,11.427,0,12.094,0
				h44.503c0.667,0,1.212,0.545,1.212,1.212v26.174C57.808,28.052,57.263,28.598,56.597,28.598z"/>
		</g>
		<g>
			<rect x="12.851" y="1.535" style="fill:#C5D5D6;" width="42.569" height="25.528"/>
		</g>
		<g>
			<g>
				<path style="fill:#F3AA43;" d="M42.432,12.15c0,5.167-7.818,8.217-7.818,8.217s-7.819-3.05-7.819-8.217
					c0-5.168,3.501-9.356,7.819-9.356C38.931,2.794,42.432,6.982,42.432,12.15z"/>
			</g>
			<g>
				<path style="fill:#EF893A;" d="M38.729,8.292c0,0,3.985,6.503-2.259,11.187l0,0l-4.383-0.38c0,0-2.726-2.984-2.064-5.863l0,0
					L38.729,8.292L38.729,8.292z"/>
			</g>
			<g>
				<path style="fill:#EAB99A;" d="M27.832,27.036c0.065-1.925,0.095-3.321,0.095-3.479c0-0.824-0.583-1.515-1.368-1.725
					c-0.163-0.046-0.334-0.07-0.513-0.07c-0.956,0-1.732,0.684-1.857,1.562c-0.008,0.046-0.016,0.085-0.016,0.132
					c-0.114,1.179-0.189,2.376-0.245,3.58H27.832z"/>
			</g>
			<g>
				<path style="fill:#EAB99A;" d="M44.761,27.036c-0.056-1.204-0.131-2.4-0.245-3.58c0.008-0.046-0.008-0.085-0.016-0.132
					c-0.117-0.878-0.901-1.562-1.857-1.562c-0.171,0-0.334,0.023-0.49,0.062c-0.8,0.202-1.391,0.901-1.391,1.733
					c0,0.159,0.031,1.554,0.097,3.479H44.761z"/>
			</g>
			<g>
				<path style="fill:#EAB99A;" d="M43.454,27.036l0.961-3.541c0-0.917-0.878-1.671-1.958-1.671h-2.152
					c-1.391-0.054-2.354-0.443-2.991-1.087c-0.606-0.606-0.917-1.445-1.034-2.44h-3.426c-0.117,0.995-0.427,1.834-1.042,2.44
					c-0.629,0.644-1.593,1.033-2.983,1.087h-2.152c-0.039,0-0.078,0-0.117,0.008c-1.025,0.047-1.841,0.777-1.841,1.663l0.96,3.541
					H43.454z"/>
			</g>
			<g>
				<path style="fill:#FD6D60;" d="M44.761,27.036c-0.056-1.204-0.131-2.4-0.245-3.58c0.008-0.046-0.008-0.085-0.016-0.132
					c-0.117-0.878-0.901-1.562-1.857-1.562c-0.171,0-0.334,0.023-0.49,0.062h-1.849c-1.391-0.054-2.354-0.443-2.991-1.087h-5.501
					c-0.629,0.644-1.593,1.033-2.983,1.087h-2.152c-0.039,0-0.078,0-0.117,0.008c-0.163-0.046-0.334-0.07-0.513-0.07
					c-0.956,0-1.732,0.684-1.857,1.562c-0.008,0.046-0.016,0.085-0.016,0.132c-0.114,1.179-0.189,2.376-0.245,3.58H44.761z"/>
			</g>
			<g>
				<path style="fill:#EAB99A;" d="M39.391,11.467c0,3.455-2.12,7.632-4.758,7.632c-0.126,0-0.244-0.008-0.361-0.032
					c-2.473-0.353-4.436-4.302-4.436-7.6c0-3.305,1.94-6.006,4.413-6.25c0.118-0.008,0.235-0.016,0.361-0.016
					C37.247,5.202,39.391,8.004,39.391,11.467z"/>
			</g>
			<g>
				<path style="fill:#F5C4A5;" d="M38.668,11.467c0,3.298-1.932,7.247-4.397,7.6c-2.473-0.353-4.436-4.302-4.436-7.6
					c0-0.102,0-0.212,0.016-0.314c0.079-2.3,1.107-4.279,2.584-5.26c0.416-0.283,0.855-0.479,1.327-0.589l0.031-0.008
					c0.008-0.007,0.023-0.007,0.032-0.007c0.141-0.032,0.282-0.055,0.424-0.071c0.306,0.031,0.604,0.102,0.895,0.204
					c1.798,0.644,3.172,2.614,3.462,5.064C38.645,10.807,38.668,11.137,38.668,11.467z"/>
			</g>
			<g>
				<path style="fill:#F3AA43;" d="M29.324,6.955c0,0,0.913,2.159,4.807,2.748c3.895,0.589,4.68,2.356,5.073,3.533
					c0,0,2.159-5.103-1.112-7.066C34.82,4.207,30.763,3.683,29.324,6.955z"/>
			</g>
		</g>
	</g>
	<g>
		<g>
			<path style="fill:#303030;" d="M0,78.2V33.697c0-0.667,0.545-1.212,1.212-1.212h26.174c0.667,0,1.212,0.545,1.212,1.212V78.2
				c0,0.667-0.545,1.212-1.212,1.212H1.212C0.545,79.412,0,78.866,0,78.2z"/>
		</g>
		<g>
			<rect x="1.535" y="34.454" style="fill:#FCE2AA;" width="25.528" height="42.569"/>
		</g>
		<g>
			<g>
				<path style="fill:#DEAD8E;" d="M14.844,64.748l4.662-3.56l0.001,0v0c0.024,0,0.071,0.005,0.126,0.012l-0.583-4.675l-0.017,0.022
					l-1.939,2.475c-0.292,0.422-1.201,0.657-2.004,0.657c-0.127-0.003-0.252-0.014-0.373-0.029
					c-0.012-0.001-0.024-0.001-0.036-0.003c-0.022-0.003-0.042-0.009-0.064-0.013c-0.361-0.056-0.671-0.167-0.84-0.35l-0.768-0.709
					L11.3,57.001c-0.144-0.066-0.284-0.157-0.421-0.256c-0.06-0.043-0.116-0.092-0.174-0.14c-0.033-0.029-0.07-0.053-0.102-0.083
					c-0.002-0.002-0.004-0.004-0.006-0.006l-0.228,4.792L14.844,64.748L14.844,64.748z"/>
			</g>
			<g>
				<path style="fill:#EAB99A;" d="M20.737,51.411c0.365-0.097,0.666-0.397,0.763-0.811l0.43-1.963
					c0.122-0.544-0.219-1.12-0.747-1.282c-0.114-0.032-0.219-0.048-0.333-0.048c-0.016,0-0.041,0-0.057,0.008l-0.203,2.256
					L20.737,51.411z"/>
			</g>
			<g>
				<path style="fill:#EAB99A;" d="M9.045,53.281l-0.036-0.452l0.035,0.449c0.04,0.503,0.146,0.982,0.316,1.42
					c0.106,0.291,0.24,0.561,0.393,0.811c-0.151-0.25-0.284-0.52-0.39-0.809C9.192,54.263,9.085,53.782,9.045,53.281z"/>
			</g>
			<g>
				<path style="fill:#EAB99A;" d="M14.681,59.647c-0.023-0.003-0.042-0.009-0.064-0.013C14.639,59.638,14.658,59.645,14.681,59.647
					z"/>
			</g>
			<g>
				<path style="fill:#EAB99A;" d="M10.705,56.605c-0.077-0.063-0.153-0.129-0.226-0.2c0.038,0.037,0.075,0.074,0.117,0.112
					c0.002,0.002,0.004,0.004,0.006,0.006C10.635,56.553,10.672,56.577,10.705,56.605z"/>
			</g>
			<g>
				<path style="fill:#EAB99A;" d="M10.879,56.745c0.137,0.1,0.277,0.19,0.421,0.256l1.708,1.574L11.3,56.998
					C11.154,56.93,11.015,56.841,10.879,56.745z"/>
			</g>
			<g>
				<path style="fill:#EAB99A;" d="M20.501,50.551l-0.698-1.071l0,0l0.233,2.926c0.04,0.509,0.011,1-0.088,1.466
					c-0.132,0.67-0.393,1.265-0.751,1.752c-0.227,0.329-0.506,0.607-0.811,0.825l-2.071,2.633c-0.196,0.295-0.68,0.497-1.227,0.594
					c-0.127-0.002-0.251-0.012-0.372-0.026c0.121,0.015,0.246,0.025,0.373,0.029c0.803,0,1.712-0.235,2.004-0.657l1.939-2.475
					l0.017-0.022l0.112-0.14c0.3-0.219,0.584-0.495,0.812-0.82c0.357-0.487,0.617-1.087,0.747-1.752
					c0.105-0.471,0.13-0.958,0.089-1.469l-0.073-0.933l-0.146-1.842L20.501,50.551z"/>
			</g>
			<g>
				<path style="fill:#F4CAAF;" d="M10.705,56.605c0.058,0.047,0.114,0.097,0.174,0.14c0.136,0.096,0.275,0.185,0.42,0.252
					l1.709,1.578l0.768,0.709c0.169,0.183,0.479,0.295,0.84,0.35c0.022,0.003,0.041,0.01,0.064,0.013
					c0.012,0.001,0.024,0.001,0.036,0.003c0.12,0.014,0.244,0.024,0.372,0.026c0.547-0.098,1.031-0.299,1.227-0.594l2.071-2.633
					c0.305-0.218,0.584-0.497,0.811-0.825c0.358-0.487,0.619-1.082,0.751-1.752c0.1-0.466,0.129-0.958,0.088-1.466l-0.233-2.926
					l-0.227-0.349l-1.079-1.663l-1.712-0.203l-2.491-0.292l-3.797-0.454l-0.682,3.562l0,0l0.308,0.779
					c0.205,0.518-0.036,1.141-0.537,1.386c-0.202,0.099-0.414,0.128-0.616,0.104l0.038,0.479l0.036,0.452
					c0.04,0.501,0.147,0.982,0.318,1.418c0.106,0.29,0.239,0.559,0.39,0.809c0.187,0.31,0.402,0.59,0.644,0.824
					c0.026,0.027,0.056,0.047,0.082,0.073C10.552,56.477,10.628,56.542,10.705,56.605z"/>
			</g>
			<g>
				<path style="fill:#F4CAAF;" d="M9.587,52.246c0.501-0.245,0.742-0.868,0.537-1.386l-0.308-0.779l-0.3,1.566L9.466,51.89
					L9.41,51.622l-0.738-3.083l-0.048-0.207c-0.236-0.056-0.494-0.036-0.736,0.083c-0.5,0.245-0.742,0.868-0.537,1.386l0.739,1.866
					c0.156,0.396,0.5,0.64,0.881,0.685C9.173,52.374,9.385,52.344,9.587,52.246z"/>
			</g>
			<g>
				<path style="fill:#47210C;" d="M19.325,43.508c0,0.406-0.048,0.804-0.146,1.168c-0.333,1.266-1.233,2.264-2.394,2.588
					l1.712,0.203l1.079,1.663l0.227,0.349l0,0l0.698,1.071l0.089-0.982l0.203-2.256l0.163-1.769l-1.031-4.292l-0.722,0.673
					l0.105,1.314C19.317,43.329,19.325,43.419,19.325,43.508z"/>
			</g>
			<g>
				<path style="fill:#47210C;" d="M9.466,51.89l0.049-0.243c-0.033-0.008-0.073-0.008-0.105-0.024L9.466,51.89z"/>
			</g>
			<g>
				<path style="fill:#5D2C10;" d="M8.671,48.539l0.738,3.083c0.032,0.016,0.073,0.016,0.105,0.024l0.3-1.566l0,0l0.682-3.562
					l3.797,0.454l2.491,0.292c1.161-0.324,2.061-1.322,2.394-2.588c0.098-0.365,0.146-0.763,0.146-1.168
					c0-0.089-0.008-0.178-0.016-0.268l-0.105-1.314l-0.032,0.024l-3.441-2.889l-0.69,0.982l-0.746-0.462l-2.053-1.258L11.3,39.857
					l-0.576-0.73L9.71,41.439l-0.682,0.049l-0.787,5.258l0.381,1.582l0.001,0.004L8.671,48.539z"/>
			</g>
			<g>
				<path style="fill:#A5B5B6;" d="M17.521,67.648l-2.516-2.726v12.101h12.058v-14.37c-0.925-0.193-2.061-0.426-3.171-0.65
					L17.521,67.648z M16,72.71c-0.223,0-0.404-0.181-0.404-0.403c0-0.223,0.181-0.403,0.404-0.403c0.223,0,0.403,0.181,0.403,0.403
					C16.404,72.529,16.223,72.71,16,72.71z"/>
			</g>
			<g>
				<path style="fill:#A5B5B6;" d="M19.507,61.189l4.002,0.738c-1.768-0.354-3.389-0.666-3.876-0.727
					C19.578,61.193,19.532,61.188,19.507,61.189L19.507,61.189z"/>
			</g>
			<g>
				<polygon style="fill:#859596;" points="12.195,67.648 14.79,64.807 14.79,64.748 14.844,64.748 14.844,64.748 10.368,61.309 
					10.211,61.188 10.167,61.197 5.819,61.999 				"/>
			</g>
			<g>
				<polygon style="fill:#859596;" points="19.507,61.189 19.506,61.188 14.844,64.748 14.844,64.748 15.005,64.748 15.005,64.923 
					17.521,67.648 23.892,62.004 23.897,61.999 23.509,61.927 				"/>
			</g>
			<g>
				<polygon style="fill:#95A5A6;" points="15.005,64.923 15.005,64.748 14.844,64.748 14.79,64.748 14.79,64.807 14.79,77.024 
					15.005,77.024 				"/>
			</g>
			<g>
				<circle style="fill:#95A5A6;" cx="16" cy="72.307" r="0.403"/>
			</g>
			<g>
				<path style="fill:#A5B5B6;" d="M12.195,67.648l-6.376-5.65l4.348-0.802c-0.002-0.003-0.005-0.005-0.007-0.008
					c-0.41,0-6.745,1.268-8.625,1.644v4.291v9.9h1.816H14.79V64.807L12.195,67.648z"/>
			</g>
		</g>
	</g>
	<g>
		<g>
			<path style="fill:#F55D51;" d="M75.081,12.669H73.58c-0.123-0.427-0.29-0.834-0.5-1.215l1.06-1.059
				c0.232-0.232,0.232-0.609,0-0.841l-1.506-1.505c-0.232-0.232-0.608-0.232-0.84,0l-1.059,1.059
				c-0.381-0.21-0.789-0.377-1.215-0.501V7.106c0-0.329-0.267-0.595-0.595-0.595h-2.129c-0.328,0-0.595,0.266-0.595,0.595v1.501
				c-0.427,0.123-0.834,0.291-1.216,0.501l-1.059-1.059c-0.233-0.232-0.608-0.232-0.841,0l-1.505,1.505
				c-0.232,0.232-0.232,0.608,0,0.841l1.059,1.06c-0.21,0.38-0.376,0.789-0.5,1.214h-1.501c-0.329,0-0.595,0.267-0.595,0.594v2.129
				c0,0.328,0.267,0.594,0.595,0.594h1.501c0.124,0.426,0.291,0.834,0.5,1.215l-1.06,1.06c-0.232,0.233-0.232,0.608,0,0.84
				l1.505,1.507c0.232,0.231,0.607,0.231,0.841,0l1.06-1.061c0.381,0.211,0.788,0.378,1.215,0.5v1.502
				c0,0.329,0.267,0.594,0.595,0.594h2.129c0.328,0,0.595-0.265,0.595-0.594v-1.502c0.426-0.123,0.833-0.29,1.214-0.5l1.06,1.061
				c0.232,0.231,0.608,0.231,0.84,0l1.506-1.507c0.232-0.232,0.232-0.607,0-0.84l-1.06-1.06c0.21-0.381,0.377-0.789,0.5-1.215h1.501
				c0.329,0,0.594-0.267,0.594-0.594v-2.129C75.676,12.936,75.411,12.669,75.081,12.669z M67.86,17.911
				c-1.976,0-3.583-1.607-3.583-3.584c0-1.976,1.606-3.583,3.583-3.583c1.976,0,3.583,1.608,3.583,3.583
				C71.443,16.304,69.835,17.911,67.86,17.911z"/>
		</g>
		<g>
			<path style="fill:#F55D51;" d="M68.483,26.823l-0.752-0.308c0.025-0.235,0.023-0.475-0.004-0.714l0.751-0.315
				c0.164-0.069,0.242-0.258,0.172-0.422l-0.447-1.065c-0.068-0.164-0.256-0.242-0.422-0.173l-0.751,0.315
				c-0.151-0.188-0.32-0.356-0.505-0.503l0.308-0.753c0.067-0.165-0.012-0.353-0.176-0.42l-1.07-0.438
				c-0.164-0.066-0.353,0.013-0.42,0.178l-0.308,0.753c-0.235-0.025-0.474-0.024-0.713,0.004l-0.315-0.752
				c-0.068-0.164-0.257-0.24-0.422-0.171l-1.065,0.447c-0.164,0.068-0.241,0.258-0.172,0.421l0.315,0.752
				c-0.187,0.151-0.356,0.32-0.502,0.505l-0.752-0.308c-0.166-0.067-0.353,0.011-0.42,0.177l-0.403,0.984
				c0.021-0.137-0.014-0.28-0.12-0.386l-0.806-0.806c0.16-0.29,0.287-0.601,0.381-0.925h1.142c0.25,0,0.453-0.203,0.453-0.452
				v-1.621c0-0.248-0.203-0.451-0.453-0.451h-1.142c-0.094-0.324-0.221-0.634-0.381-0.924l0.807-0.807
				c0.177-0.177,0.177-0.463,0-0.639l-1.146-1.145c-0.175-0.179-0.461-0.179-0.639,0l-0.806,0.805
				c-0.29-0.16-0.601-0.287-0.925-0.381v-1.142c0-0.25-0.203-0.453-0.452-0.453H54.7c-0.25,0-0.452,0.203-0.452,0.453v1.142
				c-0.325,0.095-0.635,0.221-0.925,0.381l-0.806-0.805c-0.177-0.179-0.463-0.179-0.64,0l-1.146,1.145
				c-0.176,0.176-0.176,0.462,0,0.639l0.807,0.807c-0.16,0.29-0.287,0.6-0.381,0.924h-1.142c-0.25,0-0.452,0.203-0.452,0.451v1.621
				c0,0.249,0.202,0.452,0.452,0.452h1.142c0.094,0.324,0.221,0.635,0.381,0.925l-0.806,0.806c-0.177,0.176-0.177,0.463,0,0.64
				l1.145,1.145c0.177,0.177,0.463,0.177,0.64,0l0.806-0.806c0.29,0.16,0.6,0.287,0.925,0.381v1.142
				c0,0.249,0.202,0.451,0.452,0.451h1.62c0.249,0,0.452-0.202,0.452-0.451v-1.142c0.324-0.094,0.635-0.221,0.925-0.381l0.806,0.806
				c0.178,0.177,0.464,0.177,0.639,0l1.146-1.145c0.033-0.033,0.054-0.072,0.074-0.111c-0.031,0.149,0.041,0.303,0.188,0.363
				l0.752,0.308c-0.025,0.235-0.023,0.474,0.004,0.713l-0.751,0.316c-0.164,0.069-0.24,0.258-0.172,0.422l0.447,1.065
				c0.069,0.164,0.257,0.242,0.421,0.172l0.751-0.314c0.151,0.187,0.32,0.355,0.505,0.502L62.2,29.458
				c-0.066,0.165,0.012,0.354,0.177,0.421l1.069,0.438c0.165,0.067,0.353-0.012,0.42-0.177l0.308-0.753
				c0.235,0.025,0.474,0.023,0.713-0.004l0.314,0.75c0.069,0.166,0.258,0.242,0.422,0.173l1.065-0.447
				c0.164-0.07,0.242-0.258,0.172-0.423l-0.315-0.75c0.188-0.151,0.356-0.32,0.503-0.505l0.753,0.308
				c0.164,0.067,0.353-0.012,0.42-0.177l0.437-1.068C68.727,27.077,68.648,26.89,68.483,26.823z M55.51,24.364
				c-1.503,0-2.727-1.223-2.727-2.726c0-1.504,1.224-2.727,2.727-2.727c1.502,0,2.726,1.223,2.726,2.727
				C58.236,23.141,57.012,24.364,55.51,24.364z M62.724,26.924c-0.414-0.989,0.052-2.13,1.041-2.545
				c0.989-0.414,2.129,0.051,2.544,1.04c0.415,0.989-0.053,2.131-1.04,2.546C64.28,28.378,63.138,27.912,62.724,26.924z"/>
		</g>
	</g>
	<g>
		<g>
			<path style="fill:#55ACE0;" d="M50.038,66.002l-1.785-7.92l-5.968,5.505l2.48,0.773c-1.618,1.406-3.902,1.974-6.095,1.292
				c-1.458-0.455-2.708-1.417-3.516-2.709c-0.274-0.436-0.849-0.569-1.287-0.296c-0.437,0.273-0.569,0.85-0.296,1.286
				c1.046,1.67,2.659,2.914,4.543,3.501c0.814,0.253,1.639,0.374,2.451,0.374c2.387,0,4.657-1.047,6.215-2.821L50.038,66.002z"/>
		</g>
		<g>
			<path style="fill:#55ACE0;" d="M36.131,54.952c0.432-0.416,0.923-0.775,1.469-1.062c1.512-0.793,3.242-0.951,4.871-0.442
				c1.667,0.52,3.02,1.665,3.807,3.225c0.233,0.461,0.794,0.646,1.254,0.413c0.46-0.232,0.645-0.793,0.413-1.253
				c-1.017-2.016-2.764-3.495-4.918-4.167c-2.106-0.656-4.342-0.453-6.295,0.572c-1.007,0.529-1.873,1.246-2.569,2.102l-2.893-0.901
				l1.785,7.921l5.967-5.507L36.131,54.952z"/>
		</g>
	</g>
</g>
</svg>
