<?xml version="1.0" encoding="utf-8"?>
<!-- Generator: Adobe Illustrator 19.1.0, SVG Export Plug-In . SVG Version: 6.00 Build 0)  -->
<!DOCTYPE svg PUBLIC "-//W3C//DTD SVG 1.1//EN" "http://www.w3.org/Graphics/SVG/1.1/DTD/svg11.dtd">
<svg version="1.1" id="illustrations" xmlns="http://www.w3.org/2000/svg" xmlns:xlink="http://www.w3.org/1999/xlink" x="0px"
	 y="0px" viewBox="-446 233.6 66.1 95.4" style="enable-background:new -446 233.6 66.1 95.4;" xml:space="preserve">
<style type="text/css">
	.st0{fill:#CF9E76;}
	.st1{fill:#E0313C;}
	.st2{fill:#E65A63;}
	.st3{fill:#8C715D;}
	.st4{fill:#251911;}
	.st5{fill:#B19177;}
	.st6{fill:#4A3222;}
	.st7{fill:#447EA1;}
	.st8{fill:#E02634;}
	.st9{fill:#386885;}
	.st10{fill:#C0C0C0;}
	.st11{fill:#EAB99A;}
	.st12{fill:#303030;}
	.st13{fill:#505050;}
	.st14{fill:#E0E0E0;}
	.st15{fill:#F4CAAF;}
	.st16{fill:#E09E26;}
	.st17{fill:#E6B151;}
	.st18{fill:#A0A0A0;}
	.st19{fill:#404040;}
	.st20{fill:#DFB28B;}
	.st21{fill:#F5C4A5;}
	.st22{fill:#6D3C1F;}
	.st23{fill:#5D2C10;}
	.st24{fill:#83E5EC;}
	.st25{fill:#704F13;}
</style>
<path class="st0" d="M-392.3,302.8c0-0.1,0-0.1,0-0.2c0-0.8-1.1-2.1-2.4-2.1s-2.4,1.4-2.4,2.1c0,0.1,0,0.1,0,0.2h0
	c0,0-0.4,5.4-0.3,8.4c0.1,3.1,1.8,11.9,1.7,12.9c-0.1,1,2,0,2,0s1.1-7.3,1.5-12.8C-391.8,307.3-392.2,303.8-392.3,302.8z"/>
<path class="st0" d="M-385.8,302.8L-385.8,302.8c0-0.1,0-0.1,0-0.2c0-0.8-1.1-2.1-2.4-2.1c-1.3,0-2.4,1.4-2.4,2.1c0,0.1,0,0.2,0,0.2
	c-0.1,0.9-0.5,4.5-0.2,8.5c0.4,5.4,1.5,12.8,1.5,12.8s2.1,1,2,0c-0.1-1,1.6-9.8,1.7-12.9C-385.4,308.1-385.8,302.8-385.8,302.8z"/>
<path class="st1" d="M-392.9,325.4c-0.1-0.3-0.4-0.5-0.7-0.5h-0.8h-0.8c-0.3,0-0.6,0.2-0.7,0.5l-0.7,1.9c0,0.1-0.1,0.2-0.1,0.3v0.5
	c0,0.2,0.1,0.3,0.2,0.5l0.3,0.5h1.8h1.8l0.3-0.5c0.1-0.1,0.2-0.3,0.2-0.5v-0.5c0-0.1,0-0.2-0.1-0.3L-392.9,325.4z"/>
<path class="st1" d="M-386.8,325.4c-0.1-0.3-0.4-0.5-0.7-0.5h-0.8h-0.8c-0.3,0-0.6,0.2-0.7,0.5l-0.7,1.9c0,0.1-0.1,0.2-0.1,0.3v0.5
	c0,0.2,0.1,0.3,0.2,0.5l0.3,0.5h1.8h1.8l0.3-0.5c0.1-0.1,0.2-0.3,0.2-0.5v-0.5c0-0.1,0-0.2-0.1-0.3L-386.8,325.4z"/>
<path class="st0" d="M-393,325.6c0,0.8-0.6,1.4-1.4,1.4l0,0c-0.8,0-1.4-0.6-1.4-1.4l0.4-2.1c0-0.8,0.2-2.9,1-2.9l0,0
	c0.8,0,1,2.1,1,2.9L-393,325.6z"/>
<path class="st0" d="M-386.9,325.5c0,0.8-0.6,1.4-1.4,1.4l0,0c-0.8,0-1.4-0.6-1.4-1.4l0.4-2.1c0-0.8,0.2-2.9,1-2.9l0,0
	c0.8,0,1,2.1,1,2.9L-386.9,325.5z"/>
<path class="st2" d="M-393.3,329h-2.3c-0.2,0-0.3-0.1-0.3-0.3l0,0c0-0.2,0.1-0.3,0.3-0.3h2.3c0.2,0,0.3,0.1,0.3,0.3l0,0
	C-393,328.9-393.2,329-393.3,329z"/>
<path class="st2" d="M-387.1,329h-2.3c-0.2,0-0.3-0.1-0.3-0.3l0,0c0-0.2,0.1-0.3,0.3-0.3h2.3c0.2,0,0.3,0.1,0.3,0.3l0,0
	C-386.8,328.8-387,329-387.1,329z"/>
<rect x="-411.5" y="246.5" class="st3" width="6.1" height="6.5"/>
<polygon class="st4" points="-412.9,242.6 -412.9,244.8 -403.5,244.6 -403.5,242.1 "/>
<path class="st5" d="M-411.9,243.1L-411.9,243.1c-0.5,0.2-0.9-0.1-1.1-0.5l-0.4-1.4c-0.1-0.4,0.1-0.8,0.5-1l0,0
	c0.5-0.2,0.9,0.1,1.1,0.5l0.4,1.4C-411.3,242.5-411.5,242.9-411.9,243.1z"/>
<path class="st3" d="M-404.5,243.1L-404.5,243.1c0.5,0.2,0.9-0.1,1.1-0.5l0.4-1.4c0.1-0.4-0.1-0.8-0.5-1l0,0
	c-0.5-0.2-0.9,0.1-1.1,0.5l-0.4,1.4C-405.1,242.5-404.9,242.9-404.5,243.1z"/>
<path class="st3" d="M-404,246c0,0-2.9,2.2-3,2.8c-0.1,0.6-1.2,0.5-1.2,0.5s-0.2,0-0.4,0c0,0,0,0,0,0c-0.3,0-0.8-0.1-0.8-0.5
	c-0.1-0.6-3-2.8-3-2.8s-0.2-1,0-1.8s0-6.1,0-6.1l3.8-0.2l0.4,0l4.2,0.3c0,0-0.2,5.3,0,6.1C-403.8,245-404,246-404,246z"/>
<path class="st5" d="M-404.8,246c0,0-2.9,2.2-3,2.8c-0.1,0.4-0.5,0.5-0.8,0.5c0,0,0,0,0,0c-0.3,0-0.8-0.1-0.8-0.5
	c-0.1-0.6-3-2.8-3-2.8s-0.2-1,0-1.8s0-6.1,0-6.1l3.8-0.2l3.8,0.2c0,0-0.2,5.3,0,6.1S-404.8,246-404.8,246z"/>
<polygon class="st4" points="-404.1,240.4 -404,238.5 -404.3,238.3 -405,239 -405.8,239.3 -411.2,241.4 -412.2,240.3 -412.8,240.1 
	-412.9,236.2 -412.4,236 -411.9,234.4 -408.3,233.6 -405.1,234 -405,234 -403.6,237.8 -403.5,240.1 "/>
<path class="st6" d="M-405.1,234v3.2c0,0.8-0.3,1.5-0.8,2.1l-5.4,2.1l-1-1.2l-0.6-0.2l0-3.9l0.5-0.2l0.5-1.6l3.6-0.8L-405.1,234z"/>
<polygon class="st7" points="-400.7,281.1 -400.9,291.4 -401.7,302.3 -402,310 -402.2,324.6 -407.8,324.6 -408.2,308.8 
	-408.4,301.4 -408.6,286.1 -408.7,280.3 -406.7,280.5 -406.5,280.5 "/>
<polygon class="st7" points="-416.8,281.2 -416.6,291.4 -415.8,302.3 -415.5,310 -415.3,324.6 -409.7,324.6 -409.3,308.8 
	-409.1,301.4 -408.9,289 -408.8,286.1 -408.7,280.3 -408.9,280.3 "/>
<path class="st7" d="M-400.7,280.8l-0.8,5.1h-14.3l-0.9-5c-0.1-0.6-0.1-1.2,0.1-1.7l0.8-2.6v0h14.3l0.7,2.7
	C-400.6,279.7-400.6,280.2-400.7,280.8z"/>
<path class="st8" d="M-397.3,254.7C-397.3,254.7-397.3,254.7-397.3,254.7c-0.8,3.5-1.7,6.8-2.5,10.1c-1,3.9-0.9,13.6-0.9,13.7
	c-0.2,1-1.9-0.3-3-0.3h-10.1c-1,0-1.9-0.8-2.1-1.7v0c0-0.1,0-0.3,0-0.4c0-4.1-0.8-8-1.8-11.8c-0.8-3.2-1.8-6.4-2.5-9.6
	c0-0.1,0-0.2,0-0.3c-0.1-1,0.6-2,1.6-2.3l6.1-1.2c0.2,0,0.3-0.1,0.5-0.1l0.5,0.3l1.2,0.6c0.5,0.2,0.9,0.3,1.4,0.4
	c0.7,0.1,1.5-0.1,2.1-0.5l1.3-0.7l0.1-0.1c0.2,0,0.3,0,0.5,0.1c0,0,6.3,1.3,6.4,1.3C-397.6,252.7-397,253.7-397.3,254.7z"/>
<polygon class="st9" points="-406.3,303.6 -405.9,324.6 -407.8,324.6 -408.2,308.8 -408.4,301.4 -408.6,286.1 -407.4,284.6 
	-406.7,280.5 -406.5,279.4 -406.5,280.5 -407,298.4 "/>
<path class="st10" d="M-420.1,252.5l-2.7,7.5l2.5,15.4c0,0,0.9,0.4,1.9,0.3c1-0.1,2.2-1.4,2.2-1.4l-2.1-20.2
	C-418.6,253.4-419.2,252.9-420.1,252.5z"/>
<polygon class="st10" points="-420.4,275.2 -420.1,280.9 -419,288.8 -416.2,288.9 -416.2,274.3 -419.3,274.1 "/>
<path class="st11" d="M-419,288.6c0.3,5.3,0.1,3.4,0.6,6.8h0.4c0.5-1.3,0.5-0.8,0.2-2.9c0.7,0.2,1,0.6,1,1.1
	c0.1,0.8,0.3,1.5-0.4,1.9c-0.3,0.2-0.5,0.4-0.6,0.8l-0.1,0.6c2.2-1.1,2.7-1.2,2.9-1.9c0.1-0.4,0.5-1.8,0.4-2.2l-0.5-2.4
	c0,0-1.1-2.2-1.1-2.2C-416.4,287.9-419,287.9-419,288.6z"/>
<polygon class="st10" points="-404.6,322.9 -402.6,326.9 -402.6,328.3 -408.3,328.3 -408.3,326.2 -407.4,322.9 "/>
<polygon class="st10" points="-413,322.9 -415,326.9 -415,328.3 -409.3,328.3 -409.3,326.2 -410.3,322.9 "/>
<polygon class="st12" points="-435,323.2 -437.8,327.2 -437.8,328.6 -430.1,328.6 -430.1,326.5 -431.4,323.2 "/>
<rect x="-437.8" y="327.2" class="st13" width="7.7" height="1.4"/>
<polygon class="st12" points="-421.9,327.2 -421.9,328.6 -429.6,328.6 -429.6,326.5 -428.3,323.1 -424.6,323.1 "/>
<rect x="-429.6" y="327.2" class="st13" width="7.7" height="1.4"/>
<path class="st8" d="M-407.1,252.1l17.4-4.1c0.2-0.1,0.5-0.1,0.7,0.1l1.9,1.2c0.5,0.3,0.5,0.9,0.1,1.3l-2.2,2.4
	c-0.1,0.1-14.7,3.6-14.7,3.6c-0.3,0.1-1.7-1.4-1.9-1.6l-1.6-1.4C-407.8,253-407.7,252.3-407.1,252.1z"/>
<path class="st8" d="M-380.1,256.2c-0.5,0.7-1.1,1.4-1.6,2.1l-3.2-1.7l-6.9-4.5c-0.2-0.1-0.4-2.8-0.4-2.8c-0.1-0.3,0.1-0.7,0.4-0.8
	l2.2-0.6c0.2-0.1,0.5,0,0.6,0.1l6,5.3L-380.1,256.2z"/>
<path class="st8" d="M-412.4,250.8l-17.3-4.4c-0.2-0.1-0.5-0.1-0.7,0.1l-1.9,1.1c-0.5,0.3-0.5,0.9-0.2,1.3l2.2,2.4
	c0.1,0.1,14.6,3.8,14.6,3.8c0.3,0.1,1.7-1.4,1.9-1.6l1.6-1.4C-411.6,251.8-411.8,251-412.4,250.8z"/>
<path class="st8" d="M-440.9,252.2c0.4,0.8,0.7,1.6,1.1,2.4l3.5-1l7.7-3c0.2-0.1,0.9-2.6,0.9-2.6c0.1-0.3,0-0.7-0.3-0.8l-2-1.1
	c-0.2-0.1-0.4-0.1-0.6,0l-7,3.9L-440.9,252.2z"/>
<rect x="-432.6" y="247.6" class="st11" width="6.1" height="5.4"/>
<polygon class="st14" points="-430,305.9 -429.9,308.8 -430,311 "/>
<polygon class="st13" points="-422.6,276.8 -422.6,279.4 -437.2,279.4 -437.1,279 -437,276.8 -437,276.8 "/>
<path class="st13" d="M-421.8,281.1l-0.8,5.1H-437l-0.9-5c-0.1-0.6-0.1-1.2,0.1-1.7l0.1-0.4l0.7-2.2v0h14.3l0.6,2.2l0.1,0.5
	C-421.7,280-421.7,280.6-421.8,281.1z"/>
<path class="st11" d="M-424.5,242l-0.3,1.4c-0.1,0.3-0.3,0.5-0.5,0.6c-0.1,0-0.3,0-0.4,0c0,0-0.1,0-0.1,0h0
	c-0.3-0.2-0.5-0.5-0.4-0.9l0.2-0.7l0.1-0.5l0.1-0.2c0.1-0.3,0.2-0.5,0.5-0.5c0.1,0,0.2-0.1,0.3-0.1c0,0,0,0,0,0c0.1,0,0.2,0,0.2,0
	C-424.7,241.2-424.4,241.6-424.5,242z"/>
<path class="st11" d="M-425.4,245.8c-0.1,0.5-0.3,0.9-0.5,1.3c-0.2,0.2-0.4,0.4-0.6,0.6l-0.1,0.1l-1.4,1.8c-0.2,0.3-0.9,0.5-1.4,0.5
	c-0.2,0-0.4,0-0.6-0.1c-0.2,0-0.3-0.1-0.4-0.2l-1.8-1.6c-0.2-0.1-0.4-0.2-0.5-0.3c-0.1,0-0.1-0.1-0.1-0.1c-0.3-0.3-0.6-0.7-0.7-1.2
	c-0.1-0.3-0.2-0.7-0.2-1l-0.1-0.7l-0.2-2.7l0-0.1l-0.1-0.9c-0.1-1.7,0.9-3.2,2.2-3.3l1.9-0.2l1.1-0.1l0.6,0c0.8-0.1,1.5,0.3,2,1
	c0.4,0.5,0.7,1.2,0.7,1.9l0.1,0.9l0.1,1.6l0.1,1.3l0.1,0.7C-425.3,245.1-425.3,245.4-425.4,245.8z"/>
<path class="st15" d="M-426.2,240.3l0.4,4.4c0,0.4,0,0.7-0.1,1.1c-0.1,0.5-0.3,0.9-0.5,1.3c-0.2,0.2-0.4,0.4-0.6,0.6l-1.5,1.9
	c-0.1,0.2-0.5,0.4-0.9,0.4c-0.4,0-0.8-0.1-0.9-0.3l-1.8-1.6c-0.2-0.1-0.5-0.3-0.6-0.5c-0.3-0.3-0.6-0.7-0.7-1.2
	c-0.1-0.3-0.2-0.7-0.2-1l-0.4-4.4c-0.1-1.7,0.9-3.2,2.2-3.3l3-0.2C-427.6,237.3-426.3,238.6-426.2,240.3z"/>
<path class="st15" d="M-433.4,244.6L-433.4,244.6c-0.4,0.2-0.9,0-1.1-0.4l-0.5-1.3c-0.1-0.4,0-0.8,0.4-1l0,0c0.4-0.2,0.9,0,1.1,0.4
	l0.5,1.3C-432.8,244-433,244.5-433.4,244.6z"/>
<polygon class="st16" points="-425.2,239.8 -425.3,241.1 -425.5,242.7 -425.5,243.4 -426,242.6 -426.2,242.4 -427,241.2 
	-428.2,241.1 -430,240.8 -432.7,240.5 -433.2,243.1 -433.4,244.2 -433.5,244.4 -433.5,244.2 -434,242 -434.1,241.8 -434.3,240.7 
	-433.8,236.9 -433.3,236.9 -432.6,235.2 -432.1,235.7 -431.5,234.6 -430,235.5 -429.5,235.9 -429,235.1 -426.5,237.2 -426.5,237.2 
	-425.9,236.7 "/>
<path class="st17" d="M-426.4,238.3c0,0.3,0,0.6-0.1,0.8c-0.2,0.9-0.9,1.6-1.7,1.9l-1.8-0.2l-2.7-0.3l-0.5,2.6l-0.2,1.1
	c0,0-0.1,0-0.1,0l-0.5-2.2l0-0.2l-0.3-1.1l0.6-3.8l0.5,0l0.7-1.7l0.4,0.5l0.7-1.1l1.5,0.9l0.5,0.3l0.5-0.7l2.5,2.1l0,0l0.1,0.9
	C-426.4,238.2-426.4,238.3-426.4,238.3z"/>
<path class="st10" d="M-418.4,255C-418.4,255.1-418.4,255.1-418.4,255c-0.4,1.6-0.7,3.1-1.1,4.6c-0.5,1.9-1,3.7-1.4,5.5
	c-1,3.9-1.7,7.8-1.8,11.4c0,0.1,0,0.2,0,0.3c0,0,0,0,0,0.1c-0.1,0.6-0.5,1.1-1,1.4c-0.3,0.2-0.7,0.3-1.1,0.3h-10.1
	c-1,0-1.9-0.8-2.1-1.7v0c0,0,0,0,0-0.1c0-0.1,0-0.2,0-0.3c0-4.1-0.8-8-1.8-11.8c-0.8-3.2-1.8-6.4-2.5-9.6c0-0.1,0-0.2,0-0.3
	c-0.1-1,0.6-2,1.6-2.3l6.1-1.2c0.2,0,0.3-0.1,0.5-0.1l0.5,0.3l1.2,0.6c0.5,0.2,0.9,0.3,1.4,0.4c0.7,0.1,1.5-0.1,2.1-0.5l1.3-0.7
	l0.1-0.1c0.2,0,0.3,0,0.5,0.1c0,0,6.3,1.3,6.4,1.3C-418.7,253-418.1,254-418.4,255z"/>
<polygon class="st13" points="-421.8,281.1 -422,291.4 -423.1,310 -423.9,324.6 -428.9,324.6 -429.7,286.1 -429.7,286 -429.8,280.3 
	-427.9,280.5 -427.7,280.5 "/>
<polygon class="st13" points="-437.9,281.2 -437.7,291.4 -436.6,310 -435.8,324.6 -430.8,324.6 -430,289 -429.9,286.1 -429.8,280.3 
	-430,280.3 "/>
<polygon class="st14" points="-415,327.3 -412.7,326.3 -409.3,327.3 -409.3,328.3 -415,328.3 "/>
<polygon class="st14" points="-402.5,327.3 -402.5,328.3 -408.2,328.3 -408.2,327.3 -404.5,326.3 "/>
<polygon class="st8" points="-440.9,252.2 -438.4,253.1 -436.4,251.8 "/>
<polygon class="st14" points="-433,251.3 -436.1,251.8 -432.2,255.4 -429.4,252.5 "/>
<polygon class="st14" points="-426.5,251.3 -423.3,251.8 -427.3,255.4 -429.4,252.5 "/>
<path class="st18" d="M-420.3,259.2c-0.5,1.9-0.2,4.1-0.6,5.9c-1,3.9-1.7,7.8-1.8,11.4c0,0.1,0,0.2,0,0.3c0,0,0,0,0,0.1
	c-0.1,0.6-0.5,1.1-1,1.4l-4.8,0.3l3.5-3.2c0,0,0.1-9.3,0-11.2c-0.1-1.9,4.3-7.1,4.3-7.1L-420.3,259.2z"/>
<path class="st12" d="M-422,279h-15.6l0.7-2.2v0c0,0,0,0,0-0.1h14.3c0,0,0,0,0,0.1h0.1L-422,279z"/>
<path class="st18" d="M-428.5,279.3h-1.9c-0.2,0-0.4-0.2-0.4-0.4v-1.9c0-0.2,0.2-0.4,0.4-0.4h1.9c0.2,0,0.4,0.2,0.4,0.4v1.9
	C-428.1,279.1-428.3,279.3-428.5,279.3z"/>
<path class="st13" d="M-433.8,279.3L-433.8,279.3c-0.2,0-0.3-0.1-0.3-0.3v-2.4c0-0.1,0.1-0.3,0.3-0.3h0c0.1,0,0.3,0.1,0.3,0.3v2.4
	C-433.6,279.2-433.7,279.3-433.8,279.3z"/>
<path class="st13" d="M-425.2,279.3L-425.2,279.3c-0.2,0-0.3-0.1-0.3-0.3v-2.4c0-0.1,0.1-0.3,0.3-0.3h0c0.1,0,0.3,0.1,0.3,0.3v2.4
	C-425,279.2-425.1,279.3-425.2,279.3z"/>
<polygon class="st18" points="-436.6,252 -432.9,255.7 -432.5,255.2 -436.1,251.8 "/>
<polygon class="st18" points="-429.4,252.5 -427.6,255.2 -428.1,255.4 -429.8,252.9 "/>
<path class="st10" d="M-410.9,325.6h-1.6c-0.6,0-1.1-0.5-1.1-1.1l0,0c0-0.6,0.5-1.1,1.1-1.1h1.6c0.6,0,1.1,0.5,1.1,1.1l0,0
	C-409.8,325.1-410.3,325.6-410.9,325.6z"/>
<polygon class="st19" points="-427.1,324.6 -428.9,324.6 -429.7,286.1 -429.7,286 -428.6,284.6 -427.9,280.5 -427.9,280.5 
	-427.7,279.4 -427.7,280.5 -427.7,280.5 -428.2,298.4 -427.6,303.6 "/>
<path class="st10" d="M-405,325.6h-1.6c-0.6,0-1.1-0.5-1.1-1.1l0,0c0-0.6,0.5-1.1,1.1-1.1h1.6c0.6,0,1.1,0.5,1.1,1.1l0,0
	C-403.9,325.1-404.4,325.6-405,325.6z"/>
<path class="st20" d="M-391.4,276.2l0,1l-0.1,7.2l-0.8,16.8l-0.1,1.4c0,0-1.1,1.9-2.2,2c-1.1,0.1-2.4-1.8-2.4-1.8l-0.2-1.6
	l-2.2-17.5c0,0-0.2-3.4,1.4-6.5c0.2-0.3,0.3-0.6,0.6-1C-397.5,276.2-391.4,276.2-391.4,276.2z"/>
<path class="st20" d="M-383.4,283.7l-2.2,17.5l-0.2,1.6c0,0-1.3,1.9-2.4,1.8c-1.1-0.1-2.2-2-2.2-2l-0.1-1.4l-0.8-16.8l-0.1-7.2l0-1
	h6c0.2,0.3,0.4,0.6,0.6,1C-383.2,280.3-383.4,283.7-383.4,283.7z"/>
<path class="st0" d="M-397.7,268.7C-397.7,268.7-397.7,268.7-397.7,268.7c-1.1,3.9-2.1,7.4-2.9,10.1c-0.1,0.5-0.3,0.9-0.4,1.3h-1.6
	c0-0.4,0.1-0.9,0.2-1.3c0.4-2.9,1.2-6.2,2.2-9.6L-397.7,268.7z"/>
<path class="st0" d="M-401,280.8c-0.2-0.5,0-0.7,0.2-1.2c-0.6,0-1.1-0.3-1.6-0.3l-0.6,4c0,0.1-0.1,0.5,0,0.6l2.2,2.4
	c0.1,0.1,0.2,0,0.4,0c0,0,0.6-0.3,0.2-0.6c-0.6-0.5-1.4-2-1.4-2c0-0.2,0.1-0.2,0.2-1l0.4,0.4c0.2,0.2,0.1,1.3,0.1,1.3l0.3-0.2
	c0,0,0.1-0.1,0.1-0.1c0.1-0.2,0.3-0.7,0.3-0.8L-401,280.8C-401,280.8-401,280.8-401,280.8z"/>
<path class="st3" d="M-397,255.9c0,0.2,0,1.7-0.1,3.7c0,1.3-0.1,2.7-0.2,4.1c0,0,0,0.1,0,0.1c-0.1,1.8-0.2,3.6-0.4,4.8v0h0l-2.5,0.4
	c-0.4-4.6-0.4-9,0-13.3c0,0,0-0.1,0-0.1c0.1-0.7,0.8-1.3,1.6-1.3c0.2,0,0.3,0,0.4,0.1C-397.5,254.7-397,255.2-397,255.9z"/>
<path class="st0" d="M-380.5,280.1h-1.6c-0.1-0.4-0.3-0.9-0.4-1.3c-0.8-2.7-1.8-6.1-2.9-10.1c0,0,0,0,0,0l2.5,0.5
	c1,3.4,1.9,6.7,2.2,9.6C-380.6,279.2-380.5,279.6-380.5,280.1z"/>
<path class="st0" d="M-382.1,280.8c0.2-0.5,0-0.7-0.2-1.2c0.6,0,1.1-0.3,1.6-0.3l0.6,4c0,0.1,0.1,0.5,0,0.6l-2.2,2.4
	c-0.1,0.1-0.2,0-0.4,0c0,0-0.6-0.3-0.2-0.6c0.6-0.5,1.4-2,1.4-2c0-0.2-0.1-0.2-0.2-1l-0.4,0.4c-0.2,0.2-0.1,1.3-0.1,1.3l-0.3-0.2
	c0,0-0.1-0.1-0.1-0.1c-0.1-0.2-0.3-0.7-0.3-0.8L-382.1,280.8C-382.1,280.8-382.1,280.8-382.1,280.8z"/>
<path class="st3" d="M-382.9,269.1l-2.5-0.4h0v0c-0.2-1.2-0.3-2.9-0.4-4.7c0,0,0,0,0-0.1c-0.1-1.5-0.1-3-0.2-4.3
	c-0.1-2-0.1-3.4-0.1-3.6c0-0.7,0.5-1.3,1.2-1.5c0.1,0,0.3-0.1,0.4-0.1c0.8,0,1.5,0.6,1.6,1.3c0,0,0,0.1,0,0.1
	C-382.5,260.1-382.5,264.5-382.9,269.1z"/>
<path class="st0" d="M-384.1,259.9c0.4,0.4,0.7,0.9,0.7,1.5c0,1-0.8,1.8-1.9,2.3c0,0,0,0-0.1,0c-0.1,0.1-0.3,0.1-0.4,0.2
	c0,0-0.1,0-0.1,0c0,0,0,0,0,0.1v0c-1.8,4.4-2,7.7,0.6,12h-12c2.5-4.4,2.3-7.6,0.6-12c0-0.1,0-0.1-0.1-0.2c-0.2-0.1-0.3-0.1-0.5-0.2
	c-0.3-0.1-0.6-0.3-0.8-0.4c-0.7-0.5-1.2-1.2-1.2-1.9c0-0.5,0.2-1,0.7-1.5l-1.1-4c0-0.8,0.7-1.4,1.6-1.4c0,0,0.1,0,0.1,0h1.8
	c1.2,0,2-0.4,2.5-0.9c0.5-0.5,0.8-1.2,0.9-2.1h2.9c0.1,0.8,0.4,1.6,0.9,2.1c0.5,0.5,1.4,0.9,2.5,0.9h1.8c0.9,0,1.7,0.6,1.7,1.4
	L-384.1,259.9z"/>
<path class="st21" d="M-384.1,261.8c0,0.8-0.5,1.5-1.2,1.9c0,0,0,0-0.1,0c-0.1,0.1-0.3,0.2-0.4,0.2c-0.1,0-0.1,0-0.2,0.1v0
	c-0.4,0.2-0.9,0.3-1.5,0.3c-1.8,0-3.3-1.1-3.3-2.5c0-1.4,1.5-2.5,3.3-2.5c0.5,0,1,0.1,1.4,0.3C-384.9,259.9-384.1,260.8-384.1,261.8
	z"/>
<path class="st21" d="M-392.2,261.8c0,1.4-1.5,2.5-3.3,2.5c-0.4,0-0.8-0.1-1.2-0.2c-0.2-0.1-0.4-0.1-0.6-0.2
	c-0.3-0.2-0.6-0.4-0.8-0.6c-0.4-0.4-0.7-0.9-0.7-1.5c0-0.9,0.7-1.8,1.7-2.2c0.5-0.2,1-0.3,1.6-0.3
	C-393.7,259.3-392.2,260.4-392.2,261.8z"/>
<path class="st22" d="M-385.3,245.7c-0.1-4.2-2.9-6.2-6.1-6.9c0,0,0,0,0,0c0,0,0,0,0,0c-2.9,0.3-5.6,2.7-6.1,6.9
	c-0.1,1.3,0.4,2.5,2,4.4h4h0h4C-386,248.7-385.2,247-385.3,245.7z"/>
<path class="st23" d="M-395.4,250.1h8c0,0,1.8-5.7-1-7.5c-2.8-1.8-6.1,0-6.1,0S-397.2,244.4-395.4,250.1L-395.4,250.1z"/>
<path class="st0" d="M-387.3,246c0,2.9-1.8,6.4-4,6.4c-0.1,0-0.2,0-0.3,0c-2.1-0.3-3.7-3.6-3.7-6.4c0-2.8,1.6-5.1,3.7-5.3
	c0.1,0,0.2,0,0.3,0C-389.1,240.8-387.3,243.1-387.3,246z"/>
<path class="st20" d="M-387.9,246c0,2.8-1.6,6.1-3.7,6.4c-2.1-0.3-3.7-3.6-3.7-6.4c0-0.1,0-0.2,0-0.3c0.1-1.9,0.9-3.6,2.2-4.4
	c0.4-0.2,0.7-0.4,1.1-0.5l0,0c0,0,0,0,0,0c0.1,0,0.2,0,0.4-0.1c0.3,0,0.5,0.1,0.8,0.2c1.5,0.5,2.7,2.2,2.9,4.3
	C-388,245.5-387.9,245.8-387.9,246z"/>
<path class="st22" d="M-387,243c0,0-0.9,2.2-3.3,2.3c0,0,0.4,0,0.6-1.2c0,0-1.3,1.6-4.1,1.7c0,0,0.7-0.3,0.8-0.9l-2.6,1.3V243
	l3.9-3.5l3.7,1L-387,243z"/>
<path class="st24" d="M-385.4,268.7L-385.4,268.7c-0.2-1.2-0.3-2.9-0.4-4.7c-0.1,0-0.1,0-0.2,0.1v0c-1.8,4.4-2,7.7,0.6,12
	c0.6,0.9,1,1.8,1.2,2.7h-14.5c0.3-0.9,0.7-1.8,1.2-2.7h0.1c2.5-4.4,2.3-7.6,0.6-12c-0.2-0.1-0.4-0.1-0.6-0.2
	c-0.1,1.8-0.2,3.6-0.4,4.8v0h0c-1.1,3.9-2.1,7.4-2.9,10.1h-1.8c0.4-2.9,1.2-6.2,2.2-9.6c-0.4-4.6-0.4-9,0-13.3c0,0,0-0.1,0-0.1
	c0.1-0.7,0.8-1.3,1.6-1.3c0.2,0,0.3,0,0.4,0.1c0,0,0.1,0,0.1,0h1.8c1.2,0,2-0.4,2.5-0.9h4.7c0.5,0.5,1.4,0.9,2.5,0.9h1.6
	c0.1,0,0.3-0.1,0.4-0.1c0.8,0,1.5,0.6,1.6,1.3c0,0,0,0.1,0,0.1c0.4,4.2,0.4,8.7,0,13.3c1,3.4,1.8,6.7,2.2,9.6h-1.8
	C-383.3,276-384.3,272.6-385.4,268.7L-385.4,268.7L-385.4,268.7z"/>
<path class="st3" d="M-382.8,256.6l0-1c0.9,0.2,1.8,0.4,2.7,0.6l-0.4,1.1c0,0.1,0,0.1,0,0.2l0,4.2c0,0.2,0,0.9-0.2,1l-3.1,2.2
	c-0.2,0.2-0.4,0-0.7-0.2c0,0-0.8-0.7-0.1-1.1c1.1-0.5,1.7-1.8,1.7-1.8c0.1-0.4,0-0.3,0-1.7l-0.9,0.7c0,0.1-0.1,0.2-0.2,0.3l-0.4,1.5
	l-0.4-0.5c-0.1-0.1-0.1-0.1-0.1-0.2c0-0.3-0.2-1.2-0.1-1.3l2.1-3.8C-382.9,256.8-382.8,256.7-382.8,256.6z"/>
<path class="st11" d="M-441.5,293.1l0.3,0.4l1.5,1.1c0.1-0.3,0.2-0.5,0.2-0.6l-1.2-4.2c0-0.1,0-0.2,0-0.3l0.2-1
	c-0.9,0-1.9,0-2.8-0.1l0.1,1.1c0,0.1,0,0.2,0,0.2l-0.4,1.7l2.2,1.6C-441.5,293.2-441.5,293.1-441.5,293.1z"/>
<polygon class="st16" points="-439.7,294.6 -441.2,293.5 -446,289.9 -446,299.9 -438,306.9 -438,295.9 "/>
<polygon class="st25" points="-441.5,293.2 -441.5,293.1 -437.7,295.8 -437.7,306.9 -438,306.9 -438,295.9 "/>
<path class="st11" d="M-444.3,294.9l2.5,2.8c0.2,0.2,0.4,0.1,0.7,0c0,0,1-0.5,0.4-1c-0.9-0.8-1.2-2.1-1.2-2.1c0-0.4,0.1-0.3,0.4-1.5
	l-2.2-1.6l-0.6,2.4C-444.4,294.1-444.5,294.7-444.3,294.9z"/>
<polygon class="st25" points="-446,289.9 -445.8,289.9 -443.7,291.4 -443.7,291.6 "/>
<path class="st10" d="M-439.5,253.5l2.7,7.5l-2.5,15.4c0,0-0.9,0.4-1.9,0.3c-1-0.1-2.2-1.4-2.2-1.4l2.1-20.2
	C-441.1,254.3-440.4,253.9-439.5,253.5z"/>
<polygon class="st10" points="-439.3,276.2 -439.5,281.9 -440.7,289.8 -443.5,289.8 -443.4,275.2 -440.4,275 "/>
<path class="st3" d="M-438.9,254l0.5-0.9c-0.9-0.3-1.8-0.6-2.6-0.9l-0.2,1.1c0,0.1,0,0.1-0.1,0.2l-2.3,3.6c-0.1,0.2-0.4,0.7-0.4,1
	l1.5,3.5c0.1,0.3,0.4,0.2,0.7,0.2c0,0,1.1-0.1,0.7-0.8c-0.6-1-0.4-2.4-0.4-2.4c0.1-0.4,0.2-0.3,0.9-1.4l0.3,1.1c0,0.1,0,0.2,0,0.3
	l-0.4,1.5l0.6-0.2c0.1,0,0.2-0.1,0.2-0.1c0.2-0.3,0.8-1,0.8-1.1l0.2-4.3C-439,254.2-438.9,254.1-438.9,254z"/>
<path class="st13" d="M-383.4,283.7l-2.2,17.5h-11.6l-2.2-17.5c0,0-0.2-3.4,1.4-6.5h13.2C-383.2,280.3-383.4,283.7-383.4,283.7z"/>
<rect x="-429.8" y="252.9" class="st18" width="0.4" height="24"/>
</svg>
