<?xml version="1.0" encoding="iso-8859-1"?>
<!-- Generator: Adobe Illustrator 19.1.0, SVG Export Plug-In . SVG Version: 6.00 Build 0)  -->
<!DOCTYPE svg PUBLIC "-//W3C//DTD SVG 1.1//EN" "http://www.w3.org/Graphics/SVG/1.1/DTD/svg11.dtd">
<svg version="1.1" id="illustrations" xmlns="http://www.w3.org/2000/svg" xmlns:xlink="http://www.w3.org/1999/xlink" x="0px"
	 y="0px" viewBox="0 0 85.572 104.914" style="enable-background:new 0 0 85.572 104.914;" xml:space="preserve">
<g>
	<g>
		<g>
			<path style="fill:#FD6D60;" d="M18.018,8.932c-0.001-0.879-0.047-1.477-0.137-1.783c-0.092-0.313-0.205-0.522-0.34-0.624
				c-0.135-0.103-0.311-0.153-0.526-0.153c-0.405,0-0.697,0.148-0.875,0.444c-0.178,0.298-0.267,0.738-0.267,1.32
				c0,0.584,0.08,1.011,0.242,1.28c0.162,0.27,0.362,0.527,0.6,0.773c0.059,0.062,0.112,0.117,0.159,0.165
				C17.154,9.804,17.543,9.318,18.018,8.932z"/>
		</g>
		<g>
			<path style="fill:#FD6D60;" d="M26.013,14.411c-0.494,0.05-1.005,0.131-1.542,0.234v1.023c0,0.951,0.039,1.519,0.117,1.705
				c0.078,0.187,0.161,0.333,0.247,0.441c0.151,0.205,0.413,0.308,0.786,0.308c0.372,0,0.648-0.113,0.826-0.34
				c0.178-0.227,0.273-0.565,0.287-1.013c0.014-0.448,0.021-0.812,0.021-1.093v-1.311C26.51,14.372,26.264,14.388,26.013,14.411z"/>
		</g>
		<g>
			<path style="fill:#FD6D60;" d="M28.423,14.493v1.216c0,1.333-0.209,2.305-0.628,2.915c-0.418,0.611-1.142,0.915-2.174,0.915
				c-1.032,0-1.761-0.304-2.187-0.915c-0.387-0.553-0.589-1.419-0.625-2.566c-0.595,0.301-1.267,0.474-1.98,0.474
				c-0.005,0-0.01-0.001-0.015-0.001c-0.007,0-0.014,0.001-0.021,0.001c-0.341,0-0.671-0.042-0.989-0.115
				c-0.06,0.897-0.236,1.616-0.543,2.14c-0.38,0.65-1.105,0.976-2.175,0.976c-1.29,0-2.108-0.567-2.454-1.7
				c-0.199-0.637-0.299-1.472-0.299-2.503c0-0.027,0-0.054,0-0.081v-1.385h1.628v1.45c0,1.042,0.075,1.767,0.227,2.174
				c0.151,0.408,0.432,0.611,0.842,0.611c0.411,0,0.694-0.096,0.851-0.287c0.156-0.191,0.247-0.484,0.271-0.879
				c0.023-0.375,0.034-0.798,0.035-1.261c-1.036-0.764-1.725-1.969-1.789-3.34l-0.445-0.445c-0.831-0.853-1.347-1.639-1.547-2.357
				c-0.097-0.34-0.146-0.748-0.146-1.223c0-1.031,0.19-1.852,0.571-2.459c0.38-0.607,1.107-0.91,2.183-0.91
				c1.382,0,2.197,0.664,2.445,1.992c0.064,0.34,0.107,0.739,0.134,1.185c0.382-0.107,0.783-0.169,1.2-0.169
				c0.007,0,0.014,0.001,0.021,0.001c0.005,0,0.01-0.001,0.015-0.001c0.707,0,1.373,0.171,1.965,0.467V5.115h1.677v4.716
				c0.537,0.103,1.048,0.184,1.542,0.234c0.251,0.023,0.497,0.039,0.742,0.045V5.115h1.668v4.868
				c0.646-0.115,1.302-0.31,1.997-0.618V0.948C30.42,0.425,29.995,0,29.472,0H7.091C6.567,0,6.143,0.425,6.143,0.948v22.58
				c0,0.524,0.425,0.948,0.948,0.948h22.381c0.523,0,0.948-0.425,0.948-0.948v-8.416C29.725,14.803,29.069,14.609,28.423,14.493z"/>
		</g>
		<g>
			<path style="fill:#F19B2C;" d="M55.845,0c-0.523,0-0.948,0.425-0.948,0.948v8.343c-0.057,0.026-0.11,0.045-0.166,0.07v0.004
				c-0.055,0.023-0.105,0.04-0.159,0.062c-0.204,0.087-0.407,0.171-0.606,0.239c-0.005,0.002-0.01,0.004-0.016,0.005
				c-1.027,0.356-1.992,0.476-2.998,0.437v1.275h2.446v1.393h-2.446v1.592c1.006-0.039,1.971,0.08,2.998,0.436
				c0.006,0.002,0.011,0.003,0.016,0.005c0.198,0.068,0.401,0.152,0.606,0.239c0.054,0.023,0.104,0.039,0.159,0.063v0.003
				c0.056,0.025,0.109,0.044,0.166,0.07v8.343c0,0.524,0.425,0.948,0.948,0.948h22.414c0.523,0,0.948-0.425,0.948-0.948V0.948
				C79.207,0.425,78.782,0,78.259,0H55.845z M61.458,18.556c-0.38,0.65-1.105,0.976-2.175,0.976c-1.29,0-2.107-0.567-2.454-1.7
				c-0.199-0.637-0.299-1.472-0.299-2.503c0-0.027,0-0.054,0-0.081v-1.385h1.628v1.45c0,1.042,0.075,1.767,0.227,2.174
				c0.151,0.408,0.432,0.611,0.842,0.611c0.411,0,0.694-0.096,0.851-0.287c0.156-0.191,0.247-0.484,0.271-0.879
				c0.024-0.394,0.037-0.837,0.037-1.328c0-0.988-0.435-1.917-1.305-2.786l-0.932-0.932c-0.831-0.853-1.347-1.639-1.546-2.357
				c-0.098-0.34-0.146-0.748-0.146-1.223c0-1.031,0.19-1.852,0.571-2.459c0.381-0.607,1.108-0.91,2.183-0.91
				c1.382,0,2.197,0.664,2.446,1.992c0.107,0.572,0.161,1.293,0.161,2.162v0.842h-1.604V8.979c0-0.907-0.046-1.518-0.138-1.83
				c-0.092-0.313-0.205-0.522-0.34-0.624c-0.135-0.103-0.31-0.153-0.526-0.153c-0.405,0-0.697,0.148-0.875,0.444
				c-0.178,0.298-0.267,0.738-0.267,1.32c0,0.584,0.08,1.011,0.242,1.28c0.162,0.27,0.362,0.527,0.6,0.773
				c0.237,0.246,0.37,0.385,0.397,0.417l0.972,1.028c1.166,1.221,1.749,2.587,1.749,4.099
				C62.029,16.964,61.839,17.905,61.458,18.556z M69.765,18.556c-0.38,0.65-1.106,0.976-2.174,0.976c-1.291,0-2.108-0.567-2.454-1.7
				c-0.2-0.637-0.3-1.472-0.3-2.503c0-0.027,0-0.054,0-0.081v-1.385h1.628v1.45c0,1.042,0.075,1.767,0.227,2.174
				c0.151,0.408,0.433,0.611,0.842,0.611c0.411,0,0.694-0.096,0.851-0.287c0.157-0.191,0.248-0.484,0.271-0.879
				c0.024-0.394,0.036-0.837,0.036-1.328c0-0.988-0.434-1.917-1.304-2.786l-0.932-0.932c-0.831-0.853-1.347-1.639-1.547-2.357
				c-0.097-0.34-0.146-0.748-0.146-1.223c0-1.031,0.19-1.852,0.571-2.459c0.381-0.607,1.108-0.91,2.183-0.91
				c1.383,0,2.197,0.664,2.445,1.992c0.108,0.572,0.162,1.293,0.162,2.162v0.842h-1.603V8.979c0-0.907-0.047-1.518-0.139-1.83
				c-0.091-0.313-0.205-0.522-0.34-0.624c-0.136-0.103-0.311-0.153-0.526-0.153c-0.405,0-0.696,0.148-0.875,0.444
				c-0.178,0.298-0.267,0.738-0.267,1.32c0,0.584,0.08,1.011,0.242,1.28c0.162,0.27,0.361,0.527,0.6,0.773
				c0.237,0.246,0.369,0.385,0.396,0.417l0.973,1.028c1.166,1.221,1.749,2.587,1.749,4.099
				C70.336,16.964,70.146,17.905,69.765,18.556z"/>
		</g>
		<g>
			<path style="fill:#F19B2C;" d="M49.276,14.553V9.924c-0.188-0.031-0.373-0.062-0.567-0.1c-0.092-0.133-0.192-0.258-0.298-0.379
				c-0.632-0.719-1.495-1.225-2.473-1.413c0.026,0.316,0.044,0.65,0.044,1.019v1.579h-1.644V9.044c0-0.402-0.012-0.736-0.03-1.023
				c-0.841,0.154-1.597,0.546-2.197,1.104v6.082c0,0.053,0.003,0.096,0.003,0.147c0.078,0.073,0.157,0.144,0.241,0.212
				c0.552,0.441,1.213,0.752,1.936,0.887c0.03-0.355,0.048-0.767,0.048-1.255v-1.579h1.66v1.563c0,0.463-0.026,0.875-0.065,1.263
				c0.979-0.188,1.845-0.693,2.478-1.414c0.105-0.121,0.206-0.246,0.298-0.379C48.903,14.615,49.089,14.585,49.276,14.553z"/>
		</g>
		<g>
			<path style="fill:#447EA1;" d="M44.189,7.192c-0.101-0.32-0.221-0.534-0.36-0.64c-0.141-0.106-0.319-0.158-0.535-0.158
				c-0.448,0-0.757,0.213-0.927,0.636c-0.17,0.424-0.256,1.092-0.256,2.005v0.089c0.6-0.558,1.356-0.95,2.197-1.103
				C44.283,7.655,44.245,7.372,44.189,7.192z"/>
		</g>
		<g>
			<path style="fill:#447EA1;" d="M54.571,15.049c-0.204-0.087-0.407-0.171-0.606-0.239c-0.005-0.002-0.01-0.003-0.016-0.005
				c-1.027-0.354-1.99-0.471-2.998-0.434v3.606h2.616v1.393h-4.292v-4.815c-0.187,0.031-0.372,0.062-0.565,0.1
				c-0.093,0.132-0.194,0.257-0.3,0.378c-0.632,0.723-1.497,1.228-2.478,1.414c-0.087,0.863-0.265,1.551-0.546,2.038
				c-0.407,0.704-1.119,1.056-2.134,1.056c-1.016,0-1.739-0.362-2.171-1.089c-0.432-0.726-0.647-1.821-0.647-3.284V9.229
				c0-1.08,0.089-1.873,0.267-2.381c0.179-0.508,0.373-0.881,0.583-1.118c0.459-0.518,1.129-0.78,2.009-0.785
				c1.231,0.005,2.025,0.548,2.381,1.628c0.132,0.398,0.217,0.892,0.264,1.459c0.979,0.188,1.843,0.692,2.473,1.413
				c0.105,0.121,0.207,0.246,0.3,0.379c0.193,0.037,0.379,0.067,0.565,0.099V5.115h4.26v1.392h-2.584v3.598
				c1.008,0.037,1.971-0.08,2.998-0.434c0.006-0.001,0.011-0.003,0.016-0.005c0.198-0.068,0.401-0.152,0.606-0.239
				c0.053-0.024,0.105-0.043,0.159-0.066V0.948C54.73,0.425,54.306,0,53.782,0H31.568c-0.524,0-0.948,0.425-0.948,0.948v8.343
				c-0.77,0.362-1.488,0.585-2.197,0.708v4.479c0.709,0.123,1.427,0.346,2.197,0.708v8.343c0,0.524,0.424,0.948,0.948,0.948h22.214
				c0.523,0,0.948-0.425,0.948-0.948v-8.413C54.677,15.092,54.624,15.072,54.571,15.049z M37.32,15.183
				c0,1.495-0.204,2.596-0.611,3.301c-0.408,0.704-1.119,1.056-2.134,1.056c-1.016,0-1.739-0.362-2.171-1.089
				c-0.432-0.726-0.648-1.821-0.648-3.284V9.229c0-1.08,0.09-1.873,0.268-2.381c0.179-0.508,0.373-0.881,0.583-1.118
				c0.459-0.518,1.129-0.78,2.009-0.785c1.231,0.005,2.024,0.548,2.381,1.628c0.205,0.621,0.308,1.447,0.308,2.478v1.579H35.66
				V9.044c0-0.913-0.05-1.53-0.15-1.852c-0.1-0.32-0.22-0.534-0.36-0.64c-0.14-0.106-0.318-0.158-0.534-0.158
				c-0.448,0-0.757,0.213-0.928,0.636c-0.17,0.424-0.255,1.092-0.255,2.005v6.172c0,1.079,0.077,1.834,0.231,2.264
				c0.153,0.429,0.45,0.644,0.891,0.644c0.439,0,0.734-0.216,0.883-0.647c0.148-0.433,0.223-1.189,0.223-2.269v-1.579h1.66V15.183z"
				/>
		</g>
		<g>
			<path style="fill:#447EA1;" d="M24.471,14.641c0.537-0.102,1.048-0.182,1.542-0.229c0.251-0.024,0.497-0.041,0.742-0.048v-4.25
				c-0.245-0.007-0.491-0.023-0.742-0.048c-0.494-0.047-1.005-0.127-1.542-0.229V14.641z"/>
		</g>
		<g>
			<path style="fill:#447EA1;" d="M16.885,12.817l-0.448-0.449c0.072,1.341,0.742,2.52,1.752,3.278c0-0.015,0-0.027,0-0.043
				C18.188,14.615,17.754,13.686,16.885,12.817z"/>
		</g>
		<g>
			<path style="fill:#447EA1;" d="M22.794,15.709v-7.28c-0.595-0.304-1.266-0.479-1.979-0.482c-0.424,0.002-0.833,0.065-1.221,0.178
				c0.018,0.301,0.028,0.619,0.028,0.968v0.842h-1.603V8.979c0-0.006,0-0.011,0-0.017c-0.466,0.387-0.848,0.869-1.122,1.416
				c0.122,0.128,0.196,0.206,0.215,0.228l0.972,1.028c1.167,1.221,1.75,2.587,1.75,4.099c0,0.238-0.014,0.456-0.027,0.673
				c0.324,0.077,0.661,0.123,1.009,0.124c0.719-0.004,1.396-0.181,1.994-0.489C22.805,15.928,22.794,15.828,22.794,15.709z"/>
		</g>
		<g>
			<path style="fill:#447EA1;" d="M42.343,17.471c0.153,0.429,0.45,0.644,0.891,0.644c0.439,0,0.734-0.216,0.883-0.647
				c0.081-0.237,0.139-0.581,0.175-1.013c-0.723-0.136-1.384-0.445-1.936-0.888c-0.084-0.067-0.163-0.139-0.241-0.212
				C42.122,16.351,42.196,17.062,42.343,17.471z"/>
		</g>
		<g>
			<path style="fill:#447EA1;" d="M26.755,10.11c-0.245-0.006-0.491-0.022-0.742-0.045c0.251,0.024,0.497,0.041,0.742,0.048V10.11z"
				/>
		</g>
		<g>
			<path style="fill:#447EA1;" d="M26.755,14.366v-0.003c-0.245,0.007-0.491,0.023-0.742,0.048
				C26.264,14.388,26.51,14.372,26.755,14.366z"/>
		</g>
		<g>
			<path style="fill:#447EA1;" d="M20.814,7.946c-0.007,0-0.014-0.001-0.021-0.001c-0.417,0-0.818,0.062-1.2,0.169
				c0,0.003,0,0.007,0,0.01C19.981,8.011,20.391,7.948,20.814,7.946z"/>
		</g>
		<g>
			<path style="fill:#447EA1;" d="M16.874,10.354c0.009,0.009,0.014,0.015,0.023,0.024c0.274-0.547,0.656-1.029,1.122-1.416
				c0-0.011-0.001-0.019-0.001-0.03C17.543,9.318,17.154,9.804,16.874,10.354z"/>
		</g>
		<g>
			<path style="fill:#447EA1;" d="M19.805,16.416c0.318,0.073,0.648,0.115,0.989,0.115c0.007,0,0.014-0.001,0.021-0.001
				c-0.348-0.001-0.685-0.047-1.009-0.124C19.805,16.409,19.805,16.413,19.805,16.416z"/>
		</g>
		<g>
			<path style="fill:#447EA1;" d="M16.436,12.368l-0.038-0.037c0.064,1.371,0.753,2.576,1.789,3.34c0-0.008,0.001-0.016,0.001-0.024
				C17.179,14.889,16.509,13.709,16.436,12.368z"/>
		</g>
		<g>
			<path style="fill:#447EA1;" d="M54.571,9.428c-0.204,0.087-0.407,0.171-0.606,0.239C54.164,9.599,54.367,9.515,54.571,9.428z"/>
		</g>
		<g>
			<path style="fill:#447EA1;" d="M53.966,14.81c0.198,0.068,0.401,0.152,0.606,0.239C54.367,14.962,54.164,14.878,53.966,14.81z"/>
		</g>
		<g>
			<path style="fill:#447EA1;" d="M53.95,14.805c-1.027-0.356-1.992-0.476-2.998-0.436v0.003
				C51.96,14.334,52.923,14.451,53.95,14.805z"/>
		</g>
		<g>
			<path style="fill:#447EA1;" d="M50.952,10.106v0.003c1.006,0.039,1.971-0.08,2.998-0.437
				C52.923,10.025,51.96,10.143,50.952,10.106z"/>
		</g>
		<g>
			<path style="fill:#447EA1;" d="M48.709,14.652c-0.092,0.133-0.192,0.258-0.298,0.379c0.105-0.121,0.207-0.246,0.3-0.378
				c0.193-0.038,0.379-0.068,0.565-0.1v-0.001C49.089,14.585,48.903,14.615,48.709,14.652z"/>
		</g>
		<g>
			<path style="fill:#447EA1;" d="M44.291,16.453c-0.723-0.135-1.384-0.445-1.936-0.887C42.907,16.009,43.568,16.318,44.291,16.453
				L44.291,16.453z"/>
		</g>
		<g>
			<path style="fill:#447EA1;" d="M42.111,9.124v0.001c0.6-0.559,1.356-0.95,2.197-1.104l0,0
				C43.468,8.174,42.712,8.566,42.111,9.124z"/>
		</g>
		<g>
			<path style="fill:#447EA1;" d="M49.276,9.924L49.276,9.924c-0.187-0.032-0.372-0.062-0.565-0.1
				c-0.093-0.133-0.194-0.258-0.3-0.379c0.105,0.121,0.206,0.246,0.298,0.379C48.903,9.861,49.089,9.893,49.276,9.924z"/>
		</g>
		<g>
			<path style="fill:#D53D33;" d="M16.874,10.354c-0.047-0.048-0.1-0.103-0.159-0.165c-0.237-0.246-0.438-0.503-0.6-0.773
				c-0.162-0.27-0.242-0.696-0.242-1.28c0-0.582,0.089-1.023,0.267-1.32c0.178-0.296,0.47-0.444,0.875-0.444
				c0.216,0,0.392,0.051,0.526,0.153c0.135,0.103,0.248,0.311,0.34,0.624c0.09,0.307,0.136,0.904,0.137,1.783
				c0.458-0.372,0.992-0.652,1.576-0.817C19.567,7.669,19.524,7.27,19.46,6.93c-0.248-1.328-1.063-1.992-2.445-1.992
				c-1.075,0-1.803,0.304-2.183,0.91c-0.381,0.607-0.571,1.428-0.571,2.459c0,0.475,0.049,0.883,0.146,1.223
				c0.2,0.718,0.716,1.504,1.547,2.357l0.445,0.445c-0.001-0.031-0.006-0.062-0.007-0.093
				C16.409,11.561,16.584,10.923,16.874,10.354z"/>
		</g>
		<g>
			<path style="fill:#D53D33;" d="M18.152,16.932c-0.024,0.395-0.115,0.688-0.271,0.879c-0.156,0.191-0.44,0.287-0.851,0.287
				c-0.41,0-0.69-0.203-0.842-0.611c-0.151-0.407-0.227-1.132-0.227-2.174v-1.45h-1.628v1.385c0,0.027,0,0.054,0,0.081
				c0,1.031,0.1,1.866,0.299,2.503c0.346,1.133,1.164,1.7,2.454,1.7c1.069,0,1.795-0.325,2.175-0.976
				c0.307-0.523,0.483-1.242,0.543-2.14c-0.595-0.137-1.142-0.395-1.617-0.745C18.186,16.134,18.176,16.557,18.152,16.932z"/>
		</g>
		<g>
			<path style="fill:#386885;" d="M16.436,12.368l0.448,0.449c0.869,0.869,1.304,1.798,1.304,2.786c0,0.016,0,0.028,0,0.043
				c0.474,0.357,1.021,0.618,1.617,0.76c0.014-0.217,0.027-0.435,0.027-0.673c0-1.512-0.583-2.878-1.75-4.099l-0.972-1.028
				c-0.019-0.023-0.093-0.101-0.215-0.228c-0.283,0.563-0.453,1.193-0.47,1.863C16.428,12.284,16.434,12.326,16.436,12.368z"/>
		</g>
		<g>
			<path style="fill:#386885;" d="M18.019,8.979v0.955h1.603V9.092c0-0.349-0.011-0.667-0.028-0.968
				c-0.585,0.17-1.119,0.458-1.575,0.838C18.019,8.968,18.019,8.973,18.019,8.979z"/>
		</g>
		<g>
			<path style="fill:#8C9AA8;" d="M18.019,8.962c0.456-0.38,0.99-0.668,1.575-0.838c0-0.003,0-0.007,0-0.01
				c-0.584,0.165-1.118,0.445-1.576,0.817C18.018,8.942,18.019,8.951,18.019,8.962z"/>
		</g>
		<g>
			<path style="fill:#8C9AA8;" d="M18.188,15.646c0,0.009-0.001,0.017-0.001,0.024c0.476,0.351,1.022,0.608,1.617,0.745
				c0-0.003,0-0.007,0.001-0.01C19.21,16.265,18.662,16.003,18.188,15.646z"/>
		</g>
		<g>
			<path style="fill:#8C9AA8;" d="M16.427,12.241c0.017-0.67,0.187-1.3,0.47-1.863c-0.009-0.009-0.014-0.015-0.023-0.024
				c-0.29,0.568-0.465,1.206-0.482,1.884c0.001,0.031,0.006,0.061,0.007,0.093l0.038,0.037
				C16.434,12.326,16.428,12.284,16.427,12.241z"/>
		</g>
		<g>
			<path style="fill:#8C9AA8;" d="M24.433,14.652c0.013-0.002,0.024-0.004,0.038-0.007v-0.005c-0.024,0.005-0.046,0.008-0.07,0.013
				c-0.408,0.582-0.956,1.059-1.592,1.388c0,0.006,0,0.011,0,0.017C23.459,15.729,24.019,15.247,24.433,14.652z"/>
		</g>
		<g>
			<path style="fill:#8C9AA8;" d="M24.4,9.824c0.024,0.004,0.046,0.008,0.07,0.012V9.831c-0.014-0.003-0.025-0.005-0.038-0.007
				c-0.417-0.6-0.982-1.083-1.639-1.412v0.017C23.436,8.758,23.989,9.236,24.4,9.824z"/>
		</g>
		<g>
			<path style="fill:#D53D33;" d="M26.755,15.677c0,0.28-0.007,0.645-0.021,1.093c-0.014,0.448-0.109,0.786-0.287,1.013
				c-0.179,0.226-0.454,0.34-0.826,0.34c-0.373,0-0.635-0.103-0.786-0.308c-0.086-0.108-0.169-0.255-0.247-0.441
				c-0.078-0.187-0.117-0.754-0.117-1.705v-1.023c-0.014,0.003-0.025,0.005-0.038,0.007c-0.414,0.595-0.974,1.076-1.624,1.405
				c0.036,1.147,0.238,2.014,0.625,2.566c0.427,0.611,1.155,0.915,2.187,0.915c1.031,0,1.756-0.304,2.174-0.915
				c0.419-0.61,0.628-1.582,0.628-2.915v-1.216c-0.556-0.099-1.107-0.142-1.668-0.127V15.677z"/>
		</g>
		<g>
			<path style="fill:#D53D33;" d="M24.433,9.824c0.013,0.002,0.024,0.004,0.038,0.007V5.115h-1.677v3.297
				C23.45,8.741,24.016,9.225,24.433,9.824z"/>
		</g>
		<g>
			<path style="fill:#D53D33;" d="M28.423,5.115h-1.668v4.995c0.561,0.015,1.112-0.028,1.668-0.127V5.115z"/>
		</g>
		<g>
			<path style="fill:#386885;" d="M26.755,10.113v4.25c0.561-0.018,1.112,0.018,1.668,0.114V9.999
				C27.867,10.096,27.316,10.131,26.755,10.113z"/>
		</g>
		<g>
			<path style="fill:#386885;" d="M24.4,9.824c-0.411-0.588-0.964-1.066-1.606-1.395v7.28c0,0.119,0.011,0.219,0.015,0.332
				c0.636-0.329,1.184-0.806,1.592-1.388c0.024-0.005,0.046-0.008,0.07-0.013V9.836C24.446,9.832,24.425,9.828,24.4,9.824z"/>
		</g>
		<g>
			<path style="fill:#8C9AA8;" d="M26.755,10.11v0.003c0.561,0.018,1.112-0.018,1.668-0.114V9.983
				C27.867,10.082,27.316,10.125,26.755,10.11z"/>
		</g>
		<g>
			<path style="fill:#8C9AA8;" d="M26.755,14.363v0.003c0.561-0.015,1.112,0.028,1.668,0.127v-0.016
				C27.867,14.381,27.316,14.346,26.755,14.363z"/>
		</g>
		<g>
			<path style="fill:#386885;" d="M35.66,15.198c0,1.08-0.074,1.836-0.223,2.269c-0.148,0.432-0.443,0.647-0.883,0.647
				c-0.44,0-0.737-0.215-0.891-0.644c-0.154-0.43-0.231-1.184-0.231-2.264V9.035c0-0.913,0.085-1.581,0.255-2.005
				c0.171-0.423,0.479-0.636,0.928-0.636c0.216,0,0.395,0.053,0.534,0.158c0.141,0.105,0.261,0.319,0.36,0.64
				c0.101,0.321,0.15,0.939,0.15,1.852v1.587h1.644V9.052c0-1.031-0.103-1.857-0.308-2.478c-0.356-1.08-1.149-1.623-2.381-1.628
				c-0.88,0.005-1.55,0.268-2.009,0.785c-0.21,0.237-0.404,0.61-0.583,1.118c-0.178,0.508-0.268,1.301-0.268,2.381v5.937
				c0,1.463,0.217,2.558,0.648,3.284c0.432,0.727,1.155,1.089,2.171,1.089c1.015,0,1.726-0.352,2.134-1.056
				c0.407-0.705,0.611-1.806,0.611-3.301v-1.563h-1.66V15.198z"/>
		</g>
		<g>
			<path style="fill:#8C9AA8;" d="M45.938,8.032L45.938,8.032c-0.028-0.005-0.058-0.011-0.087-0.016
				C45.881,8.021,45.91,8.027,45.938,8.032z"/>
		</g>
		<g>
			<path style="fill:#8C9AA8;" d="M40.926,13.52c0.236,0.71,0.651,1.338,1.188,1.835l0,0C41.578,14.856,41.163,14.229,40.926,13.52z
				"/>
		</g>
		<g>
			<path style="fill:#8C9AA8;" d="M45.852,16.46c0.027-0.004,0.055-0.01,0.082-0.015l0,0C45.906,16.45,45.879,16.456,45.852,16.46z"
				/>
		</g>
		<g>
			<path style="fill:#E47E30;" d="M45.852,16.46c0.027-0.004,0.055-0.01,0.082-0.015c0.039-0.388,0.065-0.8,0.065-1.263v-1.563
				h-1.66v1.579c0,0.487-0.018,0.899-0.048,1.255c0.265,0.05,0.536,0.078,0.814,0.078C45.361,16.531,45.608,16.502,45.852,16.46z"/>
		</g>
		<g>
			<path style="fill:#D6741D;" d="M45.105,7.945c-0.272,0-0.538,0.028-0.797,0.075c0.019,0.287,0.03,0.621,0.03,1.023v1.587h1.644
				V9.052c0-0.369-0.018-0.703-0.044-1.019c-0.028-0.005-0.058-0.011-0.087-0.016C45.608,7.975,45.361,7.945,45.105,7.945z"/>
		</g>
		<g>
			<path style="fill:#D6741D;" d="M40.703,12.241c0.012,0.446,0.089,0.875,0.223,1.278c0.237,0.71,0.652,1.337,1.188,1.835
				c0-0.052-0.003-0.095-0.003-0.147V9.125C41.271,9.906,40.734,11.009,40.703,12.241z"/>
		</g>
		<g>
			<path style="fill:#386885;" d="M45.104,16.531c-0.278,0-0.55-0.028-0.813-0.077c-0.036,0.432-0.094,0.775-0.175,1.013
				c-0.148,0.432-0.443,0.647-0.883,0.647c-0.44,0-0.737-0.215-0.891-0.644c-0.146-0.408-0.221-1.12-0.229-2.116
				c-0.537-0.497-0.952-1.125-1.188-1.835c-0.135-0.404-0.212-0.835-0.224-1.281c0.031-1.231,0.569-2.333,1.409-3.114V9.035
				c0-0.913,0.086-1.581,0.256-2.005c0.17-0.423,0.479-0.636,0.927-0.636c0.216,0,0.395,0.053,0.535,0.158
				c0.14,0.105,0.26,0.319,0.36,0.64c0.056,0.18,0.094,0.463,0.119,0.828c0.258-0.048,0.523-0.075,0.796-0.075
				c0.256,0,0.504,0.029,0.747,0.071c0.029,0.005,0.059,0.011,0.087,0.016c-0.047-0.567-0.132-1.061-0.264-1.459
				c-0.355-1.08-1.149-1.623-2.381-1.628c-0.88,0.005-1.55,0.268-2.009,0.785c-0.21,0.237-0.404,0.61-0.583,1.118
				c-0.178,0.508-0.267,1.301-0.267,2.381v5.937c0,1.463,0.216,2.558,0.647,3.284c0.432,0.727,1.155,1.089,2.171,1.089
				c1.015,0,1.727-0.352,2.134-1.056c0.281-0.487,0.459-1.175,0.546-2.038c-0.027,0.005-0.055,0.011-0.082,0.015
				C45.608,16.502,45.36,16.531,45.104,16.531z"/>
		</g>
		<g>
			<path style="fill:#8C9AA8;" d="M40.702,12.238c0.012,0.446,0.089,0.877,0.224,1.281c-0.134-0.403-0.211-0.832-0.223-1.278
				c0.031-1.232,0.568-2.335,1.408-3.116V9.124C41.271,9.905,40.733,11.008,40.702,12.238z"/>
		</g>
		<g>
			<path style="fill:#8C9AA8;" d="M45.852,8.017c-0.243-0.042-0.491-0.071-0.747-0.071c-0.272,0-0.538,0.027-0.796,0.075l0,0
				c0.259-0.047,0.524-0.075,0.797-0.075C45.361,7.945,45.608,7.975,45.852,8.017z"/>
		</g>
		<g>
			<path style="fill:#8C9AA8;" d="M45.104,16.531c0.256,0,0.504-0.029,0.747-0.071C45.608,16.502,45.361,16.531,45.104,16.531
				c-0.277,0-0.549-0.028-0.813-0.078v0.001C44.555,16.503,44.826,16.531,45.104,16.531z"/>
		</g>
		<g>
			<path style="fill:#D6741D;" d="M49.276,14.553c0.581-0.098,1.137-0.164,1.676-0.185v-1.592h2.446v-1.393h-2.446v-1.275
				c-0.539-0.021-1.095-0.087-1.676-0.185V14.553z"/>
		</g>
		<g>
			<path style="fill:#386885;" d="M49.276,19.369h4.292v-1.393h-2.616v-3.606c-0.539,0.019-1.094,0.086-1.676,0.183V19.369z"/>
		</g>
		<g>
			<path style="fill:#386885;" d="M50.952,6.508h2.584V5.115h-4.26v4.808c0.582,0.097,1.137,0.163,1.676,0.183V6.508z"/>
		</g>
		<g>
			<path style="fill:#8C9AA8;" d="M49.276,14.554c0.582-0.097,1.137-0.163,1.676-0.183v-0.003
				C50.413,14.389,49.857,14.455,49.276,14.554L49.276,14.554z"/>
		</g>
		<g>
			<path style="fill:#8C9AA8;" d="M49.276,9.923L49.276,9.923c0.581,0.099,1.137,0.165,1.676,0.186v-0.003
				C50.413,10.086,49.858,10.02,49.276,9.923z"/>
		</g>
		<g>
			<path style="fill:#D6741D;" d="M59.309,10.606c-0.027-0.032-0.16-0.171-0.397-0.417c-0.237-0.246-0.438-0.503-0.6-0.773
				c-0.162-0.27-0.242-0.696-0.242-1.28c0-0.582,0.089-1.023,0.267-1.32c0.178-0.296,0.47-0.444,0.875-0.444
				c0.216,0,0.392,0.051,0.526,0.153c0.135,0.103,0.248,0.311,0.34,0.624c0.092,0.312,0.138,0.923,0.138,1.83v0.955h1.604V9.092
				c0-0.869-0.054-1.59-0.161-2.162c-0.249-1.328-1.064-1.992-2.446-1.992c-1.075,0-1.802,0.304-2.183,0.91
				c-0.381,0.607-0.571,1.428-0.571,2.459c0,0.475,0.049,0.883,0.146,1.223c0.199,0.718,0.715,1.504,1.546,2.357l0.932,0.932
				c0.87,0.869,1.305,1.798,1.305,2.786c0,0.491-0.013,0.935-0.037,1.328c-0.024,0.395-0.115,0.688-0.271,0.879
				c-0.156,0.191-0.439,0.287-0.851,0.287c-0.41,0-0.69-0.203-0.842-0.611c-0.151-0.407-0.227-1.132-0.227-2.174v-1.45H56.53v1.385
				c0,0.027,0,0.054,0,0.081c0,1.031,0.1,1.866,0.299,2.503c0.347,1.133,1.164,1.7,2.454,1.7c1.069,0,1.795-0.325,2.175-0.976
				c0.381-0.65,0.571-1.592,0.571-2.822c0-1.512-0.583-2.878-1.749-4.099L59.309,10.606z"/>
		</g>
		<g>
			<path style="fill:#D6741D;" d="M67.614,10.606c-0.027-0.032-0.159-0.171-0.396-0.417c-0.238-0.246-0.438-0.503-0.6-0.773
				c-0.162-0.27-0.242-0.696-0.242-1.28c0-0.582,0.089-1.023,0.267-1.32c0.179-0.296,0.47-0.444,0.875-0.444
				c0.216,0,0.391,0.051,0.526,0.153c0.135,0.103,0.249,0.311,0.34,0.624c0.092,0.312,0.139,0.923,0.139,1.83v0.955h1.603V9.092
				c0-0.869-0.054-1.59-0.162-2.162c-0.248-1.328-1.062-1.992-2.445-1.992c-1.074,0-1.802,0.304-2.183,0.91
				c-0.381,0.607-0.571,1.428-0.571,2.459c0,0.475,0.049,0.883,0.146,1.223c0.2,0.718,0.716,1.504,1.547,2.357l0.932,0.932
				c0.87,0.869,1.304,1.798,1.304,2.786c0,0.491-0.012,0.935-0.036,1.328c-0.023,0.395-0.114,0.688-0.271,0.879
				c-0.156,0.191-0.439,0.287-0.851,0.287c-0.409,0-0.69-0.203-0.842-0.611c-0.151-0.407-0.227-1.132-0.227-2.174v-1.45h-1.628
				v1.385c0,0.027,0,0.054,0,0.081c0,1.031,0.1,1.866,0.3,2.503c0.346,1.133,1.163,1.7,2.454,1.7c1.068,0,1.794-0.325,2.174-0.976
				c0.381-0.65,0.571-1.592,0.571-2.822c0-1.512-0.583-2.878-1.749-4.099L67.614,10.606z"/>
		</g>
	</g>
	<g>
		<g>
			<path style="fill:#E0E0E0;" d="M78.242,28.021l-2.659,7.46l2.465,15.374c0,0,0.908,0.39,1.881,0.324
				c0.974-0.064,2.206-1.427,2.206-1.427l-2.141-20.24C79.801,28.853,79.143,28.386,78.242,28.021z"/>
		</g>
		<g>
			<path style="fill:#D0D0D0;" d="M56.936,29.409l-3.56,17.494c-0.081,0.241-0.046,0.506,0.095,0.719l1.728,1.782
				c0.298,0.449,1.17,0.255,1.532-0.144l1.602-1.988c0.102-0.111,3.123-14.811,3.123-14.811c0.052-0.267-1.469-1.665-1.659-1.859
				l-1.486-1.511C57.877,28.652,57.133,28.824,56.936,29.409z"/>
		</g>
		<g>
			<path d="M65.434,103.866h-1.557c-0.763,0-1.387-0.624-1.387-1.387v-2.195c0-0.762,0.624-1.386,1.387-1.386h1.557
				c0.763,0,1.387,0.624,1.387,1.386v2.195C66.82,103.242,66.196,103.866,65.434,103.866z"/>
		</g>
		<g>
			<path d="M73.191,103.866h-1.557c-0.763,0-1.387-0.624-1.387-1.387v-2.195c0-0.762,0.624-1.386,1.387-1.386h1.557
				c0.763,0,1.387,0.624,1.387,1.386v2.195C74.578,103.242,73.954,103.866,73.191,103.866z"/>
		</g>
		<g>
			<rect x="65.474" y="22.465" style="fill:#DEAD8E;" width="6.066" height="7.007"/>
		</g>
		<g>
			<g>
				<path style="fill:#D3A283;" d="M71.455,18.446c-0.107,0.385,0.111,0.811,0.487,0.949l0,0c0.438,0.16,0.9-0.076,1.026-0.526
					l0.388-1.388c0.107-0.385-0.111-0.812-0.487-0.949l0,0c-0.439-0.161-0.9,0.076-1.026,0.526L71.455,18.446z"/>
			</g>
			<g>
				<path style="fill:#D3A283;" d="M72.341,15.305l0.125,4.988c0.01,0.405-0.062,0.863-0.271,1.352
					c-0.505,1.185-0.505,1.185-2.236,2.925c-0.206,0.21-0.75,0.402-1.422,0.407c-0.113,0.003-0.221,0.006-0.324,0.003
					c-0.525-0.031-0.94-0.171-1.121-0.339c-1.817-1.649-1.817-1.649-2.381-2.809c-0.232-0.478-0.327-0.931-0.337-1.336l-0.125-4.988
					c-0.039-1.528,1.033-2.806,2.381-2.839l3.19-0.08C71.168,12.555,72.303,13.777,72.341,15.305z"/>
			</g>
			<g>
				<path style="fill:#EAB99A;" d="M71.693,15.321l0.125,4.988c0.011,0.405-0.057,0.862-0.265,1.352
					c-0.505,1.186-0.505,1.186-2.237,2.924c-0.177,0.177-0.58,0.337-1.104,0.395c-0.525-0.031-0.94-0.171-1.121-0.339
					c-1.817-1.649-1.817-1.649-2.381-2.809c-0.232-0.478-0.327-0.931-0.337-1.336l-0.125-4.988
					c-0.039-1.528,1.033-2.806,2.381-2.839l2.544-0.064C70.521,12.571,71.655,13.793,71.693,15.321z"/>
			</g>
			<g>
				<path style="fill:#EAB99A;" d="M64.812,19.574L64.812,19.574c-0.431,0.182-0.903-0.031-1.052-0.475l-0.457-1.366
					c-0.127-0.379,0.071-0.817,0.439-0.973l0,0c0.43-0.183,0.903,0.031,1.051,0.475l0.457,1.366
					C65.377,18.98,65.18,19.418,64.812,19.574z"/>
			</g>
			<g>
				<polygon points="73.09,16.036 72.365,18.845 71.377,15.396 70.854,16.092 69.899,16.316 69.895,16.322 65.37,17.386 
					64.334,18.907 63.813,15.168 65.07,11.312 70.219,10.283 71.272,11.235 72.697,12.517 				"/>
			</g>
			<g>
				<path style="fill:#303030;" d="M71.272,11.235l0.062,2.482c0.028,1.144-0.569,2.148-1.436,2.599l-0.005,0.006l-4.525,1.063
					l-1.036,1.522l-0.521-3.739l1.257-3.856l5.148-1.029L71.272,11.235z"/>
			</g>
		</g>
		<g>
			<path style="fill:#6D3C1F;" d="M76.436,56.657l-0.817,5.051H61.279l-0.905-4.957c-0.104-0.578-0.07-1.174,0.106-1.74l0.128-0.414
				l0.672-2.219v-0.006h14.339l0.602,2.225l0.134,0.502C76.494,55.606,76.518,56.138,76.436,56.657z"/>
		</g>
		<g>
			<path style="fill:#E0E0E0;" d="M79.868,30.612c0,0.012-0.006,0.023-0.006,0.035c-0.794,3.422-1.722,6.784-2.51,10.048
				c-0.958,3.947-1.711,7.754-1.764,11.35c0,0.094-0.006,0.182-0.023,0.269c0,0.023,0,0.041-0.006,0.059
				c-0.175,0.993-1.045,1.746-2.084,1.746H63.357c-1.039,0-1.903-0.753-2.078-1.74v-0.006c-0.006-0.018-0.006-0.041-0.006-0.059
				c-0.023-0.104-0.029-0.21-0.029-0.32c0.012-4.059-0.806-7.976-1.804-11.823c-0.841-3.217-1.811-6.381-2.534-9.552
				c-0.018-0.087-0.035-0.175-0.041-0.263c-0.104-1.033,0.566-2.014,1.6-2.265c0.331-0.065,6.231-1.256,6.568-1.256l3.721,3.288
				l3.005-3.288c0.397,0,6.779,1.323,6.878,1.366C79.564,28.593,80.103,29.603,79.868,30.612z"/>
		</g>
		<g>
			<g>
				<polygon style="fill:#6D3C1F;" points="76.436,56.657 68.391,55.869 68.489,61.708 68.752,76.958 68.975,84.343 69.336,100.177 
					74.959,100.177 75.104,85.581 75.396,77.833 76.196,66.962 				"/>
			</g>
			<g>
				<polygon style="fill:#6D3C1F;" points="60.374,56.751 60.578,66.962 61.385,77.833 61.658,85.581 61.805,100.177 
					67.427,100.177 67.789,84.343 68.022,76.958 68.238,64.574 68.291,61.708 68.391,55.869 68.238,55.887 				"/>
			</g>
		</g>
		<g>
			<polygon style="fill:#303030;" points="63.557,100.179 61.555,103.171 61.555,104.193 67.222,104.193 67.222,102.66 
				66.257,100.179 			"/>
		</g>
		<g>
			<polygon style="fill:#505050;" points="61.555,103.171 63.844,102.187 67.222,103.171 67.222,104.193 61.555,104.193 			"/>
		</g>
		<g>
			<polygon style="fill:#303030;" points="75.793,103.172 75.793,104.193 70.124,104.193 70.124,102.658 71.088,100.177 
				73.791,100.177 			"/>
		</g>
		<g>
			<polygon style="fill:#505050;" points="75.793,103.172 75.793,104.193 70.124,104.193 70.124,103.172 73.842,102.187 			"/>
		</g>
		<g>
			<path style="fill:#404040;" d="M76.22,54.597H60.607l0.672-2.219v-0.006c-0.006-0.018-0.006-0.041-0.006-0.059h14.292
				c0,0.023,0,0.041-0.006,0.059h0.059L76.22,54.597z"/>
		</g>
		<g>
			<polygon style="fill:#E0E0E0;" points="58.808,36.501 59.538,48.006 60.374,50.33 61.279,52.378 75.618,52.372 76.22,51.023 
				77.059,48.615 77.637,37.591 			"/>
		</g>
		<g>
			<path style="fill:#7D4C2E;" d="M64.4,54.916h-0.037c-0.141,0-0.256-0.115-0.256-0.257v-2.406c0-0.141,0.115-0.256,0.256-0.256
				H64.4c0.142,0,0.257,0.115,0.257,0.256v2.406C64.657,54.801,64.542,54.916,64.4,54.916z"/>
		</g>
		<g>
			<path style="fill:#EAB99A;" d="M61.673,53.011l-0.447-0.913c-0.747,0.558-1.495,1.115-2.239,1.678l0.802,0.819
				c0.052,0.057,0.094,0.122,0.125,0.192l1.72,3.86c0.09,0.2,0.393,0.764,0.604,0.823l3.751,0.685
				c0.293,0.083,0.354-0.203,0.538-0.444c0,0,0.49-0.96-0.319-1.009c-1.219-0.028-2.243-0.948-2.243-0.948
				c-0.246-0.309-0.123-0.296-0.669-1.521l1.071,0.303c0.077,0.049,0.189,0.122,0.266,0.171l1.013,1.198l0.196-0.602
				c0.026-0.081,0.026-0.165,0-0.246c-0.107-0.332-0.363-1.196-0.453-1.261l-3.501-2.544C61.799,53.188,61.726,53.106,61.673,53.011
				z"/>
		</g>
		<g>
			<path style="fill:#6D3C1F;" d="M67.317,60.948l-5.134,0.004c-0.411,0.145-0.866-0.07-1.013-0.481l-0.157-0.441
				c-0.146-0.411,0.069-0.866,0.48-1.013l5.196-1.853c0.411-0.146,0.866,0.069,1.013,0.48l0.157,0.441
				C68.007,58.497,67.728,60.802,67.317,60.948z"/>
		</g>
		<g>
			<polygon style="fill:#3C4A58;" points="68.307,30.987 66.866,45.664 68.396,48.98 70.147,45.664 68.739,30.987 			"/>
		</g>
		<g>
			<path style="fill:#F7C46F;" d="M69.72,54.867h-1.931c-0.245,0-0.445-0.2-0.445-0.445v-1.931c0-0.245,0.2-0.446,0.445-0.446h1.931
				c0.245,0,0.445,0.201,0.445,0.446v1.931C70.165,54.667,69.965,54.867,69.72,54.867z"/>
		</g>
		<g>
			<polygon style="fill:#D0D0D0;" points="77.637,35.041 77.454,41.073 77.059,48.615 75.618,52.372 71.865,52.421 74.751,51.389 
				76.22,45.416 			"/>
		</g>
		<g>
			<path style="fill:#7D4C2E;" d="M72.98,54.916h-0.037c-0.141,0-0.256-0.115-0.256-0.257v-2.406c0-0.141,0.115-0.256,0.256-0.256
				h0.037c0.142,0,0.257,0.115,0.257,0.256v2.406C73.237,54.801,73.122,54.916,72.98,54.916z"/>
		</g>
		<g>
			<polygon style="fill:#5D2C10;" points="70.729,79.193 71.16,100.177 69.245,100.177 68.884,84.343 68.661,76.958 68.398,61.708 
				69.637,60.195 70.378,56.074 70.582,54.947 70.553,56.091 70.036,73.939 			"/>
		</g>
		<g>
			<path style="fill:#3C4A58;" d="M68.705,31.241h-0.396c-0.439,0-0.798-0.359-0.798-0.798v-0.231c0-0.439,0.359-0.798,0.798-0.798
				h0.396c0.439,0,0.797,0.358,0.797,0.798v0.231C69.502,30.882,69.144,31.241,68.705,31.241z"/>
		</g>
		<g>
			<polygon style="fill:#FFFFFF;" points="65.033,26.835 61.873,27.418 66.461,31.483 67.906,29.357 			"/>
		</g>
		<g>
			<polygon style="fill:#FFFFFF;" points="71.722,26.835 74.882,27.418 70.293,31.483 68.849,29.357 			"/>
		</g>
		<g>
			<path style="fill:#E0E0E0;" d="M59.499,54.361c0.692-0.526,1.436-1.042,2.13-1.567l-1.007-2.501l-3.006-5.213
				c-0.057-0.119-2.439,0.014-2.439,0.014c-0.284-0.024-0.609,0.175-0.744,0.456l-0.909,1.902c-0.09,0.19-0.075,0.379,0.038,0.5
				l3.828,4.426L59.499,54.361z"/>
		</g>
		<g>
			<polygon style="fill:#E0E0E0;" points="77.982,50.725 78.242,56.368 79.41,64.283 82.199,64.348 82.135,49.752 79.086,49.558 			
				"/>
		</g>
		<g>
			<path style="fill:#EAB99A;" d="M79.376,64.062c0.313,5.321,0.146,3.377,0.56,6.773h0.373c0.543-1.319,0.459-0.821,0.248-2.858
				c0.654,0.175,0.966,0.564,1.018,1.07c0.085,0.808,0.271,1.459-0.383,1.949c-0.273,0.205-0.462,0.386-0.553,0.75l-0.145,0.581
				c2.21-1.105,2.691-1.178,2.859-1.924c0.099-0.44,0.464-1.786,0.379-2.187l-0.509-2.393c-0.01-0.046-1.073-2.241-1.052-2.197
				C81.951,63.344,79.335,63.36,79.376,64.062z"/>
		</g>
		<g>
			<polygon style="fill:#7D4C2E;" points="75.647,70.438 82.948,74.598 85.184,74.151 78.181,69.991 			"/>
		</g>
		<g>
			<polygon style="fill:#6D3C1F;" points="78.437,69.343 79.604,67.786 79.734,69.213 79.15,69.861 79.15,71.224 78.242,71.224 			
				"/>
		</g>
		<g>
			<polygon style="fill:#6D3C1F;" points="80.557,67.977 82.005,69.083 82.523,72.781 81.291,72.91 81.227,69.732 80.578,69.083 			
				"/>
		</g>
		<g>
			<polygon style="fill:#6D3C1F;" points="83.037,74.338 83.627,83.938 75.907,79.592 75.907,70.381 			"/>
		</g>
		<g>
			<polygon style="fill:#6D3C1F;" points="84.989,74.078 85.572,83.29 83.562,84.068 83.043,74.468 			"/>
		</g>
	</g>
	<g>
		<g>
			<path style="fill:#95A5A6;" d="M28.657,30.188l3.561,17.494c0.081,0.241,0.046,0.507-0.095,0.719l-1.728,1.782
				c-0.298,0.449-1.171,0.256-1.533-0.143l-1.601-1.988c-0.101-0.111-3.123-14.811-3.123-14.811
				c-0.052-0.268,1.468-1.665,1.659-1.859l1.486-1.511C27.717,29.431,28.461,29.603,28.657,30.188z"/>
		</g>
		<g>
			<polygon style="fill:#DEAD8E;" points="20.025,23.793 20.76,29.684 13.534,32.705 13.959,23.793 			"/>
		</g>
		<g>
			<polygon style="fill:#E0E0E0;" points="16.846,81.926 16.98,84.757 16.846,87.005 			"/>
		</g>
		<g>
			<polygon style="fill:#505050;" points="24.226,52.786 24.226,55.361 9.677,55.361 9.706,55.011 9.887,52.792 9.887,52.786 			"/>
		</g>
		<g>
			<path style="fill:#3C4A58;" d="M25.043,57.071l-0.817,5.051H9.887l-0.905-4.957c-0.104-0.578-0.069-1.174,0.105-1.739
				l0.129-0.415l0.671-2.219v-0.006h14.339l0.602,2.225l0.134,0.502C25.102,56.021,25.125,56.552,25.043,57.071z"/>
		</g>
		<g>
			<g>
				<path style="fill:#EAB99A;" d="M22.109,18.218L21.8,19.63c-0.07,0.298-0.286,0.515-0.549,0.584c-0.14,0.047-0.298,0.047-0.449,0
					c-0.041-0.012-0.076-0.023-0.111-0.046h-0.006c-0.315-0.158-0.502-0.531-0.426-0.882l0.157-0.713l0.105-0.467l0.053-0.228
					c0.058-0.257,0.228-0.455,0.449-0.549c0.082-0.041,0.175-0.064,0.269-0.064c0.012-0.006,0.029-0.006,0.041-0.006
					c0.082,0,0.157,0.012,0.239,0.035C21.952,17.412,22.197,17.826,22.109,18.218z"/>
			</g>
			<g>
				<path style="fill:#EAB99A;" d="M21.239,21.942c-0.093,0.479-0.28,0.911-0.537,1.261c-0.163,0.233-0.368,0.433-0.584,0.59
					l-0.093,0.117l-1.396,1.78c-0.21,0.304-0.864,0.473-1.442,0.473c-0.204-0.006-0.402-0.029-0.572-0.081
					c-0.157-0.047-0.286-0.111-0.373-0.204l-1.781-1.641c-0.175-0.082-0.351-0.205-0.502-0.345c-0.053-0.047-0.1-0.094-0.146-0.141
					c-0.315-0.304-0.578-0.706-0.748-1.173c-0.122-0.315-0.198-0.66-0.228-1.022l-0.053-0.665l-0.216-2.744l-0.012-0.145
					l-0.07-0.882c-0.14-1.699,0.853-3.176,2.201-3.281l1.927-0.152l1.086-0.087l0.555-0.047c0.759-0.059,1.472,0.327,1.979,0.975
					c0.391,0.508,0.659,1.174,0.718,1.915l0.07,0.888l0.123,1.559l0.104,1.325l0.053,0.672
					C21.333,21.254,21.316,21.604,21.239,21.942z"/>
			</g>
			<g>
				<path style="fill:#F4CAAF;" d="M20.394,16.49l0.353,4.439c0.029,0.366,0.008,0.72-0.063,1.056
					c-0.095,0.481-0.282,0.91-0.541,1.26c-0.163,0.236-0.364,0.438-0.583,0.594l-1.49,1.896c-0.141,0.212-0.489,0.356-0.883,0.428
					c-0.399-0.008-0.771-0.096-0.944-0.283l-1.781-1.645c-0.235-0.11-0.456-0.277-0.649-0.479c-0.314-0.305-0.574-0.708-0.744-1.175
					c-0.123-0.314-0.2-0.66-0.229-1.02l-0.354-4.44c-0.136-1.698,0.855-3.173,2.202-3.28l3.012-0.24
					C19.046,13.492,20.259,14.792,20.394,16.49z"/>
			</g>
			<g>
				<path style="fill:#F4CAAF;" d="M13.614,19.817c0.147,0.372-0.026,0.821-0.386,0.997l0,0c-0.421,0.206-0.905,0.018-1.078-0.417
					l-0.531-1.343c-0.148-0.372,0.026-0.821,0.386-0.997l0,0c0.421-0.205,0.906-0.017,1.078,0.417L13.614,19.817z"/>
			</g>
			<g>
				<polygon style="fill:#47210C;" points="21.409,15.993 21.292,17.266 21.146,18.889 21.082,19.596 20.58,18.825 20.416,18.573 
					19.64,17.377 18.408,17.23 16.615,17.021 13.883,16.693 13.393,19.257 13.177,20.384 13.142,20.559 13.101,20.366 
					12.569,18.147 12.534,17.996 12.26,16.857 12.826,13.074 13.316,13.039 14.047,11.375 14.461,11.9 15.139,10.797 16.615,11.702 
					17.152,12.034 17.649,11.328 20.124,13.406 20.147,13.39 20.667,12.904 				"/>
			</g>
			<g>
				<path style="fill:#5D2C10;" d="M20.224,14.335c0.006,0.064,0.012,0.129,0.012,0.192c0,0.292-0.035,0.578-0.105,0.841
					c-0.239,0.911-0.887,1.629-1.722,1.862l-1.793-0.21l-2.732-0.327l-0.49,2.564l-0.216,1.127
					c-0.024-0.006-0.053-0.006-0.076-0.018l-0.531-2.219l-0.035-0.151l-0.274-1.139l0.566-3.783l0.49-0.035l0.731-1.664l0.414,0.525
					l0.678-1.104l1.477,0.905l0.537,0.332l0.496-0.706l2.475,2.078l0.024-0.017L20.224,14.335z"/>
			</g>
		</g>
		<g>
			<path style="fill:#EAB99A;" d="M4.495,68.354l0.29,0.395l1.475,1.109c0.095-0.269,0.171-0.51,0.155-0.563l-1.203-4.157
				c-0.03-0.104-0.037-0.215-0.019-0.322l0.207-0.995c-0.933-0.019-1.865-0.037-2.798-0.051l0.131,1.14
				c0.005,0.076-0.002,0.153-0.02,0.229l-0.427,1.731l2.171,1.633C4.471,68.451,4.481,68.411,4.495,68.354z"/>
		</g>
		<g>
			<polygon style="fill:#FD6D60;" points="6.26,69.858 4.785,68.749 0,65.149 0,75.172 8.027,82.176 8.027,71.188 			"/>
		</g>
		<g>
			<path style="fill:#A5B5B6;" d="M28.477,31.026c0,0.012-0.006,0.023-0.006,0.035c-0.356,1.536-0.742,3.065-1.127,4.578
				c-0.473,1.851-0.952,3.672-1.384,5.47c-0.958,3.947-1.711,7.754-1.764,11.351c0,0.093-0.006,0.181-0.023,0.269
				c0,0.022,0,0.04-0.006,0.058c-0.11,0.619-0.49,1.144-1.01,1.448c-0.315,0.192-0.683,0.298-1.074,0.298H11.965
				c-1.039,0-1.903-0.753-2.078-1.74v-0.006c-0.006-0.018-0.006-0.041-0.006-0.058c-0.023-0.105-0.029-0.211-0.029-0.321
				c0.012-4.058-0.806-7.976-1.804-11.823c-0.841-3.217-1.81-6.381-2.534-9.551c-0.018-0.088-0.035-0.176-0.041-0.263
				c-0.104-1.034,0.566-2.015,1.6-2.266c0.331-0.065,6.231-1.256,6.568-1.256c0.851,1.077,2.563,2.495,3.331,2.562
				c1.03,0.09,3.114-1.29,3.395-2.562c0.399,0,6.779,1.323,6.878,1.366C28.173,29.007,28.71,30.017,28.477,31.026z"/>
		</g>
		<g>
			<g>
				<polygon style="fill:#3C4A58;" points="25.045,57.072 24.806,67.377 23.714,85.995 22.983,100.591 17.945,100.591 
					17.099,62.122 17.093,61.947 16.999,56.284 18.932,56.471 19.107,56.488 				"/>
			</g>
			<g>
				<polygon style="fill:#3C4A58;" points="8.981,57.165 9.186,67.377 10.267,85.995 10.996,100.591 16.034,100.591 16.846,64.988 
					16.899,62.122 16.998,56.283 16.846,56.301 				"/>
			</g>
		</g>
		<g>
			<path style="fill:#95A5A6;" d="M26.963,38.075c-0.473,1.851-0.571,1.236-1.003,3.034c-0.958,3.947-1.711,7.754-1.764,11.351
				c0,0.093-0.006,0.181-0.023,0.269c0,0.022,0,0.04-0.006,0.058c-0.11,0.619-0.49,1.144-1.01,1.448l-4.822,0.269l3.509-3.211
				c0,0,1.227-5.562,0-11.198c-0.02-0.092,2.395,2.003,2.395,2.003L26.963,38.075z"/>
		</g>
		<g>
			<path style="fill:#303030;" d="M24.827,55.011H9.216l0.671-2.219v-0.006c-0.006-0.018-0.006-0.041-0.006-0.058h14.292
				c0,0.022,0,0.04-0.006,0.058h0.059L24.827,55.011z"/>
		</g>
		<g>
			<path style="fill:#A0A0A0;" d="M18.327,55.281h-1.931c-0.245,0-0.445-0.2-0.445-0.445v-1.931c0-0.245,0.2-0.445,0.445-0.445
				h1.931c0.245,0,0.445,0.2,0.445,0.445v1.931C18.772,55.081,18.572,55.281,18.327,55.281z"/>
		</g>
		<g>
			<path style="fill:#3C4A58;" d="M13.009,55.33h-0.037c-0.142,0-0.257-0.115-0.257-0.256v-2.407c0-0.141,0.115-0.256,0.257-0.256
				h0.037c0.141,0,0.256,0.115,0.256,0.256v2.407C13.265,55.215,13.149,55.33,13.009,55.33z"/>
		</g>
		<g>
			<path style="fill:#3C4A58;" d="M21.588,55.33h-0.037c-0.141,0-0.256-0.115-0.256-0.256v-2.407c0-0.141,0.115-0.256,0.256-0.256
				h0.037c0.142,0,0.257,0.115,0.257,0.256v2.407C21.845,55.215,21.729,55.33,21.588,55.33z"/>
		</g>
		<g>
			<polygon style="fill:#D53D33;" points="4.457,68.502 4.495,68.354 8.296,71.138 8.296,82.176 8.027,82.176 8.027,71.188 			"/>
		</g>
		<g>
			<polygon style="fill:#859596;" points="13.677,27.249 10.518,27.832 15.104,31.897 17.011,29.811 			"/>
		</g>
		<g>
			<polygon style="fill:#859596;" points="20.365,27.249 23.525,27.832 18.938,31.897 17.011,29.811 			"/>
		</g>
		<g>
			<path style="fill:#EAB99A;" d="M1.65,70.206l2.541,2.844c0.181,0.245,0.404,0.057,0.698-0.021c0,0,0.976-0.457,0.367-0.991
				c-0.945-0.771-1.188-2.126-1.188-2.126c-0.004-0.379,0.078-0.329,0.367-1.464l-2.172-1.634l-0.585,2.372
				C1.627,69.399,1.52,70.029,1.65,70.206z"/>
		</g>
		<g>
			<polygon style="fill:#D53D33;" points="0,65.149 0.228,65.149 2.286,66.663 2.286,66.869 			"/>
		</g>
		<g>
			<polygon style="fill:#E0E0E0;" points="8.027,71.501 8.643,71.993 8.643,82.741 8.027,82.176 			"/>
		</g>
		<g>
			<path style="fill:#303030;" d="M11.398,99.722l-1.891,2.826c-0.274,0.41-0.298,0.938-0.062,1.37l0,0
				c0.231,0.425,0.678,0.689,1.162,0.689h4.534c0.57,0,1.077-0.366,1.256-0.908l0.241-0.73c0.097-0.292,0.089-0.607-0.022-0.895
				L15.8,99.979c-0.197-0.509-0.688-0.844-1.233-0.844h-2.069C12.056,99.135,11.644,99.355,11.398,99.722z"/>
		</g>
		<g>
			<path style="fill:#505050;" d="M10.129,103.009l2.641-0.506c0.101-0.02,0.207-0.02,0.308,0.001l2.604,0.532
				c0.466,0.095,0.744,0.575,0.595,1.026l0,0c-0.107,0.325-0.411,0.545-0.753,0.545h-5.231c-0.291,0-0.558-0.158-0.697-0.413
				l-0.014-0.025C9.324,103.696,9.601,103.11,10.129,103.009z"/>
		</g>
		<g>
			<rect x="16.972" y="29.811" style="fill:#95A5A6;" width="0.155" height="22.762"/>
		</g>
		<g>
			<circle style="fill:#95A5A6;" cx="17.843" cy="35.249" r="0.29"/>
		</g>
		<g>
			<circle style="fill:#95A5A6;" cx="17.843" cy="38.985" r="0.29"/>
		</g>
		<g>
			<circle style="fill:#95A5A6;" cx="17.843" cy="42.721" r="0.29"/>
		</g>
		<g>
			<circle style="fill:#95A5A6;" cx="17.843" cy="46.456" r="0.29"/>
		</g>
		<g>
			<circle style="fill:#95A5A6;" cx="17.843" cy="50.191" r="0.29"/>
		</g>
		<g>
			<path style="fill:#EAB99A;" d="M23.921,53.789l0.447-0.913c0.747,0.558,1.495,1.116,2.239,1.678l-0.802,0.819
				c-0.052,0.058-0.094,0.122-0.125,0.192l-1.72,3.86c-0.09,0.201-0.393,0.764-0.604,0.823l-3.751,0.686
				c-0.293,0.082-0.354-0.204-0.538-0.445c0,0-0.49-0.96,0.319-1.008c1.219-0.028,2.243-0.949,2.243-0.949
				c0.245-0.31,0.122-0.295,0.669-1.521l-1.071,0.303c-0.077,0.049-0.19,0.122-0.266,0.171l-1.013,1.199l-0.196-0.602
				c-0.026-0.081-0.026-0.166,0-0.247c0.107-0.332,0.363-1.195,0.453-1.261l3.501-2.544C23.795,53.967,23.868,53.885,23.921,53.789z
				"/>
		</g>
		<g>
			<path style="fill:#A5B5B6;" d="M26.095,55.14c-0.692-0.526-1.436-1.042-2.13-1.566l1.007-2.501l3.006-5.213
				c0.057-0.119,2.439,0.014,2.439,0.014c0.284-0.024,0.609,0.175,0.744,0.456l0.909,1.902c0.09,0.189,0.075,0.38-0.038,0.5
				l-3.828,4.427L26.095,55.14z"/>
		</g>
		<g>
			<path style="fill:#A5B5B6;" d="M6.464,28.799l2.66,7.46L6.658,51.633c0,0-0.907,0.39-1.881,0.324
				c-0.973-0.064-2.205-1.427-2.205-1.427l2.141-20.239C4.905,29.631,5.563,29.164,6.464,28.799z"/>
		</g>
		<g>
			<polygon style="fill:#A5B5B6;" points="6.724,51.503 6.464,57.147 5.297,65.062 2.507,65.126 2.572,50.53 5.621,50.336 			"/>
		</g>
		<g>
			
				<rect x="18.56" y="58.229" transform="matrix(0.9042 0.4271 -0.4271 0.9042 27.8281 -3.2806)" style="fill:#3C4A58;" width="5.335" height="4.347"/>
		</g>
		<g>
			<polygon style="fill:#1D2A38;" points="19.714,100.591 17.945,100.591 17.099,62.122 17.093,61.947 18.191,60.61 18.932,56.488 
				18.932,56.471 19.137,55.361 19.107,56.488 19.107,56.506 18.594,74.354 19.282,79.608 			"/>
		</g>
		<g>
			<path style="fill:#303030;" d="M22.618,99.722l1.892,2.826c0.273,0.41,0.298,0.938,0.061,1.37l0,0
				c-0.231,0.425-0.678,0.689-1.162,0.689h-4.533c-0.571,0-1.078-0.366-1.257-0.908l-0.241-0.73
				c-0.097-0.292-0.088-0.607,0.023-0.895l0.814-2.096c0.198-0.509,0.688-0.844,1.233-0.844h2.069
				C21.96,99.135,22.373,99.355,22.618,99.722z"/>
		</g>
		<g>
			<path style="fill:#505050;" d="M23.888,103.009l-2.642-0.506c-0.101-0.02-0.206-0.02-0.309,0.001l-2.604,0.532
				c-0.466,0.095-0.744,0.575-0.595,1.026l0,0c0.107,0.325,0.411,0.545,0.753,0.545h5.232c0.291,0,0.559-0.158,0.697-0.413
				l0.014-0.025C24.692,103.696,24.415,103.11,23.888,103.009z"/>
		</g>
	</g>
	<g>
		<g>
			<path style="fill:#EAB99A;" d="M34.956,35.88l-2.195,4.728l-2.239,4.408l-2.028,1.781c-0.386,0.379-1.027,0.291-1.296-0.176
				l-0.958-1.652l-0.012-0.018l-0.146-0.257c-0.129-0.222-0.146-0.484-0.053-0.724l2.131-5.284l2.47-6.13
				c0.064-0.169,0.181-0.298,0.315-0.379c0.327-0.211,0.788-0.182,1.074,0.146l1.39,1.6C33.59,34.128,35.026,35.611,34.956,35.88z"
				/>
		</g>
		<g>
			<path style="fill:#DEAD8E;" d="M33.147,59.923l-0.778-3.367c-0.015-0.061-0.038-0.119-0.07-0.174l-6.623-11.089
				c-0.11-0.184-0.114-0.412-0.012-0.601l1.036-1.896c0.153-0.28,0.498-0.394,0.787-0.259l2.627,1.224
				c0.152,0.071,0.545,0.208,0.597,0.369l3.348,11.273c0.027,0.085,0.072,0.163,0.134,0.229l2.413,2.588
				c0.062,0.066,0.133,0.799,0.167,1.082c0.009,0.069-0.005,0.137-0.039,0.198l-0.251,0.452l-0.626-1.12
				c-0.053-0.052-0.133-0.127-0.186-0.179l-0.813-0.41c0.248,1.068,0.151,1.038,0.3,1.325c0,0,0.679,0.898,1.652,1.111
				c0.642,0.165,0.1,0.858,0.1,0.858c-0.186,0.165-0.279,0.386-0.501,0.273l-2.904-1.135C33.344,60.597,33.188,60.098,33.147,59.923
				z"/>
		</g>
		<g>
			<path style="fill:#EAB99A;" d="M51.435,35.88l2.195,4.728l2.239,4.408l2.028,1.781c0.386,0.379,1.027,0.291,1.297-0.176
				l0.957-1.652l0.012-0.018l0.146-0.257c0.129-0.222,0.146-0.484,0.053-0.724l-2.131-5.284l-2.47-6.13
				c-0.065-0.169-0.181-0.298-0.316-0.379c-0.326-0.211-0.788-0.182-1.074,0.146l-1.39,1.6
				C52.801,34.128,51.364,35.611,51.435,35.88z"/>
		</g>
		<g>
			<path style="fill:#DEAD8E;" d="M53.243,59.923l0.779-3.367c0.014-0.061,0.037-0.119,0.069-0.174l6.624-11.089
				c0.109-0.184,0.114-0.412,0.011-0.601l-1.036-1.896c-0.153-0.28-0.497-0.394-0.787-0.259l-2.626,1.224
				c-0.153,0.071-0.546,0.208-0.597,0.369l-3.349,11.273c-0.027,0.085-0.072,0.163-0.133,0.229l-2.414,2.588
				c-0.062,0.066-0.132,0.799-0.167,1.082c-0.009,0.069,0.005,0.137,0.039,0.198l0.251,0.452l0.626-1.12
				c0.054-0.052,0.133-0.127,0.187-0.179l0.812-0.41c-0.247,1.068-0.15,1.038-0.3,1.325c0,0-0.679,0.898-1.652,1.111
				c-0.642,0.165-0.1,0.858-0.1,0.858c0.187,0.165,0.28,0.386,0.502,0.273l2.903-1.135C53.048,60.597,53.203,60.098,53.243,59.923z"
				/>
		</g>
		<g>
			<path style="fill:#EAB99A;" d="M54.695,31.154c-0.578,2.522-1.237,4.997-1.862,7.438v0.006c-0.012,0.052-0.023,0.104-0.041,0.151
				c-0.063,0.263-0.128,0.514-0.187,0.765c-1.15,4.554-2.131,8.944-2.189,13.06c-0.006,0.21-0.035,0.408-0.1,0.596
				c-0.028,0.087-0.063,0.175-0.104,0.263c-0.327,0.724-1.062,1.226-1.909,1.226H38.185c-0.888,0-1.641-0.543-1.962-1.313
				c-0.099-0.251-0.151-0.525-0.151-0.812c0.012-4.583-1.033-8.979-2.201-13.306c-0.076-0.274-0.151-0.561-0.233-0.858
				c-0.666-2.417-1.354-4.816-1.903-7.21c-0.094-0.42-0.059-0.847,0.088-1.221c0.233-0.63,0.771-1.138,1.471-1.308l6.066-1.196
				c0.163-0.041,0.333-0.059,0.502-0.059h6.726c0.17,0,0.333,0.018,0.502,0.059c0,0,6.271,1.261,6.376,1.308
				c0.566,0.233,0.98,0.7,1.168,1.255v0.006C54.76,30.366,54.789,30.757,54.695,31.154z"/>
		</g>
		<g>
			<rect x="40.406" y="23.921" style="fill:#EAB99A;" width="6.067" height="5.391"/>
		</g>
		<g>
			<g>
				<path style="fill:#EAB99A;" d="M47.168,20.454L47.168,20.454c0.448,0.137,0.897-0.125,0.998-0.582l0.312-1.41
					c0.087-0.391-0.155-0.807-0.539-0.923l0,0c-0.447-0.137-0.896,0.126-0.998,0.583l-0.312,1.409
					C46.542,19.922,46.785,20.338,47.168,20.454z"/>
			</g>
			<g>
				<path style="fill:#EAB99A;" d="M47.321,16.688l0.353,4.44c0.028,0.366,0.008,0.72-0.064,1.056
					c-0.095,0.482-0.282,0.91-0.54,1.26c-0.164,0.237-0.364,0.438-0.584,0.594l-1.49,1.896c-0.207,0.307-0.858,0.476-1.44,0.472
					c-0.399-0.007-0.771-0.095-0.944-0.282l-1.781-1.646c-0.235-0.109-0.456-0.276-0.649-0.479
					c-0.315-0.305-0.574-0.709-0.744-1.175c-0.124-0.314-0.2-0.66-0.229-1.021l-0.354-4.439c-0.135-1.698,0.856-3.174,2.203-3.281
					l3.57-0.284C45.974,13.691,47.186,14.99,47.321,16.688z"/>
			</g>
			<g>
				<path style="fill:#F4CAAF;" d="M46.763,16.732l0.354,4.44c0.029,0.366,0.008,0.72-0.063,1.055
					c-0.095,0.482-0.283,0.91-0.541,1.261c-0.163,0.236-0.364,0.437-0.583,0.594l-1.49,1.895c-0.141,0.212-0.489,0.357-0.883,0.428
					c-0.399-0.007-0.771-0.095-0.944-0.282l-1.781-1.646c-0.235-0.109-0.456-0.276-0.649-0.479
					c-0.315-0.305-0.574-0.709-0.744-1.175c-0.124-0.314-0.2-0.66-0.229-1.021l-0.354-4.439c-0.135-1.698,0.856-3.174,2.203-3.281
					l3.012-0.239C45.415,13.734,46.627,15.034,46.763,16.732z"/>
			</g>
			<g>
				<path style="fill:#F4CAAF;" d="M39.983,20.061c0.147,0.372-0.026,0.82-0.386,0.997l0,0c-0.421,0.205-0.905,0.018-1.078-0.418
					l-0.531-1.342c-0.148-0.373,0.026-0.821,0.386-0.997l0,0c0.421-0.206,0.905-0.018,1.078,0.417L39.983,20.061z"/>
			</g>
			<g>
				<polygon style="fill:#7D4C2E;" points="47.777,16.232 47.448,19.839 46.01,17.619 44.776,17.472 40.249,16.938 39.547,20.625 
					39.512,20.801 39.467,20.608 38.626,17.101 39.197,13.319 39.688,13.28 40.417,11.619 40.829,12.145 41.51,11.041 
					43.521,12.276 44.016,11.573 46.492,13.649 46.516,13.63 47.039,13.148 				"/>
			</g>
			<g>
				<path style="fill:#8D5C3E;" d="M47.039,13.148l-0.448,1.432c0.109,1.371-0.682,2.579-1.814,2.893l-4.527-0.533l-0.702,3.687
					c-0.024-0.004-0.055-0.007-0.08-0.017l-1.093-2.308v-2.696l0.823-2.285l1.22-1.7l0.469-0.306l0.624-0.273l2.093-0.457
					l1.856,0.73l1.362,1.119L47.039,13.148z"/>
			</g>
		</g>
		<g>
			<g>
				<polygon style="fill:#447EA1;" points="51.237,57.705 50.998,68.01 50.198,78.881 49.906,86.628 49.761,101.224 44.138,101.224 
					43.776,85.391 43.554,78.005 43.291,62.755 43.192,56.917 45.271,57.121 45.445,57.139 				"/>
			</g>
			<g>
				<polygon style="fill:#447EA1;" points="43.194,56.919 43.095,62.757 43.042,65.624 42.826,78.007 42.593,85.393 42.23,101.227 
					36.603,101.227 36.463,86.63 36.188,78.883 35.383,68.012 35.213,59.61 35.184,58.122 35.178,57.801 36.463,57.66 
					39.983,57.275 43.042,56.937 				"/>
			</g>
		</g>
		<g>
			<path style="fill:#447EA1;" d="M51.253,57.378l-0.817,5.05H36.097l-0.905-4.956c-0.105-0.578-0.07-1.174,0.105-1.74l0.8-2.633
				v-0.006h14.339l0.735,2.727C51.312,56.327,51.334,56.858,51.253,57.378z"/>
		</g>
		<g>
			<polygon style="fill:#386885;" points="45.621,80.241 46.053,101.224 44.138,101.224 43.776,85.391 43.554,78.005 43.291,62.755 
				44.529,61.243 45.445,57.139 44.929,74.986 			"/>
		</g>
		<g>
			<path style="fill:#386885;" d="M40.182,56.265l-4.043,1.454c-0.455,0.163-0.936-0.167-0.945-0.65l0,0
				c-0.006-0.302,0.182-0.575,0.467-0.678l0.803-0.289l2.574-0.928c0.367-0.133,0.773,0.058,0.904,0.426l0.042,0.116L40.182,56.265z
				"/>
		</g>
		<g>
			<polygon style="fill:#386885;" points="46.24,56.265 51.208,58.052 51.237,56.562 49.959,56.102 46.719,54.934 46.438,55.716 			
				"/>
		</g>
		<g>
			<path style="fill:#505050;" d="M58.48,38.464l-4.93,2.466c0,0-0.741-2.227-0.759-2.18c-0.063,0.263-0.128,0.514-0.187,0.765
				c-1.051,4.361-1.308,7.292-1.366,11.402c-0.006,0.123,0.041,2.254,0.059,3.981c0.012,0.707,0.018,1.349,0.018,1.764
				c0,0.274-0.006,0.449-0.018,0.478h-5.851l-4.069-1.407h-0.006l-1.582-0.549l-4.495,0.549c-0.1-0.251-0.164-5.581-0.164-5.867
				c0.012-4.571-0.204-6.627-1.261-10.638c-0.076-0.274-0.023-0.013-0.105-0.31l-0.778,1.945l-3.95-4.415l2.47-6.13
				c0.064-0.169,0.181-0.298,0.315-0.38c0.233-0.63,0.771-1.138,1.471-1.308l6.066-1.196c0.163-0.041,0.333-0.059,0.502-0.059
				l3.579,4.881l3.146-4.881c0.17,0,0.333,0.018,0.502,0.059c0,0,6.271,1.261,6.376,1.308c0.566,0.233,0.98,0.7,1.168,1.255v0.006
				c0.099,0.076,0.181,0.188,0.233,0.316L58.48,38.464z"/>
		</g>
		<g>
			<path style="fill:#404040;" d="M51.239,50.917c-0.006,0.123,0.041,2.254,0.059,3.981v2.242h-5.851l-4.069-1.407l8.606-0.163
				l-4.477-0.907l4.769-0.365l-0.064-0.864l-1.716-11.175c0,0,1.801,0.887,2.035,0.548c0.228-0.338,2.08-8.301,2.08-8.301
				l0.181,4.244c-0.063,0.263-0.128,0.514-0.187,0.765C51.555,43.876,51.298,46.807,51.239,50.917z"/>
		</g>
		<g>
			<path style="fill:#505050;" d="M49.532,101.225v-0.059c0-0.397-0.164-0.759-0.427-1.016c-0.059-0.059-0.116-0.105-0.181-0.146
				c-0.233-0.181-0.525-0.28-0.835-0.28h-2.283c-0.426,0-0.812,0.188-1.074,0.484c-0.228,0.252-0.367,0.59-0.367,0.958
				c0,0.082,0.006,0.163,0.023,0.239l-0.327,1.127v2.376h6.51v-1.582L49.532,101.225z"/>
		</g>
		<g>
			<polygon style="fill:#A0A0A0;" points="50.571,103.738 47.941,102.605 44.06,103.738 44.06,104.912 50.571,104.912 			"/>
		</g>
		<g>
			<path style="fill:#505050;" d="M36.798,101.227v-0.059c0-0.397,0.163-0.759,0.427-1.017c0.058-0.058,0.116-0.104,0.181-0.146
				c0.233-0.181,0.525-0.28,0.835-0.28h2.282c0.427,0,0.812,0.187,1.074,0.484c0.229,0.251,0.368,0.59,0.368,0.958
				c0,0.081-0.006,0.163-0.023,0.239l0.327,1.127v2.376h-6.51v-1.582L36.798,101.227z"/>
		</g>
		<g>
			<polygon style="fill:#A0A0A0;" points="35.759,103.739 38.389,102.607 42.27,103.739 42.27,104.914 35.759,104.914 			"/>
		</g>
	</g>
</g>
</svg>
