<?xml version="1.0" encoding="utf-8"?>
<!-- Generator: Adobe Illustrator 19.1.0, SVG Export Plug-In . SVG Version: 6.00 Build 0)  -->
<!DOCTYPE svg PUBLIC "-//W3C//DTD SVG 1.1//EN" "http://www.w3.org/Graphics/SVG/1.1/DTD/svg11.dtd">
<svg version="1.1" id="illustrations" xmlns="http://www.w3.org/2000/svg" xmlns:xlink="http://www.w3.org/1999/xlink" x="0px"
	 y="0px" viewBox="-438 241.6 82.8 79.4" style="enable-background:new -438 241.6 82.8 79.4;" xml:space="preserve">
<style type="text/css">
	.st0{fill:#303030;}
	.st1{fill:#778485;}
	.st2{fill:#E0E0E0;}
	.st3{fill:#D0D0D0;}
	.st4{fill:#572000;}
	.st5{fill:#713C1A;}
	.st6{fill:#F7B23F;}
	.st7{fill:#F8BE49;}
	.st8{fill:#263536;}
	.st9{fill:#FFFFFF;}
	.st10{fill:#C5D5D6;}
	.st11{fill:#6A330D;}
	.st12{fill:#50260A;}
	.st13{fill:#EAB99A;}
	.st14{fill:#B08874;}
	.st15{fill:#8851E6;}
	.st16{fill:#CEA28B;}
	.st17{fill:#FCE2AA;}
	.st18{fill:#DEAD8E;}
	.st19{fill:#F4CAAF;}
	.st20{fill:#160800;}
	.st21{fill:#47210C;}
	.st22{fill:#2C1000;}
	.st23{fill:#A5B5B6;}
	.st24{fill:#859596;}
	.st25{fill:#95A5A6;}
	.st26{fill:#E02634;}
	.st27{fill:#31D4E0;}
</style>
<path class="st0" d="M-356.4,302.7h-44.5c-0.7,0-1.2-0.5-1.2-1.2v-26.2c0-0.7,0.5-1.2,1.2-1.2h44.5c0.7,0,1.2,0.5,1.2,1.2v26.2
	C-355.2,302.1-355.8,302.7-356.4,302.7z"/>
<rect x="-400.2" y="275.6" class="st1" width="42.6" height="25.5"/>
<path class="st2" d="M-364.9,301.1l-0.2-1.4c-0.2-0.8-0.6-1.2-1.7-1.7l-1.3,3.1L-364.9,301.1L-364.9,301.1z"/>
<path class="st3" d="M-389,301.1c-0.1-0.1-0.2-0.2-0.2-0.2l-1.8-1.8c-0.5-0.5-1.4-0.3-1.6,0.4l-0.3,1.7L-389,301.1L-389,301.1z"/>
<rect x="-382.4" y="291.2" class="st4" width="7.3" height="8.4"/>
<path class="st4" d="M-374.7,287.5L-374.7,287.5c0.5,0.2,1.1-0.1,1.2-0.6l0.5-1.7c0.1-0.5-0.1-1-0.6-1.1l0,0
	c-0.5-0.2-1.1,0.1-1.2,0.6l-0.5,1.7C-375.4,286.8-375.1,287.3-374.7,287.5z"/>
<path class="st4" d="M-374.2,282.6l0.1,6c0,0.5-0.1,1-0.3,1.6c-0.6,1.4-0.6,1.4-2.7,3.5c-0.2,0.3-0.9,0.5-1.7,0.5
	c-0.1,0-0.3,0-0.4,0c-0.6,0-1.1-0.2-1.3-0.4c-2.2-2-2.2-2-2.8-3.4c-0.3-0.6-0.4-1.1-0.4-1.6l-0.1-6c0-1.8,1.2-3.4,2.8-3.4l3.8-0.1
	C-375.6,279.3-374.2,280.8-374.2,282.6z"/>
<path class="st5" d="M-375,282.6l0.1,6c0,0.5-0.1,1-0.3,1.6c-0.6,1.4-0.6,1.4-2.7,3.5c-0.2,0.2-0.7,0.4-1.3,0.5
	c-0.6,0-1.1-0.2-1.3-0.4c-2.2-2-2.2-2-2.8-3.4c-0.3-0.6-0.4-1.1-0.4-1.6l-0.1-6c0-1.8,1.2-3.4,2.8-3.4l3-0.1
	C-376.4,279.3-375,280.8-375,282.6z"/>
<path class="st5" d="M-383.2,287.7L-383.2,287.7c-0.5,0.2-1.1,0-1.3-0.6l-0.5-1.6c-0.2-0.5,0.1-1,0.5-1.2l0,0c0.5-0.2,1.1,0,1.3,0.6
	l0.5,1.6C-382.5,287-382.7,287.5-383.2,287.7z"/>
<polygon class="st6" points="-373.3,283.5 -374.1,286.9 -375.3,282.7 -376,283.6 -377.1,283.8 -377.1,283.8 -382.5,285.1 
	-383.8,286.9 -384.4,282.5 -382.9,277.8 -376.7,276.6 -375.5,277.8 -373.8,279.3 "/>
<path class="st7" d="M-375.5,277.8l0.1,3c0,1.4-0.7,2.6-1.7,3.1l0,0l-5.4,1.3l-1.2,1.8l-0.6-4.5l1.5-4.6l6.2-1.2L-375.5,277.8z"/>
<path class="st2" d="M-392.6,300.9c0,0.1,0,0.1,0,0.2h27.4c0-0.1,0-0.1,0-0.2c0,0,0,0,0,0c0.3-1.2-0.4-2.4-1.5-2.9
	c-0.1-0.1-7.8-1.6-8.2-1.6l-3.6,3.9l-4.5-3.9c-0.4,0-7.5,1.4-7.9,1.5c-1.2,0.3-2,1.5-1.9,2.7C-392.7,300.7-392.7,300.8-392.6,300.9z
	"/>
<path class="st8" d="M-377.9,301.1c0.1-0.1,0.1-0.3,0.1-0.4v-0.3c0-0.5-0.4-1-1-1h-0.5c-0.5,0-1,0.4-1,1v0.3c0,0.1,0,0.3,0.1,0.4
	H-377.9z"/>
<polygon class="st9" points="-375.7,301.1 -371.1,297.1 -374.9,296.4 -378.4,299.4 -377.2,301.1 "/>
<polygon class="st9" points="-380.6,301.1 -379.5,299.4 -382.9,296.4 -386.7,297.1 -382.1,301.1 "/>
<path class="st0" d="M-381.4,270.2h-44.5c-0.7,0-1.2-0.5-1.2-1.2v-26.2c0-0.7,0.5-1.2,1.2-1.2h44.5c0.7,0,1.2,0.5,1.2,1.2V269
	C-380.2,269.6-380.7,270.2-381.4,270.2z"/>
<rect x="-425.1" y="243.1" class="st10" width="42.6" height="25.5"/>
<path class="st11" d="M-395.6,253.7c0,5.2-7.8,8.2-7.8,8.2s-7.8-3-7.8-8.2c0-5.2,3.5-9.4,7.8-9.4
	C-399.1,244.4-395.6,248.6-395.6,253.7z"/>
<path class="st12" d="M-399.3,249.9c0,0,4,6.5-2.3,11.2l0,0l-4.4-0.4c0,0-2.7-3-2.1-5.9l0,0L-399.3,249.9L-399.3,249.9z"/>
<path class="st13" d="M-410.2,268.6c0.1-1.9,0.1-3.3,0.1-3.5c0-0.8-0.6-1.5-1.4-1.7c-0.2,0-0.3-0.1-0.5-0.1c-1,0-1.7,0.7-1.9,1.6
	c0,0,0,0.1,0,0.1c-0.1,1.2-0.2,2.4-0.2,3.6H-410.2z"/>
<path class="st13" d="M-393.2,268.6c-0.1-1.2-0.1-2.4-0.2-3.6c0,0,0-0.1,0-0.1c-0.1-0.9-0.9-1.6-1.9-1.6c-0.2,0-0.3,0-0.5,0.1
	c-0.8,0.2-1.4,0.9-1.4,1.7c0,0.2,0,1.6,0.1,3.5H-393.2z"/>
<path class="st14" d="M-394.5,268.6l1-3.5c0-0.9-0.9-1.7-2-1.7h-2.2c-1.4-0.1-2.4-0.4-3-1.1c-0.6-0.6-0.9-1.4-1-2.4h-3.4
	c-0.1,1-0.4,1.8-1,2.4c-0.6,0.6-1.6,1-3,1.1h-2.2c0,0-0.1,0-0.1,0c-1,0-1.8,0.8-1.8,1.7l1,3.5H-394.5z"/>
<path class="st15" d="M-393.2,268.6c-0.1-1.2-0.1-2.4-0.2-3.6c0,0,0-0.1,0-0.1c-0.1-0.9-0.9-1.6-1.9-1.6c-0.2,0-0.3,0-0.5,0.1h-1.8
	c-1.4-0.1-2.4-0.4-3-1.1h-5.5c-0.6,0.6-1.6,1-3,1.1h-2.2c0,0-0.1,0-0.1,0c-0.2,0-0.3-0.1-0.5-0.1c-1,0-1.7,0.7-1.9,1.6
	c0,0,0,0.1,0,0.1c-0.1,1.2-0.2,2.4-0.2,3.6H-393.2z"/>
<path class="st14" d="M-398.6,253.1c0,3.5-2.1,7.6-4.8,7.6c-0.1,0-0.2,0-0.4,0c-2.5-0.4-4.4-4.3-4.4-7.6c0-3.3,1.9-6,4.4-6.2
	c0.1,0,0.2,0,0.4,0C-400.8,246.8-398.6,249.6-398.6,253.1z"/>
<path class="st16" d="M-399.3,253.1c0,3.3-1.9,7.2-4.4,7.6c-2.5-0.4-4.4-4.3-4.4-7.6c0-0.1,0-0.2,0-0.3c0.1-2.3,1.1-4.3,2.6-5.3
	c0.4-0.3,0.9-0.5,1.3-0.6l0,0c0,0,0,0,0,0c0.1,0,0.3-0.1,0.4-0.1c0.3,0,0.6,0.1,0.9,0.2c1.8,0.6,3.2,2.6,3.5,5.1
	C-399.4,252.4-399.3,252.7-399.3,253.1z"/>
<path class="st11" d="M-408.7,248.5c0,0,0.9,2.2,4.8,2.7c3.9,0.6,4.7,2.4,5.1,3.5c0,0,2.2-5.1-1.1-7.1
	C-403.2,245.8-407.2,245.3-408.7,248.5z"/>
<path class="st0" d="M-438,319.8v-44.5c0-0.7,0.5-1.2,1.2-1.2h26.2c0.7,0,1.2,0.5,1.2,1.2v44.5c0,0.7-0.5,1.2-1.2,1.2h-26.2
	C-437.5,321-438,320.5-438,319.8z"/>
<rect x="-436.5" y="276" class="st17" width="25.5" height="42.6"/>
<path class="st18" d="M-423.2,306.3l4.7-3.6h0l0,0c0,0,0.1,0,0.1,0l-0.6-4.7l0,0l-1.9,2.5c-0.3,0.4-1.2,0.7-2,0.7
	c-0.1,0-0.3,0-0.4,0c0,0,0,0,0,0c0,0,0,0-0.1,0c-0.4-0.1-0.7-0.2-0.8-0.3l-0.8-0.7l-1.7-1.6c-0.1-0.1-0.3-0.2-0.4-0.3
	c-0.1,0-0.1-0.1-0.2-0.1c0,0-0.1-0.1-0.1-0.1c0,0,0,0,0,0l-0.2,4.8L-423.2,306.3L-423.2,306.3z"/>
<path class="st13" d="M-417.3,293c0.4-0.1,0.7-0.4,0.8-0.8l0.4-2c0.1-0.5-0.2-1.1-0.7-1.3c-0.1,0-0.2,0-0.3,0c0,0,0,0-0.1,0
	l-0.2,2.3L-417.3,293z"/>
<path class="st13" d="M-429,294.9l0-0.5L-429,294.9c0,0.5,0.1,1,0.3,1.4c0.1,0.3,0.2,0.6,0.4,0.8c-0.2-0.2-0.3-0.5-0.4-0.8
	C-428.8,295.9-428.9,295.4-429,294.9z"/>
<path class="st13" d="M-423.3,301.2C-423.3,301.2-423.4,301.2-423.3,301.2C-423.4,301.2-423.3,301.2-423.3,301.2z"/>
<path class="st13" d="M-427.3,298.2c-0.1-0.1-0.2-0.1-0.2-0.2c0,0,0.1,0.1,0.1,0.1c0,0,0,0,0,0
	C-427.4,298.1-427.3,298.2-427.3,298.2z"/>
<path class="st13" d="M-427.1,298.3c0.1,0.1,0.3,0.2,0.4,0.3l1.7,1.6l-1.7-1.6C-426.8,298.5-427,298.4-427.1,298.3z"/>
<path class="st13" d="M-417.5,292.1l-0.7-1.1l0,0l0.2,2.9c0,0.5,0,1-0.1,1.5c-0.1,0.7-0.4,1.3-0.8,1.8c-0.2,0.3-0.5,0.6-0.8,0.8
	l-2.1,2.6c-0.2,0.3-0.7,0.5-1.2,0.6c-0.1,0-0.3,0-0.4,0c0.1,0,0.2,0,0.4,0c0.8,0,1.7-0.2,2-0.7l1.9-2.5l0,0l0.1-0.1
	c0.3-0.2,0.6-0.5,0.8-0.8c0.4-0.5,0.6-1.1,0.7-1.8c0.1-0.5,0.1-1,0.1-1.5l-0.1-0.9l-0.1-1.8L-417.5,292.1z"/>
<path class="st19" d="M-427.3,298.2c0.1,0,0.1,0.1,0.2,0.1c0.1,0.1,0.3,0.2,0.4,0.3l1.7,1.6l0.8,0.7c0.2,0.2,0.5,0.3,0.8,0.3
	c0,0,0,0,0.1,0c0,0,0,0,0,0c0.1,0,0.2,0,0.4,0c0.5-0.1,1-0.3,1.2-0.6l2.1-2.6c0.3-0.2,0.6-0.5,0.8-0.8c0.4-0.5,0.6-1.1,0.8-1.8
	c0.1-0.5,0.1-1,0.1-1.5l-0.2-2.9l-0.2-0.3l-1.1-1.7l-1.7-0.2l-2.5-0.3l-3.8-0.5l-0.7,3.6l0,0l0.3,0.8c0.2,0.5,0,1.1-0.5,1.4
	c-0.2,0.1-0.4,0.1-0.6,0.1l0,0.5l0,0.5c0,0.5,0.1,1,0.3,1.4c0.1,0.3,0.2,0.6,0.4,0.8c0.2,0.3,0.4,0.6,0.6,0.8c0,0,0.1,0,0.1,0.1
	C-427.4,298.1-427.4,298.1-427.3,298.2z"/>
<path class="st19" d="M-428.4,293.8c0.5-0.2,0.7-0.9,0.5-1.4l-0.3-0.8l-0.3,1.6l0,0.2l-0.1-0.3l-0.7-3.1l0-0.2
	c-0.2-0.1-0.5,0-0.7,0.1c-0.5,0.2-0.7,0.9-0.5,1.4l0.7,1.9c0.2,0.4,0.5,0.6,0.9,0.7C-428.8,294-428.6,293.9-428.4,293.8z"/>
<path class="st20" d="M-418.7,285.1c0,0.4,0,0.8-0.1,1.2c-0.3,1.3-1.2,2.3-2.4,2.6l1.7,0.2l1.1,1.7l0.2,0.3l0,0l0.7,1.1l0.1-1
	l0.2-2.3l0.2-1.8l-1-4.3l-0.7,0.7l0.1,1.3C-418.7,284.9-418.7,285-418.7,285.1z"/>
<path class="st21" d="M-428.5,293.5l0-0.2c0,0-0.1,0-0.1,0L-428.5,293.5z"/>
<path class="st22" d="M-429.3,290.1l0.7,3.1c0,0,0.1,0,0.1,0l0.3-1.6l0,0l0.7-3.6l3.8,0.5l2.5,0.3c1.2-0.3,2.1-1.3,2.4-2.6
	c0.1-0.4,0.1-0.8,0.1-1.2c0-0.1,0-0.2,0-0.3l-0.1-1.3l0,0l-3.4-2.9l-0.7,1l-0.7-0.5l-2.1-1.3l-0.9,1.5l-0.6-0.7l-1,2.3l-0.7,0
	l-0.8,5.3l0.4,1.6l0,0L-429.3,290.1z"/>
<path class="st23" d="M-420.5,309.2l-2.5-2.7v12.1h12.1v-14.4c-0.9-0.2-2.1-0.4-3.2-0.6L-420.5,309.2z M-422,314.3
	c-0.2,0-0.4-0.2-0.4-0.4c0-0.2,0.2-0.4,0.4-0.4s0.4,0.2,0.4,0.4C-421.6,314.1-421.8,314.3-422,314.3z"/>
<path class="st23" d="M-418.5,302.8l4,0.7c-1.8-0.4-3.4-0.7-3.9-0.7C-418.4,302.8-418.5,302.8-418.5,302.8L-418.5,302.8z"/>
<polygon class="st24" points="-425.8,309.2 -423.2,306.4 -423.2,306.3 -423.2,306.3 -423.2,306.3 -427.6,302.9 -427.8,302.8 
	-427.8,302.8 -432.2,303.6 "/>
<polygon class="st24" points="-418.5,302.8 -418.5,302.8 -423.2,306.3 -423.2,306.3 -423,306.3 -423,306.5 -420.5,309.2 
	-414.1,303.6 -414.1,303.6 -414.5,303.5 "/>
<polygon class="st25" points="-423,306.5 -423,306.3 -423.2,306.3 -423.2,306.3 -423.2,306.4 -423.2,318.6 -423,318.6 "/>
<circle class="st25" cx="-422" cy="313.9" r="0.4"/>
<path class="st23" d="M-425.8,309.2l-6.4-5.6l4.3-0.8c0,0,0,0,0,0c-0.4,0-6.7,1.3-8.6,1.6v4.3v9.9h1.8h11.4v-12.2L-425.8,309.2z"/>
<path class="st26" d="M-362.9,254.3h-1.5c-0.1-0.4-0.3-0.8-0.5-1.2l1.1-1.1c0.2-0.2,0.2-0.6,0-0.8l-1.5-1.5c-0.2-0.2-0.6-0.2-0.8,0
	l-1.1,1.1c-0.4-0.2-0.8-0.4-1.2-0.5v-1.5c0-0.3-0.3-0.6-0.6-0.6h-2.1c-0.3,0-0.6,0.3-0.6,0.6v1.5c-0.4,0.1-0.8,0.3-1.2,0.5l-1.1-1.1
	c-0.2-0.2-0.6-0.2-0.8,0l-1.5,1.5c-0.2,0.2-0.2,0.6,0,0.8l1.1,1.1c-0.2,0.4-0.4,0.8-0.5,1.2h-1.5c-0.3,0-0.6,0.3-0.6,0.6v2.1
	c0,0.3,0.3,0.6,0.6,0.6h1.5c0.1,0.4,0.3,0.8,0.5,1.2l-1.1,1.1c-0.2,0.2-0.2,0.6,0,0.8l1.5,1.5c0.2,0.2,0.6,0.2,0.8,0l1.1-1.1
	c0.4,0.2,0.8,0.4,1.2,0.5v1.5c0,0.3,0.3,0.6,0.6,0.6h2.1c0.3,0,0.6-0.3,0.6-0.6v-1.5c0.4-0.1,0.8-0.3,1.2-0.5l1.1,1.1
	c0.2,0.2,0.6,0.2,0.8,0l1.5-1.5c0.2-0.2,0.2-0.6,0-0.8l-1.1-1.1c0.2-0.4,0.4-0.8,0.5-1.2h1.5c0.3,0,0.6-0.3,0.6-0.6v-2.1
	C-362.3,254.5-362.6,254.3-362.9,254.3z M-370.1,259.5c-2,0-3.6-1.6-3.6-3.6c0-2,1.6-3.6,3.6-3.6c2,0,3.6,1.6,3.6,3.6
	C-366.6,257.9-368.2,259.5-370.1,259.5z"/>
<path class="st26" d="M-369.5,268.4l-0.8-0.3c0-0.2,0-0.5,0-0.7l0.8-0.3c0.2-0.1,0.2-0.3,0.2-0.4l-0.4-1.1c-0.1-0.2-0.3-0.2-0.4-0.2
	l-0.8,0.3c-0.2-0.2-0.3-0.4-0.5-0.5l0.3-0.8c0.1-0.2,0-0.4-0.2-0.4l-1.1-0.4c-0.2-0.1-0.4,0-0.4,0.2l-0.3,0.8c-0.2,0-0.5,0-0.7,0
	l-0.3-0.8c-0.1-0.2-0.3-0.2-0.4-0.2l-1.1,0.4c-0.2,0.1-0.2,0.3-0.2,0.4l0.3,0.8c-0.2,0.2-0.4,0.3-0.5,0.5l-0.8-0.3
	c-0.2-0.1-0.4,0-0.4,0.2l-0.4,1c0-0.1,0-0.3-0.1-0.4l-0.8-0.8c0.2-0.3,0.3-0.6,0.4-0.9h1.1c0.2,0,0.5-0.2,0.5-0.5v-1.6
	c0-0.2-0.2-0.5-0.5-0.5h-1.1c-0.1-0.3-0.2-0.6-0.4-0.9l0.8-0.8c0.2-0.2,0.2-0.5,0-0.6l-1.1-1.1c-0.2-0.2-0.5-0.2-0.6,0l-0.8,0.8
	c-0.3-0.2-0.6-0.3-0.9-0.4v-1.1c0-0.2-0.2-0.5-0.5-0.5h-1.6c-0.2,0-0.5,0.2-0.5,0.5v1.1c-0.3,0.1-0.6,0.2-0.9,0.4l-0.8-0.8
	c-0.2-0.2-0.5-0.2-0.6,0l-1.1,1.1c-0.2,0.2-0.2,0.5,0,0.6l0.8,0.8c-0.2,0.3-0.3,0.6-0.4,0.9h-1.1c-0.2,0-0.5,0.2-0.5,0.5v1.6
	c0,0.2,0.2,0.5,0.5,0.5h1.1c0.1,0.3,0.2,0.6,0.4,0.9l-0.8,0.8c-0.2,0.2-0.2,0.5,0,0.6l1.1,1.1c0.2,0.2,0.5,0.2,0.6,0l0.8-0.8
	c0.3,0.2,0.6,0.3,0.9,0.4v1.1c0,0.2,0.2,0.5,0.5,0.5h1.6c0.2,0,0.5-0.2,0.5-0.5v-1.1c0.3-0.1,0.6-0.2,0.9-0.4l0.8,0.8
	c0.2,0.2,0.5,0.2,0.6,0l1.1-1.1c0,0,0.1-0.1,0.1-0.1c0,0.1,0,0.3,0.2,0.4l0.8,0.3c0,0.2,0,0.5,0,0.7l-0.8,0.3
	c-0.2,0.1-0.2,0.3-0.2,0.4l0.4,1.1c0.1,0.2,0.3,0.2,0.4,0.2l0.8-0.3c0.2,0.2,0.3,0.4,0.5,0.5l-0.3,0.8c-0.1,0.2,0,0.4,0.2,0.4
	l1.1,0.4c0.2,0.1,0.4,0,0.4-0.2l0.3-0.8c0.2,0,0.5,0,0.7,0l0.3,0.8c0.1,0.2,0.3,0.2,0.4,0.2l1.1-0.4c0.2-0.1,0.2-0.3,0.2-0.4
	l-0.3-0.8c0.2-0.2,0.4-0.3,0.5-0.5l0.8,0.3c0.2,0.1,0.4,0,0.4-0.2l0.4-1.1C-369.3,268.7-369.4,268.5-369.5,268.4z M-382.5,266
	c-1.5,0-2.7-1.2-2.7-2.7c0-1.5,1.2-2.7,2.7-2.7c1.5,0,2.7,1.2,2.7,2.7C-379.8,264.7-381,266-382.5,266z M-375.3,268.5
	c-0.4-1,0.1-2.1,1-2.5c1-0.4,2.1,0.1,2.5,1c0.4,1-0.1,2.1-1,2.5C-373.7,270-374.9,269.5-375.3,268.5z"/>
<path class="st27" d="M-388,307.6l-1.8-7.9l-6,5.5l2.5,0.8c-1.6,1.4-3.9,2-6.1,1.3c-1.5-0.5-2.7-1.4-3.5-2.7
	c-0.3-0.4-0.8-0.6-1.3-0.3c-0.4,0.3-0.6,0.9-0.3,1.3c1,1.7,2.7,2.9,4.5,3.5c0.8,0.3,1.6,0.4,2.5,0.4c2.4,0,4.7-1,6.2-2.8L-388,307.6
	z"/>
<path class="st27" d="M-401.9,296.5c0.4-0.4,0.9-0.8,1.5-1.1c1.5-0.8,3.2-1,4.9-0.4c1.7,0.5,3,1.7,3.8,3.2c0.2,0.5,0.8,0.6,1.3,0.4
	c0.5-0.2,0.6-0.8,0.4-1.3c-1-2-2.8-3.5-4.9-4.2c-2.1-0.7-4.3-0.5-6.3,0.6c-1,0.5-1.9,1.2-2.6,2.1l-2.9-0.9l1.8,7.9l6-5.5
	L-401.9,296.5z"/>
</svg>
