<?xml version="1.0" encoding="utf-8"?>
<!-- Generator: Adobe Illustrator 19.1.0, SVG Export Plug-In . SVG Version: 6.00 Build 0)  -->
<!DOCTYPE svg PUBLIC "-//W3C//DTD SVG 1.1//EN" "http://www.w3.org/Graphics/SVG/1.1/DTD/svg11.dtd">
<svg version="1.1" id="Layer_1" xmlns="http://www.w3.org/2000/svg" xmlns:xlink="http://www.w3.org/1999/xlink" x="0px" y="0px"
	 viewBox="-439 229.1 79.7 103.9" style="enable-background:new -439 229.1 79.7 103.9;" xml:space="preserve">
<style type="text/css">
	.st0{fill:#9B7759;}
	.st1{fill:#CF9E76;}
	.st2{fill:#D5E5E6;}
	.st3{fill:#556566;}
	.st4{fill:#FFFFFF;}
	.st5{fill:#D6F6F9;}
	.st6{fill:#A81D27;}
	.st7{fill:#E6515D;}
	.st8{fill:#E02634;}
	.st9{fill:#E0A131;}
	.st10{fill:#F3CFB8;}
	.st11{fill:#505050;}
	.st12{fill:#DFB28B;}
	.st13{fill:#95A5A6;}
	.st14{fill:#B5C5C6;}
	.st15{fill:#A5B5B6;}
	.st16{fill:#70131A;}
	.st17{fill:#657576;}
	.st18{fill:#850309;}
	.st19{fill:#F0D0B4;}
	.st20{fill:#F2D5C2;}
	.st21{fill:#5E3719;}
	.st22{fill:#F3AA43;}
	.st23{fill:#7D4921;}
</style>
<path class="st0" d="M-369.1,237.9c0,0.1,0,0.3-0.1,0.4c-0.1,0.1-0.2,0.3-0.3,0.4l-1,0.9l-1.1,0.9l0,0l-3,2.7l-4.3,2.1h-5.6
	l-7.2,5.7l-2.6-11l0,0l4.8-4.5l0,0h0.7h0.7h0.3l8.8-0.4h0.1l2.5-2.1l1.2-1L-369.1,237.9z"/>
<path class="st1" d="M-392.2,240.8c0,0.2-0.1,0.5-0.2,0.7l-0.4,0.5l-3.4,4.5c-0.4,0.5-1.1,0.6-1.6,0.2c-0.2-0.2-0.4-0.5-0.4-0.7
	c0-0.1,0-0.1,0-0.2c0-0.2,0.1-0.5,0.2-0.7l3.6-5c0.1-0.1,0.3-0.2,0.4-0.2c0.4-0.3,0.9-0.3,1.3,0c0.1,0.1,0.2,0.2,0.3,0.3
	C-392.2,240.4-392.2,240.6-392.2,240.8z"/>
<path class="st0" d="M-389.7,246.4l-4.2,4.1c-0.4,0.4-1.1,0.4-1.5,0l0,0c-0.4-0.4-0.4-1.1,0-1.5l4.2-4.1c0.4-0.4,1.1-0.4,1.5,0l0,0
	C-389.2,245.3-389.2,246-389.7,246.4z"/>
<path class="st0" d="M-387.2,246.8l-4.2,4.1c-0.4,0.4-1.1,0.4-1.5,0l0,0c-0.4-0.4-0.4-1.1,0-1.5l4.2-4.1c0.4-0.4,1.1-0.4,1.5,0l0,0
	C-386.8,245.7-386.8,246.4-387.2,246.8z"/>
<path class="st1" d="M-369.1,237.9c0,0.1,0,0.3-0.1,0.4c-0.1,0.1-0.2,0.3-0.3,0.4l-1,0.9l-1,0.9c0,0-0.1,0-0.1,0.1l0,0
	c-0.5,0.3-1.1,0.3-1.5-0.2v-0.1l-4.4-5c-0.4-0.5-0.4-1.2,0.1-1.6l1-0.9l1-0.9c0.1-0.1,0.1-0.1,0.2-0.2c0.4-0.2,1-0.1,1.3,0.3l4.4,5
	C-369.2,237.4-369.1,237.7-369.1,237.9z"/>
<path class="st0" d="M-390.1,242l-5.1,6.7c-0.4,0.5-1.1,0.6-1.6,0.2l0,0c-0.5-0.4-0.6-1.1-0.2-1.6l5.1-6.7c0.4-0.5,1.1-0.6,1.6-0.2
	l0,0C-389.8,240.8-389.7,241.5-390.1,242z"/>
<path class="st0" d="M-378,236.4v7.6c0,0.3-0.1,0.6-0.2,0.8c-0.2,0.4-0.7,0.6-1.1,0.6h-9c-0.8,0-1.4-0.6-1.4-1.4v-7.6
	c0-0.3,0.1-0.6,0.3-0.8c0.2-0.3,0.5-0.5,0.8-0.5c0.1,0,0.2,0,0.3,0h9c0.1,0,0.2,0,0.3,0l0,0C-378.4,235.2-378,235.7-378,236.4z"/>
<path class="st0" d="M-374.9,243.5l-3.6,1.8c-0.5,0.2-1,0-1.3-0.4l-0.2-0.3c-0.2-0.5,0.8-0.9,1.3-1.1l2.7-1.4
	c0.5-0.2,1.1-0.6,1.3-0.1l0.2,0.3C-374.2,242.7-374.4,243.3-374.9,243.5z"/>
<path class="st2" d="M-397.1,266.3c0.6,0,1.1,0.2,1.4,0.6h0.7c-0.7-1-1.9-1.7-3.3-1.7s-2.5,0.7-3.3,1.7h3
	C-398.1,266.5-397.6,266.3-397.1,266.3z"/>
<path class="st3" d="M-401.7,265.7c0-0.4,0.1-0.9,0.1-1.3c-0.9,0.6-1.5,1.4-2,2.4h1C-402.3,266.4-402.1,266.1-401.7,265.7z"/>
<path class="st3" d="M-393.8,266.9h1c-0.4-1-1.1-1.8-2-2.4c0,0.4,0.1,0.8,0.1,1.3C-394.4,266.1-394.1,266.4-393.8,266.9z"/>
<path class="st3" d="M-402.6,266.9h0.8c0-0.4,0.1-0.8,0.1-1.1C-402.1,266.1-402.3,266.4-402.6,266.9z"/>
<path class="st3" d="M-393.8,266.9c-0.2-0.4-0.5-0.8-0.8-1.1c0,0.4,0.1,0.7,0.1,1.1H-393.8z"/>
<path class="st3" d="M-401.5,266.9c0.7-1,1.9-1.7,3.3-1.7c1.3,0,2.5,0.7,3.3,1.7h0.3c0-0.4-0.1-0.8-0.1-1.1
	c-0.9-0.9-2.1-1.5-3.5-1.5s-2.6,0.6-3.5,1.5c0,0.4-0.1,0.7-0.1,1.1H-401.5z"/>
<path class="st4" d="M-397.1,266.3c-0.6,0-1.1,0.2-1.4,0.6h2.8C-396,266.5-396.5,266.3-397.1,266.3z"/>
<g>
	<path class="st5" d="M-403.2,256.7c0.5-1,1-2,1.5-2.9c0.3-0.5,0.6-1,0.9-1.5c1.4-2.3,2.5-3.7,2.6-3.8l0,0l0,0l0,0l0,0l0,0l0,0
		c0.1,0.1,1.2,1.5,2.6,3.7c0.3,0.5,0.6,1,0.9,1.6c0.5,0.8,1,1.8,1.4,2.8l0,0c1.4,2.9,2.7,6.3,3.4,10.2h14.8v-24.4h-46.1v24.4h14.7
		C-405.8,263-404.5,259.6-403.2,256.7z"/>
</g>
<g>
	<path class="st6" d="M-401.6,264.5c0.3-2.7,0.7-5.1,1.1-7.2l0,0c-1-0.1-1.9-0.3-2.7-0.5c0.5-1,1-2,1.5-2.9c0.3-0.5,0.6-1,0.9-1.5
		c1.4-2.2,2.4-3.6,2.6-3.8l0,0c-0.1,0.1-1.2,1.5-2.6,3.8c-0.3,0.5-0.6,1-0.9,1.5c-0.5,0.9-1,1.8-1.5,2.9c-1.4,2.9-2.6,6.3-3.3,10.1
		h2.9C-403.1,265.9-402.5,265.1-401.6,264.5z"/>
</g>
<g>
	<path class="st7" d="M-398.2,248.6L-398.2,248.6L-398.2,248.6z"/>
</g>
<g>
	<path class="st7" d="M-395.9,257.2L-395.9,257.2c0.4,2.1,0.8,4.6,1.1,7.3c0.9,0.6,1.5,1.4,2,2.4h2.9c-0.7-3.8-2-7.3-3.4-10.2
		C-394.1,256.9-395,257.1-395.9,257.2z"/>
</g>
<g>
	<path class="st8" d="M-398.2,248.6L-398.2,248.6L-398.2,248.6L-398.2,248.6L-398.2,248.6L-398.2,248.6z"/>
</g>
<g>
	<path class="st8" d="M-400.5,257.2L-400.5,257.2L-400.5,257.2c-0.4,2.1-0.8,4.6-1.1,7.2c1-0.7,2.1-1.1,3.4-1.1s2.4,0.4,3.4,1.1
		c-0.3-2.7-0.7-5.1-1.1-7.3c-0.8,0.1-1.5,0.1-2.4,0.1C-399,257.3-399.8,257.3-400.5,257.2z"/>
</g>
<g>
	<path class="st3" d="M-401.6,264.5c0,0.4-0.1,0.8-0.1,1.3c0.9-0.9,2.1-1.5,3.5-1.5s2.6,0.6,3.5,1.5c0-0.4-0.1-0.9-0.1-1.3
		c-1-0.7-2.1-1.1-3.4-1.1S-400.6,263.8-401.6,264.5z"/>
</g>
<g>
	<path class="st5" d="M-394.7,253.9c0.5,0.8,1,1.8,1.4,2.8l0,0l0,0C-393.7,255.7-394.2,254.8-394.7,253.9c-0.3-0.6-0.6-1.1-0.9-1.6
		c-1.4-2.3-2.5-3.6-2.6-3.7l0,0l0,0l0,0c0.1,0.1,1.2,1.5,2.6,3.7C-395.3,252.8-395,253.4-394.7,253.9z"/>
</g>
<g>
	<path class="st9" d="M-394.7,253.9c0.5,0.8,1,1.8,1.4,2.8l0,0l0,0C-393.7,255.7-394.2,254.8-394.7,253.9c-0.3-0.6-0.6-1.1-0.9-1.6
		c-1.4-2.3-2.5-3.6-2.6-3.7l0,0l0,0l0,0c0.1,0.1,1.2,1.5,2.6,3.7C-395.3,252.8-395,253.4-394.7,253.9z"/>
</g>
<g>
	<path class="st6" d="M-399.5,253.1c0.7-2.6,1.2-4.2,1.3-4.4c-0.2,0.2-1.2,1.5-2.6,3.8c-0.3,0.5-0.6,1-0.9,1.5
		c-0.5,0.9-1,1.8-1.5,2.9c0.8,0.2,1.7,0.4,2.7,0.5c0.2-1,0.4-1.9,0.6-2.8C-399.7,254-399.6,253.5-399.5,253.1z"/>
</g>
<g>
	<path class="st9" d="M-399.5,253.1c0.7-2.6,1.2-4.2,1.3-4.4c-0.2,0.2-1.2,1.5-2.6,3.8c-0.3,0.5-0.6,1-0.9,1.5
		c-0.5,0.9-1,1.8-1.5,2.9c0.8,0.2,1.7,0.4,2.7,0.5c0.2-1,0.4-1.9,0.6-2.8C-399.7,254-399.6,253.5-399.5,253.1z"/>
</g>
<g>
	<path class="st7" d="M-396.9,253c0.1,0.4,0.2,0.9,0.4,1.4c0.2,0.8,0.4,1.7,0.6,2.7l0,0l0,0c0.9-0.1,1.8-0.3,2.7-0.5l0,0
		c-0.5-1-1-1.9-1.4-2.8c-0.3-0.6-0.6-1.1-0.9-1.6c-1.4-2.3-2.5-3.6-2.6-3.7l0,0C-398.2,248.7-397.6,250.4-396.9,253z"/>
</g>
<g>
	<path class="st9" d="M-396.9,253c0.1,0.4,0.2,0.9,0.4,1.4c0.2,0.8,0.4,1.7,0.6,2.7l0,0l0,0c0.9-0.1,1.8-0.3,2.7-0.5l0,0
		c-0.5-1-1-1.9-1.4-2.8c-0.3-0.6-0.6-1.1-0.9-1.6c-1.4-2.3-2.5-3.6-2.6-3.7l0,0C-398.2,248.7-397.6,250.4-396.9,253z"/>
</g>
<g>
	<path class="st8" d="M-396.5,254.5c-0.1-0.5-0.2-1-0.4-1.4c-0.7-2.7-1.3-4.3-1.3-4.4l0,0c-0.1,0.2-0.6,1.8-1.3,4.4
		c-0.1,0.4-0.2,0.9-0.3,1.4c-0.2,0.8-0.4,1.8-0.6,2.8l0,0c0.7,0.1,1.4,0.1,2.2,0.1c0.8,0,1.6,0,2.4-0.1l0,0
		C-396.1,256.2-396.3,255.3-396.5,254.5z"/>
</g>
<g>
	<path class="st9" d="M-396.5,254.5c-0.1-0.5-0.2-1-0.4-1.4c-0.7-2.7-1.3-4.3-1.3-4.4l0,0c-0.1,0.2-0.6,1.8-1.3,4.4
		c-0.1,0.4-0.2,0.9-0.3,1.4c-0.2,0.8-0.4,1.8-0.6,2.8l0,0c0.7,0.1,1.4,0.1,2.2,0.1c0.8,0,1.6,0,2.4-0.1l0,0
		C-396.1,256.2-396.3,255.3-396.5,254.5z"/>
</g>
<path class="st1" d="M-385.3,241.2l-6.2,6.3c-0.6,0.6-1.6,0.6-2.3,0l0,0c-0.6-0.6-0.6-1.6,0-2.3l6.2-6.3c0.6-0.6,1.6-0.6,2.3,0l0,0
	C-384.7,239.6-384.7,240.6-385.3,241.2z"/>
<path class="st10" d="M-393.1,247.2l-0.3-0.2c-0.4-0.3-0.5-0.9-0.1-1.3l0,0c0.3-0.4,0.9-0.5,1.3-0.1l0.3,0.2
	c0.4,0.3,0.5,0.9,0.1,1.3l0,0C-392.1,247.4-392.7,247.5-393.1,247.2z"/>
<path class="st1" d="M-376.7,242h-9.8c-0.7,0-1.3-0.6-1.3-1.3v-1.2c0-0.7,0.6-1.3,1.3-1.3h9.8c0.7,0,1.3,0.6,1.3,1.3v1.2
	C-375.4,241.4-376,242-376.7,242z"/>
<path class="st1" d="M-369.1,237.9c0,0.1,0,0.3-0.1,0.4l-3.9,2l-3.2,1.6l-10.8-3.5l-2.2-0.2l0.5-2.8l0.1-0.5h9.8l2.5-2.1l1.2-1
	L-369.1,237.9z"/>
<path class="st1" d="M-386.6,236.6l-1.2,1l-0.8,0.7l-1.1,0.9l-3.1,2.8l0,0l-0.5-0.7l-0.9-1.2l0.3-0.2l4.5-4.3
	c0.2-0.3,0.5-0.5,0.8-0.5c0.1,0,0.2,0,0.3,0h0.1l0,0l0.5,0.4L-386.6,236.6z"/>
<path class="st11" d="M-370.2,239.3l-6.8-5.7c-0.6-0.5-0.6-1.3-0.2-1.9l1.8-2.1c0.5-0.6,1.3-0.6,1.9-0.2l6.8,5.7
	c0.6,0.5,0.6,1.3,0.2,1.9l-1.8,2.1C-368.8,239.7-369.6,239.8-370.2,239.3z"/>
<path class="st12" d="M-416.2,267.4l6.4,0.4c0.6,0,1.1,0.6,1.1,1.2l0,0c0,0.6-0.6,1.1-1.2,1.1l-6.4-0.4c-0.6,0-1.1-0.6-1.1-1.2l0,0
	C-417.4,267.9-416.9,267.4-416.2,267.4z"/>
<path class="st12" d="M-420.5,271.3l9.3-0.7c0.7-0.1,1.3,0.5,1.4,1.2l0,0c0.1,0.7-0.5,1.3-1.2,1.4l-9.3,0.7
	c-0.7,0.1-1.3-0.5-1.3-1.2l0,0C-421.7,271.9-421.2,271.3-420.5,271.3z"/>
<path class="st12" d="M-421.2,272.9l7.5-0.6c0.6,0,1.1,0.4,1.1,0.9l0,0c0,0.6-0.4,1.1-0.9,1.1l-7.5,0.6c-0.6,0-1-0.4-1.1-0.9l0,0
	C-422.2,273.4-421.8,272.9-421.2,272.9z"/>
<g>
	<path class="st12" d="M-428.4,284.3c-0.3,0.7-0.1,1.5,0.6,1.1l3.8-1.8c3.6-2.1,5.2-6.6,5.3-7.4l-1.6-0.1l3.9-7.6v-0.1l0.5-1.6
		c0.1-0.3,0-0.7-0.3-0.9l0,0c-0.2-0.2-0.5-0.2-0.8-0.1l-4.8,1.9c-0.2,0.1-0.4,0.3-0.5,0.5L-428.4,284.3z"/>
</g>
<g>
	<path class="st12" d="M-428.4,284.3c-0.3,0.7-0.1,1.5,0.6,1.1l3.8-1.8c3.6-2.1,5.2-6.6,5.3-7.4l-1.6-0.1l3.9-7.6v-0.1l0.5-1.6
		c0.1-0.3,0-0.7-0.3-0.9l0,0c-0.2-0.2-0.5-0.2-0.8-0.1l-4.8,1.9c-0.2,0.1-0.4,0.3-0.5,0.5L-428.4,284.3z"/>
</g>
<g>
	<path class="st5" d="M-405.1,291.2v-1.6c0-0.1,0-0.2,0-0.3h-1l0,0c0,1.7-0.1,3.2-0.1,4.6h3.4v-0.4
		C-404.1,293.5-405.1,292.5-405.1,291.2z"/>
</g>
<g>
	<path class="st5" d="M-391.3,289.4h-1.2c0,0.1,0,0.2,0,0.3v1.6c0,1.2-1,2.2-2.2,2.3v0.4h3.6C-391.1,292.6-391.2,291.1-391.3,289.4
		C-391.2,289.3-391.2,289.4-391.3,289.4z"/>
</g>
<g>
	<path class="st5" d="M-390.4,268.2c0.3,1.7,0.5,3.5,0.5,5.4c2.2,9,10.7,12,10.7,12l-7.3,8.4h10.9v-25.8H-390.4z"/>
</g>
<g>
	<path class="st5" d="M-418.1,285.5c0,0,8.2-2.9,10.6-11.5v-0.1c0-2,0.2-3.9,0.5-5.7h-14.7V294h10.9L-418.1,285.5z"/>
</g>
<g>
	<path class="st9" d="M-394.7,293.5h-2.9v0.4h1.7v0.1h1.3L-394.7,293.5L-394.7,293.5z"/>
</g>
<g>
	<path class="st9" d="M-401.6,293.9h1.8l-0.1-0.4h-0.5l0,0h-2.6l0,0v0.4H-401.6L-401.6,293.9z"/>
</g>
<g>
	<path class="st6" d="M-417.5,286.2c0,0,7-2.5,10-9.7V274c-2.4,8.6-10.6,11.5-10.6,11.5l7.3,8.4l0,0L-417.5,286.2z"/>
</g>
<g>
	<path class="st13" d="M-402.4,292.1c-0.1-0.3-0.2-0.6-0.2-0.9v-1.6c0-0.1,0-0.2,0-0.3h-2.6c0,0.1,0,0.2,0,0.3v1.6
		c0,1.2,1,2.2,2.2,2.3v-1.4H-402.4z"/>
</g>
<g>
	<path class="st13" d="M-402.4,292.1h-0.5v1.4l0,0h2.6C-401.2,293.5-402,292.9-402.4,292.1z"/>
</g>
<g>
	<polygon class="st14" points="-400.3,293.5 -399.8,293.5 -399.8,293.5 	"/>
</g>
<g>
	<polygon class="st14" points="-397.6,293.5 -397.6,293.5 -394.7,293.5 -397,293.5 	"/>
</g>
<g>
	<path class="st14" d="M-394.7,289.7v1.6c0,0.3-0.1,0.6-0.2,0.9h0.2v1.4c1.2,0,2.2-1,2.2-2.3v-1.6c0-0.1,0-0.2,0-0.3h-2.3
		C-394.7,289.5-394.7,289.6-394.7,289.7z"/>
</g>
<g>
	<path class="st14" d="M-394.9,292.1c-0.3,0.8-1.1,1.4-2.1,1.4h2.3l0,0v-1.4H-394.9z"/>
</g>
<g>
	<path class="st15" d="M-397.6,293.5h0.6H-397.6z"/>
</g>
<g>
	<polygon class="st15" points="-399.8,293.5 -400.3,293.5 -400.3,293.5 	"/>
</g>
<g>
	<path class="st15" d="M-402.5,289.4c0,0.1,0,0.2,0,0.3v1.6c0,0.3,0.1,0.6,0.2,0.9h2.4l-0.4-2.8H-402.5z"/>
</g>
<g>
	<path class="st15" d="M-397.4,292.1h2.5c0.1-0.3,0.2-0.6,0.2-0.9v-1.6c0-0.1,0-0.2,0-0.3h-2.3L-397.4,292.1z"/>
</g>
<g>
	<path class="st15" d="M-400,292.1h-2.4c0.3,0.8,1.1,1.4,2.1,1.4h0.5L-400,292.1z"/>
</g>
<g>
	<path class="st15" d="M-397.6,293.5h0.6c0.9,0,1.8-0.6,2.1-1.4h-2.5L-397.6,293.5z"/>
</g>
<g>
	<path class="st16" d="M-406.8,289.2c0,1.7-0.1,3.4-0.1,4.8h0.6c0-1.4,0.1-2.9,0.1-4.6C-406.4,289.3-406.6,289.3-406.8,289.2z"/>
</g>
<g>
	<path class="st16" d="M-407.5,287.9c0-0.1,0-0.1,0-0.2l0,0v-11.2c-2.9,7.2-10,9.7-10,9.7l6.7,7.8h3.9c0-1.4,0.1-3,0.1-4.8
		C-407.2,288.9-407.5,288.5-407.5,287.9z"/>
</g>
<g>
	<path class="st6" d="M-389.9,276.2c2.8,7.5,10.1,10,10.1,10l-6.7,7.8l0,0l7.3-8.4c0,0-8.5-3-10.7-12c0,0.1,0,0.2,0,0.3
		L-389.9,276.2L-389.9,276.2z"/>
</g>
<g>
	<path class="st16" d="M-390.5,289.1c-0.2,0.1-0.4,0.2-0.6,0.2c0,1.7,0.1,3.2,0.1,4.6h0.6C-390.4,292.5-390.5,290.9-390.5,289.1z"/>
</g>
<g>
	<path class="st16" d="M-389.9,287.7c0,0.1,0,0.1,0,0.2c0,0.5-0.3,1-0.7,1.2c0,1.8,0.1,3.4,0.1,4.8h3.9l6.7-7.8c0,0-7.2-2.5-10.1-10
		L-389.9,287.7L-389.9,287.7L-389.9,287.7z"/>
</g>
<g>
	<path class="st17" d="M-404,287.7h-2.1c0,0.6,0,1.1,0,1.7l0,0h1C-405,288.6-404.6,288-404,287.7z"/>
</g>
<g>
	<path class="st17" d="M-393.6,287.7c0.6,0.3,1,0.9,1.1,1.7h1.2c0.1,0,0.1,0,0.2,0c0-0.5,0-1.1,0-1.6h-2.5V287.7z"/>
</g>
<g>
	<path class="st17" d="M-401.4,287.7h-1.1l0,0h-1.4c-0.6,0.3-1,0.9-1.1,1.7h2.6C-402.4,288.6-402,288-401.4,287.7z"/>
</g>
<g>
	<path class="st17" d="M-393.6,287.7h-2.3c0.6,0.3,1,0.9,1.1,1.7h2.3C-392.6,288.6-393,288-393.6,287.7z"/>
</g>
<g>
	<path class="st17" d="M-400.6,287.7h-0.8c-0.6,0.3-1,0.9-1.1,1.7h2.1L-400.6,287.7z"/>
</g>
<g>
	<path class="st17" d="M-397,289.4h2.3c-0.1-0.7-0.5-1.3-1.1-1.7h-0.9L-397,289.4z"/>
</g>
<g>
	<path class="st17" d="M-406.7,287.7c0,0.5,0,1,0,1.5c0.2,0.1,0.4,0.2,0.6,0.2c0-0.5,0-1.1,0-1.7H-406.7z"/>
</g>
<g>
	<path class="st17" d="M-407.5,287.7c0,0.1,0,0.1,0,0.2c0,0.6,0.3,1,0.8,1.3c0-0.5,0-1,0-1.5H-407.5L-407.5,287.7z"/>
</g>
<g>
	<path class="st17" d="M-391.2,287.7c0,0.6,0,1.1,0,1.6c0.2,0,0.4-0.1,0.6-0.2c0-0.5,0-0.9,0-1.4H-391.2z"/>
</g>
<g>
	<path class="st17" d="M-389.9,287.9c0-0.1,0-0.1,0-0.2h-0.7c0,0.5,0,1,0,1.4C-390.1,288.9-389.9,288.4-389.9,287.9z"/>
</g>
<g>
	<path class="st6" d="M-406.5,272.6c0-0.3,0.1-0.5,0.1-0.8c0.7-6.5,0.5,4.7,0.3,14.6h3.5v-11.5c-1.2-1.1-2-2.7-2-4.4
		c0-0.9,0.2-1.7,0.5-2.4h-2.9c-0.3,1.8-0.5,3.7-0.5,5.7v0.1c0.2-0.9,0.4-1.8,0.5-2.8C-406.6,267.8-406.5,269.2-406.5,272.6z"/>
</g>
<g>
	<path class="st6" d="M-406.5,272.6c0-3.5-0.1-4.8-0.5-1.5c-0.1,1-0.3,2-0.5,2.8v2.5C-407.1,275.3-406.7,274-406.5,272.6z"/>
</g>
<g>
	<path class="st6" d="M-406.7,286.6c0.2-0.1,0.4-0.1,0.6-0.1l0,0c0.2-10,0.4-21.2-0.3-14.6c0,0.3-0.1,0.5-0.1,0.8
		C-406.5,276.1-406.6,281.6-406.7,286.6z"/>
</g>
<g>
	<path class="st6" d="M-407.5,287.7c0.1-0.5,0.4-0.9,0.8-1.1c0.1-5,0.2-10.6,0.2-14c-0.2,1.4-0.6,2.7-1,3.8V287.7L-407.5,287.7z"/>
</g>
<g>
	<path class="st6" d="M-404,287.7c0.3-0.2,0.7-0.3,1.1-0.3h0.3v-0.9h-3.5c0,0.4,0,0.8,0,1.2L-404,287.7L-404,287.7z"/>
</g>
<g>
	<path class="st6" d="M-402.8,287.4c-0.4,0-0.8,0.1-1.1,0.3h1.4v-0.3H-402.8z"/>
</g>
<g>
	<path class="st6" d="M-406.7,286.6c0,0.4,0,0.7,0,1.1h0.6c0-0.4,0-0.8,0-1.2l0,0C-406.3,286.5-406.5,286.5-406.7,286.6z"/>
</g>
<g>
	<path class="st6" d="M-407.5,287.7h0.8c0-0.4,0-0.7,0-1.1C-407.1,286.8-407.4,287.2-407.5,287.7z"/>
</g>
<g>
	<path class="st7" d="M-389.9,287.7L-389.9,287.7L-389.9,287.7z"/>
</g>
<g>
	<rect x="-392.4" y="286.5" class="st7" width="0" height="2.4"/>
</g>
<g>
	<polygon class="st7" points="-402.5,287.7 -401.4,287.7 -401.4,287.7 	"/>
</g>
<g>
	<polygon class="st7" points="-394.8,287.7 -395.9,287.7 -395.9,287.7 -393.6,287.7 -393.6,287.7 	"/>
</g>
<g>
	<rect x="-396.3" y="287.2" class="st7" width="0" height="0.9"/>
</g>
<g>
	<polygon class="st7" points="-401.4,287.7 -400.6,287.7 -400.6,287.7 	"/>
</g>
<g>
	<rect x="-390.9" y="287.4" class="st7" width="0" height="0.6"/>
</g>
<g>
	<rect x="-390.2" y="287.4" class="st7" width="0" height="0.7"/>
</g>
<g>
	<path class="st7" d="M-392.8,270.6c0,1.8-0.8,3.4-2,4.4v11.5h3.5h0.1c-0.2-10-0.4-21.2,0.3-14.6c0,0.3,0.1,0.5,0.1,0.8
		c0-3.5,0.1-4.8,0.5-1.5c0.1,0.8,0.2,1.6,0.4,2.4c0-1.8-0.2-3.6-0.5-5.4h-2.9C-393,268.9-392.8,269.7-392.8,270.6z"/>
</g>
<g>
	<path class="st7" d="M-390.8,272.6c0.2,1.3,0.5,2.5,0.9,3.6v-2.3c0-0.1,0-0.2,0-0.3c-0.2-0.7-0.3-1.5-0.4-2.4
		C-390.6,267.8-390.8,269.2-390.8,272.6z"/>
</g>
<g>
	<path class="st7" d="M-390.8,272.6c0-0.3-0.1-0.5-0.1-0.8c-0.7-6.5-0.5,4.7-0.3,14.6c0.2,0,0.4,0.1,0.6,0.2
		C-390.7,281.6-390.8,276.1-390.8,272.6z"/>
</g>
<g>
	<path class="st7" d="M-390.6,286.7c0.4,0.2,0.6,0.6,0.7,1l0,0v-11.5c-0.4-1.1-0.7-2.3-0.9-3.6
		C-390.8,276.1-390.7,281.6-390.6,286.7z"/>
</g>
<g>
	<path class="st7" d="M-394.7,287.4c0.4,0,0.8,0.1,1.1,0.3h2.4c0-0.4,0-0.8,0-1.2h-0.1h-3.5v0.9L-394.7,287.4L-394.7,287.4z"/>
</g>
<g>
	<polygon class="st7" points="-394.7,287.4 -394.8,287.4 -394.8,287.4 	"/>
</g>
<g>
	<path class="st7" d="M-394.8,287.7h1.3c-0.3-0.2-0.7-0.3-1.1-0.3h-0.1C-394.8,287.4-394.8,287.7-394.8,287.7z"/>
</g>
<g>
	<path class="st7" d="M-390.6,287.7c0-0.3,0-0.7,0-1c-0.2-0.1-0.4-0.2-0.6-0.2c0,0.4,0,0.8,0,1.2H-390.6z"/>
</g>
<g>
	<path class="st7" d="M-390.6,286.7c0,0.3,0,0.7,0,1h0.7C-390,287.3-390.2,286.9-390.6,286.7z"/>
</g>
<g>
	<polygon class="st8" points="-402.5,287.7 -401.4,287.7 -401.4,287.7 	"/>
</g>
<g>
	<polygon class="st8" points="-395.9,287.7 -394.9,287.7 -394.9,287.7 	"/>
</g>
<g>
	<rect x="-396.3" y="287.2" class="st8" width="0" height="0.9"/>
</g>
<g>
	<rect x="-401" y="287.3" class="st8" width="0" height="0.8"/>
</g>
<g>
	<path class="st8" d="M-402.5,275v11.5h1.8l-0.1-0.7l2.2-4.2l2.2,4.2l-0.1,0.7h1.8V275c-1,0.9-2.4,1.4-3.8,1.4
		C-400.2,276.5-401.5,275.9-402.5,275z"/>
</g>
<g>
	<polygon class="st8" points="-400.6,287.4 -400.8,286.5 -402.5,286.5 -402.5,287.4 	"/>
</g>
<g>
	<polygon class="st8" points="-396.7,287.4 -394.8,287.4 -394.8,286.5 -396.6,286.5 	"/>
</g>
<g>
	<path class="st8" d="M-400.6,287.4L-400.6,287.4h-1.9v0.3h1.1C-401.2,287.6-400.9,287.5-400.6,287.4z"/>
</g>
<g>
	<rect x="-395.8" y="286.4" class="st8" width="0" height="1.9"/>
</g>
<g>
	<path class="st8" d="M-395.9,287.7h1v-0.3h-1.9l0,0C-396.4,287.5-396.1,287.6-395.9,287.7z"/>
</g>
<g>
	<path class="st8" d="M-400.6,287.4c-0.3,0-0.5,0.1-0.8,0.3h0.8V287.4z"/>
</g>
<g>
	<path class="st8" d="M-396.7,287.4v0.3h0.9C-396.1,287.6-396.4,287.5-396.7,287.4z"/>
</g>
<g>
	<path class="st2" d="M-402.8,270.6c0,0.5,0.1,1,0.3,1.4c0-1.1,0.1-2.2,0.2-3.2C-402.6,269.3-402.8,269.9-402.8,270.6z"/>
</g>
<g>
	<path class="st2" d="M-394.6,270.6c0-0.6-0.2-1.2-0.4-1.8c0.1,1,0.1,2.1,0.2,3.2C-394.7,271.5-394.6,271.1-394.6,270.6z"/>
</g>
<g>
	<path class="st2" d="M-402.5,272c0.6,1.6,2.1,2.7,3.8,2.7c1.8,0,3.2-1.1,3.8-2.7c0-1.1-0.1-2.2-0.2-3.2c-0.1-0.2-0.2-0.4-0.4-0.6
		h-0.7c0.4,0.4,0.6,0.9,0.6,1.4c0,1.1-0.9,2-2,2s-2-0.9-2-2c0-0.5,0.2-1,0.6-1.4h-3c-0.1,0.2-0.3,0.4-0.4,0.6
		C-402.4,269.8-402.5,270.9-402.5,272z"/>
</g>
<g>
	<path class="st3" d="M-402.5,273.7c-0.7-0.9-1.1-2-1.1-3.2c0-0.9,0.2-1.7,0.6-2.4h-1c-0.3,0.7-0.5,1.5-0.5,2.4c0,1.8,0.8,3.4,2,4.4
		V273.7C-402.5,273.8-402.5,273.8-402.5,273.7z"/>
</g>
<g>
	<path class="st3" d="M-393.7,270.6c0,1.2-0.4,2.3-1.1,3.2v0.1v1.1c1.2-1.1,2-2.7,2-4.4c0-0.9-0.2-1.7-0.5-2.4h-1
		C-393.9,268.9-393.7,269.7-393.7,270.6z"/>
</g>
<g>
	<path class="st3" d="M-394.8,273.7c-0.9,1.1-2.3,1.8-3.8,1.8s-2.9-0.7-3.8-1.8v0.1v1.1c1,0.9,2.4,1.4,3.8,1.4
		c1.5,0,2.8-0.5,3.8-1.4v-1.1C-394.8,273.8-394.8,273.8-394.8,273.7z"/>
</g>
<g>
	<path class="st3" d="M-402.8,270.6c0-0.6,0.2-1.2,0.4-1.8c0-0.2,0-0.4,0-0.6h-0.8c-0.4,0.7-0.6,1.5-0.6,2.4c0,1.2,0.4,2.3,1.1,3.2
		c0-0.6,0-1.2,0-1.8C-402.7,271.5-402.8,271.1-402.8,270.6z"/>
</g>
<g>
	<path class="st3" d="M-395,268.8c0.3,0.5,0.4,1.1,0.4,1.8c0,0.5-0.1,1-0.3,1.4c0,0.6,0,1.2,0,1.8c0.7-0.9,1.1-2,1.1-3.2
		c0-0.9-0.2-1.7-0.6-2.4h-0.8C-395.1,268.4-395.1,268.6-395,268.8z"/>
</g>
<g>
	<path class="st3" d="M-398.7,274.7c-1.7,0-3.2-1.1-3.8-2.7c0,0.6,0,1.2,0,1.8c0.9,1.1,2.3,1.8,3.8,1.8s2.9-0.7,3.8-1.8
		c0-0.6,0-1.2,0-1.8C-395.5,273.5-396.9,274.7-398.7,274.7z"/>
</g>
<g>
	<path class="st4" d="M-399.5,269.6c0,1.1,0.9,2,2,2s2-0.9,2-2c0-0.5-0.2-1-0.6-1.4h-2.8C-399.3,268.5-399.5,269-399.5,269.6z"/>
</g>
<g>
	<polygon class="st16" points="-398.7,293.9 -397.6,293.9 -397.6,293.5 -398.7,293.5 	"/>
</g>
<g>
	<rect x="-398.1" y="293" class="st16" width="0" height="1.1"/>
</g>
<g>
	<rect x="-398.1" y="293" class="st16" width="0" height="1.1"/>
</g>
<g>
	<polygon class="st16" points="-398.7,292.1 -397.4,292.1 -397,289.4 -398.7,289.4 	"/>
</g>
<g>
	<polygon class="st16" points="-398.7,293.5 -397.6,293.5 -397.4,292.1 -398.7,292.1 	"/>
</g>
<g>
	<polygon class="st16" points="-398.7,289.4 -397,289.4 -396.8,287.7 -398.7,287.7 	"/>
</g>
<g>
	<polygon class="st16" points="-398.7,287.7 -396.8,287.7 -396.8,287.7 	"/>
</g>
<g>
	<rect x="-397.7" y="286.7" class="st16" width="0" height="1.9"/>
</g>
<g>
	<polygon class="st16" points="-396.6,286.5 -396.5,285.8 -398.7,281.6 -398.7,286.5 	"/>
</g>
<g>
	<polygon class="st16" points="-398.7,287.4 -397,287.4 -397,287.4 -396.7,287.4 -396.6,286.5 -398.7,286.5 	"/>
</g>
<g>
	<polygon class="st16" points="-397,287.4 -396.8,287.4 -396.8,287.4 	"/>
</g>
<g>
	<path class="st16" d="M-396.7,287.4h-0.2C-396.9,287.4-396.8,287.4-396.7,287.4L-396.7,287.4z"/>
</g>
<g>
	<rect x="-397.8" y="286.5" class="st16" width="0" height="1.7"/>
</g>
<g>
	<polygon class="st16" points="-398.7,287.4 -397,287.4 -397,287.4 	"/>
</g>
<g>
	<path class="st16" d="M-398.7,287.7h1.9v-0.3c-0.1,0-0.2,0-0.2,0h-1.7L-398.7,287.7L-398.7,287.7z"/>
</g>
<g>
	<polygon class="st18" points="-398.7,293.5 -399.8,293.5 -399.8,293.9 -398.7,293.9 	"/>
</g>
<g>
	<polygon class="st18" points="-399.8,293.5 -398.7,293.5 -398.7,293.5 	"/>
</g>
<g>
	<rect x="-399.2" y="293" class="st18" width="0" height="1.1"/>
</g>
<g>
	<polygon class="st18" points="-398.7,289.4 -400.4,289.4 -400,292.1 -398.7,292.1 	"/>
</g>
<g>
	<polygon class="st18" points="-398.7,292.1 -400,292.1 -399.8,293.5 -398.7,293.5 	"/>
</g>
<g>
	<polygon class="st18" points="-400.6,287.7 -400.4,289.4 -398.7,289.4 -398.7,287.7 	"/>
</g>
<g>
	<polygon class="st18" points="-400.6,287.7 -398.7,287.7 -398.7,287.7 	"/>
</g>
<g>
	<polygon class="st18" points="-400.6,287.7 -398.7,287.7 -398.7,287.7 	"/>
</g>
<g>
	<polygon class="st18" points="-398.7,281.6 -400.9,285.8 -400.8,286.5 -398.7,286.5 	"/>
</g>
<g>
	<polygon class="st18" points="-400.3,287.4 -400.3,287.4 -398.7,287.4 -398.7,286.5 -400.8,286.5 -400.6,287.4 	"/>
</g>
<g>
	<path class="st18" d="M-400.3,287.4h-0.4l0,0C-400.5,287.4-400.4,287.4-400.3,287.4z"/>
</g>
<g>
	<path class="st18" d="M-398.7,287.4h-1.6H-398.7z"/>
</g>
<g>
	<polygon class="st18" points="-400.3,287.4 -398.7,287.4 -398.7,287.4 	"/>
</g>
<g>
	<path class="st18" d="M-400.6,287.7h1.9v-0.3h-1.6c-0.1,0-0.2,0-0.4,0L-400.6,287.7z"/>
</g>
<path class="st19" d="M-411.2,271.1c0,0.5-0.3,0.9-0.7,1.1l-0.2,0.1l-5.2,2.7c-0.1,0-2.1,1.8-2.2,1.8c0,0-1.9,3.9-5.3,6.6l-9,6
	c-0.8,0.5-1.8,0-1.8-1V283c0-0.3,0.1-0.6,0.4-0.9l3.7-3.3c0.1-0.1,0.2-0.2,0.2-0.3l6.4-11.3c0.1-0.2,0.3-0.4,0.6-0.5l3.7-1.4
	c0.2-0.1,0.4-0.1,0.5-0.1l3.5,0.4l-1.2,2.1c0,0-0.9,0.1-1.8,0.3c-0.4,0.1-0.9,0.2-1.1,0.6l-0.8,1.6c-0.4,0.7,0.1,1.6,1,1.7l2.3,0.1
	c0.2,0,0.3,0,0.5-0.1l4.4-1.6c0.1-0.1,0.1-0.1,0.2-0.1l0.5-0.2c0.6-0.2,1.2,0.1,1.4,0.7C-411.2,270.9-411.2,271-411.2,271.1z"/>
<path class="st20" d="M-413.5,271.6L-413.5,271.6c-0.2-0.4,0.1-0.9,0.5-1.1l0.4-0.2c0.4-0.2,0.9,0.1,1.1,0.5l0,0
	c0.2,0.4-0.1,0.9-0.5,1.1l-0.4,0.2C-412.9,272.3-413.4,272.1-413.5,271.6z"/>
<path class="st11" d="M-433,289.5h-4.7c-0.7,0-1.3-0.6-1.3-1.3v-8.7c0-0.7,0.6-1.3,1.3-1.3h4.7c0.7,0,1.3,0.6,1.3,1.3v8.7
	C-431.7,288.9-432.3,289.5-433,289.5z"/>
<path class="st19" d="M-417.5,265.5l6.4,0.6c0.6,0.1,1.1,0.6,1,1.3l0,0c-0.1,0.6-0.6,1.1-1.3,1l-6.4-0.6c-0.6-0.1-1.1-0.6-1-1.3l0,0
	C-418.8,265.9-418.2,265.4-417.5,265.5z"/>
<path class="st21" d="M-381.1,302.3l-6.4,0.4c-0.6,0-1.1,0.6-1.1,1.2l0,0c0,0.6,0.6,1.1,1.2,1.1l6.4-0.4c0.6,0,1.1-0.6,1.1-1.2l0,0
	C-379.9,302.7-380.4,302.2-381.1,302.3z"/>
<path class="st21" d="M-376.3,305.4l-9.3-0.7c-0.7-0.1-1.3,0.5-1.4,1.2l0,0c-0.1,0.7,0.5,1.3,1.2,1.3l9.3,0.7
	c0.7,0.1,1.3-0.5,1.4-1.2l0,0C-375.1,306-375.6,305.4-376.3,305.4z"/>
<path class="st21" d="M-376.9,309.7l-6-4.6c-0.4-0.3-1.1-0.3-1.4,0.2l0,0c-0.3,0.4-0.3,1.1,0.2,1.4l6,4.6c0.4,0.3,1.1,0.3,1.4-0.2
	l0,0C-376.4,310.7-376.5,310-376.9,309.7z"/>
<path class="st21" d="M-380.1,300.1l-6.4,0.1c-0.6,0-1.2,0.5-1.1,1.2l0,0c0,0.6,0.5,1.2,1.2,1.1l6.4-0.1c0.6,0,1.2-0.5,1.1-1.2l0,0
	C-378.9,300.6-379.4,300.1-380.1,300.1z"/>
<path class="st21" d="M-372.1,323.1l0.1-0.1c-2.8,0.1-3.4-2.5-3.6-3.6l-0.7-4.5c-0.2-1.1,0.6-2.2,1.7-2.4l0,0
	c1.1-0.2,2.2,0.6,2.4,1.7l0.7,4.5C-371.3,319.9-371,322.9-372.1,323.1z"/>
<path class="st21" d="M-361.5,325.7l-3.6-11.9c0-0.1,0-0.1,0-0.2l-1.3-7.8c0-1.2-1.7-1.9-1.8-2l-9.2-3.7c-0.2-0.1-0.4-0.1-0.6-0.1
	h-3.6c-0.7,0-1.3,0.4-1.4,1.1l-1,3.3c0,0.1-0.1,0.3-0.1,0.4v1.3v0.4c0,0.2-0.1,0.4-0.2,0.6l0,0c-0.1,0.2-0.2,0.4-0.2,0.6l0,0
	c0,0.5,0.2,0.9,0.6,1.2l7.2,5.8c0.3,0.2,0.5,0.6,0.6,1l0.1,2.1c0,0.3,0.6,1.4,0.9,1.7l1.9,0.9c0.2,0.2,1.1,2.5,1.1,2.8l0.7,6.2
	c0.1,1,1.2,1.6,2.1,1.2l7-3.1C-361.6,327.3-361.3,326.5-361.5,325.7z"/>
<path class="st5" d="M-388.9,299.7L-388.9,299.7l-0.6,0.7c0,0-0.1-2.1-0.1-5.1h-3.6v4.6c0,6.2-4.1,11.2-4.1,11.2s-4.1-5-4.1-11.2
	v-4.6h-3.4c-0.1,3.1-0.1,5.1-0.1,5.1l-0.6-0.7l0,0l-3.8-4.5h-10.9V319h46.1v-23.8H-385L-388.9,299.7z"/>
<path class="st9" d="M-394.6,299.6c0,4.2-2.8,7.6-2.8,7.6s-2.8-3.4-2.8-7.6v-4.3h-1.3v4.6c0,6.2,4.1,11.2,4.1,11.2s4.1-5,4.1-11.2
	v-4.6h-1.3C-394.6,295.2-394.6,299.6-394.6,299.6z"/>
<path class="st22" d="M-397.3,302.8l-1-7.6h-1.8v4.3c0,4.2,2.8,7.6,2.8,7.6s2.8-3.4,2.8-7.6v-4.3h-1.7L-397.3,302.8z"/>
<polygon class="st22" points="-398.4,295.2 -400.2,295.2 -400.2,295.2 "/>
<polygon class="st22" points="-394.6,295.2 -394.6,295.2 -396.2,295.2 -396.3,295.2 "/>
<path class="st6" d="M-409.4,295.2l3.8,4.5l0,0L-409.4,295.2L-409.4,295.2z"/>
<path class="st16" d="M-405.6,299.7l0.6,0.7c0,0,0.1-2.1,0.1-5.1h-0.6C-405.5,297.8-405.6,299.5-405.6,299.7z"/>
<path class="st16" d="M-409.4,295.2l3.8,4.4c0-0.2,0.1-1.9,0.1-4.4H-409.4z"/>
<path class="st6" d="M-388.9,299.7L-388.9,299.7l3.8-4.4l0,0L-388.9,299.7z"/>
<path class="st16" d="M-389.6,295.2c0.1,3.1,0.1,5.1,0.1,5.1l0.6-0.7c0-0.2-0.1-1.9-0.1-4.4H-389.6z"/>
<path class="st16" d="M-389,295.2c0.1,2.5,0.1,4.2,0.1,4.4l3.8-4.4H-389z"/>
<polygon class="st16" points="-396.3,295.2 -397.3,295.2 -397.3,302.8 "/>
<polygon class="st16" points="-397.3,295.2 -396.3,295.2 -396.2,295.2 "/>
<polygon class="st18" points="-397.3,302.8 -397.3,295.2 -398.4,295.2 "/>
<polygon class="st18" points="-397.3,295.2 -397.3,295.2 -398.4,295.2 -398.4,295.2 "/>
<path class="st23" d="M-360.8,327.4l-3.5-10.9c-0.1-0.2-0.5-0.8-0.7-1l-6.3-6.6l-0.8-0.6l-5.5-3.9l-1.2-1c-0.6-0.5-1.4-0.5-2,0
	c-0.7,0.6-0.7,1.5,0,2.1l2.8,2.6c0.1,0.1,2.5,3.5,2.5,3.5l0.6,4.6l0,0c0,0.2,0,0.4,0,0.6l0.7,4.5c0.2,1,1,1.7,2,1.8l0,0l0,0l0.7,6.5
	c0.1,1.6,0.8,1.9,1.9,1.6l0,0l7.5-1.8C-361.1,329.2-360.5,328.3-360.8,327.4z"/>
<path class="st20" d="M-379.1,303.4L-379.1,303.4c0.4,0.4,0.3,1.1-0.1,1.5l-0.2,0.2c-0.4,0.4-1.1,0.3-1.5-0.1l0,0
	c-0.4-0.4-0.3-1.1,0.1-1.5l0.2-0.2C-380.2,302.9-379.5,302.9-379.1,303.4z"/>
<path class="st11" d="M-360.9,333h-10.5c-0.9,0-1.6-0.7-1.6-1.6v-3.3c0-0.9,0.7-1.6,1.6-1.6h10.5c0.9,0,1.6,0.7,1.6,1.6v3.3
	C-359.3,332.3-360.1,333-360.9,333z"/>
</svg>
