<?xml version="1.0" encoding="iso-8859-1"?>
<!-- Generator: Adobe Illustrator 19.1.0, SVG Export Plug-In . SVG Version: 6.00 Build 0)  -->
<!DOCTYPE svg PUBLIC "-//W3C//DTD SVG 1.1//EN" "http://www.w3.org/Graphics/SVG/1.1/DTD/svg11.dtd">
<svg version="1.1" id="illustrations" xmlns="http://www.w3.org/2000/svg" xmlns:xlink="http://www.w3.org/1999/xlink" x="0px"
	 y="0px" viewBox="0 0 62.324 112.606" style="enable-background:new 0 0 62.324 112.606;" xml:space="preserve">
<g>
	<g>
		<path style="fill:#EAB99A;" d="M33.818,11.496l0.419-1.515c0.068-0.25,0.223-0.468,0.436-0.615l1.066-0.742
			c0.186-0.13,0.407-0.199,0.634-0.199l0,0c0.527,0,0.981,0.372,1.087,0.889l0.431,2.117c0.126,0.621-0.291,1.222-0.917,1.318
			l-1.404,0.217c-0.111,0.017-0.225,0.017-0.336,0.001l-1.739,1.685C32.836,14.552,33.641,12.138,33.818,11.496z"/>
	</g>
	<g>
		<path style="fill:#7D4C2E;" d="M56.402,32.741c0,1.201-0.1,3.466-0.39,5.394c-0.047,0.304-0.1,0.607-0.152,0.892
			c-0.198,0.971-0.455,1.782-0.792,2.198c-1.532,1.896-4.021-0.495-4.021-0.495s-2.503,2.972-4.015,1.156
			c-0.403-0.489-0.693-1.578-0.898-2.859c-0.046-0.29-0.086-0.588-0.125-0.892c-0.244-2.007-0.311-4.238-0.311-5.394
			c0-5.025,2.396-9.099,5.349-9.099C54.005,23.643,56.402,27.716,56.402,32.741z"/>
	</g>
	<g>
		<path style="fill:#5D2C10;" d="M54.511,28.264c0,0,3.35,5.469-1.9,9.407l0,0l-3.686-0.319c0,0-2.292-2.51-1.736-4.931l0,0
			L54.511,28.264L54.511,28.264z"/>
	</g>
	<g>
		<path style="fill:#EAB99A;" d="M61.706,64.708h-1.585c-0.165-0.581-0.35-1.208-0.541-1.881c-0.766-2.615-1.736-5.857-2.773-9.508
			c0-0.007-0.006-0.014-0.006-0.02l2.521,0.462c0.964,3.202,1.743,6.272,2.159,9.065C61.574,63.467,61.653,64.095,61.706,64.708z"/>
	</g>
	<g>
		<path style="fill:#EAB99A;" d="M60.141,65.439c0.152-0.463-0.038-0.691-0.151-1.188c0.566-0.011,1.064-0.29,1.631-0.299
			l0.649,3.982c0.031,0.129,0.096,0.512,0.017,0.619l-2.202,2.386c-0.109,0.148-0.245,0.034-0.423-0.013
			c0,0-0.592-0.277-0.223-0.603c0.573-0.467,1.381-1.95,1.381-1.95c0.003-0.239-0.051-0.187-0.245-0.978l-0.421,0.36
			c-0.165,0.248-0.082,1.316-0.082,1.316l-0.318-0.215c-0.042-0.029-0.074-0.07-0.092-0.119c-0.071-0.198-0.271-0.708-0.252-0.771
			l0.729-2.523C60.14,65.444,60.14,65.441,60.141,65.439z"/>
	</g>
	<g>
		<path style="fill:#C5D5D6;" d="M59.322,53.762l-2.516-0.442h-0.006V53.3c-0.152-1.209-0.272-2.926-0.37-4.715v-0.046
			c-0.079-1.492-0.146-3.03-0.191-4.345c-0.073-1.961-0.105-3.446-0.105-3.599c0-0.699,0.488-1.287,1.155-1.472
			c0.139-0.04,0.29-0.06,0.442-0.06c0.806,0,1.473,0.581,1.571,1.327c0.007,0.039,0.02,0.079,0.02,0.118
			C59.726,44.742,59.692,49.173,59.322,53.762z"/>
	</g>
	<g>
		<path style="fill:#EAB99A;" d="M37.58,16.643l-1.485,0.455c-0.102,0.606,0.468,7.904,0.749,11.694
			c0.002,0.007-0.002,0.015,0,0.021l2.276-1.181C39.12,27.633,37.709,17.245,37.58,16.643z"/>
	</g>
	<g>
		<path style="fill:#EAB99A;" d="M58.259,44.487c0.41,0.426,0.657,0.926,0.657,1.463c0,0.56-0.262,1.083-0.71,1.516
			c-0.314,0.328-0.738,0.604-1.238,0.821h-0.023c-0.127,0.059-0.254,0.111-0.389,0.156c-0.037,0.015-0.082,0.022-0.119,0.037
			c-0.008,0.022-0.022,0.045-0.03,0.067v0.008c-1.679,4.18-1.955,7.367,0.262,11.494c0.09,0.18,0.187,0.352,0.291,0.53H45.018
			c0.104-0.179,0.201-0.351,0.291-0.53c2.194-4.09,1.948-7.277,0.291-11.412c-0.008-0.053-0.037-0.104-0.059-0.157
			c-0.172-0.052-0.329-0.111-0.485-0.187c-0.299-0.119-0.567-0.261-0.807-0.425c-0.126-0.082-0.238-0.172-0.343-0.27
			c-0.53-0.462-0.844-1.037-0.844-1.65c0-0.537,0.246-1.037,0.649-1.463l-1.09-4.045c0-0.672,0.545-1.232,1.284-1.381
			c0.097-0.022,0.194-0.03,0.291-0.038h1.94c0.284-0.015,0.553-0.045,0.791-0.089c0.209-0.038,0.411-0.09,0.59-0.157
			c0.395-0.127,0.725-0.313,0.993-0.552c0.037-0.022,0.067-0.061,0.104-0.09c0.373-0.358,0.619-0.813,0.769-1.344
			c0.067-0.239,0.119-0.492,0.149-0.762h2.918c0.03,0.27,0.075,0.522,0.143,0.762c0.149,0.53,0.395,0.985,0.768,1.344
			c0.029,0.029,0.067,0.06,0.097,0.09c0.202,0.179,0.44,0.328,0.717,0.447c0.09,0.045,0.179,0.082,0.284,0.112
			c0.396,0.134,0.865,0.216,1.402,0.238h1.829c0.179,0,0.358,0.022,0.515,0.075c0.665,0.179,1.149,0.716,1.149,1.344L58.259,44.487z
			"/>
	</g>
	<g>
		<path style="fill:#EAB99A;" d="M52.658,61.362v5.395c0,0.885-0.653,1.618-1.505,1.743c-0.086,0.014-0.172,0.02-0.258,0.02h-0.066
			c-0.938-0.039-1.696-0.812-1.696-1.763v-5.395c0-0.276,0.065-0.548,0.185-0.778c0.291-0.581,0.892-0.978,1.578-0.978
			c0.488,0,0.925,0.198,1.248,0.515c0.132,0.139,0.244,0.291,0.33,0.463C52.593,60.814,52.658,61.086,52.658,61.362z"/>
	</g>
	<g>
		<path style="fill:#DEAD8E;" d="M50.446,94.996c0.007,0.112,0,0.218-0.006,0.33l-1.07,12.545h-2.244l-1.188-12.776
			c-0.007-0.066-0.007-0.132-0.007-0.198l0.218-7.579c0-0.007,0-0.007,0-0.007l0.02-0.562h3.737l0.046,0.714v0.013L50.446,94.996z"
			/>
	</g>
	<g>
		<path style="fill:#EAB99A;" d="M50.937,60.58l-0.022,1.485l-0.008,0.664v0.225l-0.074,5.568v0.148l-0.881,18.795v0.008
			c0,0-0.649,1.582-1.762,1.664c-1.067,0.082-1.971-1.679-2.037-1.821c0-0.007,0-0.007,0-0.007l-3.083-19.348
			c0,0-0.03-0.402,0-1.052c0.007-0.112,0.015-0.239,0.023-0.366c0.007-0.037,0.007-0.082,0.007-0.119
			c0.008-0.119,0.022-0.246,0.038-0.381c0.015-0.127,0.029-0.261,0.045-0.403c0.007-0.029,0.007-0.06,0.015-0.089
			c0.023-0.172,0.052-0.352,0.082-0.53c0.119-0.642,0.283-1.352,0.537-2.067c0.03-0.075,0.053-0.149,0.082-0.225
			c0.082-0.216,0.172-0.44,0.262-0.664c0.216-0.5,0.485-0.992,0.799-1.485H50.937z"/>
	</g>
	<g>
		<path style="fill:#F5C4A5;" d="M58.204,46.331c0,0.791-0.485,1.493-1.239,1.956h-0.022c-0.127,0.082-0.246,0.148-0.388,0.201
			c-0.045,0.022-0.098,0.045-0.149,0.06v0.008c-0.44,0.164-0.948,0.261-1.485,0.261c-1.813,0-3.284-1.104-3.284-2.485
			c0-1.373,1.471-2.485,3.284-2.485c0.515,0,1.008,0.09,1.44,0.254C57.45,44.502,58.204,45.346,58.204,46.331z"/>
	</g>
	<g>
		<path style="fill:#F5C4A5;" d="M50.113,46.331c0,1.381-1.478,2.485-3.284,2.485c-0.434,0-0.851-0.066-1.232-0.179
			c-0.193-0.059-0.38-0.127-0.552-0.217c-0.307-0.149-0.575-0.336-0.799-0.552c-0.44-0.426-0.709-0.956-0.709-1.538
			c0-0.94,0.687-1.754,1.702-2.172c0.47-0.201,1.007-0.313,1.59-0.313C48.635,43.846,50.113,44.958,50.113,46.331z"/>
	</g>
	<g>
		<path style="fill:#DEAD8E;" d="M56.052,94.896c0,0.066,0,0.133-0.006,0.198l-1.188,12.776h-2.245l-1.069-12.545
			c-0.014-0.112-0.014-0.218-0.007-0.33l0.495-7.521v-0.013l0.046-0.714h3.737l0.02,0.562c0,0,0,0,0,0.007L56.052,94.896z"/>
	</g>
	<g>
		<path style="fill:#EAB99A;" d="M58.908,67.962L55.833,87.31c0,0,0,0,0,0.007c-0.075,0.143-0.971,1.903-2.038,1.821
			c-1.119-0.082-1.762-1.664-1.762-1.664v-0.008l-0.88-18.795V68.5l-0.082-5.546v-0.889l-0.023-1.485h5.972
			c0.321,0.493,0.582,0.985,0.799,1.485c0.097,0.224,0.187,0.448,0.269,0.664c0.03,0.075,0.053,0.149,0.082,0.225
			C59.072,65.566,58.908,67.962,58.908,67.962z"/>
	</g>
	<g>
		<path style="fill:#EAB99A;" d="M55.066,30.934c0,2.905-1.782,6.418-4.001,6.418c-0.105,0-0.204-0.007-0.304-0.026
			c-2.08-0.298-3.73-3.618-3.73-6.392c0-2.779,1.631-5.051,3.711-5.256c0.099-0.007,0.198-0.013,0.304-0.013
			C53.265,25.665,55.066,28.021,55.066,30.934z"/>
	</g>
	<g>
		<path style="fill:#F5C4A5;" d="M54.459,30.934c0,2.774-1.624,6.094-3.697,6.392c-2.08-0.298-3.73-3.618-3.73-6.392
			c0-0.086,0-0.179,0.014-0.264c0.066-1.935,0.931-3.599,2.172-4.424c0.35-0.238,0.72-0.403,1.116-0.495l0.026-0.007
			c0.006-0.007,0.02-0.007,0.026-0.007c0.118-0.026,0.237-0.046,0.356-0.06c0.258,0.026,0.509,0.086,0.753,0.172
			c1.512,0.541,2.667,2.198,2.911,4.259C54.44,30.379,54.459,30.656,54.459,30.934z"/>
	</g>
	<g>
		<path style="fill:#7D4C2E;" d="M54.459,27.194c0,0,0.271,1.761-3.005,2.256c-3.274,0.495-3.935,1.981-4.266,2.971
			c0,0-1.815-4.292,0.936-5.942C50.875,24.828,53.249,24.443,54.459,27.194z"/>
	</g>
	<g>
		<path style="fill:#3C4A58;" d="M55.833,87.31c0,0,0,0,0,0.007l0.216,7.584c0,0.06,0,0.127-0.007,0.194l-1.187,12.778h0.015
			c0.015,0.201,0.029,0.403,0.074,0.582h-2.344c0.008-0.172,0.016-0.373,0.016-0.582l-1.075-12.547
			c-0.015-0.112-0.015-0.217-0.008-0.329l0.5-7.523v-0.008l-0.88-18.795V68.5c-0.082,0.015-0.172,0.022-0.254,0.022h-0.067v0.148
			l-0.881,18.795v0.008l0.492,7.523c0.008,0.112,0,0.217-0.007,0.329l-1.067,12.547h-0.008c0.008,0.209,0.015,0.41,0.023,0.582
			H47.04c0.037-0.179,0.059-0.381,0.075-0.582h0.007l-1.187-12.778c-0.008-0.067-0.008-0.135-0.008-0.194l0.225-7.584
			c0-0.007,0-0.007,0-0.007l-3.083-19.348c0,0-0.03-0.402,0-1.052c0.007-0.112,0.015-0.239,0.023-0.366
			c0.007-0.037,0.007-0.082,0.007-0.119c0.008-0.119,0.022-0.246,0.038-0.381c0.015-0.127,0.029-0.261,0.045-0.403
			c0.007-0.029,0.007-0.06,0.015-0.089c0.023-0.172,0.052-0.352,0.082-0.53c0.119-0.642,0.283-1.352,0.537-2.067
			c0.03-0.075,0.053-0.149,0.082-0.225c0.082-0.216,0.172-0.44,0.262-0.664h13.659c0.097,0.224,0.187,0.448,0.269,0.664
			c0.03,0.075,0.053,0.149,0.082,0.225c0.903,2.612,0.739,5.008,0.739,5.008L55.833,87.31z"/>
	</g>
	<g>
		<polygon style="fill:#2C3A48;" points="46.751,106.746 46.297,111.409 47.989,112.606 50.197,111.45 49.763,106.746 		"/>
	</g>
	<g>
		<polygon style="fill:#3C4A58;" points="46.297,111.409 48.071,110.79 50.197,111.45 47.989,112.606 		"/>
	</g>
	<g>
		<polygon style="fill:#2C3A48;" points="52.352,106.746 51.898,111.409 53.59,112.606 55.798,111.45 55.364,106.746 		"/>
	</g>
	<g>
		<polygon style="fill:#3C4A58;" points="51.898,111.409 53.672,110.79 55.798,111.45 53.59,112.606 		"/>
	</g>
	<g>
		<path style="fill:#D5E5E6;" d="M58.259,44.487c0.41,0.426,0.657,0.926,0.657,1.463c0,0.56-0.262,1.083-0.71,1.516
			c-0.314,0.328-0.738,0.604-1.238,0.821h-0.023c-0.127,0.082-0.247,0.148-0.389,0.201c-0.045,0.022-0.097,0.045-0.149,0.06v0.008
			c-1.679,4.18-1.955,7.367,0.262,11.494c0.09,0.18,0.187,0.352,0.291,0.53H45.018c0.104-0.179,0.201-0.351,0.291-0.53
			c2.194-4.09,1.948-7.277,0.291-11.412c-0.194-0.059-0.381-0.127-0.553-0.217c-0.306-0.149-0.574-0.336-0.799-0.552
			c-0.126-0.082-0.238-0.172-0.343-0.27c-0.53-0.462-0.844-1.037-0.844-1.65c0-0.537,0.246-1.037,0.649-1.463l-1.09-4.045
			c0-0.672,0.545-1.232,1.284-1.381c0.097-0.022,0.194-0.03,0.291-0.038h1.94c0.284-0.015,0.553-0.045,0.791-0.089
			c0.209-0.038,0.411-0.09,0.59-0.157c0.395-0.134,0.717-0.328,0.985-0.56l0.008,0.008c1.664,1.425,3.313,1.358,4.948,0l0.008-0.008
			c0.201,0.179,0.44,0.328,0.709,0.455c0.09,0.037,0.186,0.075,0.284,0.112c0.396,0.134,0.865,0.216,1.402,0.238h1.829
			c0.179,0,0.358,0.022,0.515,0.075c0.665,0.179,1.149,0.716,1.149,1.344L58.259,44.487z"/>
	</g>
	<g>
		<path style="fill:#2C3A48;" d="M58.169,62.954H43.815c0.03-0.075,0.053-0.149,0.082-0.225c0.082-0.216,0.172-0.44,0.262-0.664
			c0.216-0.5,0.485-0.992,0.799-1.485h0.06c0.104-0.179,0.201-0.351,0.291-0.53h11.36c0.09,0.18,0.187,0.352,0.291,0.53h0.06
			c0.321,0.493,0.582,0.985,0.799,1.485c0.097,0.224,0.187,0.448,0.269,0.664C58.117,62.805,58.14,62.879,58.169,62.954z"/>
	</g>
	<g>
		<path d="M12.588,110.993h-1.557c-0.763,0-1.387-0.624-1.387-1.387v-2.195c0-0.763,0.624-1.387,1.387-1.387h1.557
			c0.763,0,1.387,0.624,1.387,1.387v2.195C13.975,110.369,13.351,110.993,12.588,110.993z"/>
	</g>
	<g>
		<path d="M20.345,110.993h-1.557c-0.762,0-1.386-0.624-1.386-1.387v-2.195c0-0.763,0.624-1.387,1.386-1.387h1.557
			c0.763,0,1.387,0.624,1.387,1.387v2.195C21.732,110.369,21.107,110.993,20.345,110.993z"/>
	</g>
	<g>
		<rect x="12.628" y="29.592" style="fill:#DEAD8E;" width="6.065" height="7.006"/>
	</g>
	<g>
		<g>
			<path style="fill:#EAB99A;" d="M19.096,27.301L19.096,27.301c0.439,0.16,0.9-0.076,1.026-0.526l0.388-1.388
				c0.108-0.385-0.111-0.812-0.486-0.949l0,0c-0.439-0.161-0.901,0.076-1.026,0.526l-0.389,1.388
				C18.501,26.736,18.721,27.163,19.096,27.301z"/>
		</g>
		<g>
			<path style="fill:#EAB99A;" d="M19.494,23.21l0.125,4.988c0.011,0.405-0.062,0.863-0.27,1.352
				c-0.505,1.186-0.505,1.186-2.237,2.925c-0.205,0.21-0.75,0.402-1.422,0.407c-0.112,0.003-0.22,0.006-0.323,0.003
				c-0.525-0.031-0.941-0.171-1.122-0.339c-1.816-1.649-1.816-1.649-2.38-2.809c-0.232-0.478-0.327-0.931-0.338-1.336l-0.125-4.988
				c-0.038-1.528,1.033-2.806,2.381-2.839l3.191-0.08C18.322,20.46,19.456,21.683,19.494,23.21z"/>
		</g>
		<g>
			<path style="fill:#F4CAAF;" d="M18.848,23.227l0.125,4.988c0.01,0.405-0.057,0.862-0.266,1.352
				c-0.505,1.186-0.505,1.186-2.236,2.924c-0.177,0.177-0.58,0.337-1.103,0.395c-0.525-0.031-0.941-0.171-1.122-0.339
				c-1.816-1.649-1.816-1.649-2.38-2.809c-0.232-0.478-0.327-0.931-0.338-1.336l-0.125-4.988c-0.038-1.528,1.033-2.806,2.381-2.839
				l2.544-0.065C17.675,20.477,18.81,21.698,18.848,23.227z"/>
		</g>
		<g>
			<path style="fill:#F4CAAF;" d="M11.965,27.479L11.965,27.479c-0.43,0.182-0.903-0.031-1.051-0.475l-0.457-1.366
				c-0.127-0.38,0.07-0.817,0.439-0.973l0,0c0.431-0.183,0.903,0.031,1.052,0.475l0.457,1.366
				C12.531,26.886,12.333,27.323,11.965,27.479z"/>
		</g>
		<g>
			<polygon style="fill:#5D2C10;" points="20.244,23.941 19.52,26.75 18.53,23.301 18.009,23.998 17.053,24.222 17.048,24.228 
				12.523,25.291 11.487,26.812 10.968,23.073 12.225,19.218 17.373,18.188 18.427,19.141 19.852,20.422 			"/>
		</g>
		<g>
			<path style="fill:#6D3C1F;" d="M18.427,19.141l0.061,2.482c0.029,1.144-0.568,2.148-1.436,2.599l-0.005,0.006l-4.524,1.063
				l-1.036,1.521l-0.519-3.739l1.257-3.855l5.149-1.029L18.427,19.141z"/>
		</g>
	</g>
	<g>
		<path style="fill:#6D3C1F;" d="M23.59,63.784l-0.817,5.051H8.433l-0.904-4.957c-0.105-0.578-0.07-1.174,0.105-1.74l0.129-0.414
			l0.671-2.219v-0.006h14.34l0.601,2.225l0.135,0.502C23.648,62.733,23.671,63.265,23.59,63.784z"/>
	</g>
	<g>
		<path style="fill:#E0E0E0;" d="M27.023,37.739c0,0.012-0.006,0.023-0.006,0.035c-1.252,3.015-1.723,6.784-2.511,10.048
			c-0.957,3.947-1.711,7.753-1.763,11.35c0,0.094-0.006,0.182-0.024,0.269c0,0.023,0,0.041-0.006,0.059
			c-0.176,0.992-1.045,1.746-2.084,1.746H10.512c-1.039,0-1.903-0.754-2.079-1.74v-0.006c-0.005-0.018-0.005-0.041-0.005-0.059
			c-0.023-0.104-0.029-0.21-0.029-0.321c0.011-4.058-0.806-7.975-1.805-11.822c-0.841-3.217-1.81-6.381-2.533-9.552
			c-0.018-0.087-0.035-0.175-0.041-0.263c-0.105-1.033,0.566-2.014,1.6-2.266c0.331-0.064,6.23-1.255,6.568-1.255l3.721,3.288
			l3.005-3.288c0.398,0,6.779,1.322,6.877,1.366C26.719,35.72,27.256,36.729,27.023,37.739z"/>
	</g>
	<g>
		<g>
			<polygon style="fill:#6D3C1F;" points="23.59,63.784 15.544,62.996 15.644,68.835 15.906,84.084 16.128,91.47 16.49,107.304 
				22.112,107.304 22.258,92.708 22.55,84.96 23.35,74.089 			"/>
		</g>
		<g>
			<polygon style="fill:#6D3C1F;" points="7.528,63.878 7.732,74.089 8.538,84.96 8.813,92.708 8.958,107.304 14.581,107.304 
				14.942,91.47 15.177,84.084 15.393,71.701 15.445,68.835 15.544,62.996 15.393,63.014 			"/>
		</g>
	</g>
	<g>
		<polygon style="fill:#303030;" points="10.71,107.306 8.708,110.298 8.708,111.319 14.375,111.319 14.375,109.787 13.41,107.306 
					"/>
	</g>
	<g>
		<polygon style="fill:#505050;" points="8.708,110.298 10.997,109.312 14.375,110.298 14.375,111.319 8.708,111.319 		"/>
	</g>
	<g>
		<polygon style="fill:#303030;" points="22.947,110.299 22.947,111.32 17.278,111.32 17.278,109.785 18.241,107.304 
			20.944,107.304 		"/>
	</g>
	<g>
		<polygon style="fill:#505050;" points="22.947,110.299 22.947,111.32 17.278,111.32 17.278,110.299 20.995,109.312 		"/>
	</g>
	<g>
		<path style="fill:#404040;" d="M23.373,61.724H7.762l0.671-2.219v-0.006c-0.005-0.018-0.005-0.041-0.005-0.059H22.72
			c0,0.023,0,0.041-0.006,0.059h0.059L23.373,61.724z"/>
	</g>
	<g>
		<polygon style="fill:#E0E0E0;" points="5.962,43.627 6.691,55.133 7.528,57.457 8.433,59.505 22.773,59.499 23.373,58.15 
			24.213,55.742 24.79,44.718 		"/>
	</g>
	<g>
		<path style="fill:#7D4C2E;" d="M11.555,62.043h-0.037c-0.141,0-0.256-0.115-0.256-0.257V59.38c0-0.142,0.115-0.257,0.256-0.257
			h0.037c0.141,0,0.256,0.115,0.256,0.257v2.406C11.811,61.928,11.695,62.043,11.555,62.043z"/>
	</g>
	<g>
		<path style="fill:#E0E0E0;" d="M26.515,40.159l9.586-15.062c0.161-0.196,0.224-0.456,0.169-0.705l-0.483-2.173
			c-0.117-0.526-0.698-0.801-1.18-0.559l-3.002,1.318c-0.135,0.068-8.216,12.713-8.216,12.713c-0.145,0.231,0.774,2.08,0.884,2.33
			l0.848,1.942C25.366,40.529,26.123,40.635,26.515,40.159z"/>
	</g>
	<g>
		<path style="fill:#E0E0E0;" d="M35.633,12.793c-0.87-0.016-1.772-0.087-2.643-0.108l-0.754,3.552l-0.859,8.168
			c-0.029,0.177,1.926,2.046,1.926,2.046c0.208,0.267,0.587,0.326,0.866,0.136l1.892-1.287c0.188-0.128,0.293-0.345,0.278-0.572
			l-0.273-8.012L35.633,12.793z"/>
	</g>
	<g>
		<path style="fill:#6D3C1F;" d="M14.534,66.226l-5.197,1.853c-0.41,0.146-0.866-0.069-1.013-0.479l-0.157-0.442
			c-0.146-0.41,0.07-0.865,0.481-1.012l5.197-1.853c0.41-0.146,0.866,0.069,1.013,0.479l0.157,0.442
			C15.161,65.624,14.944,66.079,14.534,66.226z"/>
	</g>
	<g>
		<polygon style="fill:#3C4A58;" points="15.461,38.113 14.02,52.791 15.55,56.107 17.302,52.791 15.893,38.113 		"/>
	</g>
	<g>
		<path style="fill:#F7C46F;" d="M16.873,61.994h-1.931c-0.245,0-0.445-0.201-0.445-0.446v-1.931c0-0.245,0.2-0.445,0.445-0.445
			h1.931c0.245,0,0.446,0.2,0.446,0.445v1.931C17.319,61.793,17.118,61.994,16.873,61.994z"/>
	</g>
	<g>
		<polygon style="fill:#D0D0D0;" points="27.017,37.775 25.617,43.409 24.213,55.742 22.773,59.499 19.019,59.547 21.904,58.516 
			24.79,42.89 		"/>
	</g>
	<g>
		<path style="fill:#7D4C2E;" d="M20.135,62.043h-0.037c-0.141,0-0.256-0.115-0.256-0.257V59.38c0-0.142,0.115-0.257,0.256-0.257
			h0.037c0.141,0,0.256,0.115,0.256,0.257v2.406C20.391,61.928,20.275,62.043,20.135,62.043z"/>
	</g>
	<g>
		<polygon style="fill:#5D2C10;" points="17.882,86.32 18.315,107.304 16.399,107.304 16.037,91.47 15.815,84.084 15.553,68.835 
			16.79,67.322 17.532,63.2 17.736,62.073 17.707,63.218 17.19,81.065 		"/>
	</g>
	<g>
		<path style="fill:#3C4A58;" d="M15.858,38.368h-0.396c-0.439,0-0.798-0.359-0.798-0.798v-0.233c0-0.438,0.358-0.797,0.798-0.797
			h0.396c0.438,0,0.798,0.358,0.798,0.797v0.233C16.656,38.009,16.297,38.368,15.858,38.368z"/>
	</g>
	<g>
		<polygon style="fill:#FFFFFF;" points="12.188,33.962 9.027,34.545 13.615,38.61 15.061,36.484 		"/>
	</g>
	<g>
		<polygon style="fill:#FFFFFF;" points="18.875,33.962 22.035,34.545 17.447,38.61 16.002,36.484 		"/>
	</g>
	<g>
		<polygon style="fill:#D0D0D0;" points="25.121,43.481 23.025,40.155 24.012,37.74 		"/>
	</g>
	<g>
		<polygon style="fill:#D0D0D0;" points="25.121,42.903 24.79,38.445 26.262,36.873 		"/>
	</g>
	<g>
		<g>
			<g>
				<g>
					<path style="fill:#F3AA43;" d="M34.163,5.962c-0.803,0-1.551-0.358-2.053-0.985l-0.16-0.199
						c-0.904-1.132-0.72-2.787,0.41-3.692C32.825,0.714,33.407,0.51,34,0.51c0.804,0,1.551,0.359,2.053,0.985l0.159,0.2
						c0.905,1.131,0.721,2.787-0.41,3.691C35.338,5.758,34.756,5.962,34.163,5.962z M34,1.229c-0.437,0-0.848,0.145-1.19,0.418
						c-0.821,0.657-0.955,1.86-0.298,2.682l0.16,0.2c0.364,0.454,0.907,0.716,1.491,0.716c0.436,0,0.848-0.145,1.19-0.418
						c0.821-0.658,0.955-1.86,0.298-2.683l-0.16-0.199C35.127,1.489,34.584,1.229,34,1.229z"/>
				</g>
			</g>
			<g>
				<g>
					<path style="fill:#F3AA43;" d="M37.15,5.387c-1.131-0.904-1.314-2.561-0.41-3.691l0.16-0.2
						c0.501-0.626,1.249-0.985,2.053-0.985c0.593,0,1.175,0.204,1.639,0.575c1.131,0.905,1.315,2.56,0.41,3.692l-0.16,0.199
						c-0.501,0.627-1.249,0.985-2.052,0.985C38.197,5.962,37.614,5.758,37.15,5.387z M37.462,1.944l-0.16,0.199
						c-0.657,0.822-0.524,2.024,0.298,2.683c0.342,0.273,0.754,0.418,1.191,0.418c0.584,0,1.127-0.262,1.491-0.716l0.16-0.2
						c0.657-0.821,0.524-2.024-0.299-2.682c-0.342-0.273-0.753-0.418-1.19-0.418C38.369,1.229,37.825,1.489,37.462,1.944z"/>
				</g>
			</g>
		</g>
		<g>
			<g>
				<path style="fill:#F3AA43;" d="M39.723,0c0,0.002,0,0.002,0,0.003c0,0.098-0.001,0.195-0.004,0.294
					c-0.002,0.073-0.004,0.149-0.008,0.225c-0.002,0.023-0.002,0.045-0.003,0.069c0,0,0,0,0,0.002
					c-0.005,0.09-0.01,0.183-0.018,0.276c-0.212,3.27-1.571,7.349-3.214,7.349c-1.643,0-3.002-4.079-3.217-7.349
					c-0.006-0.094-0.012-0.187-0.015-0.276V0.591c-0.005-0.1-0.01-0.197-0.012-0.294c-0.002-0.1-0.004-0.196-0.004-0.294
					c0-0.001,0-0.001,0-0.003H39.723z"/>
			</g>
			<g>
				<path style="fill:#F8BE49;" d="M39.723,0c0,0.002,0,0.002,0,0.003c0,0.098-0.001,0.195-0.004,0.294
					c-0.002,0.073-0.004,0.149-0.008,0.225c-0.005,0.023-0.009,0.047-0.014,0.069v0.002c-0.017,0.092-0.035,0.184-0.053,0.276
					c-0.528,2.636-1.636,5.104-2.913,5.104c-1.279,0-2.385-2.469-2.912-5.104c-0.018-0.093-0.037-0.185-0.053-0.276
					c-0.018-0.099-0.036-0.196-0.053-0.296C33.696,0.198,33.682,0.099,33.666,0H39.723z"/>
			</g>
			<g>
				<path style="fill:#F3AA43;" d="M36.768,9.763c0,0.951,0.124,1.723,0.275,1.723v0.47c0,0.166-0.238,0.302-0.533,0.302h-0.066
					c-0.295,0-0.533-0.136-0.533-0.302v-0.508c0.124-0.166,0.218-0.857,0.218-1.685c0-0.828-0.094-1.519-0.218-1.686V7.585
					c0-0.168,0.238-0.303,0.533-0.303h0.066c0.295,0,0.533,0.135,0.533,0.303v0.454C36.892,8.039,36.768,8.812,36.768,9.763z"/>
			</g>
			<g>
				<path style="fill:#F3AA43;" d="M37.553,11.872c0,0.213-0.174,0.385-0.387,0.385h-1.38c-0.213,0-0.385-0.172-0.385-0.385
					c0-0.013,0-0.023,0.001-0.033c0.008-0.094,0.049-0.179,0.112-0.24c0.069-0.071,0.164-0.113,0.271-0.113h1.38
					c0.203,0,0.369,0.154,0.386,0.353C37.553,11.849,37.553,11.859,37.553,11.872z"/>
			</g>
			<g>
				<path style="fill:#F3AA43;" d="M38.384,12.689c0,0.304-0.246,0.549-0.549,0.549h-2.718c-0.302,0-0.547-0.245-0.547-0.549
					c0-0.04,0.005-0.081,0.014-0.119c0.023-0.102,0.075-0.194,0.146-0.267c0.1-0.1,0.236-0.16,0.387-0.16h2.718
					c0.262,0,0.48,0.183,0.535,0.427C38.379,12.608,38.384,12.649,38.384,12.689z"/>
			</g>
			<g>
				<path style="fill:#F8BE49;" d="M39.298,13.635c0,0.354-0.286,0.641-0.642,0.641h-4.36c-0.354,0-0.642-0.286-0.642-0.641
					c0-0.032,0.003-0.065,0.009-0.098c0.019-0.139,0.085-0.261,0.18-0.356c0.116-0.116,0.276-0.189,0.453-0.189h4.36
					c0.321,0,0.588,0.237,0.635,0.545C39.296,13.569,39.298,13.603,39.298,13.635z"/>
			</g>
			<g>
				<path style="fill:#F3AA43;" d="M39.298,13.635c0,0.354-0.286,0.641-0.642,0.641h-4.36c-0.354,0-0.642-0.286-0.642-0.641
					c0-0.032,0.003-0.065,0.009-0.098h5.628C39.296,13.569,39.298,13.603,39.298,13.635z"/>
			</g>
			<g>
				<path style="fill:#F8BE49;" d="M38.37,12.57h-3.786c0.023-0.102,0.075-0.194,0.146-0.267c0.1-0.1,0.236-0.16,0.387-0.16h2.718
					C38.097,12.144,38.315,12.326,38.37,12.57z"/>
			</g>
			<g>
				<path style="fill:#F8BE49;" d="M37.552,11.839h-2.149c0.008-0.094,0.049-0.179,0.112-0.24c0.069-0.071,0.164-0.113,0.271-0.113
					h1.38C37.369,11.485,37.535,11.64,37.552,11.839z"/>
			</g>
			<g>
				<path style="fill:#404040;" d="M39.978,15.527c0,0.167-0.135,0.302-0.302,0.302h-6.398c-0.167,0-0.302-0.135-0.302-0.302v-1.062
					c0-0.166,0.135-0.302,0.302-0.302h6.398c0.167,0,0.302,0.136,0.302,0.302V15.527z"/>
			</g>
			<g>
				<path style="fill:#F3AA43;" d="M39.978,0.297c0,0.153-0.119,0.282-0.27,0.294c-0.003,0-0.008,0.002-0.011,0v0.002h-6.427
					c-0.009,0-0.017,0-0.025-0.002c-0.151-0.012-0.271-0.141-0.271-0.294c0-0.082,0.033-0.156,0.086-0.209
					c0.046-0.045,0.104-0.075,0.169-0.085C33.243,0.002,33.258,0,33.271,0h6.411c0.014,0,0.027,0.002,0.041,0.003
					C39.866,0.023,39.978,0.147,39.978,0.297z"/>
			</g>
			<g>
				<path style="fill:#F3AA43;" d="M39.708,0.593c-0.005,0.09-0.01,0.183-0.018,0.276H33.26c-0.006-0.094-0.012-0.187-0.015-0.276
					H39.708z"/>
			</g>
			<g>
				<path style="fill:#F8BE49;" d="M39.978,0.297h-7.003c0-0.082,0.033-0.156,0.086-0.209c0.046-0.045,0.104-0.075,0.169-0.085
					c0-0.001,0-0.001,0-0.003h6.493c0,0.002,0,0.002,0,0.003C39.866,0.023,39.978,0.147,39.978,0.297z"/>
			</g>
		</g>
		<g>
			<circle style="fill:#F3AA43;" cx="33.999" cy="5.112" r="0.345"/>
		</g>
		<g>
			<circle style="fill:#F8BE49;" cx="34.136" cy="5.25" r="0.263"/>
		</g>
		<g>
			<circle style="fill:#F3AA43;" cx="38.954" cy="5.112" r="0.344"/>
		</g>
		<g>
			<circle style="fill:#F8BE49;" cx="38.871" cy="5.25" r="0.264"/>
		</g>
	</g>
	<g>
		<path style="fill:#F5C4A5;" d="M37.31,8.57l-0.469,0.128C36.468,8.8,36.166,9.075,36.03,9.438
			c-0.144,0.383-0.283,0.881-0.227,1.271c0.106,0.738,0.288,1.526,0.728,1.665c0.439,0.138,1.464,0.088,1.548-0.017
			C38.163,12.252,38.142,8.924,37.31,8.57z"/>
	</g>
	<g>
		<path style="fill:#EAB99A;" d="M37.58,16.643c0.097-0.029,0.192-0.046,0.293-0.048c0.578-0.013,2.699-0.086,2.998-0.448
			c0.347-0.42,0.661-1.725,0.556-2.034c-0.105-0.309-0.279,0-0.279,0l-0.263,0.678c-0.121,0.313-0.379,0.556-0.699,0.657
			l-0.65,0.206c-0.289,0.092-0.602,0.06-0.869-0.085l-0.527-0.289c-0.309-0.169-0.679-0.182-0.998-0.035L36.74,15.43
			c-0.394,0.181-0.646,0.574-0.646,1.008v0.66L37.58,16.643z"/>
	</g>
	<g>
		<polygon style="fill:#EAB99A;" points="37.461,15.205 39.63,14.833 39.462,15.114 38.269,15.862 		"/>
	</g>
	<g>
		<path style="fill:#D5E5E6;" d="M39.12,27.351l-2.286,0.913v0.626c0.169,2.038,6.773,16.363,6.986,16.017
			c0.365-0.597-0.473-3.644,0.203-3.793c0.141-0.03,0.284-0.084,0.418-0.155c0.711-0.379,1.027-1.205,0.764-1.91
			c-0.013-0.038-0.02-0.079-0.038-0.114C43.534,35.008,41.603,31.228,39.12,27.351z"/>
	</g>
	<g>
		<path style="fill:#E0E0E0;" d="M5.375,35.386l2.659,7.461L5.569,58.221c0,0-0.908,0.389-1.882,0.324
			c-0.973-0.064-2.205-1.427-2.205-1.427l2.141-20.24C3.816,36.219,4.474,35.752,5.375,35.386z"/>
	</g>
	<g>
		<polygon style="fill:#E0E0E0;" points="5.634,58.091 5.375,63.734 4.207,71.648 1.417,71.714 1.482,57.118 4.531,56.923 		"/>
	</g>
	<g>
		<path style="fill:#EAB99A;" d="M4.37,71.428c-0.312,5.321-0.145,3.377-0.559,6.773H3.439c-0.544-1.32-0.459-0.821-0.249-2.858
			c-0.654,0.175-0.965,0.565-1.019,1.07c-0.085,0.807-0.27,1.458,0.384,1.948c0.273,0.205,0.461,0.387,0.552,0.751l0.145,0.58
			c-2.211-1.105-2.691-1.177-2.859-1.923c-0.1-0.44-0.465-1.787-0.38-2.187l0.509-2.393c0.011-0.047,1.073-2.241,1.053-2.198
			C1.796,70.709,4.412,70.727,4.37,71.428z"/>
	</g>
</g>
</svg>
