<?xml version="1.0" encoding="iso-8859-1"?>
<!-- Generator: Adobe Illustrator 19.1.0, SVG Export Plug-In . SVG Version: 6.00 Build 0)  -->
<!DOCTYPE svg PUBLIC "-//W3C//DTD SVG 1.1//EN" "http://www.w3.org/Graphics/SVG/1.1/DTD/svg11.dtd">
<svg version="1.1" id="illustrations" xmlns="http://www.w3.org/2000/svg" xmlns:xlink="http://www.w3.org/1999/xlink" x="0px"
	 y="0px" viewBox="0 0 66.131 95.394" style="enable-background:new 0 0 66.131 95.394;" xml:space="preserve">
<g>
	<g>
		<path style="fill:#DEAD8E;" d="M53.695,69.236c0.021-0.074,0.039-0.149,0.039-0.228c0-0.752-1.054-2.14-2.354-2.14
			s-2.354,1.388-2.354,2.14c0,0.062,0.018,0.122,0.032,0.183h-0.003c0,0-0.385,5.352-0.309,8.444
			c0.076,3.093,1.805,11.859,1.708,12.865c-0.097,1.006,1.995,0,1.995,0s1.086-7.33,1.476-12.779
			C54.211,73.715,53.811,70.144,53.695,69.236z"/>
	</g>
	<g>
		<path style="fill:#DEAD8E;" d="M60.238,69.191h-0.003c0.014-0.061,0.032-0.12,0.032-0.183c0-0.752-1.054-2.14-2.354-2.14
			c-1.3,0-2.354,1.388-2.354,2.14c0,0.078,0.018,0.153,0.04,0.228c-0.115,0.907-0.516,4.479-0.229,8.485
			c0.389,5.449,1.476,12.779,1.476,12.779s2.092,1.006,1.995,0c-0.097-1.006,1.632-9.772,1.708-12.865
			C60.623,74.543,60.238,69.191,60.238,69.191z"/>
	</g>
	<g>
		<path style="fill:#E54D42;" d="M53.064,91.804c-0.115-0.293-0.397-0.486-0.712-0.486h-0.8h-0.8c-0.314,0-0.597,0.193-0.712,0.486
			l-0.749,1.913c-0.035,0.089-0.052,0.184-0.052,0.278v0.482c0,0.165,0.053,0.326,0.153,0.459l0.343,0.457h1.817h1.817l0.343-0.457
			c0.099-0.133,0.153-0.294,0.153-0.459v-0.482c0-0.095-0.018-0.189-0.053-0.278L53.064,91.804z"/>
	</g>
	<g>
		<path style="fill:#E54D42;" d="M59.225,91.781c-0.115-0.293-0.397-0.486-0.712-0.486h-0.8h-0.8c-0.314,0-0.597,0.193-0.712,0.486
			l-0.749,1.913c-0.035,0.089-0.052,0.184-0.052,0.278v0.482c0,0.165,0.053,0.326,0.153,0.458l0.343,0.458h1.817h1.817l0.343-0.458
			c0.099-0.132,0.153-0.293,0.153-0.458v-0.482c0-0.095-0.018-0.189-0.053-0.278L59.225,91.781z"/>
	</g>
	<g>
		<path style="fill:#DEAD8E;" d="M52.952,91.955c0,0.771-0.63,1.4-1.4,1.4l0,0c-0.771,0-1.4-0.63-1.4-1.4l0.438-2.071
			c0-0.771,0.191-2.874,0.962-2.874l0,0c0.77,0,0.981,2.103,0.981,2.874L52.952,91.955z"/>
	</g>
	<g>
		<path style="fill:#DEAD8E;" d="M59.113,91.933c0,0.771-0.63,1.4-1.4,1.4l0,0c-0.771,0-1.4-0.63-1.4-1.4l0.439-2.071
			c0-0.771,0.191-2.874,0.962-2.874l0,0c0.77,0,0.981,2.104,0.981,2.874L59.113,91.933z"/>
	</g>
	<g>
		<path style="fill:#F55D51;" d="M52.656,95.394H50.32c-0.163,0-0.296-0.134-0.296-0.297l0,0c0-0.163,0.133-0.296,0.296-0.296h2.335
			c0.163,0,0.296,0.133,0.296,0.296l0,0C52.952,95.26,52.819,95.394,52.656,95.394z"/>
	</g>
	<g>
		<path style="fill:#F55D51;" d="M58.881,95.371h-2.335c-0.163,0-0.296-0.134-0.296-0.297l0,0c0-0.163,0.133-0.296,0.296-0.296
			h2.335c0.163,0,0.296,0.133,0.296,0.296l0,0C59.177,95.237,59.044,95.371,58.881,95.371z"/>
	</g>
	<g>
		<rect x="34.461" y="12.903" style="fill:#EAB99A;" width="6.066" height="6.465"/>
	</g>
	<g>
		<g>
			<polygon style="fill:#E47E30;" points="33.056,8.945 33.145,11.191 42.507,11.012 42.507,8.456 			"/>
		</g>
		<g>
			<path style="fill:#F4CAAF;" d="M34.139,9.483L34.139,9.483c-0.45,0.178-0.935-0.056-1.077-0.519l-0.438-1.428
				c-0.122-0.395,0.094-0.845,0.48-0.996l0,0c0.45-0.178,0.935,0.056,1.077,0.519l0.438,1.428
				C34.741,8.884,34.525,9.332,34.139,9.483z"/>
		</g>
		<g>
			<path style="fill:#EAB99A;" d="M41.531,9.483L41.531,9.483c0.451,0.178,0.935-0.056,1.077-0.519l0.438-1.428
				c0.122-0.395-0.095-0.845-0.48-0.996l0,0c-0.451-0.178-0.935,0.056-1.077,0.519l-0.438,1.428
				C40.93,8.884,41.146,9.332,41.531,9.483z"/>
		</g>
		<g>
			<path style="fill:#EAB99A;" d="M42.026,12.415c0,0-2.855,2.229-2.952,2.804c-0.096,0.576-1.239,0.507-1.239,0.507
				s-0.173,0.012-0.392-0.011c-0.005,0-0.01,0-0.01,0c-0.34-0.035-0.782-0.145-0.838-0.496c-0.092-0.575-2.952-2.804-2.952-2.804
				s-0.224-1.008,0-1.837c0.224-0.829,0-6.115,0-6.115l3.795-0.23l0.397-0.023l4.191,0.254c0,0-0.224,5.286,0,6.115
				C42.25,11.407,42.026,12.415,42.026,12.415z"/>
		</g>
		<g>
			<path style="fill:#F4CAAF;" d="M41.233,12.415c0,0-2.855,2.229-2.952,2.804c-0.056,0.352-0.498,0.461-0.838,0.496
				c-0.005,0-0.01,0-0.01,0c-0.34-0.035-0.782-0.145-0.838-0.496c-0.092-0.575-2.952-2.804-2.952-2.804s-0.224-1.008,0-1.837
				c0.224-0.829,0-6.115,0-6.115l3.795-0.23l3.795,0.23c0,0-0.224,5.286,0,6.115C41.457,11.407,41.233,12.415,41.233,12.415z"/>
		</g>
		<g>
			<polygon style="fill:#EF893A;" points="41.93,6.766 42.006,4.917 41.696,4.693 41.05,5.361 40.171,5.712 34.816,7.843 
				33.775,6.68 33.165,6.519 33.145,2.626 33.622,2.412 34.09,0.823 37.687,0 40.939,0.426 40.984,0.432 42.438,4.209 42.509,6.519 
							"/>
		</g>
		<g>
			<path style="fill:#F3AA43;" d="M40.939,0.426v3.23c0,0.801-0.294,1.532-0.767,2.056l-5.355,2.131L33.775,6.68l-0.609-0.161
				l-0.021-3.893l0.478-0.214l0.468-1.589L37.687,0L40.939,0.426z"/>
		</g>
	</g>
	<g>
		<g>
			<polygon style="fill:#447EA1;" points="45.299,47.481 45.06,57.786 44.26,68.657 43.968,76.405 43.822,91.001 38.2,91.001 
				37.838,75.167 37.616,67.781 37.353,52.532 37.254,46.693 39.332,46.897 39.507,46.915 			"/>
		</g>
		<g>
			<polygon style="fill:#447EA1;" points="29.237,47.575 29.441,57.786 30.247,68.657 30.522,76.405 30.667,91.001 36.29,91.001 
				36.651,75.167 36.885,67.781 37.101,55.398 37.154,52.532 37.253,46.693 37.101,46.711 			"/>
		</g>
	</g>
	<g>
		<path style="fill:#447EA1;" d="M45.315,47.154l-0.817,5.051H30.158l-0.905-4.957c-0.105-0.578-0.07-1.174,0.105-1.74l0.8-2.633
			v-0.006h14.339l0.735,2.726C45.373,46.104,45.396,46.635,45.315,47.154z"/>
	</g>
	<g>
		<path style="fill:#FD6D60;" d="M48.747,21.109c0,0.012-0.006,0.023-0.006,0.035c-0.794,3.422-1.722,6.784-2.51,10.048
			c-0.957,3.947-0.899,13.615-0.916,13.721c-0.175,0.992-1.921-0.298-2.96-0.298H32.236c-1.039,0-1.903-0.753-2.079-1.74v-0.006
			c-0.023-0.122-0.035-0.251-0.035-0.379c0.012-4.058-0.806-7.976-1.804-11.823c-0.841-3.217-1.81-6.381-2.534-9.552
			c-0.018-0.087-0.035-0.175-0.041-0.263c-0.105-1.033,0.566-2.014,1.6-2.265l6.066-1.197c0.164-0.041,0.333-0.059,0.503-0.059
			l0.549,0.263l1.249,0.596c0.45,0.21,0.929,0.339,1.407,0.368c0.724,0.053,1.454-0.1,2.107-0.455l1.302-0.713l0.111-0.059
			c0.169,0,0.333,0.017,0.502,0.059c0,0,6.271,1.261,6.375,1.308C48.443,19.09,48.981,20.1,48.747,21.109z"/>
	</g>
	<g>
		<polygon style="fill:#386885;" points="39.683,70.018 40.115,91.001 38.2,91.001 37.838,75.167 37.616,67.781 37.353,52.532 
			38.591,51.02 39.332,46.897 39.537,45.771 39.507,46.915 38.991,64.763 		"/>
	</g>
	<g>
		<path style="fill:#C0C0C0;" d="M25.861,18.927l-2.66,7.46l2.465,15.374c0,0,0.908,0.39,1.881,0.324
			c0.973-0.064,2.206-1.427,2.206-1.427l-2.141-20.239C27.42,19.759,26.762,19.292,25.861,18.927z"/>
	</g>
	<g>
		<polygon style="fill:#C0C0C0;" points="25.602,41.631 25.861,47.275 27.028,55.189 29.818,55.254 29.753,40.658 26.704,40.464 		
			"/>
	</g>
	<g>
		<path style="fill:#EAB99A;" d="M26.995,54.968c0.313,5.321,0.145,3.377,0.559,6.773h0.373c0.543-1.319,0.459-0.821,0.248-2.858
			c0.655,0.175,0.965,0.564,1.019,1.07c0.085,0.808,0.271,1.459-0.383,1.949c-0.274,0.205-0.461,0.386-0.553,0.75l-0.145,0.581
			c2.211-1.105,2.691-1.178,2.859-1.924c0.099-0.44,0.465-1.786,0.379-2.187l-0.509-2.392c-0.01-0.047-1.073-2.242-1.052-2.198
			C29.569,54.25,26.953,54.267,26.995,54.968z"/>
	</g>
	<g>
		<polygon style="fill:#C0C0C0;" points="41.35,89.267 43.352,93.31 43.352,94.689 37.685,94.689 37.685,92.619 38.65,89.267 		"/>
	</g>
	<g>
		<polygon style="fill:#C0C0C0;" points="33.019,89.267 31.017,93.31 31.017,94.689 36.684,94.689 36.684,92.619 35.719,89.267 		
			"/>
	</g>
	<g>
		<polygon style="fill:#303030;" points="10.953,89.545 8.223,93.624 8.223,95.017 15.949,95.017 15.949,92.928 14.634,89.545 		"/>
	</g>
	<g>
		<rect x="8.223" y="93.624" style="fill:#505050;" width="7.726" height="1.393"/>
	</g>
	<g>
		<polygon style="fill:#303030;" points="24.08,93.625 24.08,95.018 16.351,95.018 16.351,92.924 17.665,89.541 21.35,89.541 		"/>
	</g>
	<g>
		<rect x="16.351" y="93.625" style="fill:#505050;" width="7.729" height="1.393"/>
	</g>
	<g>
		<path style="fill:#FD6D60;" d="M38.88,18.461l17.375-4.104c0.239-0.089,0.505-0.062,0.722,0.072l1.894,1.17
			c0.458,0.283,0.527,0.923,0.14,1.297L56.779,19.3c-0.108,0.104-14.706,3.582-14.706,3.582c-0.266,0.06-1.71-1.415-1.911-1.601
			l-1.556-1.438C38.154,19.424,38.302,18.675,38.88,18.461z"/>
	</g>
	<g>
		<path style="fill:#FD6D60;" d="M65.933,22.627c-0.54,0.682-1.058,1.425-1.594,2.11l-3.223-1.673l-6.856-4.522
			c-0.154-0.09-0.357-2.787-0.357-2.787c-0.074-0.33,0.121-0.66,0.445-0.756l2.195-0.644c0.218-0.063,0.453-0.008,0.619,0.147
			l6.017,5.299L65.933,22.627z"/>
	</g>
	<g>
		<path style="fill:#FD6D60;" d="M33.638,17.183l-17.31-4.368c-0.237-0.092-0.504-0.069-0.723,0.061l-1.911,1.142
			c-0.463,0.276-0.542,0.915-0.16,1.295l2.194,2.437c0.107,0.106,14.65,3.806,14.65,3.806c0.265,0.065,1.731-1.389,1.934-1.57
			l1.578-1.415C34.35,18.157,34.213,17.405,33.638,17.183z"/>
	</g>
	<g>
		<path style="fill:#FD6D60;" d="M5.105,18.546c0.382,0.781,0.732,1.618,1.109,2.401l3.504-0.95l7.66-2.964
			c0.17-0.055,0.94-2.647,0.94-2.647c0.143-0.307,0.022-0.671-0.274-0.833l-2.008-1.095c-0.199-0.108-0.441-0.104-0.636,0.013
			l-7.004,3.9L5.105,18.546z"/>
	</g>
	<g>
		<rect x="13.352" y="14.009" style="fill:#EAB99A;" width="6.066" height="5.395"/>
	</g>
	<g>
		<polygon style="fill:#E0E0E0;" points="16.008,72.336 16.142,75.167 16.008,77.415 		"/>
	</g>
	<g>
		<polygon style="fill:#505050;" points="23.388,43.196 23.388,45.771 8.838,45.771 8.868,45.421 9.049,43.202 9.049,43.196 		"/>
	</g>
	<g>
		<path style="fill:#505050;" d="M24.205,47.481l-0.817,5.051H9.049l-0.905-4.957c-0.105-0.578-0.07-1.174,0.106-1.74l0.128-0.414
			l0.671-2.219v-0.006h14.339l0.602,2.225l0.134,0.502C24.264,46.431,24.287,46.962,24.205,47.481z"/>
	</g>
	<g>
		<g>
			<path style="fill:#EAB99A;" d="M21.502,8.433l-0.31,1.413c-0.07,0.298-0.286,0.514-0.549,0.584c-0.14,0.047-0.298,0.047-0.449,0
				c-0.041-0.012-0.076-0.023-0.111-0.047h-0.006c-0.315-0.157-0.502-0.531-0.426-0.882l0.157-0.712l0.105-0.468l0.052-0.227
				c0.059-0.257,0.228-0.455,0.45-0.549c0.081-0.04,0.175-0.063,0.268-0.063c0.012-0.006,0.029-0.006,0.041-0.006
				c0.082,0,0.157,0.012,0.239,0.034C21.344,7.627,21.589,8.042,21.502,8.433z"/>
		</g>
		<g>
			<path style="fill:#EAB99A;" d="M20.632,12.157c-0.093,0.479-0.28,0.911-0.537,1.262c-0.164,0.233-0.368,0.432-0.583,0.59
				l-0.094,0.116l-1.395,1.781c-0.21,0.303-0.864,0.473-1.442,0.473c-0.204-0.006-0.403-0.029-0.572-0.082
				c-0.157-0.047-0.286-0.11-0.374-0.204l-1.781-1.641c-0.175-0.082-0.35-0.204-0.502-0.345c-0.053-0.047-0.099-0.094-0.146-0.14
				c-0.315-0.304-0.578-0.707-0.748-1.174c-0.123-0.315-0.198-0.66-0.228-1.021l-0.052-0.666l-0.216-2.744L11.95,8.217l-0.07-0.882
				c-0.14-1.699,0.853-3.176,2.201-3.281l1.926-0.151l1.086-0.088l0.555-0.047c0.759-0.058,1.471,0.327,1.979,0.976
				c0.391,0.508,0.66,1.173,0.718,1.915l0.07,0.887l0.122,1.559l0.105,1.325l0.053,0.671C20.726,11.469,20.708,11.819,20.632,12.157
				z"/>
		</g>
		<g>
			<path style="fill:#F4CAAF;" d="M19.786,6.705l0.354,4.44c0.029,0.366,0.008,0.72-0.064,1.055c-0.095,0.482-0.282,0.91-0.54,1.261
				c-0.164,0.236-0.365,0.436-0.583,0.594l-1.49,1.895c-0.141,0.212-0.489,0.357-0.883,0.428c-0.399-0.007-0.771-0.095-0.944-0.282
				l-1.782-1.646c-0.235-0.109-0.456-0.276-0.649-0.479c-0.315-0.305-0.574-0.709-0.744-1.176c-0.123-0.314-0.2-0.659-0.229-1.021
				l-0.353-4.439c-0.135-1.698,0.856-3.174,2.203-3.281l3.011-0.239C18.439,3.707,19.651,5.007,19.786,6.705z"/>
		</g>
		<g>
			<path style="fill:#F4CAAF;" d="M12.621,11.029L12.621,11.029c-0.42,0.206-0.906,0.019-1.078-0.417l-0.532-1.342
				c-0.148-0.373,0.026-0.821,0.386-0.997l0,0c0.42-0.206,0.905-0.019,1.078,0.417l0.532,1.342
				C13.155,10.405,12.981,10.854,12.621,11.029z"/>
		</g>
		<g>
			<polygon style="fill:#7D4C2E;" points="20.801,6.208 20.685,7.482 20.539,9.104 20.474,9.811 19.972,9.04 19.809,8.789 
				19.032,7.592 17.8,7.446 16.008,7.236 13.276,6.909 12.785,9.472 12.569,10.599 12.534,10.774 12.493,10.581 11.962,8.362 
				11.927,8.211 11.652,7.072 12.219,3.289 12.71,3.254 13.439,1.59 13.854,2.115 14.531,1.013 16.008,1.917 16.545,2.25 
				17.042,1.543 19.517,3.622 19.54,3.605 20.06,3.12 			"/>
		</g>
		<g>
			<path style="fill:#8D5C3E;" d="M19.628,4.743c0,0.292-0.035,0.578-0.105,0.841c-0.239,0.91-0.887,1.629-1.722,1.862l-1.792-0.21
				l-2.732-0.327l-0.491,2.562l-0.216,1.127c-0.024-0.006-0.053-0.006-0.076-0.018l-0.531-2.219l-0.035-0.151l-0.275-1.139
				l0.566-3.783l0.491-0.035l0.729-1.664l0.415,0.525l0.677-1.103l1.477,0.904l0.537,0.333l0.497-0.707l2.475,2.079l0.024-0.018
				l0.076,0.945C19.622,4.614,19.628,4.679,19.628,4.743z"/>
		</g>
	</g>
	<g>
		<path style="fill:#C0C0C0;" d="M27.638,21.437c0,0.012-0.006,0.023-0.006,0.035c-0.356,1.535-0.742,3.065-1.127,4.577
			c-0.473,1.851-0.952,3.673-1.384,5.471c-0.958,3.947-1.71,7.754-1.763,11.35c0,0.094-0.006,0.182-0.023,0.268
			c0,0.024,0,0.041-0.006,0.059c-0.111,0.619-0.49,1.145-1.01,1.448c-0.315,0.192-0.683,0.298-1.074,0.298H11.127
			c-1.039,0-1.903-0.754-2.078-1.74v-0.006c-0.006-0.018-0.006-0.041-0.006-0.059c-0.023-0.104-0.029-0.21-0.029-0.321
			c0.012-4.058-0.806-7.975-1.804-11.822c-0.841-3.217-1.81-6.381-2.534-9.552c-0.017-0.087-0.035-0.175-0.041-0.263
			c-0.105-1.033,0.566-2.014,1.6-2.266l6.066-1.196c0.164-0.041,0.333-0.059,0.502-0.059l0.549,0.263l1.25,0.596
			c0.45,0.21,0.928,0.339,1.407,0.368c0.724,0.052,1.454-0.1,2.108-0.456l1.302-0.712l0.111-0.059c0.169,0,0.333,0.018,0.502,0.059
			c0,0,6.271,1.261,6.375,1.308C27.335,19.417,27.872,20.427,27.638,21.437z"/>
	</g>
	<g>
		<g>
			<polygon style="fill:#505050;" points="24.207,47.481 23.967,57.786 22.876,76.405 22.146,91.001 17.108,91.001 16.261,52.532 
				16.255,52.356 16.161,46.693 18.094,46.881 18.269,46.898 			"/>
		</g>
		<g>
			<polygon style="fill:#505050;" points="8.144,47.575 8.348,57.786 9.428,76.405 10.158,91.001 15.196,91.001 16.008,55.398 
				16.061,52.532 16.16,46.693 16.008,46.711 			"/>
		</g>
	</g>
	<g>
		<polygon style="fill:#E0E0E0;" points="31.017,93.669 33.306,92.684 36.684,93.669 36.684,94.69 31.017,94.69 		"/>
	</g>
	<g>
		<polygon style="fill:#E0E0E0;" points="43.461,93.669 43.461,94.69 37.792,94.69 37.792,93.669 41.509,92.684 		"/>
	</g>
	<g>
		<polygon style="fill:#FD6D60;" points="5.105,18.546 7.62,19.534 9.643,18.242 		"/>
	</g>
	<g>
		<polygon style="fill:#E0E0E0;" points="13.041,17.659 9.88,18.242 13.775,21.811 16.57,18.886 		"/>
	</g>
	<g>
		<polygon style="fill:#E0E0E0;" points="19.538,17.659 22.698,18.242 18.665,21.811 16.57,18.886 		"/>
	</g>
	<g>
		<path style="fill:#A0A0A0;" d="M25.733,25.629c-0.473,1.851-0.18,4.093-0.612,5.891c-0.958,3.947-1.71,7.754-1.763,11.35
			c0,0.094-0.006,0.182-0.023,0.268c0,0.024,0,0.041-0.006,0.059c-0.111,0.619-0.49,1.145-1.01,1.448l-4.823,0.269l3.509-3.212
			c0,0,0.07-9.341,0-11.197c-0.064-1.856,4.297-7.123,4.297-7.123L25.733,25.629z"/>
	</g>
	<g>
		<path style="fill:#303030;" d="M23.989,45.421H8.378l0.671-2.219v-0.006c-0.006-0.018-0.006-0.041-0.006-0.059h14.292
			c0,0.024,0,0.041-0.006,0.059h0.059L23.989,45.421z"/>
	</g>
	<g>
		<path style="fill:#A0A0A0;" d="M17.489,45.691h-1.931c-0.245,0-0.446-0.201-0.446-0.446v-1.931c0-0.245,0.201-0.445,0.446-0.445
			h1.931c0.245,0,0.445,0.2,0.445,0.445v1.931C17.935,45.49,17.734,45.691,17.489,45.691z"/>
	</g>
	<g>
		<path style="fill:#505050;" d="M12.171,45.74h-0.037c-0.141,0-0.256-0.115-0.256-0.257v-2.406c0-0.142,0.115-0.257,0.256-0.257
			h0.037c0.141,0,0.256,0.115,0.256,0.257v2.406C12.426,45.625,12.311,45.74,12.171,45.74z"/>
	</g>
	<g>
		<path style="fill:#505050;" d="M20.75,45.74h-0.037c-0.141,0-0.256-0.115-0.256-0.257v-2.406c0-0.142,0.115-0.257,0.256-0.257
			h0.037c0.141,0,0.256,0.115,0.256,0.257v2.406C21.006,45.625,20.891,45.74,20.75,45.74z"/>
	</g>
	<g>
		<polygon style="fill:#A0A0A0;" points="9.37,18.417 13.06,22.07 13.497,21.557 9.88,18.242 		"/>
	</g>
	<g>
		<polygon style="fill:#A0A0A0;" points="16.57,18.886 18.379,21.557 17.935,21.811 16.183,19.291 		"/>
	</g>
	<g>
		<path style="fill:#C0C0C0;" d="M35.052,91.979h-1.613c-0.62,0-1.128-0.508-1.128-1.129l0,0c0-0.62,0.508-1.128,1.128-1.128h1.613
			c0.62,0,1.128,0.508,1.128,1.128l0,0C36.18,91.471,35.672,91.979,35.052,91.979z"/>
	</g>
	<g>
		<polygon style="fill:#404040;" points="18.877,91.001 17.108,91.001 16.261,52.532 16.255,52.356 17.353,51.02 18.094,46.898 
			18.094,46.881 18.298,45.771 18.269,46.898 18.269,46.916 17.755,64.764 18.444,70.018 		"/>
	</g>
	<g>
		<path style="fill:#C0C0C0;" d="M40.963,91.979h-1.612c-0.621,0-1.128-0.508-1.128-1.129l0,0c0-0.62,0.507-1.128,1.128-1.128h1.612
			c0.62,0,1.128,0.508,1.128,1.128l0,0C42.091,91.471,41.583,91.979,40.963,91.979z"/>
	</g>
	<g>
		<path style="fill:#EAB99A;" d="M54.586,42.614L54.57,43.58l-0.086,7.216l-0.802,16.783l-0.07,1.425c0,0-1.074,1.931-2.203,2.017
			c-1.129,0.077-2.406-1.822-2.406-1.822l-0.202-1.619L46.638,50.08c0,0-0.226-3.379,1.354-6.5c0.164-0.327,0.342-0.646,0.553-0.966
			H54.586z"/>
	</g>
	<g>
		<path style="fill:#EAB99A;" d="M62.557,50.08l-2.172,17.499l-0.202,1.619c0,0-1.277,1.899-2.397,1.822
			c-1.129-0.086-2.211-2.017-2.211-2.017l-0.07-1.425L54.71,50.796l-0.093-7.216l-0.016-0.966h6.048
			c0.21,0.319,0.39,0.639,0.553,0.966C62.783,46.701,62.557,50.08,62.557,50.08z"/>
	</g>
	<g>
		<path style="fill:#EAB99A;" d="M48.328,35.054c0,0.007-0.007,0.013-0.007,0.02c-1.11,3.912-2.141,7.362-2.934,10.059
			c-0.132,0.469-0.265,0.919-0.383,1.342h-1.58c0.039-0.437,0.092-0.886,0.152-1.342c0.39-2.941,1.203-6.199,2.234-9.616
			L48.328,35.054z"/>
	</g>
	<g>
		<path style="fill:#EAB99A;" d="M44.977,47.239c-0.152-0.464,0.038-0.692,0.151-1.188c-0.566-0.012-1.065-0.291-1.632-0.3
			l-0.65,3.986c-0.032,0.129-0.096,0.512-0.017,0.619l2.204,2.389c0.109,0.149,0.245,0.034,0.424-0.014c0,0,0.592-0.277,0.223-0.602
			c-0.574-0.469-1.383-1.952-1.383-1.952c-0.002-0.24,0.051-0.188,0.246-0.979l0.42,0.36c0.166,0.248,0.083,1.317,0.083,1.317
			l0.318-0.216c0.043-0.028,0.075-0.069,0.092-0.118c0.072-0.199,0.271-0.709,0.252-0.772l-0.73-2.525
			C44.978,47.243,44.978,47.241,44.977,47.239z"/>
	</g>
	<g>
		<path style="fill:#EAB99A;" d="M49.002,22.338c0,0.152-0.033,1.666-0.105,3.655c-0.046,1.262-0.112,2.723-0.185,4.15
			c-0.007,0.046-0.007,0.086-0.007,0.132c-0.099,1.811-0.225,3.562-0.376,4.778v0.02h-0.007l-2.511,0.442
			c-0.377-4.586-0.41-9.021,0-13.264c0-0.039,0.006-0.072,0.013-0.112c0.106-0.746,0.767-1.328,1.58-1.328
			c0.152,0,0.297,0.02,0.436,0.059C48.506,21.05,49.002,21.638,49.002,22.338z"/>
	</g>
	<g>
		<path style="fill:#EAB99A;" d="M65.504,46.474h-1.586c-0.119-0.423-0.251-0.873-0.383-1.342
			c-0.793-2.696-1.824-6.146-2.934-10.059c0-0.007-0.007-0.013-0.007-0.02l2.518,0.462c1.031,3.417,1.85,6.675,2.24,9.616
			C65.412,45.588,65.464,46.037,65.504,46.474z"/>
	</g>
	<g>
		<path style="fill:#EAB99A;" d="M63.946,47.239c0.152-0.464-0.038-0.692-0.151-1.188c0.566-0.012,1.065-0.291,1.632-0.3l0.65,3.986
			c0.032,0.129,0.096,0.512,0.017,0.619l-2.204,2.389c-0.109,0.149-0.245,0.034-0.424-0.014c0,0-0.592-0.277-0.223-0.602
			c0.574-0.469,1.383-1.952,1.383-1.952c0.002-0.24-0.051-0.188-0.246-0.979l-0.42,0.36c-0.165,0.248-0.082,1.317-0.082,1.317
			l-0.318-0.216c-0.043-0.028-0.075-0.069-0.092-0.118c-0.072-0.199-0.271-0.709-0.252-0.772l0.73-2.525
			C63.944,47.243,63.945,47.241,63.946,47.239z"/>
	</g>
	<g>
		<path style="fill:#EAB99A;" d="M63.112,35.516l-2.511-0.442h-0.007v-0.02c-0.152-1.203-0.271-2.921-0.37-4.712
			c0-0.021,0-0.033-0.007-0.053c-0.079-1.494-0.145-3.034-0.191-4.349c-0.073-1.963-0.106-3.45-0.106-3.603
			c0-0.707,0.502-1.302,1.183-1.474c0.132-0.033,0.271-0.053,0.417-0.053c0.813,0,1.48,0.582,1.58,1.328
			c0.006,0.04,0.02,0.073,0.013,0.112C63.522,26.495,63.488,30.93,63.112,35.516z"/>
	</g>
	<g>
		<path style="fill:#EAB99A;" d="M61.929,26.33c0.41,0.43,0.654,0.932,0.654,1.467c0,0.958-0.754,1.805-1.903,2.307
			c-0.02,0.013-0.033,0.02-0.053,0.026c-0.132,0.06-0.265,0.112-0.41,0.159c-0.039,0.013-0.079,0.026-0.119,0.039
			c-0.013,0.026-0.02,0.046-0.026,0.072v0.007c-1.751,4.355-1.976,7.653,0.555,12.035H48.672c2.511-4.356,2.313-7.64,0.588-11.956
			c-0.013-0.053-0.04-0.106-0.06-0.158c-0.172-0.053-0.331-0.112-0.489-0.185c-0.304-0.126-0.588-0.278-0.833-0.45
			c-0.72-0.495-1.163-1.163-1.163-1.896c0-0.535,0.245-1.037,0.654-1.467l-1.097-4.045c0-0.753,0.694-1.374,1.566-1.414
			c0.033-0.007,0.066-0.007,0.099-0.007h1.831c1.183-0.046,2.002-0.377,2.538-0.925c0.522-0.516,0.786-1.23,0.885-2.075h2.915
			c0.099,0.846,0.363,1.56,0.879,2.075c0.542,0.548,1.361,0.879,2.544,0.925h1.831c0.919,0,1.666,0.642,1.666,1.421L61.929,26.33z"
			/>
	</g>
	<g>
		<path style="fill:#F5C4A5;" d="M61.876,28.181c0,0.772-0.469,1.467-1.196,1.923c-0.02,0.013-0.033,0.02-0.053,0.026
			c-0.125,0.079-0.265,0.152-0.403,0.212c-0.053,0.026-0.099,0.046-0.152,0.059v0.007c-0.443,0.165-0.945,0.265-1.48,0.265
			c-1.817,0-3.291-1.117-3.291-2.491c0-1.375,1.474-2.492,3.291-2.492c0.516,0,0.998,0.093,1.434,0.252
			C61.123,26.343,61.876,27.195,61.876,28.181z"/>
	</g>
	<g>
		<path style="fill:#F5C4A5;" d="M53.774,28.181c0,1.374-1.474,2.491-3.291,2.491c-0.43,0-0.846-0.066-1.223-0.185
			c-0.198-0.053-0.383-0.125-0.555-0.211c-0.324-0.159-0.601-0.357-0.826-0.582c-0.429-0.423-0.681-0.944-0.681-1.513
			c0-0.938,0.688-1.758,1.699-2.188c0.469-0.192,1.011-0.305,1.586-0.305C52.3,25.688,53.774,26.806,53.774,28.181z"/>
	</g>
	<g>
		<path style="fill:#6D3C1F;" d="M60.731,12.112c-0.078-4.23-2.918-6.206-6.062-6.897c-0.003-0.001-0.007,0-0.01,0.001
			c-0.003-0.001-0.007-0.001-0.01-0.001c-2.936,0.272-5.641,2.681-6.062,6.897c-0.127,1.271,0.382,2.523,2.042,4.382h4.02h0.021
			h3.999C60.038,15.049,60.754,13.39,60.731,12.112z"/>
	</g>
	<g>
		<path style="fill:#5D2C10;" d="M50.628,16.494h8.04c0,0,1.762-5.703-0.995-7.539c-2.757-1.837-6.05,0-6.05,0
			S48.818,10.835,50.628,16.494L50.628,16.494z"/>
	</g>
	<g>
		<path style="fill:#EAB99A;" d="M58.67,12.421c0,2.908-1.784,6.424-4.005,6.424c-0.106,0-0.205-0.006-0.304-0.026
			c-2.082-0.297-3.734-3.621-3.734-6.397c0-2.782,1.632-5.056,3.714-5.26c0.099-0.007,0.198-0.014,0.304-0.014
			C56.866,7.148,58.67,9.507,58.67,12.421z"/>
	</g>
	<g>
		<path style="fill:#F5C4A5;" d="M58.062,12.421c0,2.776-1.626,6.101-3.701,6.397c-2.082-0.297-3.734-3.621-3.734-6.397
			c0-0.086,0-0.178,0.013-0.264c0.066-1.937,0.932-3.602,2.174-4.428c0.35-0.238,0.72-0.403,1.117-0.496l0.026-0.007
			c0.007-0.006,0.02-0.006,0.026-0.006c0.119-0.027,0.238-0.047,0.357-0.059c0.258,0.026,0.509,0.086,0.753,0.172
			c1.514,0.542,2.67,2.2,2.915,4.263C58.043,11.866,58.062,12.144,58.062,12.421z"/>
	</g>
	<g>
		<path style="fill:#6D3C1F;" d="M58.977,9.39c0,0-0.86,2.23-3.255,2.314c0,0,0.413,0,0.578-1.157c0,0-1.322,1.604-4.13,1.67
			c0,0,0.661-0.266,0.826-0.927l-2.644,1.26V9.39l3.883-3.47l3.717,1.026L58.977,9.39z"/>
	</g>
	<g>
		<path style="fill:#D5E5E6;" d="M60.594,35.073v-0.02c-0.152-1.203-0.271-2.921-0.37-4.712c-0.053,0.026-0.099,0.046-0.152,0.059
			v0.007c-1.751,4.355-1.976,7.653,0.555,12.035c0.568,0.872,0.971,1.797,1.249,2.689H47.37c0.278-0.893,0.681-1.817,1.249-2.689
			h0.053c2.511-4.356,2.313-7.64,0.588-11.956c-0.198-0.053-0.383-0.125-0.555-0.211c-0.099,1.811-0.225,3.562-0.376,4.778v0.02
			h-0.007c-1.11,3.912-2.141,7.362-2.934,10.059h-1.811c0.39-2.941,1.203-6.199,2.234-9.616c-0.377-4.586-0.41-9.021,0-13.264
			c0-0.039,0.006-0.072,0.013-0.112c0.106-0.746,0.767-1.328,1.58-1.328c0.152,0,0.297,0.02,0.436,0.059
			c0.033-0.007,0.066-0.007,0.099-0.007h1.831c1.183-0.046,2.002-0.377,2.538-0.925h4.679c0.542,0.548,1.361,0.879,2.544,0.925
			h1.573c0.132-0.033,0.271-0.053,0.417-0.053c0.813,0,1.48,0.582,1.58,1.328c0.006,0.04,0.02,0.073,0.013,0.112
			c0.41,4.243,0.376,8.678,0,13.264c1.031,3.417,1.85,6.675,2.24,9.616h-1.817c-0.793-2.696-1.824-6.146-2.934-10.059H60.594z"/>
	</g>
	<g>
		<path style="fill:#EAB99A;" d="M63.17,22.946l0.031-1.016c0.911,0.199,1.822,0.399,2.732,0.604l-0.393,1.077
			c-0.023,0.073-0.034,0.149-0.034,0.227l0.025,4.227c0.001,0.22-0.043,0.856-0.211,0.999l-3.135,2.171
			c-0.232,0.196-0.406-0.039-0.674-0.184c0,0-0.842-0.672-0.125-1.05c1.099-0.528,1.652-1.789,1.652-1.789
			c0.096-0.384-0.01-0.32-0.018-1.662l-0.851,0.718c-0.049,0.077-0.122,0.189-0.171,0.266l-0.428,1.51l-0.427-0.467
			c-0.058-0.063-0.093-0.141-0.102-0.226c-0.039-0.346-0.162-1.238-0.107-1.335l2.14-3.761
			C63.129,23.161,63.161,23.056,63.17,22.946z"/>
	</g>
	<g>
		<path style="fill:#EAB99A;" d="M4.496,59.456l0.289,0.394l1.475,1.109c0.094-0.268,0.171-0.509,0.155-0.562l-1.203-4.158
			c-0.03-0.104-0.037-0.214-0.02-0.322L5.4,54.921c-0.933-0.018-1.865-0.037-2.798-0.051l0.13,1.14
			c0.005,0.077-0.001,0.154-0.02,0.229L2.286,57.97l2.171,1.634C4.471,59.552,4.482,59.512,4.496,59.456z"/>
	</g>
	<g>
		<polygon style="fill:#F8BE49;" points="6.26,60.959 4.785,59.85 0,56.251 0,66.273 8.028,73.276 8.028,62.288 		"/>
	</g>
	<g>
		<polygon style="fill:#EF893A;" points="4.458,59.604 4.496,59.456 8.296,62.238 8.296,73.276 8.028,73.276 8.028,62.288 		"/>
	</g>
	<g>
		<path style="fill:#EAB99A;" d="M1.651,61.308l2.542,2.843c0.18,0.245,0.404,0.057,0.698-0.021c0,0,0.976-0.457,0.367-0.992
			c-0.945-0.771-1.188-2.126-1.188-2.126c-0.004-0.378,0.079-0.329,0.367-1.464l-2.171-1.633L1.68,60.286
			C1.627,60.5,1.521,61.13,1.651,61.308z"/>
	</g>
	<g>
		<polygon style="fill:#EF893A;" points="0,56.251 0.23,56.251 2.286,57.764 2.286,57.97 		"/>
	</g>
	<g>
		<path style="fill:#C0C0C0;" d="M6.464,19.899l2.66,7.46L6.659,42.734c0,0-0.908,0.389-1.881,0.324
			c-0.973-0.065-2.206-1.428-2.206-1.428l2.141-20.239C4.906,20.732,5.564,20.266,6.464,19.899z"/>
	</g>
	<g>
		<polygon style="fill:#C0C0C0;" points="6.724,42.604 6.464,48.248 5.297,56.162 2.507,56.227 2.572,41.631 5.621,41.437 		"/>
	</g>
	<g>
		<path style="fill:#EAB99A;" d="M7.107,20.411l0.513-0.877c-0.878-0.314-1.756-0.629-2.636-0.939l-0.239,1.121
			c-0.02,0.075-0.05,0.146-0.092,0.211l-2.266,3.567c-0.118,0.186-0.419,0.749-0.352,0.958l1.502,3.505
			c0.093,0.29,0.365,0.183,0.669,0.203c0,0,1.07-0.123,0.664-0.824c-0.65-1.031-0.449-2.394-0.449-2.394
			c0.122-0.376,0.178-0.266,0.897-1.398l0.34,1.06c0.001,0.091,0.003,0.226,0.004,0.316l-0.44,1.506l0.61-0.169
			c0.082-0.022,0.153-0.069,0.206-0.136c0.217-0.273,0.795-0.965,0.8-1.075l0.185-4.323C7.027,20.614,7.056,20.508,7.107,20.411z"/>
	</g>
	<g>
		<path style="fill:#505050;" d="M62.557,50.08l-2.172,17.499H48.802L46.638,50.08c0,0-0.226-3.379,1.354-6.5h13.21
			C62.783,46.701,62.557,50.08,62.557,50.08z"/>
	</g>
	<g>
		<rect x="16.183" y="19.291" style="fill:#A0A0A0;" width="0.387" height="24.038"/>
	</g>
</g>
</svg>
